<svg width="480" height="280" viewBox="0 0 480 280" fill="none" xmlns="http://www.w3.org/2000/svg">
<rect width="480" height="280" fill="#0C0C0C"/>
<g filter="url(#filter0_d_1053_222)">
<mask id="path-1-outside-1_1053_222" maskUnits="userSpaceOnUse" x="38" y="113.147" width="403" height="54" fill="black">
<rect fill="white" x="38" y="113.147" width="403" height="54"/>
<path d="M76.2784 165.148L73.8129 155.709H57.47L54.934 165.148H40L56.4134 114.64H74.5173L91.142 165.148H76.2784ZM68.8114 136.337C68.5766 135.445 68.2479 134.177 67.8252 132.533C67.4025 130.842 66.9799 129.105 66.5572 127.32C66.1346 125.536 65.8058 124.08 65.571 122.953C65.3832 124.08 65.0779 125.489 64.6552 127.179C64.2795 128.87 63.8804 130.537 63.4577 132.181C63.082 133.824 62.7533 135.21 62.4715 136.337L60.2877 144.579H70.9952L68.8114 136.337Z"/>
<path d="M113.937 114.852C120.323 114.852 125.09 116.237 128.237 119.008C131.43 121.779 133.027 125.723 133.027 130.842C133.027 133.143 132.698 135.351 132.041 137.464C131.383 139.53 130.303 141.409 128.8 143.1C127.344 144.743 125.395 146.058 122.953 147.044C120.511 147.984 117.506 148.453 113.937 148.453H110.133V165.148H96.537V114.852H113.937ZM113.655 125.841H110.133V137.394H112.809C113.984 137.394 115.064 137.206 116.05 136.83C117.083 136.407 117.905 135.75 118.515 134.858C119.126 133.918 119.431 132.697 119.431 131.195C119.431 129.598 118.962 128.306 118.022 127.32C117.083 126.334 115.627 125.841 113.655 125.841Z"/>
<path d="M164.222 165.148H138.017V157.4L144.286 155.004V124.925L138.017 122.6V114.852H164.222V122.6L157.952 124.925V155.004L164.222 157.4V165.148Z"/>
<path d="M212.771 125.277C211.174 125.277 209.742 125.63 208.474 126.334C207.206 126.991 206.126 127.978 205.234 129.293C204.341 130.561 203.66 132.11 203.191 133.942C202.721 135.773 202.486 137.863 202.486 140.211C202.486 143.358 202.886 146.011 203.684 148.171C204.482 150.332 205.703 151.975 207.347 153.103C208.991 154.183 211.057 154.723 213.546 154.723C215.753 154.723 217.89 154.417 219.956 153.807C222.07 153.196 224.183 152.445 226.296 151.553V163.035C224.089 164.021 221.811 164.726 219.463 165.148C217.162 165.618 214.697 165.853 212.067 165.853C206.619 165.853 202.158 164.773 198.682 162.612C195.207 160.452 192.648 157.447 191.004 153.596C189.36 149.698 188.539 145.213 188.539 140.141C188.539 136.337 189.055 132.862 190.088 129.715C191.168 126.522 192.742 123.775 194.808 121.473C196.874 119.125 199.41 117.317 202.416 116.049C205.468 114.781 208.967 114.147 212.912 114.147C215.354 114.147 217.913 114.429 220.59 114.993C223.267 115.556 225.897 116.448 228.48 117.669L224.324 128.377C222.492 127.485 220.637 126.757 218.759 126.193C216.88 125.583 214.884 125.277 212.771 125.277Z"/>
<path d="M236.117 165.148V114.852H249.713V154.159H269.085V165.148H236.117Z"/>
<path d="M300.293 165.148H274.088V157.4L280.358 155.004V124.925L274.088 122.6V114.852H300.293V122.6L294.024 124.925V155.004L300.293 157.4V165.148Z"/>
<path d="M338.011 165.148H308.143V114.852H338.011V125.77H321.738V133.66H336.813V144.579H321.738V154.089H338.011V165.148Z"/>
<path d="M394.706 165.148H376.884L358.498 129.715H358.216C358.31 130.514 358.381 131.453 358.427 132.533C358.521 133.613 358.592 134.74 358.639 135.914C358.686 137.088 358.733 138.239 358.78 139.366C358.827 140.493 358.85 141.526 358.85 142.466V165.148H346.804V114.852H364.556L382.871 149.792H383.083C383.036 148.993 382.965 148.078 382.871 147.044C382.824 145.964 382.777 144.884 382.73 143.804C382.684 142.677 382.637 141.573 382.59 140.493C382.59 139.413 382.59 138.45 382.59 137.605V114.852H394.706V165.148Z"/>
<path d="M427.743 165.148H414.147V125.982H401.89V114.852H440V125.982H427.743V165.148Z"/>
</mask>
<path d="M76.2784 165.148L73.8129 155.709H57.47L54.934 165.148H40L56.4134 114.64H74.5173L91.142 165.148H76.2784ZM68.8114 136.337C68.5766 135.445 68.2479 134.177 67.8252 132.533C67.4025 130.842 66.9799 129.105 66.5572 127.32C66.1346 125.536 65.8058 124.08 65.571 122.953C65.3832 124.08 65.0779 125.489 64.6552 127.179C64.2795 128.87 63.8804 130.537 63.4577 132.181C63.082 133.824 62.7533 135.21 62.4715 136.337L60.2877 144.579H70.9952L68.8114 136.337Z" fill="black"/>
<path d="M113.937 114.852C120.323 114.852 125.09 116.237 128.237 119.008C131.43 121.779 133.027 125.723 133.027 130.842C133.027 133.143 132.698 135.351 132.041 137.464C131.383 139.53 130.303 141.409 128.8 143.1C127.344 144.743 125.395 146.058 122.953 147.044C120.511 147.984 117.506 148.453 113.937 148.453H110.133V165.148H96.537V114.852H113.937ZM113.655 125.841H110.133V137.394H112.809C113.984 137.394 115.064 137.206 116.05 136.83C117.083 136.407 117.905 135.75 118.515 134.858C119.126 133.918 119.431 132.697 119.431 131.195C119.431 129.598 118.962 128.306 118.022 127.32C117.083 126.334 115.627 125.841 113.655 125.841Z" fill="black"/>
<path d="M164.222 165.148H138.017V157.4L144.286 155.004V124.925L138.017 122.6V114.852H164.222V122.6L157.952 124.925V155.004L164.222 157.4V165.148Z" fill="black"/>
<path d="M212.771 125.277C211.174 125.277 209.742 125.63 208.474 126.334C207.206 126.991 206.126 127.978 205.234 129.293C204.341 130.561 203.66 132.11 203.191 133.942C202.721 135.773 202.486 137.863 202.486 140.211C202.486 143.358 202.886 146.011 203.684 148.171C204.482 150.332 205.703 151.975 207.347 153.103C208.991 154.183 211.057 154.723 213.546 154.723C215.753 154.723 217.89 154.417 219.956 153.807C222.07 153.196 224.183 152.445 226.296 151.553V163.035C224.089 164.021 221.811 164.726 219.463 165.148C217.162 165.618 214.697 165.853 212.067 165.853C206.619 165.853 202.158 164.773 198.682 162.612C195.207 160.452 192.648 157.447 191.004 153.596C189.36 149.698 188.539 145.213 188.539 140.141C188.539 136.337 189.055 132.862 190.088 129.715C191.168 126.522 192.742 123.775 194.808 121.473C196.874 119.125 199.41 117.317 202.416 116.049C205.468 114.781 208.967 114.147 212.912 114.147C215.354 114.147 217.913 114.429 220.59 114.993C223.267 115.556 225.897 116.448 228.48 117.669L224.324 128.377C222.492 127.485 220.637 126.757 218.759 126.193C216.88 125.583 214.884 125.277 212.771 125.277Z" fill="black"/>
<path d="M236.117 165.148V114.852H249.713V154.159H269.085V165.148H236.117Z" fill="black"/>
<path d="M300.293 165.148H274.088V157.4L280.358 155.004V124.925L274.088 122.6V114.852H300.293V122.6L294.024 124.925V155.004L300.293 157.4V165.148Z" fill="black"/>
<path d="M338.011 165.148H308.143V114.852H338.011V125.77H321.738V133.66H336.813V144.579H321.738V154.089H338.011V165.148Z" fill="black"/>
<path d="M394.706 165.148H376.884L358.498 129.715H358.216C358.31 130.514 358.381 131.453 358.427 132.533C358.521 133.613 358.592 134.74 358.639 135.914C358.686 137.088 358.733 138.239 358.78 139.366C358.827 140.493 358.85 141.526 358.85 142.466V165.148H346.804V114.852H364.556L382.871 149.792H383.083C383.036 148.993 382.965 148.078 382.871 147.044C382.824 145.964 382.777 144.884 382.73 143.804C382.684 142.677 382.637 141.573 382.59 140.493C382.59 139.413 382.59 138.45 382.59 137.605V114.852H394.706V165.148Z" fill="black"/>
<path d="M427.743 165.148H414.147V125.982H401.89V114.852H440V125.982H427.743V165.148Z" fill="black"/>
<path d="M76.2784 165.148L73.8129 155.709H57.47L54.934 165.148H40L56.4134 114.64H74.5173L91.142 165.148H76.2784ZM68.8114 136.337C68.5766 135.445 68.2479 134.177 67.8252 132.533C67.4025 130.842 66.9799 129.105 66.5572 127.32C66.1346 125.536 65.8058 124.08 65.571 122.953C65.3832 124.08 65.0779 125.489 64.6552 127.179C64.2795 128.87 63.8804 130.537 63.4577 132.181C63.082 133.824 62.7533 135.21 62.4715 136.337L60.2877 144.579H70.9952L68.8114 136.337Z" stroke="#00FF85" stroke-width="2" mask="url(#path-1-outside-1_1053_222)"/>
<path d="M113.937 114.852C120.323 114.852 125.09 116.237 128.237 119.008C131.43 121.779 133.027 125.723 133.027 130.842C133.027 133.143 132.698 135.351 132.041 137.464C131.383 139.53 130.303 141.409 128.8 143.1C127.344 144.743 125.395 146.058 122.953 147.044C120.511 147.984 117.506 148.453 113.937 148.453H110.133V165.148H96.537V114.852H113.937ZM113.655 125.841H110.133V137.394H112.809C113.984 137.394 115.064 137.206 116.05 136.83C117.083 136.407 117.905 135.75 118.515 134.858C119.126 133.918 119.431 132.697 119.431 131.195C119.431 129.598 118.962 128.306 118.022 127.32C117.083 126.334 115.627 125.841 113.655 125.841Z" stroke="#00FF85" stroke-width="2" mask="url(#path-1-outside-1_1053_222)"/>
<path d="M164.222 165.148H138.017V157.4L144.286 155.004V124.925L138.017 122.6V114.852H164.222V122.6L157.952 124.925V155.004L164.222 157.4V165.148Z" stroke="#00FF85" stroke-width="2" mask="url(#path-1-outside-1_1053_222)"/>
<path d="M212.771 125.277C211.174 125.277 209.742 125.63 208.474 126.334C207.206 126.991 206.126 127.978 205.234 129.293C204.341 130.561 203.66 132.11 203.191 133.942C202.721 135.773 202.486 137.863 202.486 140.211C202.486 143.358 202.886 146.011 203.684 148.171C204.482 150.332 205.703 151.975 207.347 153.103C208.991 154.183 211.057 154.723 213.546 154.723C215.753 154.723 217.89 154.417 219.956 153.807C222.07 153.196 224.183 152.445 226.296 151.553V163.035C224.089 164.021 221.811 164.726 219.463 165.148C217.162 165.618 214.697 165.853 212.067 165.853C206.619 165.853 202.158 164.773 198.682 162.612C195.207 160.452 192.648 157.447 191.004 153.596C189.36 149.698 188.539 145.213 188.539 140.141C188.539 136.337 189.055 132.862 190.088 129.715C191.168 126.522 192.742 123.775 194.808 121.473C196.874 119.125 199.41 117.317 202.416 116.049C205.468 114.781 208.967 114.147 212.912 114.147C215.354 114.147 217.913 114.429 220.59 114.993C223.267 115.556 225.897 116.448 228.48 117.669L224.324 128.377C222.492 127.485 220.637 126.757 218.759 126.193C216.88 125.583 214.884 125.277 212.771 125.277Z" stroke="#00FF85" stroke-width="2" mask="url(#path-1-outside-1_1053_222)"/>
<path d="M236.117 165.148V114.852H249.713V154.159H269.085V165.148H236.117Z" stroke="#00FF85" stroke-width="2" mask="url(#path-1-outside-1_1053_222)"/>
<path d="M300.293 165.148H274.088V157.4L280.358 155.004V124.925L274.088 122.6V114.852H300.293V122.6L294.024 124.925V155.004L300.293 157.4V165.148Z" stroke="#00FF85" stroke-width="2" mask="url(#path-1-outside-1_1053_222)"/>
<path d="M338.011 165.148H308.143V114.852H338.011V125.77H321.738V133.66H336.813V144.579H321.738V154.089H338.011V165.148Z" stroke="#00FF85" stroke-width="2" mask="url(#path-1-outside-1_1053_222)"/>
<path d="M394.706 165.148H376.884L358.498 129.715H358.216C358.31 130.514 358.381 131.453 358.427 132.533C358.521 133.613 358.592 134.74 358.639 135.914C358.686 137.088 358.733 138.239 358.78 139.366C358.827 140.493 358.85 141.526 358.85 142.466V165.148H346.804V114.852H364.556L382.871 149.792H383.083C383.036 148.993 382.965 148.078 382.871 147.044C382.824 145.964 382.777 144.884 382.73 143.804C382.684 142.677 382.637 141.573 382.59 140.493C382.59 139.413 382.59 138.45 382.59 137.605V114.852H394.706V165.148Z" stroke="#00FF85" stroke-width="2" mask="url(#path-1-outside-1_1053_222)"/>
<path d="M427.743 165.148H414.147V125.982H401.89V114.852H440V125.982H427.743V165.148Z" stroke="#00FF85" stroke-width="2" mask="url(#path-1-outside-1_1053_222)"/>
</g>
<defs>
<filter id="filter0_d_1053_222" x="22.624" y="97.1472" width="434.376" height="85.7056" filterUnits="userSpaceOnUse" color-interpolation-filters="sRGB">
<feFlood flood-opacity="0" result="BackgroundImageFix"/>
<feColorMatrix in="SourceAlpha" type="matrix" values="0 0 0 0 0 0 0 0 0 0 0 0 0 0 0 0 0 0 127 0" result="hardAlpha"/>
<feOffset/>
<feGaussianBlur stdDeviation="8"/>
<feComposite in2="hardAlpha" operator="out"/>
<feColorMatrix type="matrix" values="0 0 0 0 0 0 0 0 0 1 0 0 0 0 0.521569 0 0 0 0.24 0"/>
<feBlend mode="normal" in2="BackgroundImageFix" result="effect1_dropShadow_1053_222"/>
<feBlend mode="normal" in="SourceGraphic" in2="effect1_dropShadow_1053_222" result="shape"/>
</filter>
</defs>
</svg>
