<svg width="480" height="280" viewBox="0 0 480 280" fill="none" xmlns="http://www.w3.org/2000/svg">
<rect width="480" height="280" fill="#0C0C0C"/>
<g filter="url(#filter0_d_1053_208)">
<mask id="path-1-outside-1_1053_208" maskUnits="userSpaceOnUse" x="39" y="109.097" width="403" height="62" fill="black">
<rect fill="white" x="39" y="109.097" width="403" height="62"/>
<path d="M60.4838 110.344C66.1326 110.344 70.6845 110.92 74.1396 112.071C77.5947 113.168 80.1174 114.814 81.7079 117.007C83.2983 119.146 84.0935 121.806 84.0935 124.987C84.0935 127.564 83.6274 129.758 82.695 131.568C81.7627 133.323 80.5836 134.721 79.1577 135.763C77.7866 136.805 76.3607 137.518 74.88 137.902V138.314C76.4704 138.698 78.0608 139.356 79.6513 140.288C81.2417 141.22 82.5579 142.619 83.6 144.483C84.6968 146.293 85.2452 148.761 85.2452 151.887C85.2452 155.452 84.3403 158.523 82.5305 161.101C80.7207 163.678 78.1431 165.653 74.7977 167.024C71.4523 168.395 67.4762 169.08 62.8694 169.08H40V110.344H60.4838ZM60.6483 132.884C63.2807 132.884 65.118 132.336 66.16 131.239C67.2568 130.142 67.8053 128.826 67.8053 127.29C67.8053 125.7 67.202 124.493 65.9954 123.671C64.7889 122.793 62.8968 122.354 60.3192 122.354H55.877V132.884H60.6483ZM55.877 144.483V156.823H61.4709C64.2131 156.823 66.1326 156.247 67.2294 155.095C68.3263 153.889 68.8747 152.381 68.8747 150.571C68.8747 149.529 68.6279 148.542 68.1343 147.609C67.6956 146.677 66.9003 145.937 65.7487 145.388C64.6518 144.785 63.1162 144.483 61.1419 144.483H55.877Z"/>
<path d="M130.312 169.08H95.4318V110.344H130.312V123.095H111.309V132.308H128.913V145.059H111.309V156.165H130.312V169.08Z"/>
<path d="M176.612 169.08L173.733 158.057H154.648L151.686 169.08H134.246L153.414 110.097H174.556L193.97 169.08H176.612ZM167.892 135.434C167.618 134.392 167.234 132.912 166.741 130.992C166.247 129.018 165.753 126.989 165.26 124.905C164.766 122.821 164.382 121.12 164.108 119.804C163.889 121.12 163.532 122.766 163.039 124.74C162.6 126.714 162.134 128.661 161.64 130.581C161.202 132.5 160.818 134.118 160.489 135.434L157.938 145.059H170.443L167.892 135.434Z"/>
<path d="M250.205 145.717C250.205 150.653 249.272 154.931 247.408 158.551C245.543 162.17 242.719 164.967 238.934 166.942C235.205 168.916 230.516 169.903 224.867 169.903C216.751 169.903 210.553 167.846 206.276 163.733C202.053 159.565 199.941 153.67 199.941 146.046V110.344H215.9V144.812C215.9 148.981 216.668 151.997 218.204 153.862C219.794 155.726 222.098 156.659 225.114 156.659C227.308 156.659 229.063 156.247 230.379 155.425C231.75 154.602 232.737 153.313 233.34 151.558C233.999 149.803 234.328 147.527 234.328 144.73V110.344H250.205V145.717Z"/>
<path d="M288.444 169.08H272.567V123.342H258.253V110.344H302.758V123.342H288.444V169.08Z"/>
<path d="M338.199 169.08H307.597V160.031L314.918 157.234V122.108L307.597 119.393V110.344H338.199V119.393L330.877 122.108V157.234L338.199 160.031V169.08Z"/>
<path d="M362.996 169.08H347.366V110.344H382.081V123.095H362.996V134.283H380.6V147.034H362.996V169.08Z"/>
<path d="M412.688 132.144L422.807 110.344H440L420.668 146.129V169.08H404.709V146.622L385.377 110.344H402.652L412.688 132.144Z"/>
</mask>
<path d="M60.4838 110.344C66.1326 110.344 70.6845 110.92 74.1396 112.071C77.5947 113.168 80.1174 114.814 81.7079 117.007C83.2983 119.146 84.0935 121.806 84.0935 124.987C84.0935 127.564 83.6274 129.758 82.695 131.568C81.7627 133.323 80.5836 134.721 79.1577 135.763C77.7866 136.805 76.3607 137.518 74.88 137.902V138.314C76.4704 138.698 78.0608 139.356 79.6513 140.288C81.2417 141.22 82.5579 142.619 83.6 144.483C84.6968 146.293 85.2452 148.761 85.2452 151.887C85.2452 155.452 84.3403 158.523 82.5305 161.101C80.7207 163.678 78.1431 165.653 74.7977 167.024C71.4523 168.395 67.4762 169.08 62.8694 169.08H40V110.344H60.4838ZM60.6483 132.884C63.2807 132.884 65.118 132.336 66.16 131.239C67.2568 130.142 67.8053 128.826 67.8053 127.29C67.8053 125.7 67.202 124.493 65.9954 123.671C64.7889 122.793 62.8968 122.354 60.3192 122.354H55.877V132.884H60.6483ZM55.877 144.483V156.823H61.4709C64.2131 156.823 66.1326 156.247 67.2294 155.095C68.3263 153.889 68.8747 152.381 68.8747 150.571C68.8747 149.529 68.6279 148.542 68.1343 147.609C67.6956 146.677 66.9003 145.937 65.7487 145.388C64.6518 144.785 63.1162 144.483 61.1419 144.483H55.877Z" fill="black"/>
<path d="M130.312 169.08H95.4318V110.344H130.312V123.095H111.309V132.308H128.913V145.059H111.309V156.165H130.312V169.08Z" fill="black"/>
<path d="M176.612 169.08L173.733 158.057H154.648L151.686 169.08H134.246L153.414 110.097H174.556L193.97 169.08H176.612ZM167.892 135.434C167.618 134.392 167.234 132.912 166.741 130.992C166.247 129.018 165.753 126.989 165.26 124.905C164.766 122.821 164.382 121.12 164.108 119.804C163.889 121.12 163.532 122.766 163.039 124.74C162.6 126.714 162.134 128.661 161.64 130.581C161.202 132.5 160.818 134.118 160.489 135.434L157.938 145.059H170.443L167.892 135.434Z" fill="black"/>
<path d="M250.205 145.717C250.205 150.653 249.272 154.931 247.408 158.551C245.543 162.17 242.719 164.967 238.934 166.942C235.205 168.916 230.516 169.903 224.867 169.903C216.751 169.903 210.553 167.846 206.276 163.733C202.053 159.565 199.941 153.67 199.941 146.046V110.344H215.9V144.812C215.9 148.981 216.668 151.997 218.204 153.862C219.794 155.726 222.098 156.659 225.114 156.659C227.308 156.659 229.063 156.247 230.379 155.425C231.75 154.602 232.737 153.313 233.34 151.558C233.999 149.803 234.328 147.527 234.328 144.73V110.344H250.205V145.717Z" fill="black"/>
<path d="M288.444 169.08H272.567V123.342H258.253V110.344H302.758V123.342H288.444V169.08Z" fill="black"/>
<path d="M338.199 169.08H307.597V160.031L314.918 157.234V122.108L307.597 119.393V110.344H338.199V119.393L330.877 122.108V157.234L338.199 160.031V169.08Z" fill="black"/>
<path d="M362.996 169.08H347.366V110.344H382.081V123.095H362.996V134.283H380.6V147.034H362.996V169.08Z" fill="black"/>
<path d="M412.688 132.144L422.807 110.344H440L420.668 146.129V169.08H404.709V146.622L385.377 110.344H402.652L412.688 132.144Z" fill="black"/>
<path d="M60.4838 110.344C66.1326 110.344 70.6845 110.92 74.1396 112.071C77.5947 113.168 80.1174 114.814 81.7079 117.007C83.2983 119.146 84.0935 121.806 84.0935 124.987C84.0935 127.564 83.6274 129.758 82.695 131.568C81.7627 133.323 80.5836 134.721 79.1577 135.763C77.7866 136.805 76.3607 137.518 74.88 137.902V138.314C76.4704 138.698 78.0608 139.356 79.6513 140.288C81.2417 141.22 82.5579 142.619 83.6 144.483C84.6968 146.293 85.2452 148.761 85.2452 151.887C85.2452 155.452 84.3403 158.523 82.5305 161.101C80.7207 163.678 78.1431 165.653 74.7977 167.024C71.4523 168.395 67.4762 169.08 62.8694 169.08H40V110.344H60.4838ZM60.6483 132.884C63.2807 132.884 65.118 132.336 66.16 131.239C67.2568 130.142 67.8053 128.826 67.8053 127.29C67.8053 125.7 67.202 124.493 65.9954 123.671C64.7889 122.793 62.8968 122.354 60.3192 122.354H55.877V132.884H60.6483ZM55.877 144.483V156.823H61.4709C64.2131 156.823 66.1326 156.247 67.2294 155.095C68.3263 153.889 68.8747 152.381 68.8747 150.571C68.8747 149.529 68.6279 148.542 68.1343 147.609C67.6956 146.677 66.9003 145.937 65.7487 145.388C64.6518 144.785 63.1162 144.483 61.1419 144.483H55.877Z" stroke="#00FF85" stroke-width="2" mask="url(#path-1-outside-1_1053_208)"/>
<path d="M130.312 169.08H95.4318V110.344H130.312V123.095H111.309V132.308H128.913V145.059H111.309V156.165H130.312V169.08Z" stroke="#00FF85" stroke-width="2" mask="url(#path-1-outside-1_1053_208)"/>
<path d="M176.612 169.08L173.733 158.057H154.648L151.686 169.08H134.246L153.414 110.097H174.556L193.97 169.08H176.612ZM167.892 135.434C167.618 134.392 167.234 132.912 166.741 130.992C166.247 129.018 165.753 126.989 165.26 124.905C164.766 122.821 164.382 121.12 164.108 119.804C163.889 121.12 163.532 122.766 163.039 124.74C162.6 126.714 162.134 128.661 161.64 130.581C161.202 132.5 160.818 134.118 160.489 135.434L157.938 145.059H170.443L167.892 135.434Z" stroke="#00FF85" stroke-width="2" mask="url(#path-1-outside-1_1053_208)"/>
<path d="M250.205 145.717C250.205 150.653 249.272 154.931 247.408 158.551C245.543 162.17 242.719 164.967 238.934 166.942C235.205 168.916 230.516 169.903 224.867 169.903C216.751 169.903 210.553 167.846 206.276 163.733C202.053 159.565 199.941 153.67 199.941 146.046V110.344H215.9V144.812C215.9 148.981 216.668 151.997 218.204 153.862C219.794 155.726 222.098 156.659 225.114 156.659C227.308 156.659 229.063 156.247 230.379 155.425C231.75 154.602 232.737 153.313 233.34 151.558C233.999 149.803 234.328 147.527 234.328 144.73V110.344H250.205V145.717Z" stroke="#00FF85" stroke-width="2" mask="url(#path-1-outside-1_1053_208)"/>
<path d="M288.444 169.08H272.567V123.342H258.253V110.344H302.758V123.342H288.444V169.08Z" stroke="#00FF85" stroke-width="2" mask="url(#path-1-outside-1_1053_208)"/>
<path d="M338.199 169.08H307.597V160.031L314.918 157.234V122.108L307.597 119.393V110.344H338.199V119.393L330.877 122.108V157.234L338.199 160.031V169.08Z" stroke="#00FF85" stroke-width="2" mask="url(#path-1-outside-1_1053_208)"/>
<path d="M362.996 169.08H347.366V110.344H382.081V123.095H362.996V134.283H380.6V147.034H362.996V169.08Z" stroke="#00FF85" stroke-width="2" mask="url(#path-1-outside-1_1053_208)"/>
<path d="M412.688 132.144L422.807 110.344H440L420.668 146.129V169.08H404.709V146.622L385.377 110.344H402.652L412.688 132.144Z" stroke="#00FF85" stroke-width="2" mask="url(#path-1-outside-1_1053_208)"/>
</g>
<defs>
<filter id="filter0_d_1053_208" x="23" y="93.097" width="434.677" height="93.806" filterUnits="userSpaceOnUse" color-interpolation-filters="sRGB">
<feFlood flood-opacity="0" result="BackgroundImageFix"/>
<feColorMatrix in="SourceAlpha" type="matrix" values="0 0 0 0 0 0 0 0 0 0 0 0 0 0 0 0 0 0 127 0" result="hardAlpha"/>
<feOffset/>
<feGaussianBlur stdDeviation="8"/>
<feComposite in2="hardAlpha" operator="out"/>
<feColorMatrix type="matrix" values="0 0 0 0 0 0 0 0 0 1 0 0 0 0 0.521569 0 0 0 0.24 0"/>
<feBlend mode="normal" in2="BackgroundImageFix" result="effect1_dropShadow_1053_208"/>
<feBlend mode="normal" in="SourceGraphic" in2="effect1_dropShadow_1053_208" result="shape"/>
</filter>
</defs>
</svg>
