<svg width="480" height="280" viewBox="0 0 480 280" fill="none" xmlns="http://www.w3.org/2000/svg">
<rect width="480" height="280" fill="#0C0C0C"/>
<g filter="url(#filter0_d_1053_194)">
<mask id="path-1-outside-1_1053_194" maskUnits="userSpaceOnUse" x="39" y="119" width="402" height="42" fill="black">
<rect fill="white" x="39" y="119" width="402" height="42"/>
<path d="M53.6895 128.386C55.9579 128.386 57.8043 129.016 59.2286 130.276C60.6529 131.535 61.3651 133.57 61.3651 136.378V150.551H53.8082V138.661C53.8082 137.218 53.5972 136.129 53.1751 135.394C52.7531 134.659 52.0805 134.291 51.1573 134.291C49.733 134.291 48.7702 134.869 48.2691 136.024C47.7943 137.178 47.5569 138.845 47.5569 141.024V150.551H40V128.78H45.6974L46.7261 131.654H47.003C47.4778 130.971 48.0317 130.394 48.6647 129.921C49.3242 129.423 50.0627 129.042 50.8804 128.78C51.7244 128.517 52.6608 128.386 53.6895 128.386Z"/>
<path d="M79.8784 128.386C82.3051 128.386 84.2042 129.357 85.5758 131.299C86.9474 133.215 87.6332 135.984 87.6332 139.606C87.6332 142.073 87.2771 144.16 86.5649 145.866C85.8791 147.546 84.9296 148.819 83.7162 149.685C82.5293 150.525 81.1709 150.945 79.641 150.945C78.6124 150.945 77.7419 150.814 77.0298 150.551C76.3176 150.289 75.7241 149.974 75.2493 149.606C74.7745 149.213 74.3789 148.819 74.0624 148.425H73.825C73.8777 148.924 73.9305 149.462 73.9832 150.039C74.036 150.617 74.0624 151.286 74.0624 152.047V160H66.5055V128.78H72.638L73.7063 131.535H74.0624C74.4316 130.958 74.8669 130.433 75.368 129.961C75.8956 129.488 76.5286 129.108 77.2671 128.819C78.0057 128.53 78.8761 128.386 79.8784 128.386ZM77.0298 134.291C76.2912 134.291 75.7109 134.475 75.2889 134.843C74.8669 135.184 74.5635 135.696 74.3789 136.378C74.1943 137.06 74.0888 137.927 74.0624 138.976V139.567C74.0624 140.722 74.1415 141.693 74.2998 142.48C74.4844 143.268 74.8009 143.871 75.2493 144.291C75.6977 144.685 76.3044 144.882 77.0693 144.882C77.7024 144.882 78.2299 144.711 78.6519 144.37C79.1003 144.003 79.43 143.425 79.641 142.638C79.8521 141.85 79.9576 140.814 79.9576 139.528C79.9576 137.612 79.707 136.26 79.2058 135.472C78.7047 134.685 77.9793 134.291 77.0298 134.291Z"/>
<path d="M118.635 128.386C121.141 128.386 123.054 129.016 124.372 130.276C125.691 131.535 126.351 133.57 126.351 136.378V150.551H118.794V138.701C118.794 137.047 118.569 135.906 118.121 135.276C117.673 134.619 117.013 134.291 116.143 134.291C114.93 134.291 114.085 134.829 113.611 135.906C113.136 136.955 112.899 138.451 112.899 140.394V150.551H105.342V138.701C105.342 137.651 105.249 136.811 105.065 136.181C104.88 135.525 104.603 135.052 104.234 134.764C103.865 134.449 103.39 134.291 102.809 134.291C101.939 134.291 101.253 134.554 100.752 135.079C100.277 135.604 99.9476 136.365 99.7629 137.362C99.5783 138.36 99.486 139.58 99.486 141.024V150.551H91.9291V128.78H97.6264L98.7342 131.457H98.9321C99.3277 130.853 99.8289 130.328 100.436 129.882C101.042 129.409 101.768 129.042 102.612 128.78C103.456 128.517 104.418 128.386 105.5 128.386C107.109 128.386 108.428 128.661 109.456 129.213C110.511 129.738 111.369 130.472 112.028 131.417H112.265C112.951 130.446 113.835 129.698 114.916 129.173C116.024 128.648 117.264 128.386 118.635 128.386Z"/>
<path d="M149.368 128.78V150.551H141.811V128.78H149.368ZM145.61 120C146.691 120 147.627 120.223 148.419 120.669C149.236 121.115 149.645 122.008 149.645 123.346C149.645 124.633 149.236 125.512 148.419 125.984C147.627 126.43 146.691 126.654 145.61 126.654C144.502 126.654 143.552 126.43 142.761 125.984C141.996 125.512 141.613 124.633 141.613 123.346C141.613 122.008 141.996 121.115 142.761 120.669C143.552 120.223 144.502 120 145.61 120Z"/>
<path d="M168.328 128.386C170.596 128.386 172.442 129.016 173.867 130.276C175.291 131.535 176.003 133.57 176.003 136.378V150.551H168.446V138.661C168.446 137.218 168.235 136.129 167.813 135.394C167.391 134.659 166.719 134.291 165.795 134.291C164.371 134.291 163.408 134.869 162.907 136.024C162.432 137.178 162.195 138.845 162.195 141.024V150.551H154.638V128.78H160.335L161.364 131.654H161.641C162.116 130.971 162.67 130.394 163.303 129.921C163.962 129.423 164.701 129.042 165.518 128.78C166.362 128.517 167.299 128.386 168.328 128.386Z"/>
<path d="M197.405 143.858C197.405 145.223 197.088 146.444 196.455 147.52C195.848 148.596 194.859 149.436 193.488 150.039C192.143 150.643 190.362 150.945 188.147 150.945C186.59 150.945 185.192 150.853 183.953 150.669C182.739 150.512 181.5 150.197 180.234 149.724V143.701C181.631 144.331 183.043 144.79 184.467 145.079C185.891 145.341 187.012 145.472 187.83 145.472C188.674 145.472 189.294 145.381 189.69 145.197C190.085 145.013 190.283 144.738 190.283 144.37C190.283 144.055 190.151 143.78 189.887 143.543C189.624 143.307 189.149 143.045 188.463 142.756C187.804 142.467 186.854 142.073 185.614 141.575C184.401 141.076 183.386 140.538 182.568 139.961C181.777 139.357 181.183 138.648 180.787 137.835C180.392 136.995 180.194 135.984 180.194 134.803C180.194 132.677 181.012 131.076 182.647 130C184.309 128.924 186.498 128.386 189.215 128.386C190.665 128.386 192.024 128.543 193.29 128.858C194.556 129.173 195.875 129.633 197.246 130.236L195.189 135.079C194.477 134.738 193.738 134.449 192.973 134.213C192.235 133.976 191.536 133.793 190.876 133.661C190.243 133.53 189.703 133.465 189.254 133.465C188.674 133.465 188.212 133.543 187.87 133.701C187.553 133.858 187.395 134.081 187.395 134.37C187.395 134.633 187.5 134.869 187.711 135.079C187.949 135.289 188.384 135.525 189.017 135.787C189.65 136.05 190.573 136.43 191.786 136.929C193.053 137.428 194.094 137.979 194.912 138.583C195.756 139.16 196.376 139.869 196.772 140.709C197.194 141.522 197.405 142.572 197.405 143.858Z"/>
<path d="M212.305 145C212.991 145 213.611 144.934 214.165 144.803C214.745 144.646 215.338 144.462 215.945 144.252V149.724C215.127 150.066 214.257 150.354 213.334 150.591C212.41 150.827 211.237 150.945 209.812 150.945C208.388 150.945 207.135 150.722 206.054 150.276C204.999 149.829 204.168 149.068 203.561 147.992C202.954 146.89 202.651 145.354 202.651 143.386V134.409H200V131.339L203.363 128.976L205.302 124.409H210.248V128.78H215.628V134.409H210.248V142.874C210.248 143.583 210.419 144.121 210.762 144.488C211.131 144.829 211.646 145 212.305 145Z"/>
<path d="M230.464 128.386C233.233 128.386 235.396 129.068 236.952 130.433C238.509 131.798 239.287 133.74 239.287 136.26V150.551H234.064L232.6 147.677H232.442C231.835 148.438 231.202 149.068 230.543 149.567C229.91 150.039 229.171 150.381 228.327 150.591C227.483 150.827 226.454 150.945 225.241 150.945C223.975 150.945 222.841 150.696 221.839 150.197C220.836 149.672 220.045 148.898 219.465 147.874C218.884 146.824 218.594 145.499 218.594 143.898C218.594 141.562 219.399 139.829 221.008 138.701C222.643 137.572 225.004 136.942 228.09 136.811L231.73 136.693V136.378C231.73 135.407 231.492 134.724 231.018 134.331C230.543 133.911 229.897 133.701 229.079 133.701C228.209 133.701 227.246 133.858 226.191 134.173C225.136 134.462 224.067 134.843 222.986 135.315L220.81 130.354C222.076 129.698 223.5 129.213 225.083 128.898C226.692 128.556 228.486 128.386 230.464 128.386ZM230.029 140.906C228.657 140.958 227.681 141.207 227.101 141.654C226.547 142.073 226.27 142.677 226.27 143.465C226.27 144.199 226.468 144.751 226.863 145.118C227.259 145.459 227.787 145.63 228.446 145.63C229.369 145.63 230.147 145.341 230.78 144.764C231.44 144.186 231.769 143.438 231.769 142.52V140.827L230.029 140.906Z"/>
<path d="M251.989 150.551H244.432V120.63H251.989V150.551Z"/>
<path d="M264.778 150.551H257.221V120.63H264.778V150.551Z"/>
<path d="M278.507 142.992V137.008H289.427V142.992H278.507Z"/>
<path d="M299.887 128.386C301.417 128.386 302.643 128.688 303.566 129.291C304.516 129.869 305.281 130.591 305.861 131.457H306.019L306.573 128.78H313.101V150.591C313.101 152.638 312.679 154.357 311.835 155.748C310.991 157.139 309.699 158.189 307.958 158.898C306.243 159.633 304.067 160 301.43 160C299.663 160 298.106 159.908 296.761 159.724C295.416 159.541 294.123 159.213 292.884 158.74V152.48C293.781 152.848 294.625 153.15 295.416 153.386C296.207 153.648 297.051 153.832 297.948 153.937C298.845 154.068 299.86 154.134 300.995 154.134C302.524 154.134 303.659 153.858 304.397 153.307C305.162 152.756 305.545 151.955 305.545 150.906V150.512C305.545 150.171 305.558 149.764 305.584 149.291C305.637 148.819 305.703 148.32 305.782 147.795H305.545C305.043 148.661 304.331 149.409 303.408 150.039C302.485 150.643 301.271 150.945 299.768 150.945C297.447 150.945 295.561 149.987 294.11 148.071C292.66 146.155 291.934 143.36 291.934 139.685C291.934 137.218 292.264 135.157 292.923 133.504C293.609 131.824 294.545 130.551 295.732 129.685C296.946 128.819 298.331 128.386 299.887 128.386ZM302.735 134.213C302.05 134.213 301.469 134.423 300.995 134.843C300.52 135.262 300.164 135.892 299.926 136.732C299.715 137.546 299.61 138.57 299.61 139.803C299.61 141.693 299.874 143.058 300.401 143.898C300.929 144.711 301.746 145.118 302.854 145.118C303.461 145.118 303.975 145.026 304.397 144.843C304.819 144.633 305.149 144.344 305.386 143.976C305.65 143.583 305.835 143.097 305.94 142.52C306.072 141.942 306.138 141.26 306.138 140.472V139.567C306.138 138.438 306.033 137.48 305.821 136.693C305.637 135.879 305.294 135.262 304.793 134.843C304.318 134.423 303.632 134.213 302.735 134.213Z"/>
<path d="M336.142 124.882C336.142 126.483 336.102 127.835 336.023 128.937C335.944 130.039 335.878 130.879 335.825 131.457H336.181C336.656 130.696 337.184 130.092 337.764 129.646C338.371 129.199 339.043 128.885 339.782 128.701C340.52 128.491 341.325 128.386 342.195 128.386C343.646 128.386 344.952 128.661 346.112 129.213C347.273 129.764 348.196 130.63 348.882 131.811C349.594 132.966 349.95 134.488 349.95 136.378V150.551H342.354V138.661C342.354 137.218 342.143 136.129 341.721 135.394C341.299 134.659 340.639 134.291 339.742 134.291C338.845 134.291 338.133 134.554 337.606 135.079C337.078 135.604 336.696 136.365 336.458 137.362C336.247 138.333 336.142 139.541 336.142 140.984V150.551H328.585V120.63H336.142V124.882Z"/>
<path d="M376.376 128.78V150.551H370.679L369.729 147.835H369.294C368.846 148.57 368.266 149.173 367.553 149.646C366.868 150.092 366.103 150.42 365.259 150.63C364.441 150.84 363.584 150.945 362.687 150.945C361.263 150.945 359.97 150.669 358.81 150.118C357.649 149.567 356.726 148.701 356.04 147.52C355.381 146.339 355.051 144.816 355.051 142.953V128.78H362.608V140.669C362.608 142.087 362.806 143.163 363.201 143.898C363.623 144.633 364.296 145 365.219 145C366.169 145 366.907 144.751 367.435 144.252C367.962 143.727 368.318 142.966 368.503 141.969C368.714 140.971 368.819 139.751 368.819 138.307V128.78H376.376Z"/>
<path d="M389.153 127.402C389.153 128.163 389.126 128.898 389.074 129.606C389.021 130.315 388.955 130.971 388.876 131.575H389.153C389.707 130.682 390.445 129.934 391.368 129.331C392.292 128.701 393.492 128.386 394.969 128.386C397.237 128.386 399.097 129.344 400.548 131.26C401.998 133.176 402.724 135.958 402.724 139.606C402.724 142.073 402.381 144.16 401.695 145.866C401.035 147.546 400.099 148.819 398.886 149.685C397.699 150.525 396.314 150.945 394.731 150.945C393.202 150.945 392.028 150.682 391.21 150.157C390.392 149.606 389.707 149.029 389.153 148.425H388.678L387.491 150.551H381.596V120.63H389.153V127.402ZM392.199 134.291C391.514 134.291 390.933 134.462 390.458 134.803C390.01 135.118 389.68 135.604 389.469 136.26C389.258 136.916 389.153 137.769 389.153 138.819V139.882C389.153 141.562 389.377 142.822 389.825 143.661C390.3 144.475 391.118 144.882 392.278 144.882C393.175 144.882 393.861 144.436 394.336 143.543C394.811 142.625 395.048 141.286 395.048 139.528C395.048 137.795 394.811 136.496 394.336 135.63C393.887 134.738 393.175 134.291 392.199 134.291Z"/>
<path d="M419.68 150.984C419.68 150.459 419.693 149.934 419.72 149.409C419.773 148.858 419.839 148.32 419.918 147.795H419.68C419.179 148.661 418.467 149.409 417.544 150.039C416.621 150.643 415.407 150.945 413.904 150.945C411.583 150.945 409.697 149.987 408.246 148.071C406.795 146.155 406.07 143.36 406.07 139.685C406.07 137.218 406.4 135.157 407.059 133.504C407.745 131.824 408.681 130.551 409.868 129.685C411.081 128.819 412.466 128.386 414.022 128.386C415.552 128.386 416.779 128.688 417.702 129.291C418.652 129.869 419.416 130.591 419.997 131.457H420.155L420.709 128.78H427.237V160H419.68V150.984ZM416.99 145.118C417.808 145.118 418.454 144.948 418.929 144.606C419.403 144.265 419.746 143.753 419.957 143.071C420.168 142.362 420.274 141.496 420.274 140.472V139.567C420.274 137.861 420.036 136.549 419.562 135.63C419.113 134.685 418.216 134.213 416.871 134.213C415.816 134.213 415.025 134.685 414.497 135.63C413.996 136.575 413.746 137.966 413.746 139.803C413.746 141.693 414.009 143.058 414.537 143.898C415.064 144.711 415.882 145.118 416.99 145.118Z"/>
<path d="M440 150.551H432.443V120.63H440V150.551Z"/>
</mask>
<path d="M53.6895 128.386C55.9579 128.386 57.8043 129.016 59.2286 130.276C60.6529 131.535 61.3651 133.57 61.3651 136.378V150.551H53.8082V138.661C53.8082 137.218 53.5972 136.129 53.1751 135.394C52.7531 134.659 52.0805 134.291 51.1573 134.291C49.733 134.291 48.7702 134.869 48.2691 136.024C47.7943 137.178 47.5569 138.845 47.5569 141.024V150.551H40V128.78H45.6974L46.7261 131.654H47.003C47.4778 130.971 48.0317 130.394 48.6647 129.921C49.3242 129.423 50.0627 129.042 50.8804 128.78C51.7244 128.517 52.6608 128.386 53.6895 128.386Z" fill="black"/>
<path d="M79.8784 128.386C82.3051 128.386 84.2042 129.357 85.5758 131.299C86.9474 133.215 87.6332 135.984 87.6332 139.606C87.6332 142.073 87.2771 144.16 86.5649 145.866C85.8791 147.546 84.9296 148.819 83.7162 149.685C82.5293 150.525 81.1709 150.945 79.641 150.945C78.6124 150.945 77.7419 150.814 77.0298 150.551C76.3176 150.289 75.7241 149.974 75.2493 149.606C74.7745 149.213 74.3789 148.819 74.0624 148.425H73.825C73.8777 148.924 73.9305 149.462 73.9832 150.039C74.036 150.617 74.0624 151.286 74.0624 152.047V160H66.5055V128.78H72.638L73.7063 131.535H74.0624C74.4316 130.958 74.8669 130.433 75.368 129.961C75.8956 129.488 76.5286 129.108 77.2671 128.819C78.0057 128.53 78.8761 128.386 79.8784 128.386ZM77.0298 134.291C76.2912 134.291 75.7109 134.475 75.2889 134.843C74.8669 135.184 74.5635 135.696 74.3789 136.378C74.1943 137.06 74.0888 137.927 74.0624 138.976V139.567C74.0624 140.722 74.1415 141.693 74.2998 142.48C74.4844 143.268 74.8009 143.871 75.2493 144.291C75.6977 144.685 76.3044 144.882 77.0693 144.882C77.7024 144.882 78.2299 144.711 78.6519 144.37C79.1003 144.003 79.43 143.425 79.641 142.638C79.8521 141.85 79.9576 140.814 79.9576 139.528C79.9576 137.612 79.707 136.26 79.2058 135.472C78.7047 134.685 77.9793 134.291 77.0298 134.291Z" fill="black"/>
<path d="M118.635 128.386C121.141 128.386 123.054 129.016 124.372 130.276C125.691 131.535 126.351 133.57 126.351 136.378V150.551H118.794V138.701C118.794 137.047 118.569 135.906 118.121 135.276C117.673 134.619 117.013 134.291 116.143 134.291C114.93 134.291 114.085 134.829 113.611 135.906C113.136 136.955 112.899 138.451 112.899 140.394V150.551H105.342V138.701C105.342 137.651 105.249 136.811 105.065 136.181C104.88 135.525 104.603 135.052 104.234 134.764C103.865 134.449 103.39 134.291 102.809 134.291C101.939 134.291 101.253 134.554 100.752 135.079C100.277 135.604 99.9476 136.365 99.7629 137.362C99.5783 138.36 99.486 139.58 99.486 141.024V150.551H91.9291V128.78H97.6264L98.7342 131.457H98.9321C99.3277 130.853 99.8289 130.328 100.436 129.882C101.042 129.409 101.768 129.042 102.612 128.78C103.456 128.517 104.418 128.386 105.5 128.386C107.109 128.386 108.428 128.661 109.456 129.213C110.511 129.738 111.369 130.472 112.028 131.417H112.265C112.951 130.446 113.835 129.698 114.916 129.173C116.024 128.648 117.264 128.386 118.635 128.386Z" fill="black"/>
<path d="M149.368 128.78V150.551H141.811V128.78H149.368ZM145.61 120C146.691 120 147.627 120.223 148.419 120.669C149.236 121.115 149.645 122.008 149.645 123.346C149.645 124.633 149.236 125.512 148.419 125.984C147.627 126.43 146.691 126.654 145.61 126.654C144.502 126.654 143.552 126.43 142.761 125.984C141.996 125.512 141.613 124.633 141.613 123.346C141.613 122.008 141.996 121.115 142.761 120.669C143.552 120.223 144.502 120 145.61 120Z" fill="black"/>
<path d="M168.328 128.386C170.596 128.386 172.442 129.016 173.867 130.276C175.291 131.535 176.003 133.57 176.003 136.378V150.551H168.446V138.661C168.446 137.218 168.235 136.129 167.813 135.394C167.391 134.659 166.719 134.291 165.795 134.291C164.371 134.291 163.408 134.869 162.907 136.024C162.432 137.178 162.195 138.845 162.195 141.024V150.551H154.638V128.78H160.335L161.364 131.654H161.641C162.116 130.971 162.67 130.394 163.303 129.921C163.962 129.423 164.701 129.042 165.518 128.78C166.362 128.517 167.299 128.386 168.328 128.386Z" fill="black"/>
<path d="M197.405 143.858C197.405 145.223 197.088 146.444 196.455 147.52C195.848 148.596 194.859 149.436 193.488 150.039C192.143 150.643 190.362 150.945 188.147 150.945C186.59 150.945 185.192 150.853 183.953 150.669C182.739 150.512 181.5 150.197 180.234 149.724V143.701C181.631 144.331 183.043 144.79 184.467 145.079C185.891 145.341 187.012 145.472 187.83 145.472C188.674 145.472 189.294 145.381 189.69 145.197C190.085 145.013 190.283 144.738 190.283 144.37C190.283 144.055 190.151 143.78 189.887 143.543C189.624 143.307 189.149 143.045 188.463 142.756C187.804 142.467 186.854 142.073 185.614 141.575C184.401 141.076 183.386 140.538 182.568 139.961C181.777 139.357 181.183 138.648 180.787 137.835C180.392 136.995 180.194 135.984 180.194 134.803C180.194 132.677 181.012 131.076 182.647 130C184.309 128.924 186.498 128.386 189.215 128.386C190.665 128.386 192.024 128.543 193.29 128.858C194.556 129.173 195.875 129.633 197.246 130.236L195.189 135.079C194.477 134.738 193.738 134.449 192.973 134.213C192.235 133.976 191.536 133.793 190.876 133.661C190.243 133.53 189.703 133.465 189.254 133.465C188.674 133.465 188.212 133.543 187.87 133.701C187.553 133.858 187.395 134.081 187.395 134.37C187.395 134.633 187.5 134.869 187.711 135.079C187.949 135.289 188.384 135.525 189.017 135.787C189.65 136.05 190.573 136.43 191.786 136.929C193.053 137.428 194.094 137.979 194.912 138.583C195.756 139.16 196.376 139.869 196.772 140.709C197.194 141.522 197.405 142.572 197.405 143.858Z" fill="black"/>
<path d="M212.305 145C212.991 145 213.611 144.934 214.165 144.803C214.745 144.646 215.338 144.462 215.945 144.252V149.724C215.127 150.066 214.257 150.354 213.334 150.591C212.41 150.827 211.237 150.945 209.812 150.945C208.388 150.945 207.135 150.722 206.054 150.276C204.999 149.829 204.168 149.068 203.561 147.992C202.954 146.89 202.651 145.354 202.651 143.386V134.409H200V131.339L203.363 128.976L205.302 124.409H210.248V128.78H215.628V134.409H210.248V142.874C210.248 143.583 210.419 144.121 210.762 144.488C211.131 144.829 211.646 145 212.305 145Z" fill="black"/>
<path d="M230.464 128.386C233.233 128.386 235.396 129.068 236.952 130.433C238.509 131.798 239.287 133.74 239.287 136.26V150.551H234.064L232.6 147.677H232.442C231.835 148.438 231.202 149.068 230.543 149.567C229.91 150.039 229.171 150.381 228.327 150.591C227.483 150.827 226.454 150.945 225.241 150.945C223.975 150.945 222.841 150.696 221.839 150.197C220.836 149.672 220.045 148.898 219.465 147.874C218.884 146.824 218.594 145.499 218.594 143.898C218.594 141.562 219.399 139.829 221.008 138.701C222.643 137.572 225.004 136.942 228.09 136.811L231.73 136.693V136.378C231.73 135.407 231.492 134.724 231.018 134.331C230.543 133.911 229.897 133.701 229.079 133.701C228.209 133.701 227.246 133.858 226.191 134.173C225.136 134.462 224.067 134.843 222.986 135.315L220.81 130.354C222.076 129.698 223.5 129.213 225.083 128.898C226.692 128.556 228.486 128.386 230.464 128.386ZM230.029 140.906C228.657 140.958 227.681 141.207 227.101 141.654C226.547 142.073 226.27 142.677 226.27 143.465C226.27 144.199 226.468 144.751 226.863 145.118C227.259 145.459 227.787 145.63 228.446 145.63C229.369 145.63 230.147 145.341 230.78 144.764C231.44 144.186 231.769 143.438 231.769 142.52V140.827L230.029 140.906Z" fill="black"/>
<path d="M251.989 150.551H244.432V120.63H251.989V150.551Z" fill="black"/>
<path d="M264.778 150.551H257.221V120.63H264.778V150.551Z" fill="black"/>
<path d="M278.507 142.992V137.008H289.427V142.992H278.507Z" fill="black"/>
<path d="M299.887 128.386C301.417 128.386 302.643 128.688 303.566 129.291C304.516 129.869 305.281 130.591 305.861 131.457H306.019L306.573 128.78H313.101V150.591C313.101 152.638 312.679 154.357 311.835 155.748C310.991 157.139 309.699 158.189 307.958 158.898C306.243 159.633 304.067 160 301.43 160C299.663 160 298.106 159.908 296.761 159.724C295.416 159.541 294.123 159.213 292.884 158.74V152.48C293.781 152.848 294.625 153.15 295.416 153.386C296.207 153.648 297.051 153.832 297.948 153.937C298.845 154.068 299.86 154.134 300.995 154.134C302.524 154.134 303.659 153.858 304.397 153.307C305.162 152.756 305.545 151.955 305.545 150.906V150.512C305.545 150.171 305.558 149.764 305.584 149.291C305.637 148.819 305.703 148.32 305.782 147.795H305.545C305.043 148.661 304.331 149.409 303.408 150.039C302.485 150.643 301.271 150.945 299.768 150.945C297.447 150.945 295.561 149.987 294.11 148.071C292.66 146.155 291.934 143.36 291.934 139.685C291.934 137.218 292.264 135.157 292.923 133.504C293.609 131.824 294.545 130.551 295.732 129.685C296.946 128.819 298.331 128.386 299.887 128.386ZM302.735 134.213C302.05 134.213 301.469 134.423 300.995 134.843C300.52 135.262 300.164 135.892 299.926 136.732C299.715 137.546 299.61 138.57 299.61 139.803C299.61 141.693 299.874 143.058 300.401 143.898C300.929 144.711 301.746 145.118 302.854 145.118C303.461 145.118 303.975 145.026 304.397 144.843C304.819 144.633 305.149 144.344 305.386 143.976C305.65 143.583 305.835 143.097 305.94 142.52C306.072 141.942 306.138 141.26 306.138 140.472V139.567C306.138 138.438 306.033 137.48 305.821 136.693C305.637 135.879 305.294 135.262 304.793 134.843C304.318 134.423 303.632 134.213 302.735 134.213Z" fill="black"/>
<path d="M336.142 124.882C336.142 126.483 336.102 127.835 336.023 128.937C335.944 130.039 335.878 130.879 335.825 131.457H336.181C336.656 130.696 337.184 130.092 337.764 129.646C338.371 129.199 339.043 128.885 339.782 128.701C340.52 128.491 341.325 128.386 342.195 128.386C343.646 128.386 344.952 128.661 346.112 129.213C347.273 129.764 348.196 130.63 348.882 131.811C349.594 132.966 349.95 134.488 349.95 136.378V150.551H342.354V138.661C342.354 137.218 342.143 136.129 341.721 135.394C341.299 134.659 340.639 134.291 339.742 134.291C338.845 134.291 338.133 134.554 337.606 135.079C337.078 135.604 336.696 136.365 336.458 137.362C336.247 138.333 336.142 139.541 336.142 140.984V150.551H328.585V120.63H336.142V124.882Z" fill="black"/>
<path d="M376.376 128.78V150.551H370.679L369.729 147.835H369.294C368.846 148.57 368.266 149.173 367.553 149.646C366.868 150.092 366.103 150.42 365.259 150.63C364.441 150.84 363.584 150.945 362.687 150.945C361.263 150.945 359.97 150.669 358.81 150.118C357.649 149.567 356.726 148.701 356.04 147.52C355.381 146.339 355.051 144.816 355.051 142.953V128.78H362.608V140.669C362.608 142.087 362.806 143.163 363.201 143.898C363.623 144.633 364.296 145 365.219 145C366.169 145 366.907 144.751 367.435 144.252C367.962 143.727 368.318 142.966 368.503 141.969C368.714 140.971 368.819 139.751 368.819 138.307V128.78H376.376Z" fill="black"/>
<path d="M389.153 127.402C389.153 128.163 389.126 128.898 389.074 129.606C389.021 130.315 388.955 130.971 388.876 131.575H389.153C389.707 130.682 390.445 129.934 391.368 129.331C392.292 128.701 393.492 128.386 394.969 128.386C397.237 128.386 399.097 129.344 400.548 131.26C401.998 133.176 402.724 135.958 402.724 139.606C402.724 142.073 402.381 144.16 401.695 145.866C401.035 147.546 400.099 148.819 398.886 149.685C397.699 150.525 396.314 150.945 394.731 150.945C393.202 150.945 392.028 150.682 391.21 150.157C390.392 149.606 389.707 149.029 389.153 148.425H388.678L387.491 150.551H381.596V120.63H389.153V127.402ZM392.199 134.291C391.514 134.291 390.933 134.462 390.458 134.803C390.01 135.118 389.68 135.604 389.469 136.26C389.258 136.916 389.153 137.769 389.153 138.819V139.882C389.153 141.562 389.377 142.822 389.825 143.661C390.3 144.475 391.118 144.882 392.278 144.882C393.175 144.882 393.861 144.436 394.336 143.543C394.811 142.625 395.048 141.286 395.048 139.528C395.048 137.795 394.811 136.496 394.336 135.63C393.887 134.738 393.175 134.291 392.199 134.291Z" fill="black"/>
<path d="M419.68 150.984C419.68 150.459 419.693 149.934 419.72 149.409C419.773 148.858 419.839 148.32 419.918 147.795H419.68C419.179 148.661 418.467 149.409 417.544 150.039C416.621 150.643 415.407 150.945 413.904 150.945C411.583 150.945 409.697 149.987 408.246 148.071C406.795 146.155 406.07 143.36 406.07 139.685C406.07 137.218 406.4 135.157 407.059 133.504C407.745 131.824 408.681 130.551 409.868 129.685C411.081 128.819 412.466 128.386 414.022 128.386C415.552 128.386 416.779 128.688 417.702 129.291C418.652 129.869 419.416 130.591 419.997 131.457H420.155L420.709 128.78H427.237V160H419.68V150.984ZM416.99 145.118C417.808 145.118 418.454 144.948 418.929 144.606C419.403 144.265 419.746 143.753 419.957 143.071C420.168 142.362 420.274 141.496 420.274 140.472V139.567C420.274 137.861 420.036 136.549 419.562 135.63C419.113 134.685 418.216 134.213 416.871 134.213C415.816 134.213 415.025 134.685 414.497 135.63C413.996 136.575 413.746 137.966 413.746 139.803C413.746 141.693 414.009 143.058 414.537 143.898C415.064 144.711 415.882 145.118 416.99 145.118Z" fill="black"/>
<path d="M440 150.551H432.443V120.63H440V150.551Z" fill="black"/>
<path d="M53.6895 128.386C55.9579 128.386 57.8043 129.016 59.2286 130.276C60.6529 131.535 61.3651 133.57 61.3651 136.378V150.551H53.8082V138.661C53.8082 137.218 53.5972 136.129 53.1751 135.394C52.7531 134.659 52.0805 134.291 51.1573 134.291C49.733 134.291 48.7702 134.869 48.2691 136.024C47.7943 137.178 47.5569 138.845 47.5569 141.024V150.551H40V128.78H45.6974L46.7261 131.654H47.003C47.4778 130.971 48.0317 130.394 48.6647 129.921C49.3242 129.423 50.0627 129.042 50.8804 128.78C51.7244 128.517 52.6608 128.386 53.6895 128.386Z" stroke="#00FF85" stroke-width="2" mask="url(#path-1-outside-1_1053_194)"/>
<path d="M79.8784 128.386C82.3051 128.386 84.2042 129.357 85.5758 131.299C86.9474 133.215 87.6332 135.984 87.6332 139.606C87.6332 142.073 87.2771 144.16 86.5649 145.866C85.8791 147.546 84.9296 148.819 83.7162 149.685C82.5293 150.525 81.1709 150.945 79.641 150.945C78.6124 150.945 77.7419 150.814 77.0298 150.551C76.3176 150.289 75.7241 149.974 75.2493 149.606C74.7745 149.213 74.3789 148.819 74.0624 148.425H73.825C73.8777 148.924 73.9305 149.462 73.9832 150.039C74.036 150.617 74.0624 151.286 74.0624 152.047V160H66.5055V128.78H72.638L73.7063 131.535H74.0624C74.4316 130.958 74.8669 130.433 75.368 129.961C75.8956 129.488 76.5286 129.108 77.2671 128.819C78.0057 128.53 78.8761 128.386 79.8784 128.386ZM77.0298 134.291C76.2912 134.291 75.7109 134.475 75.2889 134.843C74.8669 135.184 74.5635 135.696 74.3789 136.378C74.1943 137.06 74.0888 137.927 74.0624 138.976V139.567C74.0624 140.722 74.1415 141.693 74.2998 142.48C74.4844 143.268 74.8009 143.871 75.2493 144.291C75.6977 144.685 76.3044 144.882 77.0693 144.882C77.7024 144.882 78.2299 144.711 78.6519 144.37C79.1003 144.003 79.43 143.425 79.641 142.638C79.8521 141.85 79.9576 140.814 79.9576 139.528C79.9576 137.612 79.707 136.26 79.2058 135.472C78.7047 134.685 77.9793 134.291 77.0298 134.291Z" stroke="#00FF85" stroke-width="2" mask="url(#path-1-outside-1_1053_194)"/>
<path d="M118.635 128.386C121.141 128.386 123.054 129.016 124.372 130.276C125.691 131.535 126.351 133.57 126.351 136.378V150.551H118.794V138.701C118.794 137.047 118.569 135.906 118.121 135.276C117.673 134.619 117.013 134.291 116.143 134.291C114.93 134.291 114.085 134.829 113.611 135.906C113.136 136.955 112.899 138.451 112.899 140.394V150.551H105.342V138.701C105.342 137.651 105.249 136.811 105.065 136.181C104.88 135.525 104.603 135.052 104.234 134.764C103.865 134.449 103.39 134.291 102.809 134.291C101.939 134.291 101.253 134.554 100.752 135.079C100.277 135.604 99.9476 136.365 99.7629 137.362C99.5783 138.36 99.486 139.58 99.486 141.024V150.551H91.9291V128.78H97.6264L98.7342 131.457H98.9321C99.3277 130.853 99.8289 130.328 100.436 129.882C101.042 129.409 101.768 129.042 102.612 128.78C103.456 128.517 104.418 128.386 105.5 128.386C107.109 128.386 108.428 128.661 109.456 129.213C110.511 129.738 111.369 130.472 112.028 131.417H112.265C112.951 130.446 113.835 129.698 114.916 129.173C116.024 128.648 117.264 128.386 118.635 128.386Z" stroke="#00FF85" stroke-width="2" mask="url(#path-1-outside-1_1053_194)"/>
<path d="M149.368 128.78V150.551H141.811V128.78H149.368ZM145.61 120C146.691 120 147.627 120.223 148.419 120.669C149.236 121.115 149.645 122.008 149.645 123.346C149.645 124.633 149.236 125.512 148.419 125.984C147.627 126.43 146.691 126.654 145.61 126.654C144.502 126.654 143.552 126.43 142.761 125.984C141.996 125.512 141.613 124.633 141.613 123.346C141.613 122.008 141.996 121.115 142.761 120.669C143.552 120.223 144.502 120 145.61 120Z" stroke="#00FF85" stroke-width="2" mask="url(#path-1-outside-1_1053_194)"/>
<path d="M168.328 128.386C170.596 128.386 172.442 129.016 173.867 130.276C175.291 131.535 176.003 133.57 176.003 136.378V150.551H168.446V138.661C168.446 137.218 168.235 136.129 167.813 135.394C167.391 134.659 166.719 134.291 165.795 134.291C164.371 134.291 163.408 134.869 162.907 136.024C162.432 137.178 162.195 138.845 162.195 141.024V150.551H154.638V128.78H160.335L161.364 131.654H161.641C162.116 130.971 162.67 130.394 163.303 129.921C163.962 129.423 164.701 129.042 165.518 128.78C166.362 128.517 167.299 128.386 168.328 128.386Z" stroke="#00FF85" stroke-width="2" mask="url(#path-1-outside-1_1053_194)"/>
<path d="M197.405 143.858C197.405 145.223 197.088 146.444 196.455 147.52C195.848 148.596 194.859 149.436 193.488 150.039C192.143 150.643 190.362 150.945 188.147 150.945C186.59 150.945 185.192 150.853 183.953 150.669C182.739 150.512 181.5 150.197 180.234 149.724V143.701C181.631 144.331 183.043 144.79 184.467 145.079C185.891 145.341 187.012 145.472 187.83 145.472C188.674 145.472 189.294 145.381 189.69 145.197C190.085 145.013 190.283 144.738 190.283 144.37C190.283 144.055 190.151 143.78 189.887 143.543C189.624 143.307 189.149 143.045 188.463 142.756C187.804 142.467 186.854 142.073 185.614 141.575C184.401 141.076 183.386 140.538 182.568 139.961C181.777 139.357 181.183 138.648 180.787 137.835C180.392 136.995 180.194 135.984 180.194 134.803C180.194 132.677 181.012 131.076 182.647 130C184.309 128.924 186.498 128.386 189.215 128.386C190.665 128.386 192.024 128.543 193.29 128.858C194.556 129.173 195.875 129.633 197.246 130.236L195.189 135.079C194.477 134.738 193.738 134.449 192.973 134.213C192.235 133.976 191.536 133.793 190.876 133.661C190.243 133.53 189.703 133.465 189.254 133.465C188.674 133.465 188.212 133.543 187.87 133.701C187.553 133.858 187.395 134.081 187.395 134.37C187.395 134.633 187.5 134.869 187.711 135.079C187.949 135.289 188.384 135.525 189.017 135.787C189.65 136.05 190.573 136.43 191.786 136.929C193.053 137.428 194.094 137.979 194.912 138.583C195.756 139.16 196.376 139.869 196.772 140.709C197.194 141.522 197.405 142.572 197.405 143.858Z" stroke="#00FF85" stroke-width="2" mask="url(#path-1-outside-1_1053_194)"/>
<path d="M212.305 145C212.991 145 213.611 144.934 214.165 144.803C214.745 144.646 215.338 144.462 215.945 144.252V149.724C215.127 150.066 214.257 150.354 213.334 150.591C212.41 150.827 211.237 150.945 209.812 150.945C208.388 150.945 207.135 150.722 206.054 150.276C204.999 149.829 204.168 149.068 203.561 147.992C202.954 146.89 202.651 145.354 202.651 143.386V134.409H200V131.339L203.363 128.976L205.302 124.409H210.248V128.78H215.628V134.409H210.248V142.874C210.248 143.583 210.419 144.121 210.762 144.488C211.131 144.829 211.646 145 212.305 145Z" stroke="#00FF85" stroke-width="2" mask="url(#path-1-outside-1_1053_194)"/>
<path d="M230.464 128.386C233.233 128.386 235.396 129.068 236.952 130.433C238.509 131.798 239.287 133.74 239.287 136.26V150.551H234.064L232.6 147.677H232.442C231.835 148.438 231.202 149.068 230.543 149.567C229.91 150.039 229.171 150.381 228.327 150.591C227.483 150.827 226.454 150.945 225.241 150.945C223.975 150.945 222.841 150.696 221.839 150.197C220.836 149.672 220.045 148.898 219.465 147.874C218.884 146.824 218.594 145.499 218.594 143.898C218.594 141.562 219.399 139.829 221.008 138.701C222.643 137.572 225.004 136.942 228.09 136.811L231.73 136.693V136.378C231.73 135.407 231.492 134.724 231.018 134.331C230.543 133.911 229.897 133.701 229.079 133.701C228.209 133.701 227.246 133.858 226.191 134.173C225.136 134.462 224.067 134.843 222.986 135.315L220.81 130.354C222.076 129.698 223.5 129.213 225.083 128.898C226.692 128.556 228.486 128.386 230.464 128.386ZM230.029 140.906C228.657 140.958 227.681 141.207 227.101 141.654C226.547 142.073 226.27 142.677 226.27 143.465C226.27 144.199 226.468 144.751 226.863 145.118C227.259 145.459 227.787 145.63 228.446 145.63C229.369 145.63 230.147 145.341 230.78 144.764C231.44 144.186 231.769 143.438 231.769 142.52V140.827L230.029 140.906Z" stroke="#00FF85" stroke-width="2" mask="url(#path-1-outside-1_1053_194)"/>
<path d="M251.989 150.551H244.432V120.63H251.989V150.551Z" stroke="#00FF85" stroke-width="2" mask="url(#path-1-outside-1_1053_194)"/>
<path d="M264.778 150.551H257.221V120.63H264.778V150.551Z" stroke="#00FF85" stroke-width="2" mask="url(#path-1-outside-1_1053_194)"/>
<path d="M278.507 142.992V137.008H289.427V142.992H278.507Z" stroke="#00FF85" stroke-width="2" mask="url(#path-1-outside-1_1053_194)"/>
<path d="M299.887 128.386C301.417 128.386 302.643 128.688 303.566 129.291C304.516 129.869 305.281 130.591 305.861 131.457H306.019L306.573 128.78H313.101V150.591C313.101 152.638 312.679 154.357 311.835 155.748C310.991 157.139 309.699 158.189 307.958 158.898C306.243 159.633 304.067 160 301.43 160C299.663 160 298.106 159.908 296.761 159.724C295.416 159.541 294.123 159.213 292.884 158.74V152.48C293.781 152.848 294.625 153.15 295.416 153.386C296.207 153.648 297.051 153.832 297.948 153.937C298.845 154.068 299.86 154.134 300.995 154.134C302.524 154.134 303.659 153.858 304.397 153.307C305.162 152.756 305.545 151.955 305.545 150.906V150.512C305.545 150.171 305.558 149.764 305.584 149.291C305.637 148.819 305.703 148.32 305.782 147.795H305.545C305.043 148.661 304.331 149.409 303.408 150.039C302.485 150.643 301.271 150.945 299.768 150.945C297.447 150.945 295.561 149.987 294.11 148.071C292.66 146.155 291.934 143.36 291.934 139.685C291.934 137.218 292.264 135.157 292.923 133.504C293.609 131.824 294.545 130.551 295.732 129.685C296.946 128.819 298.331 128.386 299.887 128.386ZM302.735 134.213C302.05 134.213 301.469 134.423 300.995 134.843C300.52 135.262 300.164 135.892 299.926 136.732C299.715 137.546 299.61 138.57 299.61 139.803C299.61 141.693 299.874 143.058 300.401 143.898C300.929 144.711 301.746 145.118 302.854 145.118C303.461 145.118 303.975 145.026 304.397 144.843C304.819 144.633 305.149 144.344 305.386 143.976C305.65 143.583 305.835 143.097 305.94 142.52C306.072 141.942 306.138 141.26 306.138 140.472V139.567C306.138 138.438 306.033 137.48 305.821 136.693C305.637 135.879 305.294 135.262 304.793 134.843C304.318 134.423 303.632 134.213 302.735 134.213Z" stroke="#00FF85" stroke-width="2" mask="url(#path-1-outside-1_1053_194)"/>
<path d="M336.142 124.882C336.142 126.483 336.102 127.835 336.023 128.937C335.944 130.039 335.878 130.879 335.825 131.457H336.181C336.656 130.696 337.184 130.092 337.764 129.646C338.371 129.199 339.043 128.885 339.782 128.701C340.52 128.491 341.325 128.386 342.195 128.386C343.646 128.386 344.952 128.661 346.112 129.213C347.273 129.764 348.196 130.63 348.882 131.811C349.594 132.966 349.95 134.488 349.95 136.378V150.551H342.354V138.661C342.354 137.218 342.143 136.129 341.721 135.394C341.299 134.659 340.639 134.291 339.742 134.291C338.845 134.291 338.133 134.554 337.606 135.079C337.078 135.604 336.696 136.365 336.458 137.362C336.247 138.333 336.142 139.541 336.142 140.984V150.551H328.585V120.63H336.142V124.882Z" stroke="#00FF85" stroke-width="2" mask="url(#path-1-outside-1_1053_194)"/>
<path d="M376.376 128.78V150.551H370.679L369.729 147.835H369.294C368.846 148.57 368.266 149.173 367.553 149.646C366.868 150.092 366.103 150.42 365.259 150.63C364.441 150.84 363.584 150.945 362.687 150.945C361.263 150.945 359.97 150.669 358.81 150.118C357.649 149.567 356.726 148.701 356.04 147.52C355.381 146.339 355.051 144.816 355.051 142.953V128.78H362.608V140.669C362.608 142.087 362.806 143.163 363.201 143.898C363.623 144.633 364.296 145 365.219 145C366.169 145 366.907 144.751 367.435 144.252C367.962 143.727 368.318 142.966 368.503 141.969C368.714 140.971 368.819 139.751 368.819 138.307V128.78H376.376Z" stroke="#00FF85" stroke-width="2" mask="url(#path-1-outside-1_1053_194)"/>
<path d="M389.153 127.402C389.153 128.163 389.126 128.898 389.074 129.606C389.021 130.315 388.955 130.971 388.876 131.575H389.153C389.707 130.682 390.445 129.934 391.368 129.331C392.292 128.701 393.492 128.386 394.969 128.386C397.237 128.386 399.097 129.344 400.548 131.26C401.998 133.176 402.724 135.958 402.724 139.606C402.724 142.073 402.381 144.16 401.695 145.866C401.035 147.546 400.099 148.819 398.886 149.685C397.699 150.525 396.314 150.945 394.731 150.945C393.202 150.945 392.028 150.682 391.21 150.157C390.392 149.606 389.707 149.029 389.153 148.425H388.678L387.491 150.551H381.596V120.63H389.153V127.402ZM392.199 134.291C391.514 134.291 390.933 134.462 390.458 134.803C390.01 135.118 389.68 135.604 389.469 136.26C389.258 136.916 389.153 137.769 389.153 138.819V139.882C389.153 141.562 389.377 142.822 389.825 143.661C390.3 144.475 391.118 144.882 392.278 144.882C393.175 144.882 393.861 144.436 394.336 143.543C394.811 142.625 395.048 141.286 395.048 139.528C395.048 137.795 394.811 136.496 394.336 135.63C393.887 134.738 393.175 134.291 392.199 134.291Z" stroke="#00FF85" stroke-width="2" mask="url(#path-1-outside-1_1053_194)"/>
<path d="M419.68 150.984C419.68 150.459 419.693 149.934 419.72 149.409C419.773 148.858 419.839 148.32 419.918 147.795H419.68C419.179 148.661 418.467 149.409 417.544 150.039C416.621 150.643 415.407 150.945 413.904 150.945C411.583 150.945 409.697 149.987 408.246 148.071C406.795 146.155 406.07 143.36 406.07 139.685C406.07 137.218 406.4 135.157 407.059 133.504C407.745 131.824 408.681 130.551 409.868 129.685C411.081 128.819 412.466 128.386 414.022 128.386C415.552 128.386 416.779 128.688 417.702 129.291C418.652 129.869 419.416 130.591 419.997 131.457H420.155L420.709 128.78H427.237V160H419.68V150.984ZM416.99 145.118C417.808 145.118 418.454 144.948 418.929 144.606C419.403 144.265 419.746 143.753 419.957 143.071C420.168 142.362 420.274 141.496 420.274 140.472V139.567C420.274 137.861 420.036 136.549 419.562 135.63C419.113 134.685 418.216 134.213 416.871 134.213C415.816 134.213 415.025 134.685 414.497 135.63C413.996 136.575 413.746 137.966 413.746 139.803C413.746 141.693 414.009 143.058 414.537 143.898C415.064 144.711 415.882 145.118 416.99 145.118Z" stroke="#00FF85" stroke-width="2" mask="url(#path-1-outside-1_1053_194)"/>
<path d="M440 150.551H432.443V120.63H440V150.551Z" stroke="#00FF85" stroke-width="2" mask="url(#path-1-outside-1_1053_194)"/>
</g>
<defs>
<filter id="filter0_d_1053_194" x="23" y="103" width="434" height="74" filterUnits="userSpaceOnUse" color-interpolation-filters="sRGB">
<feFlood flood-opacity="0" result="BackgroundImageFix"/>
<feColorMatrix in="SourceAlpha" type="matrix" values="0 0 0 0 0 0 0 0 0 0 0 0 0 0 0 0 0 0 127 0" result="hardAlpha"/>
<feOffset/>
<feGaussianBlur stdDeviation="8"/>
<feComposite in2="hardAlpha" operator="out"/>
<feColorMatrix type="matrix" values="0 0 0 0 0 0 0 0 0 1 0 0 0 0 0.521569 0 0 0 0.24 0"/>
<feBlend mode="normal" in2="BackgroundImageFix" result="effect1_dropShadow_1053_194"/>
<feBlend mode="normal" in="SourceGraphic" in2="effect1_dropShadow_1053_194" result="shape"/>
</filter>
</defs>
</svg>
