<svg width="480" height="280" viewBox="0 0 480 280" fill="none" xmlns="http://www.w3.org/2000/svg">
<rect width="480" height="280" fill="#0C0C0C"/>
<path fillRule="evenodd" clipRule="evenodd" d="M108.546 59.9852C109.659 58.077 112.108 57.4324 114.016 58.5455L392.914 223.511C394.822 224.624 392.569 223.108 391.456 225.016C390.343 226.924 393.477 225.731 391.569 224.617L109.985 65.4558C108.077 64.3426 107.432 61.8934 108.546 59.9852Z" fill="url(#paint0_linear_1032_1272)"/>
<path d="M300.595 169.183V169.683H301.095H319.874C326.113 169.683 331.557 168.554 336.191 166.28C340.837 164 344.435 160.548 346.976 155.938C349.576 151.321 350.86 145.591 350.86 138.774C350.86 132.664 349.711 127.48 347.384 123.247C345.058 119.014 341.675 115.809 337.25 113.639C332.828 111.417 327.463 110.317 321.175 110.317H301.095H300.595V110.817V169.183ZM332.172 130.701L332.172 130.701L332.176 130.71C333.118 132.973 333.601 135.846 333.601 139.346C333.601 145.019 332.497 149.135 330.377 151.786C328.28 154.409 324.953 155.767 320.281 155.767H317.285V124.069H321.338C324.146 124.069 326.405 124.629 328.147 125.711L328.147 125.711L328.152 125.714C329.942 126.794 331.286 128.445 332.172 130.701Z" fill="black" stroke="#00FF85"/>
<path d="M245.149 164.224L245.149 164.224L245.153 164.229C249.504 168.435 255.771 170.5 263.874 170.5C269.511 170.5 274.232 169.51 278.01 167.499C281.835 165.492 284.703 162.64 286.594 158.947C288.48 155.267 289.413 150.934 289.413 145.967V110.817V110.317H288.913H273.223H272.723V110.817V144.986C272.723 147.733 272.401 149.929 271.779 151.596L271.779 151.596L271.774 151.609C271.21 153.261 270.301 154.438 269.063 155.185L269.063 155.185L269.055 155.19C267.86 155.941 266.229 156.339 264.118 156.339C261.249 156.339 259.129 155.453 257.673 153.74C256.267 152.021 255.513 149.168 255.513 145.068V110.817V110.317H255.013H239.241H238.741V110.817V146.294C238.741 153.962 240.856 159.964 245.149 164.224Z" fill="black" stroke="#00FF85"/>
<path d="M218.106 143.93C220.004 142.824 221.65 141.548 223.038 140.101C224.545 138.529 225.692 136.731 226.474 134.709C227.313 132.682 227.729 130.465 227.729 128.065C227.729 124.174 226.817 120.907 224.957 118.298C223.153 115.636 220.432 113.646 216.836 112.311C213.293 110.975 208.866 110.317 203.572 110.317H184.549H184.049V110.817V169.183V169.683H184.549H200.239H200.739V169.183V148.429H203.934L216.065 169.433L216.21 169.683H216.498H234.302H235.235L234.719 168.906L218.106 143.93ZM210.132 125.866L210.132 125.866L210.139 125.877C210.622 126.654 210.877 127.62 210.877 128.801C210.877 130.536 210.537 131.874 209.903 132.857C209.26 133.8 208.371 134.499 207.216 134.955C206.093 135.365 204.746 135.576 203.166 135.576H200.739V123.252H203.328C205.188 123.252 206.661 123.493 207.772 123.95C208.884 124.408 209.656 125.052 210.132 125.866Z" fill="black" stroke="#00FF85"/>
<path d="M152.878 124.585L152.884 124.582L152.89 124.578C154.272 123.806 155.84 123.416 157.606 123.416C159.995 123.416 162.246 123.763 164.361 124.453L164.36 124.454L164.371 124.457C166.512 125.103 168.628 125.937 170.718 126.961L171.208 127.201L171.405 126.692L176.201 114.267L176.368 113.835L175.949 113.636C172.935 112.203 169.862 111.154 166.733 110.492C163.614 109.831 160.625 109.5 157.768 109.5C153.162 109.5 149.057 110.244 145.462 111.746L145.462 111.746L145.46 111.747C141.925 113.246 138.937 115.387 136.5 118.17C134.068 120.895 132.22 124.143 130.954 127.906L130.954 127.906L130.953 127.91C129.742 131.618 129.14 135.704 129.14 140.163C129.14 146.102 130.097 151.375 132.024 155.97L132.025 155.972C133.961 160.532 136.981 164.101 141.081 166.664C145.194 169.234 150.442 170.5 156.793 170.5C159.855 170.5 162.733 170.225 165.424 169.674C168.172 169.176 170.837 168.346 173.419 167.186L173.715 167.054V166.73V153.406V152.651L173.019 152.946C170.598 153.974 168.177 154.839 165.758 155.542L165.755 155.542C163.418 156.237 161 156.584 158.5 156.584C155.702 156.584 153.421 155.975 151.626 154.79C149.829 153.55 148.479 151.734 147.588 149.31C146.693 146.874 146.236 143.858 146.236 140.245C146.236 137.552 146.504 135.17 147.034 133.094C147.564 131.014 148.328 129.274 149.317 127.862L149.317 127.862L149.321 127.855C150.31 126.39 151.496 125.305 152.878 124.585Z" fill="black" stroke="#00FF85"/>
<defs>
<linearGradient id="paint0_linear_1032_1272" x1="112.542" y1="64.7112" x2="389.313" y2="223.141" gradientUnits="userSpaceOnUse">
<stop stop-color="#00FF85"/>
<stop offset="1"/>
</linearGradient>
</defs>
</svg>
