<svg width="480" height="280" viewBox="0 0 480 280" fill="none" xmlns="http://www.w3.org/2000/svg">
<rect width="480" height="280" fill="#0C0C0C"/>
<g filter="url(#filter0_d_1053_160)">
<mask id="path-1-outside-1_1053_160" maskUnits="userSpaceOnUse" x="21" y="121" width="438" height="38" fill="black">
<rect fill="white" x="21" y="121" width="438" height="38"/>
<path d="M51.4522 139.29C51.4522 143.339 50.6908 146.718 49.1679 149.429C47.6775 152.139 45.5715 154.163 42.8498 155.502C40.1282 156.841 36.9205 157.51 33.2268 157.51H22V122.539H34.0044C37.7305 122.539 40.8896 123.192 43.4816 124.498C46.0737 125.771 48.0501 127.649 49.4109 130.131C50.7718 132.612 51.4522 135.665 51.4522 139.29ZM41.732 139.633C41.732 137.51 41.4404 135.747 40.8572 134.343C40.3064 132.939 39.4639 131.894 38.3299 131.208C37.2283 130.522 35.8189 130.18 34.1016 130.18H31.38V149.771H33.4698C36.3211 149.771 38.4109 148.939 39.7394 147.273C41.0678 145.608 41.732 143.061 41.732 139.633Z"/>
<path d="M90.1568 139.976C90.1568 142.686 89.8328 145.151 89.1848 147.371C88.5367 149.559 87.5323 151.453 86.1715 153.053C84.8107 154.653 83.061 155.878 80.9226 156.727C78.8166 157.576 76.2731 158 73.2922 158C70.3762 158 67.8489 157.576 65.7105 156.727C63.6045 155.878 61.8548 154.653 60.4616 153.053C59.1008 151.453 58.0801 149.559 57.3997 147.371C56.7517 145.151 56.4277 142.669 56.4277 139.927C56.4277 136.302 57.0271 133.151 58.2259 130.473C59.4248 127.763 61.2716 125.673 63.7665 124.204C66.2613 122.735 69.4528 122 73.3408 122C77.2937 122 80.5014 122.751 82.9638 124.253C85.4587 125.722 87.2731 127.812 88.4071 130.522C89.5736 133.2 90.1568 136.351 90.1568 139.976ZM66.2937 139.976C66.2937 142.065 66.5205 143.878 66.9741 145.412C67.4601 146.914 68.2215 148.073 69.2584 148.89C70.2952 149.706 71.6398 150.114 73.2922 150.114C75.0095 150.114 76.3703 149.706 77.3747 148.89C78.4115 148.073 79.1568 146.914 79.6104 145.412C80.064 143.878 80.2908 142.065 80.2908 139.976C80.2908 136.808 79.7724 134.31 78.7356 132.482C77.6987 130.653 75.9005 129.739 73.3408 129.739C71.656 129.739 70.2952 130.163 69.2584 131.012C68.2215 131.829 67.4601 133.004 66.9741 134.539C66.5205 136.041 66.2937 137.853 66.2937 139.976Z"/>
<path d="M111.875 129.788C110.774 129.788 109.785 130.033 108.911 130.522C108.036 130.98 107.291 131.665 106.675 132.58C106.059 133.461 105.59 134.539 105.266 135.812C104.942 137.086 104.78 138.539 104.78 140.171C104.78 142.359 105.055 144.204 105.606 145.706C106.157 147.208 106.999 148.351 108.133 149.135C109.267 149.886 110.693 150.261 112.41 150.261C113.933 150.261 115.407 150.049 116.833 149.624C118.291 149.2 119.749 148.678 121.207 148.057V156.041C119.684 156.727 118.112 157.216 116.492 157.51C114.905 157.837 113.204 158 111.389 158C107.631 158 104.553 157.249 102.155 155.747C99.7575 154.245 97.9917 152.155 96.8576 149.478C95.7236 146.767 95.1566 143.649 95.1566 140.122C95.1566 137.478 95.513 135.061 96.2258 132.873C96.971 130.653 98.0565 128.743 99.4821 127.143C100.908 125.51 102.657 124.253 104.731 123.371C106.837 122.49 109.251 122.049 111.973 122.049C113.657 122.049 115.423 122.245 117.27 122.637C119.117 123.029 120.931 123.649 122.713 124.498L119.846 131.943C118.582 131.322 117.302 130.816 116.006 130.424C114.71 130 113.333 129.788 111.875 129.788Z"/>
<path d="M157.483 143.6C157.483 146.539 156.932 149.086 155.831 151.241C154.729 153.396 153.06 155.061 150.825 156.237C148.622 157.412 145.851 158 142.514 158C137.719 158 134.057 156.776 131.53 154.327C129.035 151.845 127.788 148.335 127.788 143.796V122.539H137.217V143.061C137.217 145.543 137.67 147.339 138.577 148.449C139.517 149.559 140.878 150.114 142.66 150.114C143.956 150.114 144.993 149.869 145.77 149.38C146.58 148.89 147.164 148.122 147.52 147.078C147.909 146.033 148.103 144.678 148.103 143.012V122.539H157.483V143.6Z"/>
<path d="M179.88 157.51L172.784 132.335H172.59C172.655 132.988 172.72 133.869 172.784 134.98C172.849 136.09 172.914 137.298 172.979 138.604C173.044 139.878 173.076 141.118 173.076 142.327V157.51H164.765V122.539H177.256L184.497 147.371H184.692L191.787 122.539H204.278V157.51H195.676V142.18C195.676 141.069 195.692 139.894 195.724 138.653C195.757 137.38 195.805 136.188 195.87 135.078C195.935 133.935 195.983 133.037 196.016 132.384H195.821L188.823 157.51H179.88Z"/>
<path d="M232.359 157.51H211.753V122.539H232.359V130.131H221.133V135.616H231.533V143.208H221.133V149.82H232.359V157.51Z"/>
<path d="M271.475 157.51H259.179L246.494 132.873H246.3C246.364 133.429 246.413 134.082 246.445 134.833C246.51 135.584 246.559 136.367 246.591 137.184C246.624 138 246.656 138.8 246.688 139.584C246.721 140.367 246.737 141.086 246.737 141.739V157.51H238.426V122.539H250.674L263.31 146.833H263.456C263.423 146.278 263.375 145.641 263.31 144.922C263.277 144.171 263.245 143.42 263.213 142.669C263.18 141.886 263.148 141.118 263.115 140.367C263.115 139.616 263.115 138.947 263.115 138.359V122.539H271.475V157.51Z"/>
<path d="M294.268 157.51H284.888V130.278H276.431V122.539H302.724V130.278H294.268V157.51Z"/>
<path d="M325.543 157.51L323.842 150.947H312.567L310.817 157.51H300.514L311.838 122.392H324.328L335.798 157.51H325.543ZM320.391 137.478C320.229 136.857 320.003 135.976 319.711 134.833C319.419 133.657 319.128 132.449 318.836 131.208C318.544 129.967 318.318 128.955 318.156 128.171C318.026 128.955 317.815 129.935 317.524 131.11C317.265 132.286 316.989 133.445 316.698 134.588C316.438 135.731 316.212 136.694 316.017 137.478L314.511 143.208H321.898L320.391 137.478Z"/>
<path d="M351.412 157.51H342.032V130.278H333.575V122.539H359.869V130.278H351.412V157.51Z"/>
<path d="M380.807 157.51H362.727V152.122L367.053 150.457V129.543L362.727 127.927V122.539H380.807V127.927L376.481 129.543V150.457L380.807 152.122V157.51Z"/>
<path d="M418.688 139.976C418.688 142.686 418.364 145.151 417.716 147.371C417.068 149.559 416.063 151.453 414.703 153.053C413.342 154.653 411.592 155.878 409.454 156.727C407.348 157.576 404.804 158 401.823 158C398.907 158 396.38 157.576 394.242 156.727C392.136 155.878 390.386 154.653 388.993 153.053C387.632 151.453 386.611 149.559 385.931 147.371C385.283 145.151 384.959 142.669 384.959 139.927C384.959 136.302 385.558 133.151 386.757 130.473C387.956 127.763 389.803 125.673 392.298 124.204C394.792 122.735 397.984 122 401.872 122C405.825 122 409.033 122.751 411.495 124.253C413.99 125.722 415.804 127.812 416.938 130.522C418.105 133.2 418.688 136.351 418.688 139.976ZM394.825 139.976C394.825 142.065 395.052 143.878 395.505 145.412C395.991 146.914 396.753 148.073 397.789 148.89C398.826 149.706 400.171 150.114 401.823 150.114C403.541 150.114 404.901 149.706 405.906 148.89C406.943 148.073 407.688 146.914 408.142 145.412C408.595 143.878 408.822 142.065 408.822 139.976C408.822 136.808 408.303 134.31 407.267 132.482C406.23 130.653 404.432 129.739 401.872 129.739C400.187 129.739 398.826 130.163 397.789 131.012C396.753 131.829 395.991 133.004 395.505 134.539C395.052 136.041 394.825 137.853 394.825 139.976Z"/>
<path d="M458 157.51H445.704L433.019 132.873H432.825C432.89 133.429 432.938 134.082 432.971 134.833C433.035 135.584 433.084 136.367 433.116 137.184C433.149 138 433.181 138.8 433.214 139.584C433.246 140.367 433.262 141.086 433.262 141.739V157.51H424.951V122.539H437.199L449.835 146.833H449.981C449.948 146.278 449.9 145.641 449.835 144.922C449.803 144.171 449.77 143.42 449.738 142.669C449.705 141.886 449.673 141.118 449.641 140.367C449.641 139.616 449.641 138.947 449.641 138.359V122.539H458V157.51Z"/>
</mask>
<path d="M51.4522 139.29C51.4522 143.339 50.6908 146.718 49.1679 149.429C47.6775 152.139 45.5715 154.163 42.8498 155.502C40.1282 156.841 36.9205 157.51 33.2268 157.51H22V122.539H34.0044C37.7305 122.539 40.8896 123.192 43.4816 124.498C46.0737 125.771 48.0501 127.649 49.4109 130.131C50.7718 132.612 51.4522 135.665 51.4522 139.29ZM41.732 139.633C41.732 137.51 41.4404 135.747 40.8572 134.343C40.3064 132.939 39.4639 131.894 38.3299 131.208C37.2283 130.522 35.8189 130.18 34.1016 130.18H31.38V149.771H33.4698C36.3211 149.771 38.4109 148.939 39.7394 147.273C41.0678 145.608 41.732 143.061 41.732 139.633Z" fill="black"/>
<path d="M90.1568 139.976C90.1568 142.686 89.8328 145.151 89.1848 147.371C88.5367 149.559 87.5323 151.453 86.1715 153.053C84.8107 154.653 83.061 155.878 80.9226 156.727C78.8166 157.576 76.2731 158 73.2922 158C70.3762 158 67.8489 157.576 65.7105 156.727C63.6045 155.878 61.8548 154.653 60.4616 153.053C59.1008 151.453 58.0801 149.559 57.3997 147.371C56.7517 145.151 56.4277 142.669 56.4277 139.927C56.4277 136.302 57.0271 133.151 58.2259 130.473C59.4248 127.763 61.2716 125.673 63.7665 124.204C66.2613 122.735 69.4528 122 73.3408 122C77.2937 122 80.5014 122.751 82.9638 124.253C85.4587 125.722 87.2731 127.812 88.4071 130.522C89.5736 133.2 90.1568 136.351 90.1568 139.976ZM66.2937 139.976C66.2937 142.065 66.5205 143.878 66.9741 145.412C67.4601 146.914 68.2215 148.073 69.2584 148.89C70.2952 149.706 71.6398 150.114 73.2922 150.114C75.0095 150.114 76.3703 149.706 77.3747 148.89C78.4115 148.073 79.1568 146.914 79.6104 145.412C80.064 143.878 80.2908 142.065 80.2908 139.976C80.2908 136.808 79.7724 134.31 78.7356 132.482C77.6987 130.653 75.9005 129.739 73.3408 129.739C71.656 129.739 70.2952 130.163 69.2584 131.012C68.2215 131.829 67.4601 133.004 66.9741 134.539C66.5205 136.041 66.2937 137.853 66.2937 139.976Z" fill="black"/>
<path d="M111.875 129.788C110.774 129.788 109.785 130.033 108.911 130.522C108.036 130.98 107.291 131.665 106.675 132.58C106.059 133.461 105.59 134.539 105.266 135.812C104.942 137.086 104.78 138.539 104.78 140.171C104.78 142.359 105.055 144.204 105.606 145.706C106.157 147.208 106.999 148.351 108.133 149.135C109.267 149.886 110.693 150.261 112.41 150.261C113.933 150.261 115.407 150.049 116.833 149.624C118.291 149.2 119.749 148.678 121.207 148.057V156.041C119.684 156.727 118.112 157.216 116.492 157.51C114.905 157.837 113.204 158 111.389 158C107.631 158 104.553 157.249 102.155 155.747C99.7575 154.245 97.9917 152.155 96.8576 149.478C95.7236 146.767 95.1566 143.649 95.1566 140.122C95.1566 137.478 95.513 135.061 96.2258 132.873C96.971 130.653 98.0565 128.743 99.4821 127.143C100.908 125.51 102.657 124.253 104.731 123.371C106.837 122.49 109.251 122.049 111.973 122.049C113.657 122.049 115.423 122.245 117.27 122.637C119.117 123.029 120.931 123.649 122.713 124.498L119.846 131.943C118.582 131.322 117.302 130.816 116.006 130.424C114.71 130 113.333 129.788 111.875 129.788Z" fill="black"/>
<path d="M157.483 143.6C157.483 146.539 156.932 149.086 155.831 151.241C154.729 153.396 153.06 155.061 150.825 156.237C148.622 157.412 145.851 158 142.514 158C137.719 158 134.057 156.776 131.53 154.327C129.035 151.845 127.788 148.335 127.788 143.796V122.539H137.217V143.061C137.217 145.543 137.67 147.339 138.577 148.449C139.517 149.559 140.878 150.114 142.66 150.114C143.956 150.114 144.993 149.869 145.77 149.38C146.58 148.89 147.164 148.122 147.52 147.078C147.909 146.033 148.103 144.678 148.103 143.012V122.539H157.483V143.6Z" fill="black"/>
<path d="M179.88 157.51L172.784 132.335H172.59C172.655 132.988 172.72 133.869 172.784 134.98C172.849 136.09 172.914 137.298 172.979 138.604C173.044 139.878 173.076 141.118 173.076 142.327V157.51H164.765V122.539H177.256L184.497 147.371H184.692L191.787 122.539H204.278V157.51H195.676V142.18C195.676 141.069 195.692 139.894 195.724 138.653C195.757 137.38 195.805 136.188 195.87 135.078C195.935 133.935 195.983 133.037 196.016 132.384H195.821L188.823 157.51H179.88Z" fill="black"/>
<path d="M232.359 157.51H211.753V122.539H232.359V130.131H221.133V135.616H231.533V143.208H221.133V149.82H232.359V157.51Z" fill="black"/>
<path d="M271.475 157.51H259.179L246.494 132.873H246.3C246.364 133.429 246.413 134.082 246.445 134.833C246.51 135.584 246.559 136.367 246.591 137.184C246.624 138 246.656 138.8 246.688 139.584C246.721 140.367 246.737 141.086 246.737 141.739V157.51H238.426V122.539H250.674L263.31 146.833H263.456C263.423 146.278 263.375 145.641 263.31 144.922C263.277 144.171 263.245 143.42 263.213 142.669C263.18 141.886 263.148 141.118 263.115 140.367C263.115 139.616 263.115 138.947 263.115 138.359V122.539H271.475V157.51Z" fill="black"/>
<path d="M294.268 157.51H284.888V130.278H276.431V122.539H302.724V130.278H294.268V157.51Z" fill="black"/>
<path d="M325.543 157.51L323.842 150.947H312.567L310.817 157.51H300.514L311.838 122.392H324.328L335.798 157.51H325.543ZM320.391 137.478C320.229 136.857 320.003 135.976 319.711 134.833C319.419 133.657 319.128 132.449 318.836 131.208C318.544 129.967 318.318 128.955 318.156 128.171C318.026 128.955 317.815 129.935 317.524 131.11C317.265 132.286 316.989 133.445 316.698 134.588C316.438 135.731 316.212 136.694 316.017 137.478L314.511 143.208H321.898L320.391 137.478Z" fill="black"/>
<path d="M351.412 157.51H342.032V130.278H333.575V122.539H359.869V130.278H351.412V157.51Z" fill="black"/>
<path d="M380.807 157.51H362.727V152.122L367.053 150.457V129.543L362.727 127.927V122.539H380.807V127.927L376.481 129.543V150.457L380.807 152.122V157.51Z" fill="black"/>
<path d="M418.688 139.976C418.688 142.686 418.364 145.151 417.716 147.371C417.068 149.559 416.063 151.453 414.703 153.053C413.342 154.653 411.592 155.878 409.454 156.727C407.348 157.576 404.804 158 401.823 158C398.907 158 396.38 157.576 394.242 156.727C392.136 155.878 390.386 154.653 388.993 153.053C387.632 151.453 386.611 149.559 385.931 147.371C385.283 145.151 384.959 142.669 384.959 139.927C384.959 136.302 385.558 133.151 386.757 130.473C387.956 127.763 389.803 125.673 392.298 124.204C394.792 122.735 397.984 122 401.872 122C405.825 122 409.033 122.751 411.495 124.253C413.99 125.722 415.804 127.812 416.938 130.522C418.105 133.2 418.688 136.351 418.688 139.976ZM394.825 139.976C394.825 142.065 395.052 143.878 395.505 145.412C395.991 146.914 396.753 148.073 397.789 148.89C398.826 149.706 400.171 150.114 401.823 150.114C403.541 150.114 404.901 149.706 405.906 148.89C406.943 148.073 407.688 146.914 408.142 145.412C408.595 143.878 408.822 142.065 408.822 139.976C408.822 136.808 408.303 134.31 407.267 132.482C406.23 130.653 404.432 129.739 401.872 129.739C400.187 129.739 398.826 130.163 397.789 131.012C396.753 131.829 395.991 133.004 395.505 134.539C395.052 136.041 394.825 137.853 394.825 139.976Z" fill="black"/>
<path d="M458 157.51H445.704L433.019 132.873H432.825C432.89 133.429 432.938 134.082 432.971 134.833C433.035 135.584 433.084 136.367 433.116 137.184C433.149 138 433.181 138.8 433.214 139.584C433.246 140.367 433.262 141.086 433.262 141.739V157.51H424.951V122.539H437.199L449.835 146.833H449.981C449.948 146.278 449.9 145.641 449.835 144.922C449.803 144.171 449.77 143.42 449.738 142.669C449.705 141.886 449.673 141.118 449.641 140.367C449.641 139.616 449.641 138.947 449.641 138.359V122.539H458V157.51Z" fill="black"/>
<path d="M51.4522 139.29C51.4522 143.339 50.6908 146.718 49.1679 149.429C47.6775 152.139 45.5715 154.163 42.8498 155.502C40.1282 156.841 36.9205 157.51 33.2268 157.51H22V122.539H34.0044C37.7305 122.539 40.8896 123.192 43.4816 124.498C46.0737 125.771 48.0501 127.649 49.4109 130.131C50.7718 132.612 51.4522 135.665 51.4522 139.29ZM41.732 139.633C41.732 137.51 41.4404 135.747 40.8572 134.343C40.3064 132.939 39.4639 131.894 38.3299 131.208C37.2283 130.522 35.8189 130.18 34.1016 130.18H31.38V149.771H33.4698C36.3211 149.771 38.4109 148.939 39.7394 147.273C41.0678 145.608 41.732 143.061 41.732 139.633Z" stroke="#00FF85" stroke-width="2" mask="url(#path-1-outside-1_1053_160)"/>
<path d="M90.1568 139.976C90.1568 142.686 89.8328 145.151 89.1848 147.371C88.5367 149.559 87.5323 151.453 86.1715 153.053C84.8107 154.653 83.061 155.878 80.9226 156.727C78.8166 157.576 76.2731 158 73.2922 158C70.3762 158 67.8489 157.576 65.7105 156.727C63.6045 155.878 61.8548 154.653 60.4616 153.053C59.1008 151.453 58.0801 149.559 57.3997 147.371C56.7517 145.151 56.4277 142.669 56.4277 139.927C56.4277 136.302 57.0271 133.151 58.2259 130.473C59.4248 127.763 61.2716 125.673 63.7665 124.204C66.2613 122.735 69.4528 122 73.3408 122C77.2937 122 80.5014 122.751 82.9638 124.253C85.4587 125.722 87.2731 127.812 88.4071 130.522C89.5736 133.2 90.1568 136.351 90.1568 139.976ZM66.2937 139.976C66.2937 142.065 66.5205 143.878 66.9741 145.412C67.4601 146.914 68.2215 148.073 69.2584 148.89C70.2952 149.706 71.6398 150.114 73.2922 150.114C75.0095 150.114 76.3703 149.706 77.3747 148.89C78.4115 148.073 79.1568 146.914 79.6104 145.412C80.064 143.878 80.2908 142.065 80.2908 139.976C80.2908 136.808 79.7724 134.31 78.7356 132.482C77.6987 130.653 75.9005 129.739 73.3408 129.739C71.656 129.739 70.2952 130.163 69.2584 131.012C68.2215 131.829 67.4601 133.004 66.9741 134.539C66.5205 136.041 66.2937 137.853 66.2937 139.976Z" stroke="#00FF85" stroke-width="2" mask="url(#path-1-outside-1_1053_160)"/>
<path d="M111.875 129.788C110.774 129.788 109.785 130.033 108.911 130.522C108.036 130.98 107.291 131.665 106.675 132.58C106.059 133.461 105.59 134.539 105.266 135.812C104.942 137.086 104.78 138.539 104.78 140.171C104.78 142.359 105.055 144.204 105.606 145.706C106.157 147.208 106.999 148.351 108.133 149.135C109.267 149.886 110.693 150.261 112.41 150.261C113.933 150.261 115.407 150.049 116.833 149.624C118.291 149.2 119.749 148.678 121.207 148.057V156.041C119.684 156.727 118.112 157.216 116.492 157.51C114.905 157.837 113.204 158 111.389 158C107.631 158 104.553 157.249 102.155 155.747C99.7575 154.245 97.9917 152.155 96.8576 149.478C95.7236 146.767 95.1566 143.649 95.1566 140.122C95.1566 137.478 95.513 135.061 96.2258 132.873C96.971 130.653 98.0565 128.743 99.4821 127.143C100.908 125.51 102.657 124.253 104.731 123.371C106.837 122.49 109.251 122.049 111.973 122.049C113.657 122.049 115.423 122.245 117.27 122.637C119.117 123.029 120.931 123.649 122.713 124.498L119.846 131.943C118.582 131.322 117.302 130.816 116.006 130.424C114.71 130 113.333 129.788 111.875 129.788Z" stroke="#00FF85" stroke-width="2" mask="url(#path-1-outside-1_1053_160)"/>
<path d="M157.483 143.6C157.483 146.539 156.932 149.086 155.831 151.241C154.729 153.396 153.06 155.061 150.825 156.237C148.622 157.412 145.851 158 142.514 158C137.719 158 134.057 156.776 131.53 154.327C129.035 151.845 127.788 148.335 127.788 143.796V122.539H137.217V143.061C137.217 145.543 137.67 147.339 138.577 148.449C139.517 149.559 140.878 150.114 142.66 150.114C143.956 150.114 144.993 149.869 145.77 149.38C146.58 148.89 147.164 148.122 147.52 147.078C147.909 146.033 148.103 144.678 148.103 143.012V122.539H157.483V143.6Z" stroke="#00FF85" stroke-width="2" mask="url(#path-1-outside-1_1053_160)"/>
<path d="M179.88 157.51L172.784 132.335H172.59C172.655 132.988 172.72 133.869 172.784 134.98C172.849 136.09 172.914 137.298 172.979 138.604C173.044 139.878 173.076 141.118 173.076 142.327V157.51H164.765V122.539H177.256L184.497 147.371H184.692L191.787 122.539H204.278V157.51H195.676V142.18C195.676 141.069 195.692 139.894 195.724 138.653C195.757 137.38 195.805 136.188 195.87 135.078C195.935 133.935 195.983 133.037 196.016 132.384H195.821L188.823 157.51H179.88Z" stroke="#00FF85" stroke-width="2" mask="url(#path-1-outside-1_1053_160)"/>
<path d="M232.359 157.51H211.753V122.539H232.359V130.131H221.133V135.616H231.533V143.208H221.133V149.82H232.359V157.51Z" stroke="#00FF85" stroke-width="2" mask="url(#path-1-outside-1_1053_160)"/>
<path d="M271.475 157.51H259.179L246.494 132.873H246.3C246.364 133.429 246.413 134.082 246.445 134.833C246.51 135.584 246.559 136.367 246.591 137.184C246.624 138 246.656 138.8 246.688 139.584C246.721 140.367 246.737 141.086 246.737 141.739V157.51H238.426V122.539H250.674L263.31 146.833H263.456C263.423 146.278 263.375 145.641 263.31 144.922C263.277 144.171 263.245 143.42 263.213 142.669C263.18 141.886 263.148 141.118 263.115 140.367C263.115 139.616 263.115 138.947 263.115 138.359V122.539H271.475V157.51Z" stroke="#00FF85" stroke-width="2" mask="url(#path-1-outside-1_1053_160)"/>
<path d="M294.268 157.51H284.888V130.278H276.431V122.539H302.724V130.278H294.268V157.51Z" stroke="#00FF85" stroke-width="2" mask="url(#path-1-outside-1_1053_160)"/>
<path d="M325.543 157.51L323.842 150.947H312.567L310.817 157.51H300.514L311.838 122.392H324.328L335.798 157.51H325.543ZM320.391 137.478C320.229 136.857 320.003 135.976 319.711 134.833C319.419 133.657 319.128 132.449 318.836 131.208C318.544 129.967 318.318 128.955 318.156 128.171C318.026 128.955 317.815 129.935 317.524 131.11C317.265 132.286 316.989 133.445 316.698 134.588C316.438 135.731 316.212 136.694 316.017 137.478L314.511 143.208H321.898L320.391 137.478Z" stroke="#00FF85" stroke-width="2" mask="url(#path-1-outside-1_1053_160)"/>
<path d="M351.412 157.51H342.032V130.278H333.575V122.539H359.869V130.278H351.412V157.51Z" stroke="#00FF85" stroke-width="2" mask="url(#path-1-outside-1_1053_160)"/>
<path d="M380.807 157.51H362.727V152.122L367.053 150.457V129.543L362.727 127.927V122.539H380.807V127.927L376.481 129.543V150.457L380.807 152.122V157.51Z" stroke="#00FF85" stroke-width="2" mask="url(#path-1-outside-1_1053_160)"/>
<path d="M418.688 139.976C418.688 142.686 418.364 145.151 417.716 147.371C417.068 149.559 416.063 151.453 414.703 153.053C413.342 154.653 411.592 155.878 409.454 156.727C407.348 157.576 404.804 158 401.823 158C398.907 158 396.38 157.576 394.242 156.727C392.136 155.878 390.386 154.653 388.993 153.053C387.632 151.453 386.611 149.559 385.931 147.371C385.283 145.151 384.959 142.669 384.959 139.927C384.959 136.302 385.558 133.151 386.757 130.473C387.956 127.763 389.803 125.673 392.298 124.204C394.792 122.735 397.984 122 401.872 122C405.825 122 409.033 122.751 411.495 124.253C413.99 125.722 415.804 127.812 416.938 130.522C418.105 133.2 418.688 136.351 418.688 139.976ZM394.825 139.976C394.825 142.065 395.052 143.878 395.505 145.412C395.991 146.914 396.753 148.073 397.789 148.89C398.826 149.706 400.171 150.114 401.823 150.114C403.541 150.114 404.901 149.706 405.906 148.89C406.943 148.073 407.688 146.914 408.142 145.412C408.595 143.878 408.822 142.065 408.822 139.976C408.822 136.808 408.303 134.31 407.267 132.482C406.23 130.653 404.432 129.739 401.872 129.739C400.187 129.739 398.826 130.163 397.789 131.012C396.753 131.829 395.991 133.004 395.505 134.539C395.052 136.041 394.825 137.853 394.825 139.976Z" stroke="#00FF85" stroke-width="2" mask="url(#path-1-outside-1_1053_160)"/>
<path d="M458 157.51H445.704L433.019 132.873H432.825C432.89 133.429 432.938 134.082 432.971 134.833C433.035 135.584 433.084 136.367 433.116 137.184C433.149 138 433.181 138.8 433.214 139.584C433.246 140.367 433.262 141.086 433.262 141.739V157.51H424.951V122.539H437.199L449.835 146.833H449.981C449.948 146.278 449.9 145.641 449.835 144.922C449.803 144.171 449.77 143.42 449.738 142.669C449.705 141.886 449.673 141.118 449.641 140.367C449.641 139.616 449.641 138.947 449.641 138.359V122.539H458V157.51Z" stroke="#00FF85" stroke-width="2" mask="url(#path-1-outside-1_1053_160)"/>
</g>
<defs>
<filter id="filter0_d_1053_160" x="5" y="105" width="470" height="70" filterUnits="userSpaceOnUse" color-interpolation-filters="sRGB">
<feFlood flood-opacity="0" result="BackgroundImageFix"/>
<feColorMatrix in="SourceAlpha" type="matrix" values="0 0 0 0 0 0 0 0 0 0 0 0 0 0 0 0 0 0 127 0" result="hardAlpha"/>
<feOffset/>
<feGaussianBlur stdDeviation="8"/>
<feComposite in2="hardAlpha" operator="out"/>
<feColorMatrix type="matrix" values="0 0 0 0 0 0 0 0 0 1 0 0 0 0 0.521569 0 0 0 0.24 0"/>
<feBlend mode="normal" in2="BackgroundImageFix" result="effect1_dropShadow_1053_160"/>
<feBlend mode="normal" in="SourceGraphic" in2="effect1_dropShadow_1053_160" result="shape"/>
</filter>
</defs>
</svg>
