<svg width="480" height="280" viewBox="0 0 480 280" fill="none" xmlns="http://www.w3.org/2000/svg">
<rect width="480" height="280" fill="#0C0C0C"/>
<g filter="url(#filter0_d_1053_272)">
<path d="M172.824 170.155H137.009V109.845H172.824V122.937H153.311V132.398H171.388V145.49H153.311V156.894H172.824V170.155Z" fill="black"/>
<path d="M220.365 170.155L217.408 158.837H197.812L194.771 170.155H176.863L196.545 109.591H218.253L238.188 170.155H220.365ZM211.411 135.608C211.13 134.538 210.735 133.017 210.229 131.046C209.722 129.019 209.215 126.936 208.708 124.796C208.201 122.656 207.807 120.91 207.526 119.559C207.3 120.91 206.934 122.599 206.428 124.627C205.977 126.654 205.498 128.653 204.992 130.624C204.541 132.595 204.147 134.256 203.809 135.608L201.19 145.49H214.03L211.411 135.608Z" fill="black"/>
<path d="M284.104 151.826C284.104 155.092 283.259 158.189 281.57 161.117C279.937 164.045 277.374 166.439 273.883 168.297C270.448 170.099 265.971 171 260.452 171C257.693 171 255.272 170.859 253.188 170.578C251.161 170.352 249.246 169.958 247.444 169.395C245.642 168.832 243.784 168.1 241.869 167.199V152.67C245.135 154.303 248.43 155.57 251.752 156.471C255.075 157.316 258.087 157.738 260.79 157.738C262.423 157.738 263.747 157.541 264.76 157.147C265.774 156.753 266.534 156.218 267.041 155.542C267.548 154.866 267.801 154.106 267.801 153.262C267.801 152.192 267.435 151.291 266.703 150.559C265.971 149.827 264.817 149.066 263.24 148.278C261.663 147.49 259.551 146.504 256.905 145.322C254.652 144.308 252.625 143.238 250.823 142.112C249.021 140.985 247.472 139.718 246.177 138.311C244.938 136.903 243.981 135.27 243.305 133.411C242.63 131.497 242.292 129.244 242.292 126.654C242.292 122.768 243.249 119.53 245.164 116.94C247.078 114.293 249.725 112.322 253.104 111.027C256.539 109.676 260.509 109 265.014 109C268.956 109 272.503 109.451 275.657 110.352C278.81 111.196 281.626 112.182 284.104 113.308L279.12 125.894C276.53 124.711 273.967 123.782 271.433 123.106C268.956 122.374 266.647 122.008 264.507 122.008C263.099 122.008 261.945 122.177 261.044 122.515C260.143 122.853 259.467 123.332 259.017 123.951C258.622 124.514 258.425 125.162 258.425 125.894C258.425 126.851 258.791 127.696 259.523 128.428C260.255 129.16 261.466 129.976 263.155 130.877C264.901 131.722 267.266 132.82 270.251 134.172C273.179 135.467 275.657 136.903 277.684 138.48C279.768 140 281.344 141.83 282.414 143.97C283.541 146.054 284.104 148.672 284.104 151.826Z" fill="black"/>
<path d="M314.947 132.229L325.337 109.845H342.991L323.141 146.589V170.155H306.754V147.095L286.904 109.845H304.642L314.947 132.229Z" fill="black"/>
<path d="M172.824 170.655H173.324V170.155V156.894V156.394H172.824H153.811V145.99H171.388H171.888V145.49V132.398V131.898H171.388H153.811V123.437H172.824H173.324V122.937V109.845V109.345H172.824H137.009H136.509V109.845V170.155V170.655H137.009H172.824ZM219.881 170.282L219.979 170.655H220.365H238.188H238.879L238.663 169.999L218.728 109.435L218.615 109.091H218.253H196.545H196.181L196.069 109.437L176.388 170.001L176.175 170.655H176.863H194.771H195.154L195.254 170.285L198.195 159.337H217.022L219.881 170.282ZM210.928 135.735L210.928 135.736L213.38 144.99H201.84L204.292 135.736L204.294 135.729C204.633 134.375 205.027 132.712 205.477 130.742C205.985 128.77 206.463 126.77 206.914 124.742C207.16 123.76 207.373 122.855 207.553 122.028C207.749 122.893 207.971 123.855 208.222 124.911C208.729 127.053 209.236 129.138 209.744 131.168L209.744 131.171C210.251 133.142 210.646 134.664 210.928 135.735ZM265.014 108.5C260.461 108.5 256.427 109.183 252.923 110.561C249.465 111.887 246.737 113.913 244.76 116.645C242.771 119.338 241.792 122.685 241.792 126.654C241.792 129.286 242.135 131.597 242.834 133.578L242.835 133.582C243.531 135.496 244.52 137.184 245.802 138.641L245.802 138.641L245.809 138.649C247.138 140.093 248.722 141.388 250.558 142.536C252.382 143.676 254.43 144.756 256.7 145.777L256.701 145.778C259.345 146.959 261.449 147.941 263.016 148.725C264.574 149.504 265.673 150.236 266.35 150.912C266.984 151.547 267.301 152.319 267.301 153.262C267.301 153.998 267.083 154.653 266.641 155.242C266.204 155.825 265.53 156.311 264.579 156.681C263.645 157.045 262.389 157.238 260.79 157.238C258.139 157.238 255.17 156.824 251.879 155.988C248.592 155.096 245.33 153.842 242.093 152.223L241.369 151.861V152.67V167.199V167.516L241.656 167.651C243.589 168.561 245.469 169.302 247.295 169.872C249.128 170.445 251.073 170.845 253.127 171.074C255.237 171.359 257.68 171.5 260.452 171.5C266.02 171.5 270.585 170.592 274.115 168.74L274.118 168.738C277.678 166.844 280.317 164.388 282.005 161.363C283.735 158.363 284.604 155.181 284.604 151.826C284.604 148.619 284.032 145.915 282.858 143.74C281.751 141.528 280.123 139.642 277.985 138.08C275.92 136.475 273.408 135.022 270.455 133.715C267.478 132.367 265.121 131.273 263.382 130.432C261.711 129.54 260.555 128.752 259.877 128.074C259.23 127.428 258.925 126.707 258.925 125.894C258.925 125.259 259.094 124.714 259.424 124.241C259.803 123.721 260.388 123.295 261.219 122.983C262.045 122.674 263.134 122.508 264.507 122.508C266.59 122.508 268.851 122.865 271.292 123.586L271.292 123.586L271.305 123.589C273.809 124.257 276.345 125.177 278.912 126.349L279.391 126.567L279.585 126.078L284.569 113.492L284.744 113.05L284.311 112.853C281.804 111.714 278.963 110.72 275.79 109.87C272.585 108.954 268.991 108.5 265.014 108.5ZM314.949 131.037L305.096 109.636L304.962 109.345H304.642H286.904H286.071L286.462 110.08L306.254 147.22V170.155V170.655H306.754H323.141H323.641V170.155V146.715L343.431 110.082L343.829 109.345H342.991H325.337H325.018L324.883 109.634L314.949 131.037Z" stroke="#00FF85"/>
</g>
<defs>
<filter id="filter0_d_1053_272" x="120.009" y="92" width="240.659" height="96" filterUnits="userSpaceOnUse" color-interpolation-filters="sRGB">
<feFlood flood-opacity="0" result="BackgroundImageFix"/>
<feColorMatrix in="SourceAlpha" type="matrix" values="0 0 0 0 0 0 0 0 0 0 0 0 0 0 0 0 0 0 127 0" result="hardAlpha"/>
<feOffset/>
<feGaussianBlur stdDeviation="8"/>
<feComposite in2="hardAlpha" operator="out"/>
<feColorMatrix type="matrix" values="0 0 0 0 0 0 0 0 0 1 0 0 0 0 0.521569 0 0 0 0.24 0"/>
<feBlend mode="normal" in2="BackgroundImageFix" result="effect1_dropShadow_1053_272"/>
<feBlend mode="normal" in="SourceGraphic" in2="effect1_dropShadow_1053_272" result="shape"/>
</filter>
</defs>
</svg>
