<svg width="480" height="280" viewBox="0 0 480 280" fill="none" xmlns="http://www.w3.org/2000/svg">
<g clip-path="url(#clip0_1032_1368)">
<rect width="480" height="280" fill="#0C0C0C"/>
<g opacity="0.5" filter="url(#filter0_d_1032_1368)">
<path d="M465.473 73.1627L465.701 72.5H465H423.173H422.796L422.693 72.8627L403.524 139.986C402.744 142.461 401.902 145.67 400.998 149.607L400.998 149.607L400.995 149.62C400.221 153.432 399.446 157.306 398.671 161.241L398.671 161.241L398.669 161.254C398.341 163.188 398.063 164.95 397.835 166.54C397.573 164.899 397.21 163.068 396.746 161.049C395.971 157.112 395.131 153.175 394.227 149.238C393.323 145.302 392.547 142.099 391.9 139.633L391.9 139.633L391.897 139.625L373.114 72.8646L373.011 72.5H372.633H330.612H329.912L330.139 73.1621L375.258 204.839L375.374 205.177H375.731H419.688H420.044L420.161 204.839L465.473 73.1627Z" fill="black" stroke="#00FF85"/>
<path d="M315.704 205.177H316.204V204.677V73V72.5H315.704H282.398H281.898V73V132.568V132.581V132.594V132.607V132.62V132.633V132.646V132.659V132.672V132.685V132.698V132.711V132.724V132.737V132.75V132.763V132.776V132.789V132.803V132.816V132.829V132.842V132.855V132.868V132.881V132.894V132.908V132.921V132.934V132.947V132.96V132.973V132.987V133V133.013V133.026V133.039V133.053V133.066V133.079V133.092V133.106V133.119V133.132V133.145V133.159V133.172V133.185V133.199V133.212V133.225V133.238V133.252V133.265V133.278V133.292V133.305V133.319V133.332V133.345V133.359V133.372V133.385V133.399V133.412V133.426V133.439V133.453V133.466V133.479V133.493V133.506V133.52V133.533V133.547V133.56V133.574V133.587V133.601V133.614V133.628V133.641V133.655V133.669V133.682V133.696V133.709V133.723V133.736V133.75V133.764V133.777V133.791V133.804V133.818V133.832V133.845V133.859V133.873V133.886V133.9V133.914V133.927V133.941V133.955V133.968V133.982V133.996V134.009V134.023V134.037V134.051V134.064V134.078V134.092V134.106V134.12V134.133V134.147V134.161V134.175V134.189V134.202V134.216V134.23V134.244V134.258V134.272V134.285V134.299V134.313V134.327V134.341V134.355V134.369V134.383V134.397V134.411V134.424V134.438V134.452V134.466V134.48V134.494V134.508V134.522V134.536V134.55V134.564V134.578V134.592V134.606V134.62V134.634V134.648V134.662V134.676V134.691V134.705V134.719V134.733V134.747V134.761V134.775V134.789V134.803V134.817V134.832V134.846V134.86V134.874V134.888V134.902V134.917V134.931V134.945V134.959V134.973V134.988V135.002V135.016V135.03V135.045V135.059V135.073V135.087V135.102V135.116V135.13V135.144V135.159V135.173V135.187V135.202V135.216V135.23V135.245V135.259V135.273V135.288V135.302V135.317V135.331V135.345V135.36V135.374V135.389V135.403V135.417V135.432V135.446V135.461V135.475V135.49V135.504V135.519V135.533V135.548V135.562V135.577V135.591V135.606V135.62V135.635V135.649V135.664V135.678V135.693V135.707V135.722V135.737V135.751V135.766V135.78V135.795V135.81V135.824V135.839V135.853V135.868V135.883V135.897V135.912V135.927V135.941V135.956V135.971V135.985V136V136.015V136.03V136.044V136.059V136.074V136.089V136.103V136.118V136.133V136.148V136.162V136.177V136.192V136.207V136.222V136.236V136.251V136.266V136.281V136.296V136.311V136.326V136.34V136.355V136.37V136.385V136.4V136.415V136.43V136.445V136.46V136.475V136.49V136.504V136.519V136.534V136.549V136.564V136.579V136.594V136.609V136.624V136.639V136.654V136.669V136.684V136.699V136.714V136.73V136.745V136.76V136.775V136.79V136.805V136.82V136.835V136.85V136.865V136.88V136.896V136.911V136.926V136.941V136.956V136.971V136.986V137.002V137.017V137.032V137.047V137.062V137.078V137.093V137.108V137.123V137.139V137.154V137.169V137.184V137.2V137.215V137.23V137.246V137.261V137.276V137.291V137.307V137.322V137.337V137.353V137.368V137.383V137.399V137.414V137.43V137.445V137.46V137.476V137.491V137.507V137.522V137.537V137.553V137.568V137.584V137.599V137.615V137.63V137.646V137.661V137.677V137.692V137.708V137.723V137.739V137.754V137.77V137.785V137.801V137.816V137.832V137.847V137.863V137.879V137.894V137.91V137.925V137.941V137.957V137.972V137.988V138.003V138.019V138.035V138.05V138.066V138.082V138.097V138.113V138.129V138.144V138.16V138.176V138.192V138.207V138.223V138.239V138.255V138.27V138.286V138.302V138.318V138.333V138.349V138.365V138.381V138.397V138.412V138.428V138.444V138.46V138.476V138.492V138.508V138.523V138.539V138.555V138.571V138.587V138.603V138.619V138.635V138.651V138.667V138.682V138.698V138.714V138.73V138.746V138.762V138.778V138.794V138.81V138.826V138.842V138.858V138.874V138.89V138.906V138.922V138.938V138.955V138.971V138.987V139.003V139.019V139.035V139.051V139.067V139.083V139.099V139.116V139.132V139.148V139.164V139.18V139.196V139.212V139.229V139.245V139.261V139.277V139.293V139.31V139.326V139.342V139.358V139.375V139.391V139.407V139.423V139.44V139.456V139.472V139.488V139.505V139.521V139.537V139.554V139.57V139.586V139.603V139.619V139.635V139.652V139.668V139.684V139.701V139.717V139.734V139.75V139.766V139.783V139.799V139.816V139.832V139.849V139.865V139.882V139.898V139.914V139.931V139.947V139.964V139.98V139.997V140.013V140.03V140.047V140.063V140.08V140.096V140.113V140.129V140.141L281.898 140.152C282.027 142.98 282.156 145.868 282.285 148.819L282.285 148.82L282.673 157.303L282.673 157.316L282.674 157.328C282.89 159.589 283.061 161.633 283.186 163.461L233.263 72.7589L233.121 72.5H232.825H184.027H183.527V73V204.677V205.177H184.027H217.14H217.64V204.677V145.293C217.64 142.826 217.575 140.113 217.446 137.157C217.317 134.206 217.188 131.194 217.059 128.121C216.93 125.044 216.736 122.089 216.477 119.256C216.363 116.758 216.198 114.542 215.983 112.611L266.274 204.916L266.416 205.177H266.713H315.704Z" fill="black" stroke="#00FF85"/>
<path d="M159.855 205.177H160.355V204.677V175.723V175.223H159.855H115.624V151.326H156.563H157.063V150.826V122.24V121.74H156.563H115.624V102.085H159.855H160.355V101.585V73V72.5H159.855H77.751H77.251V73V204.677V205.177H77.751H159.855Z" fill="black" stroke="#00FF85"/>
<path d="M20.5382 175.856L20.5382 175.856L20.5319 175.86C16.4713 178.567 14.5 183.247 14.5 189.739C14.5 195.877 16.4798 200.419 20.523 203.243L20.5229 203.243L20.5293 203.247C24.6258 206.016 29.5033 207.39 35.1388 207.39C40.5194 207.39 45.143 206.014 48.9834 203.24C53.0244 200.416 55.003 195.875 55.003 189.739C55.003 183.249 53.0328 178.57 48.9744 175.862C45.1348 173.215 40.5145 171.903 35.1388 171.903C29.5078 171.903 24.6336 173.214 20.5382 175.856Z" fill="black" stroke="#00FF85"/>
</g>
<path d="M341.302 110.163L341.53 109.5H340.829H322.085H321.708L321.604 109.863L313.015 139.939C312.663 141.057 312.285 142.502 311.879 144.268L311.879 144.268L311.876 144.28C311.529 145.99 311.182 147.726 310.834 149.49L310.834 149.49L310.832 149.503C310.787 149.767 310.745 150.023 310.704 150.272C310.645 149.99 310.581 149.7 310.512 149.4C310.165 147.634 309.788 145.868 309.382 144.103C308.977 142.337 308.629 140.899 308.337 139.79L308.338 139.79L308.335 139.782L299.918 109.865L299.815 109.5H299.436H280.606H279.906L280.133 110.162L300.352 169.17L300.468 169.508H300.825H320.523H320.88L320.996 169.171L341.302 110.163Z" fill="black" stroke="#00FF85"/>
<path d="M273.925 169.508H274.425V169.008V110V109.5H273.925H259H258.5V110V136.694V136.7V136.706V136.712V136.717V136.723V136.729V136.735V136.741V136.747V136.752V136.758V136.764V136.77V136.776V136.782V136.788V136.793V136.799V136.805V136.811V136.817V136.823V136.829V136.835V136.84V136.846V136.852V136.858V136.864V136.87V136.876V136.882V136.888V136.894V136.899V136.905V136.911V136.917V136.923V136.929V136.935V136.941V136.947V136.953V136.959V136.965V136.971V136.977V136.983V136.989V136.995V137.001V137.007V137.013V137.019V137.024V137.03V137.036V137.042V137.048V137.054V137.06V137.066V137.073V137.079V137.085V137.091V137.097V137.103V137.109V137.115V137.121V137.127V137.133V137.139V137.145V137.151V137.157V137.163V137.169V137.175V137.181V137.187V137.193V137.199V137.206V137.212V137.218V137.224V137.23V137.236V137.242V137.248V137.254V137.26V137.267V137.273V137.279V137.285V137.291V137.297V137.303V137.309V137.316V137.322V137.328V137.334V137.34V137.346V137.352V137.359V137.365V137.371V137.377V137.383V137.389V137.396V137.402V137.408V137.414V137.42V137.427V137.433V137.439V137.445V137.451V137.458V137.464V137.47V137.476V137.482V137.489V137.495V137.501V137.507V137.514V137.52V137.526V137.532V137.539V137.545V137.551V137.557V137.564V137.57V137.576V137.582V137.589V137.595V137.601V137.608V137.614V137.62V137.626V137.633V137.639V137.645V137.652V137.658V137.664V137.671V137.677V137.683V137.69V137.696V137.702V137.709V137.715V137.721V137.728V137.734V137.74V137.747V137.753V137.759V137.766V137.772V137.778V137.785V137.791V137.798V137.804V137.81V137.817V137.823V137.83V137.836V137.842V137.849V137.855V137.862V137.868V137.874V137.881V137.887V137.894V137.9V137.907V137.913V137.919V137.926V137.932V137.939V137.945V137.952V137.958V137.965V137.971V137.977V137.984V137.99V137.997V138.003V138.01V138.016V138.023V138.029V138.036V138.042V138.049V138.055V138.062V138.068V138.075V138.081V138.088V138.094V138.101V138.108V138.114V138.121V138.127V138.134V138.14V138.147V138.153V138.16V138.166V138.173V138.18V138.186V138.193V138.199V138.206V138.212V138.219V138.226V138.232V138.239V138.245V138.252V138.259V138.265V138.272V138.278V138.285V138.292V138.298V138.305V138.312V138.318V138.325V138.331V138.338V138.345V138.351V138.358V138.365V138.371V138.378V138.385V138.391V138.398V138.405V138.411V138.418V138.425V138.431V138.438V138.445V138.451V138.458V138.465V138.472V138.478V138.485V138.492V138.498V138.505V138.512V138.519V138.525V138.532V138.539V138.546V138.552V138.559V138.566V138.573V138.579V138.586V138.593V138.6V138.606V138.613V138.62V138.627V138.633V138.64V138.647V138.654V138.661V138.667V138.674V138.681V138.688V138.695V138.701V138.708V138.715V138.722V138.729V138.736V138.742V138.749V138.756V138.763V138.77V138.777V138.783V138.79V138.797V138.804V138.811V138.818V138.825V138.831V138.838V138.845V138.852V138.859V138.866V138.873V138.88V138.887V138.893V138.9V138.907V138.914V138.921V138.928V138.935V138.942V138.949V138.956V138.963V138.97V138.976V138.983V138.99V138.997V139.004V139.011V139.018V139.025V139.032V139.039V139.046V139.053V139.06V139.067V139.074V139.081V139.088V139.095V139.102V139.109V139.116V139.123V139.13V139.137V139.144V139.151V139.158V139.165V139.172V139.179V139.186V139.193V139.2V139.207V139.214V139.221V139.228V139.235V139.242V139.25V139.257V139.264V139.271V139.278V139.285V139.292V139.299V139.306V139.313V139.32V139.327V139.335V139.342V139.349V139.356V139.363V139.37V139.377V139.384V139.391V139.399V139.406V139.413V139.42V139.427V139.434V139.441V139.449V139.456V139.463V139.47V139.477V139.484V139.491V139.499V139.506V139.513V139.52V139.527V139.535V139.542V139.549V139.556V139.563V139.571V139.578V139.585V139.592V139.599V139.607V139.614V139.621V139.628V139.635V139.643V139.65V139.657V139.664V139.672V139.679V139.686V139.693V139.701V139.708V139.715V139.723V139.73V139.737V139.744V139.752V139.759V139.766V139.773V139.781V139.788V139.795V139.803V139.81V139.817V139.825V139.832V139.839V139.847V139.854V139.861V139.869V139.876V139.883V139.891V139.898V139.905V139.913V139.92V139.927V139.935V139.942V139.949V139.957V139.964V139.972V139.979V139.986V139.994V140.001V140.008V140.016V140.023V140.031V140.038V140.045V140.053V140.06V140.068V140.075V140.083V140.094L258.5 140.105C258.558 141.372 258.616 142.667 258.674 143.989L258.674 143.99L258.847 147.791L258.848 147.804L258.849 147.816C258.898 148.333 258.942 148.824 258.981 149.29L237.223 109.759L237.08 109.5H236.785H214.917H214.417V110V169.008V169.508H214.917H229.756H230.256V169.008V142.397C230.256 141.286 230.227 140.067 230.169 138.738C230.111 137.416 230.053 136.067 229.995 134.69C229.937 133.309 229.85 131.982 229.734 130.71C229.707 130.125 229.674 129.575 229.635 129.058L251.532 169.247L251.674 169.508H251.971H273.925Z" fill="black" stroke="#00FF85"/>
<path d="M204.085 169.508H204.585V169.008V156.033V155.533H204.085H184.539V145.376H202.61H203.11V144.876V132.066V131.566H202.61H184.539V123.31H204.085H204.585V122.81V110V109.5H204.085H167.292H166.792V110V169.008V169.508H167.292H204.085Z" fill="black" stroke="#00FF85"/>
<path d="M141.503 155.861L141.503 155.861L141.497 155.865C139.574 157.147 138.671 159.35 138.671 162.314C138.671 165.127 139.582 167.261 141.488 168.592L141.488 168.592L141.494 168.596C143.382 169.872 145.624 170.5 148.196 170.5C150.655 170.5 152.785 169.87 154.56 168.589C156.463 167.258 157.373 165.125 157.373 162.314C157.373 159.352 156.472 157.15 154.551 155.867C152.777 154.645 150.65 154.046 148.196 154.046C145.628 154.046 143.39 154.644 141.503 155.861Z" fill="black" stroke="#00FF85"/>
</g>
<defs>
<filter id="filter0_d_1032_1368" x="-2" y="56" width="484.402" height="167.89" filterUnits="userSpaceOnUse" color-interpolation-filters="sRGB">
<feFlood flood-opacity="0" result="BackgroundImageFix"/>
<feColorMatrix in="SourceAlpha" type="matrix" values="0 0 0 0 0 0 0 0 0 0 0 0 0 0 0 0 0 0 127 0" result="hardAlpha"/>
<feOffset/>
<feGaussianBlur stdDeviation="8"/>
<feColorMatrix type="matrix" values="0 0 0 0 0 0 0 0 0 1 0 0 0 0 0.521569 0 0 0 1 0"/>
<feBlend mode="normal" in2="BackgroundImageFix" result="effect1_dropShadow_1032_1368"/>
<feBlend mode="normal" in="SourceGraphic" in2="effect1_dropShadow_1032_1368" result="shape"/>
</filter>
<clipPath id="clip0_1032_1368">
<rect width="480" height="280" fill="white"/>
</clipPath>
</defs>
</svg>
