<svg width="480" height="280" viewBox="0 0 480 280" fill="none" xmlns="http://www.w3.org/2000/svg">
<rect width="480" height="280" fill="#0C0C0C"/>
<g filter="url(#filter0_d_1053_230)">
<mask id="path-1-outside-1_1053_230" maskUnits="userSpaceOnUse" x="130.021" y="107.982" width="305" height="64" fill="black">
<rect fill="white" x="130.021" y="107.982" width="305" height="64"/>
<path d="M147.07 170.138H131.021V109.827H166.666V122.92H147.07V134.407H165.146V147.5H147.07V170.138Z"/>
<path d="M211.902 170.138L208.945 158.819H189.349L186.308 170.138H168.401L188.082 109.574H209.79L229.725 170.138H211.902ZM202.948 135.59C202.667 134.52 202.272 132.999 201.766 131.029C201.259 129.001 200.752 126.918 200.245 124.778C199.738 122.638 199.344 120.892 199.063 119.541C198.837 120.892 198.471 122.582 197.965 124.609C197.514 126.636 197.035 128.635 196.529 130.606C196.078 132.577 195.684 134.238 195.346 135.59L192.728 145.473H205.567L202.948 135.59Z"/>
<path d="M275.641 151.808C275.641 155.074 274.796 158.171 273.107 161.099C271.474 164.028 268.911 166.421 265.42 168.279C261.985 170.081 257.508 170.982 251.99 170.982C249.23 170.982 246.809 170.841 244.725 170.56C242.698 170.335 240.783 169.94 238.981 169.377C237.179 168.814 235.321 168.082 233.406 167.181V152.653C236.673 154.286 239.967 155.553 243.289 156.454C246.612 157.298 249.624 157.721 252.327 157.721C253.96 157.721 255.284 157.524 256.297 157.129C257.311 156.735 258.071 156.2 258.578 155.524C259.085 154.849 259.338 154.089 259.338 153.244C259.338 152.174 258.972 151.273 258.24 150.541C257.508 149.809 256.354 149.049 254.777 148.26C253.2 147.472 251.089 146.486 248.442 145.304C246.189 144.29 244.162 143.22 242.36 142.094C240.558 140.968 239.009 139.701 237.714 138.293C236.475 136.885 235.518 135.252 234.842 133.394C234.167 131.479 233.829 129.227 233.829 126.636C233.829 122.751 234.786 119.513 236.701 116.922C238.615 114.276 241.262 112.305 244.641 111.009C248.076 109.658 252.046 108.982 256.551 108.982C260.493 108.982 264.04 109.433 267.194 110.334C270.347 111.178 273.163 112.164 275.641 113.29L270.657 125.876C268.067 124.693 265.505 123.764 262.97 123.089C260.493 122.356 258.184 121.99 256.044 121.99C254.636 121.99 253.482 122.159 252.581 122.497C251.68 122.835 251.004 123.314 250.554 123.933C250.159 124.496 249.962 125.144 249.962 125.876C249.962 126.833 250.328 127.678 251.06 128.41C251.792 129.142 253.003 129.959 254.693 130.86C256.438 131.704 258.803 132.802 261.788 134.154C264.716 135.449 267.194 136.885 269.221 138.462C271.305 139.982 272.881 141.812 273.951 143.952C275.078 146.036 275.641 148.654 275.641 151.808Z"/>
<path d="M311.552 170.138H295.25V123.173H280.552V109.827H326.25V123.173H311.552V170.138Z"/>
<path d="M370.665 170.138H334.851V109.827H370.665V122.92H351.153V132.38H369.229V145.473H351.153V156.876H370.665V170.138Z"/>
<path d="M400.975 109.827C406.437 109.827 410.971 110.503 414.575 111.854C418.235 113.206 420.966 115.205 422.768 117.851C424.626 120.442 425.555 123.708 425.555 127.65C425.555 130.071 425.133 132.296 424.288 134.323C423.5 136.35 422.346 138.152 420.825 139.729C419.305 141.306 417.475 142.685 415.335 143.868L432.904 170.138H414.406L401.651 148.176H397.512V170.138H381.209V109.827H400.975ZM400.722 122.159H397.512V135.928H400.553C402.242 135.928 403.706 135.702 404.945 135.252C406.24 134.745 407.254 133.957 407.986 132.887C408.718 131.761 409.084 130.268 409.084 128.41C409.084 127.115 408.802 126.017 408.239 125.116C407.676 124.158 406.775 123.426 405.536 122.92C404.298 122.413 402.693 122.159 400.722 122.159Z"/>
</mask>
<path d="M147.07 170.138H131.021V109.827H166.666V122.92H147.07V134.407H165.146V147.5H147.07V170.138Z" fill="black"/>
<path d="M211.902 170.138L208.945 158.819H189.349L186.308 170.138H168.401L188.082 109.574H209.79L229.725 170.138H211.902ZM202.948 135.59C202.667 134.52 202.272 132.999 201.766 131.029C201.259 129.001 200.752 126.918 200.245 124.778C199.738 122.638 199.344 120.892 199.063 119.541C198.837 120.892 198.471 122.582 197.965 124.609C197.514 126.636 197.035 128.635 196.529 130.606C196.078 132.577 195.684 134.238 195.346 135.59L192.728 145.473H205.567L202.948 135.59Z" fill="black"/>
<path d="M275.641 151.808C275.641 155.074 274.796 158.171 273.107 161.099C271.474 164.028 268.911 166.421 265.42 168.279C261.985 170.081 257.508 170.982 251.99 170.982C249.23 170.982 246.809 170.841 244.725 170.56C242.698 170.335 240.783 169.94 238.981 169.377C237.179 168.814 235.321 168.082 233.406 167.181V152.653C236.673 154.286 239.967 155.553 243.289 156.454C246.612 157.298 249.624 157.721 252.327 157.721C253.96 157.721 255.284 157.524 256.297 157.129C257.311 156.735 258.071 156.2 258.578 155.524C259.085 154.849 259.338 154.089 259.338 153.244C259.338 152.174 258.972 151.273 258.24 150.541C257.508 149.809 256.354 149.049 254.777 148.26C253.2 147.472 251.089 146.486 248.442 145.304C246.189 144.29 244.162 143.22 242.36 142.094C240.558 140.968 239.009 139.701 237.714 138.293C236.475 136.885 235.518 135.252 234.842 133.394C234.167 131.479 233.829 129.227 233.829 126.636C233.829 122.751 234.786 119.513 236.701 116.922C238.615 114.276 241.262 112.305 244.641 111.009C248.076 109.658 252.046 108.982 256.551 108.982C260.493 108.982 264.04 109.433 267.194 110.334C270.347 111.178 273.163 112.164 275.641 113.29L270.657 125.876C268.067 124.693 265.505 123.764 262.97 123.089C260.493 122.356 258.184 121.99 256.044 121.99C254.636 121.99 253.482 122.159 252.581 122.497C251.68 122.835 251.004 123.314 250.554 123.933C250.159 124.496 249.962 125.144 249.962 125.876C249.962 126.833 250.328 127.678 251.06 128.41C251.792 129.142 253.003 129.959 254.693 130.86C256.438 131.704 258.803 132.802 261.788 134.154C264.716 135.449 267.194 136.885 269.221 138.462C271.305 139.982 272.881 141.812 273.951 143.952C275.078 146.036 275.641 148.654 275.641 151.808Z" fill="black"/>
<path d="M311.552 170.138H295.25V123.173H280.552V109.827H326.25V123.173H311.552V170.138Z" fill="black"/>
<path d="M370.665 170.138H334.851V109.827H370.665V122.92H351.153V132.38H369.229V145.473H351.153V156.876H370.665V170.138Z" fill="black"/>
<path d="M400.975 109.827C406.437 109.827 410.971 110.503 414.575 111.854C418.235 113.206 420.966 115.205 422.768 117.851C424.626 120.442 425.555 123.708 425.555 127.65C425.555 130.071 425.133 132.296 424.288 134.323C423.5 136.35 422.346 138.152 420.825 139.729C419.305 141.306 417.475 142.685 415.335 143.868L432.904 170.138H414.406L401.651 148.176H397.512V170.138H381.209V109.827H400.975ZM400.722 122.159H397.512V135.928H400.553C402.242 135.928 403.706 135.702 404.945 135.252C406.24 134.745 407.254 133.957 407.986 132.887C408.718 131.761 409.084 130.268 409.084 128.41C409.084 127.115 408.802 126.017 408.239 125.116C407.676 124.158 406.775 123.426 405.536 122.92C404.298 122.413 402.693 122.159 400.722 122.159Z" fill="black"/>
<path d="M147.07 170.138H131.021V109.827H166.666V122.92H147.07V134.407H165.146V147.5H147.07V170.138Z" stroke="#00FF85" stroke-width="2" mask="url(#path-1-outside-1_1053_230)"/>
<path d="M211.902 170.138L208.945 158.819H189.349L186.308 170.138H168.401L188.082 109.574H209.79L229.725 170.138H211.902ZM202.948 135.59C202.667 134.52 202.272 132.999 201.766 131.029C201.259 129.001 200.752 126.918 200.245 124.778C199.738 122.638 199.344 120.892 199.063 119.541C198.837 120.892 198.471 122.582 197.965 124.609C197.514 126.636 197.035 128.635 196.529 130.606C196.078 132.577 195.684 134.238 195.346 135.59L192.728 145.473H205.567L202.948 135.59Z" stroke="#00FF85" stroke-width="2" mask="url(#path-1-outside-1_1053_230)"/>
<path d="M275.641 151.808C275.641 155.074 274.796 158.171 273.107 161.099C271.474 164.028 268.911 166.421 265.42 168.279C261.985 170.081 257.508 170.982 251.99 170.982C249.23 170.982 246.809 170.841 244.725 170.56C242.698 170.335 240.783 169.94 238.981 169.377C237.179 168.814 235.321 168.082 233.406 167.181V152.653C236.673 154.286 239.967 155.553 243.289 156.454C246.612 157.298 249.624 157.721 252.327 157.721C253.96 157.721 255.284 157.524 256.297 157.129C257.311 156.735 258.071 156.2 258.578 155.524C259.085 154.849 259.338 154.089 259.338 153.244C259.338 152.174 258.972 151.273 258.24 150.541C257.508 149.809 256.354 149.049 254.777 148.26C253.2 147.472 251.089 146.486 248.442 145.304C246.189 144.29 244.162 143.22 242.36 142.094C240.558 140.968 239.009 139.701 237.714 138.293C236.475 136.885 235.518 135.252 234.842 133.394C234.167 131.479 233.829 129.227 233.829 126.636C233.829 122.751 234.786 119.513 236.701 116.922C238.615 114.276 241.262 112.305 244.641 111.009C248.076 109.658 252.046 108.982 256.551 108.982C260.493 108.982 264.04 109.433 267.194 110.334C270.347 111.178 273.163 112.164 275.641 113.29L270.657 125.876C268.067 124.693 265.505 123.764 262.97 123.089C260.493 122.356 258.184 121.99 256.044 121.99C254.636 121.99 253.482 122.159 252.581 122.497C251.68 122.835 251.004 123.314 250.554 123.933C250.159 124.496 249.962 125.144 249.962 125.876C249.962 126.833 250.328 127.678 251.06 128.41C251.792 129.142 253.003 129.959 254.693 130.86C256.438 131.704 258.803 132.802 261.788 134.154C264.716 135.449 267.194 136.885 269.221 138.462C271.305 139.982 272.881 141.812 273.951 143.952C275.078 146.036 275.641 148.654 275.641 151.808Z" stroke="#00FF85" stroke-width="2" mask="url(#path-1-outside-1_1053_230)"/>
<path d="M311.552 170.138H295.25V123.173H280.552V109.827H326.25V123.173H311.552V170.138Z" stroke="#00FF85" stroke-width="2" mask="url(#path-1-outside-1_1053_230)"/>
<path d="M370.665 170.138H334.851V109.827H370.665V122.92H351.153V132.38H369.229V145.473H351.153V156.876H370.665V170.138Z" stroke="#00FF85" stroke-width="2" mask="url(#path-1-outside-1_1053_230)"/>
<path d="M400.975 109.827C406.437 109.827 410.971 110.503 414.575 111.854C418.235 113.206 420.966 115.205 422.768 117.851C424.626 120.442 425.555 123.708 425.555 127.65C425.555 130.071 425.133 132.296 424.288 134.323C423.5 136.35 422.346 138.152 420.825 139.729C419.305 141.306 417.475 142.685 415.335 143.868L432.904 170.138H414.406L401.651 148.176H397.512V170.138H381.209V109.827H400.975ZM400.722 122.159H397.512V135.928H400.553C402.242 135.928 403.706 135.702 404.945 135.252C406.24 134.745 407.254 133.957 407.986 132.887C408.718 131.761 409.084 130.268 409.084 128.41C409.084 127.115 408.802 126.017 408.239 125.116C407.676 124.158 406.775 123.426 405.536 122.92C404.298 122.413 402.693 122.159 400.722 122.159Z" stroke="#00FF85" stroke-width="2" mask="url(#path-1-outside-1_1053_230)"/>
<path d="M84.0967 108.83H130.097V109.83H84.0967V108.83Z" fill="#00FF85"/>
<path d="M84.0967 126.67H130.097V127.67H84.0967V126.67Z" fill="#00FF85"/>
<path d="M47.0967 144.67H130.097V145.67H47.0967V144.67Z" fill="#00FF85"/>
<path d="M84.0967 170.17H130.097V171.17H84.0967V170.17Z" fill="#00FF85"/>
<path d="M70.0967 117.67H130.097V118.67H70.0967V117.67Z" fill="#00FF85"/>
<path d="M70.0967 135.67H130.097V136.67H70.0967V135.67Z" fill="#00FF85"/>
<path d="M57.0967 153.67H130.097V154.67H57.0967V153.67Z" fill="#00FF85"/>
<path d="M99.0967 162.67H130.097V163.67H99.0967V162.67Z" fill="#00FF85"/>
</g>
<defs>
<filter id="filter0_d_1053_230" x="31.0967" y="91.9822" width="419.68" height="96" filterUnits="userSpaceOnUse" color-interpolation-filters="sRGB">
<feFlood flood-opacity="0" result="BackgroundImageFix"/>
<feColorMatrix in="SourceAlpha" type="matrix" values="0 0 0 0 0 0 0 0 0 0 0 0 0 0 0 0 0 0 127 0" result="hardAlpha"/>
<feOffset/>
<feGaussianBlur stdDeviation="8"/>
<feComposite in2="hardAlpha" operator="out"/>
<feColorMatrix type="matrix" values="0 0 0 0 0 0 0 0 0 1 0 0 0 0 0.521569 0 0 0 0.24 0"/>
<feBlend mode="normal" in2="BackgroundImageFix" result="effect1_dropShadow_1053_230"/>
<feBlend mode="normal" in="SourceGraphic" in2="effect1_dropShadow_1053_230" result="shape"/>
</filter>
</defs>
</svg>
