<svg width="480" height="280" viewBox="0 0 480 280" fill="none" xmlns="http://www.w3.org/2000/svg">
<rect width="480" height="280" fill="#0C0C0C"/>
<path d="M311.97 164.45H312.47V163.95V126.576H323.823H324.323V126.076V115.313V114.813H323.823H286.97H286.47V115.313V126.076V126.576H286.97H298.323V163.95V164.45H298.823H311.97Z" fill="black" stroke="#00FF85"/>
<path d="M283.009 149.168C283.009 151.802 282.328 154.3 280.966 156.662C279.649 159.023 277.582 160.953 274.767 162.452C271.996 163.905 268.386 164.632 263.936 164.632C261.71 164.632 259.758 164.518 258.077 164.291C256.442 164.109 254.898 163.791 253.445 163.337C251.992 162.883 250.493 162.293 248.949 161.566V149.85C251.583 151.167 254.24 152.188 256.919 152.915C259.599 153.596 262.028 153.937 264.208 153.937C265.525 153.937 266.592 153.778 267.41 153.46C268.227 153.142 268.84 152.711 269.249 152.166C269.658 151.621 269.862 151.008 269.862 150.326C269.862 149.464 269.567 148.737 268.976 148.147C268.386 147.556 267.455 146.943 266.184 146.307C264.912 145.672 263.209 144.877 261.075 143.923C259.258 143.106 257.623 142.243 256.17 141.335C254.717 140.426 253.468 139.405 252.423 138.269C251.424 137.134 250.652 135.817 250.107 134.318C249.562 132.774 249.29 130.958 249.29 128.869C249.29 125.735 250.062 123.124 251.606 121.035C253.15 118.9 255.284 117.311 258.009 116.266C260.779 115.177 263.981 114.632 267.614 114.632C270.793 114.632 273.654 114.995 276.197 115.722C278.74 116.403 281.011 117.197 283.009 118.106L278.99 128.256C276.901 127.302 274.835 126.553 272.791 126.008C270.793 125.417 268.931 125.122 267.205 125.122C266.07 125.122 265.139 125.258 264.412 125.531C263.686 125.803 263.141 126.189 262.778 126.689C262.46 127.143 262.301 127.665 262.301 128.256C262.301 129.028 262.596 129.709 263.186 130.299C263.777 130.89 264.753 131.548 266.115 132.275C267.523 132.956 269.431 133.841 271.837 134.931C274.199 135.976 276.197 137.134 277.832 138.405C279.512 139.632 280.784 141.108 281.647 142.833C282.555 144.514 283.009 146.625 283.009 149.168Z" fill="black"/>
<path fill-rule="evenodd" clip-rule="evenodd" d="M278.075 127.85C276.297 127.087 274.536 126.473 272.791 126.008C270.793 125.417 268.931 125.122 267.205 125.122C266.07 125.122 265.139 125.258 264.412 125.531C263.686 125.803 263.141 126.189 262.778 126.689C262.46 127.143 262.301 127.665 262.301 128.256C262.301 129.028 262.596 129.709 263.186 130.299C263.777 130.89 264.753 131.548 266.115 132.275C267.523 132.956 269.431 133.841 271.837 134.931C274.199 135.976 276.197 137.134 277.832 138.405C279.512 139.632 280.784 141.108 281.647 142.833C282.555 144.514 283.009 146.625 283.009 149.168C283.009 151.802 282.328 154.3 280.966 156.662C279.649 159.023 277.582 160.953 274.767 162.452C271.996 163.905 268.386 164.632 263.936 164.632C261.71 164.632 259.758 164.518 258.077 164.291C256.442 164.109 254.898 163.791 253.445 163.337C251.992 162.883 250.493 162.293 248.949 161.566V149.85C249.282 150.016 249.616 150.178 249.949 150.335C252.255 151.42 254.579 152.28 256.919 152.915C259.599 153.596 262.028 153.937 264.208 153.937C265.525 153.937 266.592 153.778 267.41 153.46C268.227 153.142 268.84 152.711 269.249 152.166C269.658 151.621 269.862 151.008 269.862 150.326C269.862 149.464 269.567 148.737 268.976 148.147C268.386 147.556 267.455 146.943 266.184 146.307C264.912 145.672 263.209 144.877 261.075 143.923C259.258 143.106 257.623 142.243 256.17 141.335C254.717 140.426 253.468 139.405 252.423 138.269C251.424 137.134 250.652 135.817 250.107 134.318C249.562 132.774 249.29 130.958 249.29 128.869C249.29 125.735 250.062 123.124 251.606 121.035C253.15 118.9 255.284 117.311 258.009 116.266C260.779 115.177 263.981 114.632 267.614 114.632C270.793 114.632 273.654 114.995 276.197 115.722C278.74 116.403 281.011 117.197 283.009 118.106L278.99 128.256C278.685 128.116 278.38 127.981 278.075 127.85ZM276.464 114.758C279.047 115.45 281.368 116.261 283.423 117.195L284.289 117.589L279.532 129.602L278.575 129.165C276.532 128.233 274.519 127.503 272.534 126.974L272.521 126.97L272.508 126.967C270.583 126.398 268.818 126.122 267.205 126.122C266.139 126.122 265.339 126.251 264.764 126.467C264.178 126.687 263.814 126.967 263.592 127.27C263.403 127.543 263.301 127.86 263.301 128.256C263.301 128.739 263.474 129.172 263.893 129.592C264.376 130.075 265.243 130.675 266.569 131.383C267.963 132.057 269.855 132.936 272.246 134.019C274.657 135.085 276.724 136.279 278.434 137.607C280.222 138.914 281.597 140.503 282.534 142.372C283.538 144.236 284.009 146.519 284.009 149.168C284.009 151.982 283.28 154.649 281.835 157.155C280.409 159.71 278.188 161.763 275.237 163.335L275.231 163.337C272.27 164.891 268.484 165.632 263.936 165.632C261.684 165.632 259.688 165.517 257.955 165.284C256.266 165.095 254.662 164.765 253.147 164.292C251.645 163.823 250.104 163.215 248.523 162.471L247.949 162.201V148.232L249.396 148.955C251.972 150.243 254.564 151.24 257.173 151.948C259.789 152.612 262.132 152.937 264.208 152.937C265.457 152.937 266.388 152.784 267.047 152.528C267.74 152.259 268.18 151.924 268.449 151.566C268.728 151.194 268.862 150.791 268.862 150.326C268.862 149.719 268.665 149.25 268.269 148.854C267.79 148.374 266.969 147.818 265.736 147.202C264.483 146.575 262.795 145.787 260.667 144.836L260.664 144.835C258.813 144.002 257.137 143.118 255.64 142.183C254.119 141.232 252.799 140.154 251.687 138.946L251.68 138.938L251.673 138.93C250.587 137.696 249.753 136.269 249.167 134.66L249.164 134.651C248.573 132.975 248.29 131.041 248.29 128.869C248.29 125.568 249.105 122.738 250.799 120.445C252.468 118.139 254.765 116.44 257.647 115.334C260.556 114.191 263.884 113.632 267.614 113.632C270.865 113.632 273.818 114.003 276.464 114.758Z" fill="#00FF85"/>
<path d="M242.694 164.45H243.194V163.95V153.256V152.756H242.694H227.458V144.559H241.536H242.036V144.059V133.501V133.001H241.536H227.458V126.371H242.694H243.194V125.871V115.313V114.813H242.694H213.811H213.311V115.313V163.95V164.45H213.811H242.694Z" fill="black" stroke="#00FF85"/>
<path d="M203.322 164.45H203.822V163.95V115.313V114.813H203.322H191.605H191.105V115.313V137.315V137.32V137.325V137.33V137.335V137.339V137.344V137.349V137.354V137.359V137.363V137.368V137.373V137.378V137.383V137.388V137.392V137.397V137.402V137.407V137.412V137.417V137.421V137.426V137.431V137.436V137.441V137.446V137.451V137.455V137.46V137.465V137.47V137.475V137.48V137.485V137.49V137.494V137.499V137.504V137.509V137.514V137.519V137.524V137.529V137.534V137.539V137.543V137.548V137.553V137.558V137.563V137.568V137.573V137.578V137.583V137.588V137.593V137.598V137.603V137.608V137.612V137.617V137.622V137.627V137.632V137.637V137.642V137.647V137.652V137.657V137.662V137.667V137.672V137.677V137.682V137.687V137.692V137.697V137.702V137.707V137.712V137.717V137.722V137.727V137.732V137.737V137.742V137.747V137.752V137.757V137.762V137.767V137.772V137.777V137.782V137.787V137.792V137.797V137.802V137.807V137.812V137.818V137.823V137.828V137.833V137.838V137.843V137.848V137.853V137.858V137.863V137.868V137.873V137.878V137.883V137.889V137.894V137.899V137.904V137.909V137.914V137.919V137.924V137.929V137.934V137.94V137.945V137.95V137.955V137.96V137.965V137.97V137.975V137.981V137.986V137.991V137.996V138.001V138.006V138.011V138.017V138.022V138.027V138.032V138.037V138.042V138.048V138.053V138.058V138.063V138.068V138.074V138.079V138.084V138.089V138.094V138.099V138.105V138.11V138.115V138.12V138.125V138.131V138.136V138.141V138.146V138.152V138.157V138.162V138.167V138.172V138.178V138.183V138.188V138.193V138.199V138.204V138.209V138.214V138.22V138.225V138.23V138.235V138.241V138.246V138.251V138.257V138.262V138.267V138.272V138.278V138.283V138.288V138.294V138.299V138.304V138.309V138.315V138.32V138.325V138.331V138.336V138.341V138.347V138.352V138.357V138.363V138.368V138.373V138.379V138.384V138.389V138.395V138.4V138.405V138.411V138.416V138.421V138.427V138.432V138.437V138.443V138.448V138.454V138.459V138.464V138.47V138.475V138.48V138.486V138.491V138.497V138.502V138.507V138.513V138.518V138.524V138.529V138.534V138.54V138.545V138.551V138.556V138.562V138.567V138.572V138.578V138.583V138.589V138.594V138.6V138.605V138.61V138.616V138.621V138.627V138.632V138.638V138.643V138.649V138.654V138.66V138.665V138.67V138.676V138.681V138.687V138.692V138.698V138.703V138.709V138.714V138.72V138.725V138.731V138.736V138.742V138.747V138.753V138.758V138.764V138.769V138.775V138.781V138.786V138.792V138.797V138.803V138.808V138.814V138.819V138.825V138.83V138.836V138.841V138.847V138.853V138.858V138.864V138.869V138.875V138.88V138.886V138.892V138.897V138.903V138.908V138.914V138.92V138.925V138.931V138.936V138.942V138.948V138.953V138.959V138.964V138.97V138.976V138.981V138.987V138.992V138.998V139.004V139.009V139.015V139.021V139.026V139.032V139.038V139.043V139.049V139.055V139.06V139.066V139.071V139.077V139.083V139.088V139.094V139.1V139.106V139.111V139.117V139.123V139.128V139.134V139.14V139.145V139.151V139.157V139.162V139.168V139.174V139.18V139.185V139.191V139.197V139.202V139.208V139.214V139.22V139.225V139.231V139.237V139.243V139.248V139.254V139.26V139.266V139.271V139.277V139.283V139.289V139.294V139.3V139.306V139.312V139.317V139.323V139.329V139.335V139.341V139.346V139.352V139.358V139.364V139.369V139.375V139.381V139.387V139.393V139.398V139.404V139.41V139.416V139.422V139.428V139.433V139.439V139.445V139.451V139.457V139.463V139.468V139.474V139.48V139.486V139.492V139.498V139.504V139.509V139.515V139.521V139.527V139.533V139.539V139.545V139.55V139.556V139.562V139.568V139.574V139.58V139.586V139.592V139.598V139.603V139.609V139.615V139.621V139.627V139.633V139.639V139.645V139.651V139.657V139.663V139.669V139.674V139.68V139.686V139.692V139.698V139.704V139.71V139.716V139.722V139.728V139.734V139.74V139.746V139.752V139.758V139.764V139.77V139.776V139.782V139.788V139.794V139.8V139.806V139.812V139.818V139.824V139.83V139.836V139.842V139.848V139.854V139.86V139.866V139.872V139.878V139.884V139.89V139.896V139.902V139.908V139.914V139.92V139.926V139.932V139.938V139.944V139.95V139.956V139.962V139.968V139.974V139.98V139.986V139.993V139.999V140.005V140.011V140.017V140.023V140.029V140.035V140.041V140.047V140.053V140.06V140.066V140.072V140.078V140.084V140.09V140.096V140.102V140.108V140.119L191.105 140.13C191.151 141.174 191.196 142.241 191.242 143.331L191.242 143.332L191.378 146.465L191.378 146.477L191.379 146.489C191.401 146.73 191.422 146.964 191.441 147.191L174.609 115.081L174.469 114.813H174.166H157H156.5V115.313V163.95V164.45H157H168.649H169.149V163.95V142.016C169.149 141.099 169.126 140.093 169.08 138.998C169.035 137.908 168.989 136.796 168.944 135.661C168.898 134.522 168.83 133.428 168.739 132.378C168.726 132.08 168.711 131.793 168.694 131.516L185.643 164.181L185.783 164.45H186.087H203.322Z" fill="black" stroke="#00FF85"/>
<path d="M265.402 64.7405C265.402 66.7799 264.874 68.7138 263.819 70.5422C262.8 72.3706 261.2 73.865 259.02 75.0253C256.875 76.1505 254.08 76.7131 250.634 76.7131C248.911 76.7131 247.399 76.6252 246.098 76.4494C244.832 76.3087 243.636 76.0626 242.511 75.711C241.386 75.3594 240.226 74.9023 239.03 74.3397V65.2679C241.07 66.2876 243.127 67.0788 245.201 67.6414C247.276 68.1688 249.157 68.4325 250.845 68.4325C251.864 68.4325 252.691 68.3094 253.324 68.0633C253.956 67.8172 254.431 67.4831 254.748 67.0612C255.064 66.6393 255.222 66.1646 255.222 65.6371C255.222 64.9691 254.994 64.4065 254.537 63.9494C254.08 63.4923 253.359 63.0176 252.374 62.5253C251.39 62.0331 250.071 61.4177 248.418 60.6793C247.012 60.0464 245.746 59.3784 244.621 58.6751C243.496 57.9719 242.529 57.1807 241.72 56.3017C240.947 55.4227 240.349 54.403 239.927 53.2426C239.505 52.0471 239.294 50.6407 239.294 49.0232C239.294 46.5971 239.892 44.5753 241.087 42.9578C242.283 41.3052 243.935 40.0745 246.045 39.2658C248.19 38.4219 250.669 38 253.482 38C255.943 38 258.158 38.2813 260.127 38.8439C262.096 39.3713 263.854 39.9866 265.402 40.6899L262.29 48.5485C260.672 47.8101 259.072 47.23 257.49 46.808C255.943 46.3509 254.501 46.1224 253.165 46.1224C252.286 46.1224 251.565 46.2279 251.003 46.4388C250.44 46.6498 250.018 46.9487 249.737 47.3354C249.491 47.6871 249.368 48.0914 249.368 48.5485C249.368 49.1463 249.596 49.6737 250.053 50.1308C250.511 50.5879 251.267 51.0978 252.321 51.6603C253.411 52.1878 254.888 52.8734 256.752 53.7173C258.58 54.526 260.127 55.4227 261.393 56.4072C262.694 57.3566 263.679 58.4993 264.347 59.8355C265.05 61.1364 265.402 62.7715 265.402 64.7405Z" fill="black"/>
<path fill-rule="evenodd" clip-rule="evenodd" d="M261.373 48.1464C260.068 47.5962 258.773 47.1501 257.49 46.808C255.943 46.3509 254.501 46.1224 253.165 46.1224C252.286 46.1224 251.565 46.2279 251.003 46.4388C250.44 46.6498 250.018 46.9487 249.737 47.3354C249.491 47.6871 249.368 48.0914 249.368 48.5485C249.368 49.1463 249.596 49.6737 250.053 50.1308C250.511 50.5879 251.267 51.0978 252.321 51.6603C253.411 52.1878 254.888 52.8734 256.752 53.7173C258.58 54.526 260.127 55.4227 261.393 56.4072C262.694 57.3566 263.679 58.4993 264.347 59.8355C265.05 61.1364 265.402 62.7715 265.402 64.7405C265.402 66.7799 264.874 68.7138 263.819 70.5422C262.8 72.3706 261.2 73.865 259.02 75.0253C256.875 76.1505 254.08 76.7131 250.634 76.7131C248.911 76.7131 247.399 76.6252 246.098 76.4494C244.832 76.3087 243.636 76.0626 242.511 75.711C241.386 75.3594 240.226 74.9023 239.03 74.3397V65.2679C239.363 65.4344 239.696 65.5947 240.03 65.749C241.742 66.5398 243.465 67.1706 245.201 67.6414C247.276 68.1688 249.157 68.4325 250.845 68.4325C251.864 68.4325 252.691 68.3094 253.324 68.0633C253.956 67.8172 254.431 67.4831 254.748 67.0612C255.064 66.6393 255.222 66.1646 255.222 65.6371C255.222 64.9691 254.994 64.4065 254.537 63.9494C254.08 63.4923 253.359 63.0176 252.374 62.5253C251.39 62.0331 250.071 61.4177 248.418 60.6793C247.012 60.0464 245.746 59.3784 244.621 58.6751C243.496 57.9719 242.529 57.1807 241.72 56.3017C240.947 55.4227 240.349 54.403 239.927 53.2426C239.505 52.0471 239.294 50.6407 239.294 49.0232C239.294 46.5971 239.892 44.5753 241.087 42.9578C242.283 41.3052 243.935 40.0745 246.045 39.2658C248.19 38.4219 250.669 38 253.482 38C255.943 38 258.158 38.2813 260.127 38.8439C262.096 39.3713 263.854 39.9866 265.402 40.6899L262.29 48.5485C261.984 48.4088 261.678 48.2747 261.373 48.1464ZM260.394 37.8801C262.403 38.4185 264.212 39.0505 265.815 39.7795L266.682 40.1733L262.832 49.8954L261.874 49.4582C260.304 48.7411 258.756 48.1806 257.233 47.7743L257.22 47.7708L257.207 47.767C255.733 47.3317 254.388 47.1224 253.165 47.1224C252.356 47.1224 251.765 47.221 251.354 47.3752C250.933 47.533 250.692 47.7265 250.551 47.9164C250.434 48.0871 250.368 48.2863 250.368 48.5485C250.368 48.8581 250.474 49.1373 250.761 49.4237C251.11 49.7731 251.756 50.2245 252.775 50.7688C253.851 51.2894 255.312 51.9676 257.16 52.8045C259.039 53.6356 260.655 54.5678 261.995 55.6085C263.404 56.6395 264.491 57.8947 265.234 59.3741C266.033 60.8589 266.402 62.665 266.402 64.7405C266.402 66.9593 265.826 69.0626 264.689 71.0356C263.56 73.0573 261.806 74.6752 259.49 75.9081L259.484 75.9109C257.148 77.1362 254.177 77.7131 250.634 77.7131C248.884 77.7131 247.329 77.6242 245.976 77.442C244.655 77.2946 243.401 77.0366 242.213 76.6655C241.039 76.2987 239.836 75.8242 238.604 75.2445L238.03 74.9743V63.6499L239.477 64.3735C241.459 65.3641 243.451 66.1301 245.455 66.6742C247.467 67.185 249.261 67.4325 250.845 67.4325C251.796 67.4325 252.486 67.3159 252.961 67.1313C253.469 66.9337 253.771 66.6965 253.948 66.4612C254.134 66.2124 254.222 65.9482 254.222 65.6371C254.222 65.2244 254.092 64.9192 253.83 64.6565C253.483 64.3104 252.873 63.8927 251.927 63.4198C250.961 62.9367 249.657 62.3281 248.011 61.5923L248.008 61.5913C246.567 60.9427 245.26 60.2538 244.091 59.5231C242.898 58.7776 241.86 57.9306 240.984 56.9788L240.977 56.9706L240.969 56.9623C240.109 55.9847 239.449 54.8554 238.987 53.5844L238.984 53.5755C238.515 52.2482 238.294 50.7242 238.294 49.0232C238.294 46.4303 238.935 44.1895 240.28 42.3676C241.6 40.5441 243.416 39.2035 245.683 38.3336C247.966 37.4361 250.572 37 253.482 37C256.015 37 258.322 37.289 260.394 37.8801Z" fill="#00FF85"/>
<path d="M213.5 87.4725V87.8736L213.892 87.9606C214.545 88.1058 215.318 88.2313 216.208 88.3381C217.078 88.4467 218.101 88.5 219.274 88.5C221.975 88.5 224.375 87.9777 226.46 86.9177C228.575 85.878 230.212 84.1563 231.378 81.7889C232.585 79.4086 233.171 76.2991 233.171 72.4936V38.5273V38.0273H232.671H222.439H221.939V38.5273V73.3902C221.939 74.8392 221.8 76.0199 221.536 76.9449L221.535 76.9493C221.275 77.891 220.852 78.5383 220.296 78.9476C219.747 79.3526 218.918 79.5886 217.745 79.5886C217.075 79.5886 216.463 79.5215 215.908 79.3909L215.892 79.3871L215.875 79.3844C215.245 79.2794 214.651 79.1745 214.092 79.0697L213.5 78.9587V79.5611V87.4725Z" fill="black" stroke="#00FF85"/>
<path d="M341.879 240.708L341.976 241.082H342.363H356.736H357.427L357.211 240.426L341.134 191.584L341.021 191.24H340.66H323.153H322.789L322.677 191.585L306.805 240.427L306.593 241.082H307.281H321.722H322.106L322.205 240.712L324.558 231.954H339.592L341.879 240.708ZM334.658 212.848L334.658 212.849L336.604 220.191H327.549L329.494 212.849L329.494 212.849L329.496 212.842C329.769 211.749 330.087 210.408 330.451 208.82C330.86 207.229 331.246 205.616 331.609 203.98C331.767 203.351 331.907 202.762 332.031 202.211C332.165 202.797 332.313 203.432 332.475 204.117C332.885 205.844 333.294 207.527 333.703 209.164L333.704 209.167C334.113 210.757 334.431 211.984 334.658 212.848Z" fill="black" stroke="#00FF85"/>
<path d="M304.936 241.082H305.436V240.582V233.089V232.745L305.115 232.622L299.374 230.428V202.033L305.11 199.906L305.436 199.785V199.438V191.944V191.444H304.936H279.596H279.096V191.944V199.438V199.785L279.422 199.906L285.158 202.033V230.428L279.417 232.622L279.096 232.745V233.089V240.582V241.082H279.596H304.936Z" fill="black" stroke="#00FF85"/>
<path d="M275.019 225.8C275.019 228.434 274.338 230.932 272.976 233.293C271.659 235.655 269.593 237.585 266.777 239.083C264.007 240.537 260.396 241.263 255.946 241.263C253.721 241.263 251.768 241.15 250.088 240.923C248.453 240.741 246.909 240.423 245.455 239.969C244.002 239.515 242.504 238.924 240.959 238.198V226.481C243.593 227.798 246.25 228.82 248.929 229.547C251.609 230.228 254.038 230.568 256.218 230.568C257.535 230.568 258.603 230.409 259.42 230.092C260.237 229.774 260.85 229.342 261.259 228.797C261.668 228.252 261.872 227.639 261.872 226.958C261.872 226.095 261.577 225.369 260.987 224.778C260.396 224.188 259.465 223.575 258.194 222.939C256.922 222.303 255.219 221.508 253.085 220.555C251.268 219.737 249.633 218.874 248.18 217.966C246.727 217.058 245.478 216.036 244.434 214.901C243.434 213.765 242.662 212.448 242.118 210.95C241.573 209.406 241.3 207.589 241.3 205.5C241.3 202.367 242.072 199.755 243.616 197.666C245.16 195.532 247.295 193.943 250.019 192.898C252.79 191.808 255.991 191.263 259.624 191.263C262.803 191.263 265.664 191.626 268.207 192.353C270.751 193.034 273.021 193.829 275.019 194.737L271 204.887C268.911 203.933 266.845 203.184 264.801 202.639C262.803 202.049 260.941 201.754 259.216 201.754C258.08 201.754 257.149 201.89 256.423 202.162C255.696 202.435 255.151 202.821 254.788 203.32C254.47 203.775 254.311 204.297 254.311 204.887C254.311 205.659 254.606 206.34 255.197 206.931C255.787 207.521 256.763 208.18 258.126 208.906C259.533 209.587 261.441 210.473 263.848 211.563C266.209 212.607 268.207 213.765 269.842 215.037C271.523 216.263 272.794 217.739 273.657 219.465C274.565 221.145 275.019 223.257 275.019 225.8Z" fill="black"/>
<path fill-rule="evenodd" clip-rule="evenodd" d="M270.085 204.482C268.307 203.719 266.546 203.104 264.801 202.639C262.803 202.049 260.941 201.754 259.216 201.754C258.08 201.754 257.149 201.89 256.423 202.162C255.696 202.435 255.151 202.821 254.788 203.32C254.47 203.775 254.311 204.297 254.311 204.887C254.311 205.659 254.606 206.34 255.197 206.931C255.787 207.521 256.763 208.18 258.126 208.906C259.533 209.587 261.441 210.473 263.848 211.563C266.209 212.607 268.207 213.765 269.842 215.037C271.523 216.263 272.794 217.739 273.657 219.465C274.565 221.145 275.019 223.257 275.019 225.8C275.019 228.434 274.338 230.932 272.976 233.293C271.659 235.655 269.593 237.585 266.777 239.083C264.007 240.537 260.396 241.263 255.946 241.263C253.721 241.263 251.768 241.15 250.088 240.923C248.453 240.741 246.909 240.423 245.455 239.969C244.002 239.515 242.504 238.924 240.959 238.198V226.481C241.292 226.648 241.626 226.809 241.959 226.966C244.265 228.052 246.589 228.912 248.929 229.547C251.609 230.228 254.038 230.568 256.218 230.568C257.535 230.568 258.603 230.409 259.42 230.092C260.237 229.774 260.85 229.342 261.259 228.797C261.668 228.252 261.872 227.639 261.872 226.958C261.872 226.095 261.577 225.369 260.987 224.778C260.396 224.188 259.465 223.575 258.194 222.939C256.922 222.303 255.219 221.508 253.085 220.555C251.268 219.737 249.633 218.874 248.18 217.966C246.727 217.058 245.478 216.036 244.434 214.901C243.434 213.765 242.662 212.448 242.118 210.95C241.573 209.406 241.3 207.589 241.3 205.5C241.3 202.367 242.072 199.755 243.616 197.666C245.16 195.532 247.295 193.943 250.019 192.898C252.79 191.808 255.991 191.263 259.624 191.263C262.803 191.263 265.664 191.626 268.207 192.353C270.751 193.034 273.021 193.829 275.019 194.737L271 204.887C270.695 204.748 270.39 204.613 270.085 204.482ZM268.474 191.389C271.057 192.082 273.378 192.893 275.433 193.827L276.3 194.221L271.543 206.234L270.585 205.797C268.543 204.864 266.529 204.135 264.544 203.605L264.531 203.602L264.518 203.598C262.594 203.03 260.828 202.754 259.216 202.754C258.15 202.754 257.349 202.883 256.774 203.099C256.188 203.318 255.824 203.599 255.602 203.901C255.413 204.174 255.311 204.491 255.311 204.887C255.311 205.371 255.484 205.804 255.904 206.224C256.386 206.706 257.253 207.306 258.579 208.015C259.973 208.689 261.865 209.567 264.256 210.65C266.668 211.717 268.735 212.911 270.444 214.238C272.233 215.546 273.607 217.134 274.544 219.003C275.548 220.868 276.019 223.15 276.019 225.8C276.019 228.613 275.29 231.28 273.846 233.787C272.419 236.341 270.199 238.395 267.247 239.966L267.241 239.969C264.28 241.522 260.494 242.263 255.946 242.263C253.694 242.263 251.699 242.149 249.965 241.915C248.276 241.727 246.673 241.397 245.157 240.923C243.655 240.454 242.114 239.846 240.534 239.103L239.959 238.832V224.863L241.407 225.587C243.982 226.875 246.575 227.871 249.184 228.579C251.8 229.244 254.142 229.568 256.218 229.568C257.467 229.568 258.398 229.416 259.058 229.16C259.75 228.89 260.19 228.556 260.459 228.197C260.738 227.825 260.872 227.423 260.872 226.958C260.872 226.35 260.676 225.881 260.28 225.485C259.8 225.006 258.98 224.45 257.747 223.833C256.494 223.207 254.805 222.419 252.677 221.468L252.674 221.467C250.823 220.634 249.147 219.75 247.65 218.814C246.129 217.864 244.809 216.786 243.698 215.578L243.69 215.57L243.683 215.561C242.597 214.327 241.763 212.901 241.178 211.292L241.174 211.283C240.583 209.607 240.3 207.673 240.3 205.5C240.3 202.2 241.115 199.37 242.809 197.076C244.478 194.771 246.775 193.072 249.657 191.966C252.566 190.822 255.894 190.263 259.624 190.263C262.875 190.263 265.828 190.634 268.474 191.389Z" fill="#00FF85"/>
<path d="M215.345 208.805L207.486 191.735L207.352 191.444H207.032H192.727H191.894L192.286 192.179L208.235 222.11V240.582V241.082H208.735H221.95H222.45V240.582V221.703L238.399 192.182L238.797 191.444H237.959H223.722H223.402L223.268 191.734L215.345 208.805Z" fill="black" stroke="#00FF85"/>
<path d="M159.886 240.582V241.082H160.386H192.266H192.766V240.582V229.955V229.455H192.266H174.033V191.944V191.444H173.533H160.386H159.886V191.944V240.582Z" fill="black" stroke="#00FF85"/>
<path d="M151.883 241.082H152.383V240.582V229.887V229.387H151.883H136.647V221.191H150.725H151.225V220.691V210.132V209.632H150.725H136.647V203.003H151.883H152.383V202.503V191.944V191.444H151.883H123H122.5V191.944V240.582V241.082H123H151.883Z" fill="black" stroke="#00FF85"/>
</svg>
