<svg width="480" height="280" viewBox="0 0 480 280" fill="none" xmlns="http://www.w3.org/2000/svg">
<rect width="480" height="280" fill="#0C0C0C"/>
<g filter="url(#filter0_d_1032_972)">
<circle cx="238" cy="142" r="70" stroke="#00FF85" stroke-width="3"/>
</g>
<path d="M445.06 169.183H410.59V110.817H445.06V123.488H426.28V132.643H443.677V145.313H426.28V156.349H445.06V169.183Z" fill="black"/>
<path fillRule="evenodd" clipRule="evenodd" d="M446.06 170.183H409.59V109.817H446.06V124.488H427.28V131.643H444.677V146.313H427.28V155.349H446.06V170.183ZM426.28 156.349V145.313H443.677V132.643H426.28V123.488H445.06V110.817H410.59V169.183H445.06V156.349H426.28Z" fill="#00FF85"/>
<path d="M388.166 169.183H372.476V123.733H358.331V110.817H402.312V123.733H388.166V169.183Z" fill="black"/>
<path fillRule="evenodd" clipRule="evenodd" d="M389.166 170.183H371.476V124.733H357.331V109.817H403.312V124.733H389.166V170.183ZM372.476 123.733V169.183H388.166V123.733H402.312V110.817H358.331V123.733H372.476Z" fill="#00FF85"/>
<path d="M344.894 169.183L342.049 158.229H323.188L320.261 169.183H303.026L321.968 110.572H342.862L362.048 169.183H344.894ZM336.277 135.749C336.006 134.714 335.626 133.243 335.138 131.335C334.651 129.373 334.163 127.357 333.675 125.286C333.187 123.215 332.808 121.526 332.537 120.218C332.32 121.526 331.968 123.161 331.48 125.123C331.047 127.084 330.586 129.019 330.098 130.926C329.664 132.834 329.285 134.441 328.96 135.749L326.44 145.313H338.797L336.277 135.749Z" fill="black"/>
<path fillRule="evenodd" clipRule="evenodd" d="M344.12 170.183L341.275 159.229H323.956L321.029 170.183H301.652L321.241 109.572H343.586L363.427 170.183H344.12ZM323.188 158.229H342.049L344.894 169.183H362.047L342.861 110.572H321.968L303.026 169.183H320.261L323.188 158.229ZM335.309 136.003C335.037 134.964 334.657 133.491 334.169 131.583L334.168 131.576C333.679 129.61 333.19 127.59 332.702 125.515C332.654 125.312 332.607 125.112 332.561 124.916C332.526 125.059 332.49 125.204 332.454 125.351C332.019 127.315 331.558 129.251 331.07 131.161C330.637 133.067 330.257 134.677 329.93 135.991L329.927 136.004L327.737 144.313H337.499L335.309 136.003ZM338.797 145.313H326.44L328.96 135.749C329.285 134.441 329.664 132.834 330.098 130.926C330.586 129.019 331.046 127.084 331.48 125.123C331.697 124.249 331.888 123.44 332.051 122.695C332.255 121.769 332.417 120.943 332.537 120.218C332.684 120.93 332.864 121.754 333.075 122.692C333.253 123.477 333.453 124.342 333.675 125.286C334.163 127.357 334.651 129.373 335.138 131.335C335.626 133.243 336.005 134.714 336.276 135.749L338.797 145.313Z" fill="#00FF85"/>
<path d="M273.292 110.817C278.549 110.817 282.912 111.471 286.381 112.779C289.904 114.087 292.532 116.022 294.266 118.583C296.055 121.09 296.949 124.251 296.949 128.065C296.949 130.409 296.543 132.561 295.73 134.523C294.971 136.485 293.86 138.229 292.397 139.755C290.933 141.281 289.172 142.616 287.112 143.76L304.022 169.183H286.218L273.942 147.929H269.959V169.183H254.269V110.817H273.292ZM273.048 122.752H269.959V136.076H272.885C274.511 136.076 275.921 135.858 277.113 135.422C278.359 134.932 279.335 134.169 280.04 133.134C280.744 132.044 281.096 130.599 281.096 128.801C281.096 127.548 280.825 126.485 280.283 125.613C279.741 124.687 278.874 123.978 277.682 123.488C276.49 122.997 274.945 122.752 273.048 122.752Z" fill="black"/>
<path fillRule="evenodd" clipRule="evenodd" d="M286.218 169.183L273.942 147.929H269.959V169.183H254.269V110.817H273.292C278.549 110.817 282.912 111.471 286.381 112.779C289.904 114.087 292.532 116.022 294.266 118.583C296.055 121.09 296.949 124.251 296.949 128.065C296.949 130.409 296.543 132.561 295.73 134.523C294.971 136.485 293.86 138.229 292.397 139.755C291.143 141.062 289.67 142.23 287.979 143.257C287.696 143.429 287.407 143.596 287.112 143.76L304.022 169.183H286.218ZM288.533 144.09L305.888 170.183H285.641L273.365 148.929H270.959V170.183H253.269V109.817H273.292C278.622 109.817 283.114 110.479 286.731 111.843C290.401 113.206 293.214 115.25 295.088 118.012C297.018 120.724 297.949 124.098 297.949 128.065C297.949 130.522 297.523 132.803 296.658 134.895C295.851 136.976 294.67 138.829 293.118 140.447C291.808 141.814 290.277 143.027 288.533 144.09ZM280.283 125.613C279.741 124.687 278.874 123.978 277.682 123.488C276.49 122.997 274.945 122.752 273.048 122.752H269.959V136.076H272.885C274.511 136.076 275.921 135.858 277.113 135.422C278.359 134.932 279.335 134.169 280.04 133.134C280.744 132.044 281.096 130.599 281.096 128.801C281.096 127.548 280.825 126.485 280.283 125.613ZM279.206 132.581C279.769 131.704 280.096 130.472 280.096 128.801C280.096 127.693 279.858 126.823 279.434 126.141L279.427 126.13L279.42 126.118C279.01 125.416 278.333 124.837 277.302 124.413C276.273 123.989 274.871 123.752 273.048 123.752H270.959V135.076H272.885C274.42 135.076 275.704 134.871 276.758 134.487C277.821 134.067 278.625 133.43 279.206 132.581Z" fill="#00FF85"/>
<path d="M244.121 169.183H209.651V110.817H244.121V123.488H225.341V132.643H242.739V145.313H225.341V156.349H244.121V169.183Z" fill="black"/>
<path fillRule="evenodd" clipRule="evenodd" d="M245.121 170.183H208.651V109.817H245.121V124.488H226.341V131.643H243.739V146.313H226.341V155.349H245.121V170.183ZM225.341 156.349V145.313H242.739V132.643H225.341V123.488H244.121V110.817H209.651V169.183H244.121V156.349H225.341Z" fill="#00FF85"/>
<path d="M197.132 169.183H176.564L155.346 128.065H155.021C155.129 128.992 155.211 130.082 155.265 131.335C155.373 132.589 155.454 133.896 155.509 135.259C155.563 136.621 155.617 137.956 155.671 139.264C155.725 140.572 155.753 141.771 155.753 142.861V169.183H141.851V110.817H162.338L183.475 151.362H183.718C183.664 150.436 183.583 149.373 183.475 148.174C183.42 146.921 183.366 145.668 183.312 144.414C183.258 143.106 183.204 141.826 183.149 140.572C183.149 139.319 183.149 138.202 183.149 137.221V110.817H197.132V169.183Z" fill="black"/>
<path fillRule="evenodd" clipRule="evenodd" d="M198.132 170.183H175.955L156.334 132.161C156.408 133.15 156.466 134.169 156.508 135.219C156.562 136.581 156.616 137.916 156.67 139.223C156.725 140.542 156.753 141.755 156.753 142.861V170.183H140.851V109.817H162.944L182.431 147.198L182.313 144.456C182.259 143.148 182.205 141.868 182.15 140.615L182.149 140.594V109.817H198.132V170.183ZM183.58 149.401C183.607 149.734 183.631 150.054 183.653 150.362C183.675 150.667 183.694 150.959 183.711 151.239C183.714 151.28 183.716 151.322 183.718 151.362H183.475L162.338 110.817H141.851V169.183H155.753V142.861C155.753 141.771 155.725 140.572 155.671 139.264C155.617 137.956 155.563 136.621 155.509 135.259C155.454 133.896 155.373 132.589 155.265 131.335C155.244 130.846 155.218 130.381 155.189 129.941C155.168 129.637 155.146 129.345 155.122 129.065C155.096 128.772 155.069 128.491 155.039 128.224C155.033 128.171 155.027 128.118 155.021 128.065H155.346L176.564 169.183H197.132V110.817H183.149V140.572C183.204 141.826 183.258 143.106 183.312 144.414L183.475 148.174C183.513 148.601 183.548 149.009 183.58 149.401Z" fill="#00FF85"/>
<path d="M131.703 169.183H97.2332V110.817H131.703V123.488H112.923V132.643H130.321V145.313H112.923V156.349H131.703V169.183Z" fill="black"/>
<path fillRule="evenodd" clipRule="evenodd" d="M132.703 170.183H96.2332V109.817H132.703V124.488H113.923V131.643H131.321V146.313H113.923V155.349H132.703V170.183ZM112.923 156.349V145.313H130.321V132.643H112.923V123.488H131.703V110.817H97.2332V169.183H131.703V156.349H112.923Z" fill="#00FF85"/>
<path d="M60.3867 135.014H85.426V166.485C82.4451 167.52 79.0036 168.365 75.1014 169.019C71.2533 169.673 67.2156 170 62.9882 170C57.4058 170 52.5009 168.91 48.2735 166.73C44.1003 164.55 40.8214 161.226 38.4367 156.757C36.1062 152.289 34.9409 146.649 34.9409 139.837C34.9409 133.733 36.1062 128.447 38.4367 123.978C40.7672 119.51 44.1816 116.076 48.68 113.678C53.2326 111.226 58.815 110 65.4271 110C69.0583 110 72.4999 110.354 75.7517 111.063C79.0036 111.717 81.8219 112.589 84.2066 113.678L79.2475 126.022C77.188 124.986 75.0201 124.223 72.7438 123.733C70.4675 123.188 68.0557 122.916 65.5084 122.916C62.0397 122.916 59.2486 123.706 57.1348 125.286C55.0211 126.866 53.4765 128.965 52.5009 131.58C51.5796 134.196 51.1189 137.084 51.1189 140.245C51.1189 143.842 51.6338 146.894 52.6635 149.401C53.6933 151.907 55.1837 153.815 57.1348 155.123C59.086 156.376 61.4707 157.003 64.2889 157.003C64.9393 157.003 65.671 156.975 66.4839 156.921C67.2969 156.866 68.0828 156.785 68.8415 156.676C69.6545 156.567 70.2778 156.458 70.7113 156.349V147.193H60.3867V135.014Z" fill="black"/>
<path fillRule="evenodd" clipRule="evenodd" d="M59.3867 134.014H86.426V167.196L85.7541 167.43C82.7092 168.487 79.2117 169.344 75.2679 170.005C71.3605 170.669 67.2668 171 62.9882 171C57.274 171 52.2071 169.884 47.8152 167.619L47.8105 167.617C43.4452 165.336 40.0263 161.86 37.5544 157.228L37.55 157.22C35.1235 152.567 33.9409 146.755 33.9409 139.837C33.9409 133.606 35.1309 128.154 37.55 123.516C39.9745 118.867 43.5345 115.288 48.2077 112.797C52.9408 110.248 58.6953 109 65.4271 109C69.1206 109 72.6313 109.36 75.9567 110.084C79.2618 110.749 82.1541 111.641 84.6222 112.769L85.4903 113.166L79.77 127.404L78.7983 126.915C76.8152 125.918 74.7275 125.183 72.5331 124.711L72.522 124.708L72.5109 124.705C70.3173 124.18 67.9841 123.916 65.5084 123.916C62.1879 123.916 59.6272 124.671 57.7337 126.087C55.785 127.544 54.3538 129.478 53.4411 131.921C52.5642 134.414 52.1189 137.186 52.1189 140.245C52.1189 143.752 52.6216 146.667 53.5885 149.021C54.5534 151.369 55.9253 153.105 57.6836 154.287C59.4404 155.413 61.6249 156.003 64.2889 156.003C64.9123 156.003 65.6211 155.977 66.4171 155.923C67.2064 155.87 67.9671 155.791 68.6993 155.686L68.7086 155.685C69.0932 155.633 69.4267 155.582 69.7113 155.533V148.193H59.3867V134.014ZM70.7113 147.193V156.349C70.2778 156.458 69.6545 156.567 68.8415 156.676C68.0828 156.785 67.2969 156.866 66.4839 156.921C65.671 156.975 64.9393 157.003 64.2889 157.003C61.4707 157.003 59.086 156.376 57.1348 155.123C55.1837 153.815 53.6933 151.907 52.6635 149.401C51.6338 146.894 51.1189 143.842 51.1189 140.245C51.1189 137.084 51.5796 134.196 52.5009 131.58C53.4765 128.965 55.0211 126.866 57.1348 125.286C59.2486 123.706 62.0397 122.916 65.5084 122.916C68.0557 122.916 70.4675 123.188 72.7438 123.733C74.6897 124.152 76.5565 124.771 78.344 125.588C78.6474 125.727 78.9486 125.872 79.2475 126.022L84.2066 113.678C81.8219 112.589 79.0036 111.717 75.7517 111.063C72.4999 110.354 69.0583 110 65.4271 110C58.815 110 53.2326 111.226 48.68 113.678C44.1816 116.076 40.7672 119.51 38.4367 123.978C36.1062 128.447 34.9409 133.733 34.9409 139.837C34.9409 146.649 36.1062 152.289 38.4367 156.757C40.8214 161.226 44.1003 164.55 48.2735 166.73C52.5009 168.91 57.4058 170 62.9882 170C67.2156 170 71.2533 169.673 75.1014 169.019C79.0036 168.365 82.4451 167.52 85.426 166.485V135.014H60.3867V147.193H70.7113Z" fill="#00FF85"/>
<defs>
<filter id="filter0_d_1032_972" x="150.5" y="54.5" width="175" height="175" filterUnits="userSpaceOnUse" color-interpolation-filters="sRGB">
<feFlood flood-opacity="0" result="BackgroundImageFix"/>
<feColorMatrix in="SourceAlpha" type="matrix" values="0 0 0 0 0 0 0 0 0 0 0 0 0 0 0 0 0 0 127 0" result="hardAlpha"/>
<feOffset/>
<feGaussianBlur stdDeviation="8"/>
<feColorMatrix type="matrix" values="0 0 0 0 0 0 0 0 0 1 0 0 0 0 0.521569 0 0 0 1 0"/>
<feBlend mode="normal" in2="BackgroundImageFix" result="effect1_dropShadow_1032_972"/>
<feBlend mode="normal" in="SourceGraphic" in2="effect1_dropShadow_1032_972" result="shape"/>
</filter>
</defs>
</svg>
