<svg width="480" height="280" viewBox="0 0 480 280" fill="none" xmlns="http://www.w3.org/2000/svg">
<g clip-path="url(#clip0_1032_1468)">
<rect width="480" height="280" fill="#0C0C0C"/>
<g filter="url(#filter0_d_1032_1468)">
<path d="M300.667 297.667C304.689 297.667 308.547 296.069 311.391 293.224C314.235 290.38 315.833 286.522 315.833 282.5V206.667C315.833 202.644 314.235 198.787 311.391 195.942C308.547 193.098 304.689 191.5 300.667 191.5H240.758C238.222 191.525 235.719 190.913 233.48 189.721C231.242 188.528 229.337 186.794 227.942 184.675L221.8 175.575C220.419 173.478 218.539 171.757 216.328 170.565C214.118 169.374 211.647 168.75 209.136 168.75H179.333C175.311 168.75 171.453 170.348 168.609 173.192C165.764 176.037 164.167 179.894 164.167 183.917V282.5C164.167 286.522 165.764 290.38 168.609 293.224C171.453 296.069 175.311 297.667 179.333 297.667H300.667Z" stroke="#00FF85" stroke-width="3" stroke-linecap="round" stroke-linejoin="round"/>
<path d="M240 221.833V267.333" stroke="#00FF85" stroke-width="3" stroke-linecap="round" stroke-linejoin="round"/>
<path d="M262.75 244.583L240 267.333L217.25 244.583" stroke="#00FF85" stroke-width="3" stroke-linecap="round" stroke-linejoin="round"/>
</g>
<path d="M401.886 140.683H402.386V140.183V95.2956H416.09H416.59V94.7956V81.8976V81.3976H416.09H371.927H371.427V81.8976V94.7956V95.2956H371.927H385.631V140.183V140.683H386.131H401.886Z" fill="black" stroke="#00FF85"/>
<path d="M354.621 114.965C356.527 113.862 358.178 112.588 359.572 111.143C361.086 109.573 362.237 107.777 363.023 105.758C363.865 103.733 364.283 101.519 364.283 99.1221C364.283 95.2356 363.367 91.9721 361.499 89.3663C359.688 86.7079 356.956 84.7215 353.345 83.3882C349.788 82.0545 345.343 81.3976 340.028 81.3976H320.926H320.426V81.8976V140.183V140.683H320.926H336.681H337.181V140.183V119.459H340.394L352.576 140.434L352.72 140.683H353.008H370.885H371.821L371.301 139.905L354.621 114.965ZM346.618 96.9267L346.618 96.9268L346.625 96.9382C347.109 97.7136 347.365 98.6782 347.365 99.8568C347.365 101.589 347.024 102.925 346.388 103.906C345.742 104.847 344.849 105.546 343.688 106.001C342.56 106.411 341.207 106.622 339.62 106.622H337.181V94.316H339.783C341.651 94.316 343.131 94.557 344.247 95.0135C345.365 95.4706 346.14 96.114 346.618 96.9267Z" fill="black" stroke="#00FF85"/>
<path d="M309.252 123.429L309.253 123.427C310.357 119.673 310.906 115.516 310.906 110.959C310.906 104.867 309.918 99.5449 307.927 95.0065C305.981 90.3937 302.862 86.8287 298.58 84.3253C294.342 81.7615 288.857 80.5 282.161 80.5C275.571 80.5 270.116 81.7352 265.827 84.2418C261.545 86.7444 258.372 90.3077 256.317 94.9178C254.269 99.4581 253.253 104.782 253.253 110.878C253.253 115.488 253.802 119.673 254.906 123.427L254.906 123.427L254.908 123.435C256.07 127.14 257.815 130.358 260.149 133.081L260.149 133.081L260.153 133.085C262.548 135.815 265.554 137.9 269.159 139.342L269.162 139.343C272.825 140.786 277.135 141.5 282.079 141.5C287.13 141.5 291.468 140.787 295.08 139.342C298.74 137.901 301.748 135.815 304.092 133.081C306.427 130.356 308.146 127.136 309.252 123.429ZM288.629 125.422L288.629 125.422L288.623 125.427C287.05 126.695 284.888 127.357 282.079 127.357C279.386 127.357 277.245 126.698 275.612 125.422C273.964 124.135 272.736 122.296 271.945 119.872C271.201 117.373 270.824 114.405 270.824 110.959C270.824 107.457 271.202 104.489 271.945 102.047C272.737 99.5655 273.966 97.7003 275.612 96.4144L275.612 96.4145L275.619 96.4085C277.25 95.0831 279.415 94.398 282.161 94.398C286.328 94.398 289.157 95.8628 290.788 98.7175C292.47 101.661 293.335 105.727 293.335 110.959C293.335 114.407 292.957 117.377 292.213 119.877C291.475 122.299 290.275 124.136 288.629 125.422Z" fill="black" stroke="#00FF85"/>
<path d="M245.916 108.253L245.917 108.25C246.695 105.751 247.083 103.143 247.083 100.428C247.083 94.3855 245.193 89.6633 241.361 86.3376C237.586 83.0141 231.921 81.3976 224.46 81.3976H204.297H203.797V81.8976V140.183V140.683H204.297H220.052H220.552V140.183V121.336H224.46C228.637 121.336 232.185 120.787 235.089 119.67L235.089 119.671L235.096 119.667C237.984 118.501 240.311 116.937 242.058 114.965C243.844 112.955 245.132 110.718 245.916 108.253ZM220.552 107.52V95.1323H224.134C226.344 95.1323 227.874 95.685 228.833 96.6915C229.818 97.7255 230.327 99.0908 230.327 100.836C230.327 102.511 229.988 103.82 229.35 104.804C228.701 105.75 227.831 106.449 226.725 106.902C225.647 107.312 224.458 107.52 223.154 107.52H220.552Z" fill="black" stroke="#00FF85"/>
<path d="M150.281 140.32L150.385 140.683H150.762H165.783H166.162L166.264 140.318L177.2 101.36C177.175 101.801 177.149 102.27 177.12 102.767C177.011 104.623 176.929 106.615 176.875 108.742C176.82 110.814 176.793 112.777 176.793 114.632V140.183V140.683H177.293H191.742H192.242V140.183V81.8976V81.3976H191.742H170.762H170.386L170.282 81.7593L158.677 122.057L146.834 81.7567L146.728 81.3976H146.354H125.375H124.875V81.8976V140.183V140.683H125.375H139.334H139.834V140.183V114.877C139.834 112.855 139.779 110.778 139.67 108.648C139.561 106.47 139.452 104.455 139.343 102.603C139.322 102.253 139.302 101.917 139.281 101.594L150.281 140.32Z" fill="black" stroke="#00FF85"/>
<path d="M116.278 140.683H116.778V140.183V131.204V130.86L116.456 130.737L109.512 128.084V93.919L116.451 91.3461L116.778 91.2251V90.8772V81.8976V81.3976H116.278H85.9102H85.4102V81.8976V90.8772V91.2251L85.7363 91.3461L92.6755 93.919V128.084L85.7317 130.737L85.4102 130.86V131.204V140.183V140.683H85.9102H116.278Z" fill="black" stroke="#00FF85"/>
</g>
<defs>
<filter id="filter0_d_1032_1468" x="133" y="130" width="214" height="214" filterUnits="userSpaceOnUse" color-interpolation-filters="sRGB">
<feFlood flood-opacity="0" result="BackgroundImageFix"/>
<feColorMatrix in="SourceAlpha" type="matrix" values="0 0 0 0 0 0 0 0 0 0 0 0 0 0 0 0 0 0 127 0" result="hardAlpha"/>
<feOffset/>
<feGaussianBlur stdDeviation="8"/>
<feColorMatrix type="matrix" values="0 0 0 0 0 0 0 0 0 1 0 0 0 0 0.521569 0 0 0 1 0"/>
<feBlend mode="normal" in2="BackgroundImageFix" result="effect1_dropShadow_1032_1468"/>
<feBlend mode="normal" in="SourceGraphic" in2="effect1_dropShadow_1032_1468" result="shape"/>
</filter>
<clipPath id="clip0_1032_1468">
<rect width="480" height="280" fill="white"/>
</clipPath>
</defs>
</svg>
