<svg width="480" height="280" viewBox="0 0 480 280" fill="none" xmlns="http://www.w3.org/2000/svg">
<rect width="480" height="280" fill="#0C0C0C"/>
<g filter="url(#filter0_d_1053_256)">
<mask id="path-1-outside-1_1053_256" maskUnits="userSpaceOnUse" x="39" y="59.4225" width="402" height="162" fill="black">
<rect fill="white" x="39" y="59.4225" width="402" height="162"/>
<path d="M68.8294 115.809H40V107.312L46.8974 104.685V71.7006L40 69.1515V60.6543H68.8294V69.1515L61.9321 71.7006V104.685L68.8294 107.312V115.809Z"/>
<path d="M130.164 115.809H110.557L90.3298 76.9534H90.0198C90.1232 77.8289 90.2007 78.8589 90.2523 80.0433C90.3557 81.2278 90.4332 82.4637 90.4848 83.7512C90.5365 85.0386 90.5882 86.3003 90.6398 87.5363C90.6915 88.7723 90.7173 89.9052 90.7173 90.9352V115.809H77.4651V60.6543H96.9947L117.144 98.9689H117.377C117.325 98.0934 117.248 97.0892 117.144 95.9562C117.093 94.7718 117.041 93.5873 116.989 92.4029C116.938 91.1669 116.886 89.9567 116.834 88.7723C116.834 87.5878 116.834 86.5321 116.834 85.6051V60.6543H130.164V115.809Z"/>
<path d="M166.51 115.809H151.552V72.8593H138.068V60.6543H179.994V72.8593H166.51V115.809Z"/>
<path d="M220.745 115.809H187.885V60.6543H220.745V72.6276H202.842V81.2793H219.427V93.2526H202.842V103.681H220.745V115.809Z"/>
<path d="M248.553 60.6543C253.565 60.6543 257.724 61.2723 261.031 62.5082C264.389 63.7442 266.895 65.5724 268.548 67.9928C270.253 70.3617 271.105 73.3486 271.105 76.9534C271.105 79.1679 270.718 81.202 269.943 83.056C269.22 84.9099 268.16 86.5578 266.765 87.9998C265.37 89.4417 263.691 90.7034 261.728 91.7849L277.848 115.809H260.876L249.173 95.7245H245.376V115.809H230.419V60.6543H248.553ZM248.321 71.9324H245.376V84.5237H248.166C249.716 84.5237 251.059 84.3177 252.196 83.9057C253.384 83.4422 254.314 82.7212 254.986 81.7428C255.657 80.7128 255.993 79.3481 255.993 77.6487C255.993 76.4642 255.735 75.46 255.218 74.636C254.701 73.7606 253.875 73.0911 252.738 72.6276C251.602 72.1641 250.129 71.9324 248.321 71.9324Z"/>
<path d="M335.565 115.809H315.958L295.731 76.9534H295.421C295.524 77.8289 295.602 78.8589 295.654 80.0433C295.757 81.2278 295.834 82.4637 295.886 83.7512C295.938 85.0386 295.989 86.3003 296.041 87.5363C296.093 88.7723 296.119 89.9052 296.119 90.9352V115.809H282.866V60.6543H302.396L322.546 98.9689H322.778C322.726 98.0934 322.649 97.0892 322.546 95.9562C322.494 94.7718 322.442 93.5873 322.391 92.4029C322.339 91.1669 322.287 89.9567 322.236 88.7723C322.236 87.5878 322.236 86.5321 322.236 85.6051V60.6543H335.565V115.809Z"/>
<path d="M381.443 115.809L378.731 105.458H360.751L357.961 115.809H341.531L359.589 60.4225H379.506L397.795 115.809H381.443ZM373.228 84.2147C372.97 83.2362 372.608 81.8458 372.143 80.0433C371.678 78.1894 371.213 76.284 370.748 74.327C370.283 72.3701 369.922 70.7737 369.663 69.5377C369.457 70.7737 369.121 72.3186 368.656 74.1725C368.243 76.0265 367.803 77.8547 367.338 79.6571C366.925 81.4595 366.563 82.9787 366.254 84.2147L363.851 93.2526H375.631L373.228 84.2147Z"/>
<path d="M403.731 115.809V60.6543H418.688V103.758H440V115.809H403.731Z"/>
<path d="M90.2965 190.069C90.2965 196.455 89.0824 201.785 86.6541 206.059C84.2775 210.334 80.9192 213.526 76.5793 215.638C72.2394 217.749 67.1245 218.805 61.2346 218.805H43.3324V163.651H62.4746C68.4161 163.651 73.4535 164.68 77.5868 166.74C81.72 168.749 84.8716 171.71 87.0416 175.624C89.2115 179.538 90.2965 184.353 90.2965 190.069ZM74.7968 190.61C74.7968 187.262 74.3318 184.481 73.4019 182.267C72.5235 180.053 71.1802 178.405 69.3719 177.323C67.6153 176.242 65.3678 175.701 62.6296 175.701H58.2896V206.6H61.6221C66.1687 206.6 69.5011 205.287 71.6194 202.66C73.7377 200.034 74.7968 196.017 74.7968 190.61Z"/>
<path d="M152.014 191.151C152.014 195.425 151.498 199.313 150.464 202.815C149.431 206.265 147.829 209.252 145.66 211.775C143.49 214.299 140.7 216.23 137.29 217.569C133.931 218.908 129.876 219.577 125.122 219.577C120.472 219.577 116.443 218.908 113.033 217.569C109.674 216.23 106.884 214.299 104.663 211.775C102.493 209.252 100.865 206.265 99.7804 202.815C98.7471 199.313 98.2304 195.399 98.2304 191.073C98.2304 185.357 99.1862 180.387 101.098 176.165C103.01 171.89 105.954 168.594 109.933 166.277C113.911 163.96 119 162.801 125.2 162.801C131.503 162.801 136.618 163.985 140.545 166.354C144.523 168.672 147.416 171.967 149.224 176.242C151.084 180.465 152.014 185.434 152.014 191.151ZM113.963 191.151C113.963 194.446 114.324 197.305 115.048 199.725C115.823 202.094 117.037 203.922 118.69 205.209C120.343 206.497 122.487 207.141 125.122 207.141C127.861 207.141 130.031 206.497 131.632 205.209C133.286 203.922 134.474 202.094 135.197 199.725C135.921 197.305 136.282 194.446 136.282 191.151C136.282 186.155 135.456 182.216 133.802 179.332C132.149 176.448 129.281 175.006 125.2 175.006C122.513 175.006 120.343 175.675 118.69 177.014C117.037 178.302 115.823 180.156 115.048 182.576C114.324 184.945 113.963 187.803 113.963 191.151Z"/>
<path d="M186.647 175.083C184.89 175.083 183.314 175.469 181.919 176.242C180.524 176.963 179.336 178.044 178.354 179.486C177.373 180.877 176.623 182.576 176.107 184.584C175.59 186.593 175.332 188.885 175.332 191.459C175.332 194.91 175.771 197.82 176.649 200.188C177.528 202.557 178.871 204.36 180.679 205.596C182.487 206.78 184.761 207.372 187.499 207.372C189.927 207.372 192.278 207.038 194.551 206.368C196.876 205.699 199.201 204.875 201.526 203.896V216.488C199.098 217.569 196.592 218.342 194.009 218.805C191.477 219.32 188.765 219.577 185.872 219.577C179.878 219.577 174.97 218.393 171.147 216.024C167.324 213.655 164.508 210.359 162.699 206.136C160.891 201.862 159.987 196.944 159.987 191.382C159.987 187.211 160.555 183.4 161.692 179.95C162.88 176.448 164.611 173.435 166.884 170.912C169.158 168.337 171.948 166.354 175.254 164.964C178.613 163.573 182.462 162.878 186.802 162.878C189.488 162.878 192.304 163.187 195.249 163.805C198.194 164.423 201.087 165.401 203.929 166.74L199.356 178.482C197.341 177.504 195.301 176.705 193.234 176.087C191.167 175.418 188.971 175.083 186.647 175.083Z"/>
<path d="M248.522 202.042C248.522 205.029 247.747 207.862 246.197 210.54C244.699 213.217 242.348 215.406 239.145 217.106C235.993 218.753 231.886 219.577 226.823 219.577C224.291 219.577 222.07 219.449 220.158 219.191C218.298 218.985 216.541 218.625 214.888 218.11C213.235 217.595 211.53 216.925 209.773 216.101V202.815C212.77 204.308 215.792 205.467 218.84 206.291C221.889 207.063 224.653 207.45 227.133 207.45C228.631 207.45 229.845 207.269 230.775 206.909C231.705 206.548 232.403 206.059 232.868 205.441C233.333 204.823 233.565 204.128 233.565 203.356C233.565 202.377 233.229 201.553 232.558 200.884C231.886 200.214 230.827 199.519 229.38 198.798C227.934 198.077 225.996 197.176 223.568 196.094C221.501 195.167 219.641 194.189 217.988 193.159C216.335 192.129 214.914 190.97 213.726 189.683C212.589 188.395 211.711 186.902 211.091 185.202C210.471 183.452 210.161 181.392 210.161 179.023C210.161 175.469 211.039 172.508 212.796 170.139C214.552 167.719 216.981 165.916 220.08 164.732C223.232 163.496 226.874 162.878 231.008 162.878C234.624 162.878 237.879 163.29 240.773 164.114C243.666 164.886 246.249 165.788 248.522 166.818L243.95 178.327C241.573 177.246 239.223 176.396 236.898 175.778C234.624 175.109 232.506 174.774 230.543 174.774C229.251 174.774 228.192 174.929 227.365 175.238C226.539 175.547 225.919 175.984 225.505 176.551C225.144 177.066 224.963 177.658 224.963 178.327C224.963 179.203 225.299 179.975 225.97 180.645C226.642 181.314 227.753 182.061 229.303 182.885C230.904 183.658 233.074 184.662 235.813 185.898C238.499 187.082 240.773 188.395 242.633 189.837C244.544 191.228 245.991 192.901 246.972 194.858C248.006 196.764 248.522 199.158 248.522 202.042Z"/>
</mask>
<path d="M68.8294 115.809H40V107.312L46.8974 104.685V71.7006L40 69.1515V60.6543H68.8294V69.1515L61.9321 71.7006V104.685L68.8294 107.312V115.809Z" fill="black"/>
<path d="M130.164 115.809H110.557L90.3298 76.9534H90.0198C90.1232 77.8289 90.2007 78.8589 90.2523 80.0433C90.3557 81.2278 90.4332 82.4637 90.4848 83.7512C90.5365 85.0386 90.5882 86.3003 90.6398 87.5363C90.6915 88.7723 90.7173 89.9052 90.7173 90.9352V115.809H77.4651V60.6543H96.9947L117.144 98.9689H117.377C117.325 98.0934 117.248 97.0892 117.144 95.9562C117.093 94.7718 117.041 93.5873 116.989 92.4029C116.938 91.1669 116.886 89.9567 116.834 88.7723C116.834 87.5878 116.834 86.5321 116.834 85.6051V60.6543H130.164V115.809Z" fill="black"/>
<path d="M166.51 115.809H151.552V72.8593H138.068V60.6543H179.994V72.8593H166.51V115.809Z" fill="black"/>
<path d="M220.745 115.809H187.885V60.6543H220.745V72.6276H202.842V81.2793H219.427V93.2526H202.842V103.681H220.745V115.809Z" fill="black"/>
<path d="M248.553 60.6543C253.565 60.6543 257.724 61.2723 261.031 62.5082C264.389 63.7442 266.895 65.5724 268.548 67.9928C270.253 70.3617 271.105 73.3486 271.105 76.9534C271.105 79.1679 270.718 81.202 269.943 83.056C269.22 84.9099 268.16 86.5578 266.765 87.9998C265.37 89.4417 263.691 90.7034 261.728 91.7849L277.848 115.809H260.876L249.173 95.7245H245.376V115.809H230.419V60.6543H248.553ZM248.321 71.9324H245.376V84.5237H248.166C249.716 84.5237 251.059 84.3177 252.196 83.9057C253.384 83.4422 254.314 82.7212 254.986 81.7428C255.657 80.7128 255.993 79.3481 255.993 77.6487C255.993 76.4642 255.735 75.46 255.218 74.636C254.701 73.7606 253.875 73.0911 252.738 72.6276C251.602 72.1641 250.129 71.9324 248.321 71.9324Z" fill="black"/>
<path d="M335.565 115.809H315.958L295.731 76.9534H295.421C295.524 77.8289 295.602 78.8589 295.654 80.0433C295.757 81.2278 295.834 82.4637 295.886 83.7512C295.938 85.0386 295.989 86.3003 296.041 87.5363C296.093 88.7723 296.119 89.9052 296.119 90.9352V115.809H282.866V60.6543H302.396L322.546 98.9689H322.778C322.726 98.0934 322.649 97.0892 322.546 95.9562C322.494 94.7718 322.442 93.5873 322.391 92.4029C322.339 91.1669 322.287 89.9567 322.236 88.7723C322.236 87.5878 322.236 86.5321 322.236 85.6051V60.6543H335.565V115.809Z" fill="black"/>
<path d="M381.443 115.809L378.731 105.458H360.751L357.961 115.809H341.531L359.589 60.4225H379.506L397.795 115.809H381.443ZM373.228 84.2147C372.97 83.2362 372.608 81.8458 372.143 80.0433C371.678 78.1894 371.213 76.284 370.748 74.327C370.283 72.3701 369.922 70.7737 369.663 69.5377C369.457 70.7737 369.121 72.3186 368.656 74.1725C368.243 76.0265 367.803 77.8547 367.338 79.6571C366.925 81.4595 366.563 82.9787 366.254 84.2147L363.851 93.2526H375.631L373.228 84.2147Z" fill="black"/>
<path d="M403.731 115.809V60.6543H418.688V103.758H440V115.809H403.731Z" fill="black"/>
<path d="M90.2965 190.069C90.2965 196.455 89.0824 201.785 86.6541 206.059C84.2775 210.334 80.9192 213.526 76.5793 215.638C72.2394 217.749 67.1245 218.805 61.2346 218.805H43.3324V163.651H62.4746C68.4161 163.651 73.4535 164.68 77.5868 166.74C81.72 168.749 84.8716 171.71 87.0416 175.624C89.2115 179.538 90.2965 184.353 90.2965 190.069ZM74.7968 190.61C74.7968 187.262 74.3318 184.481 73.4019 182.267C72.5235 180.053 71.1802 178.405 69.3719 177.323C67.6153 176.242 65.3678 175.701 62.6296 175.701H58.2896V206.6H61.6221C66.1687 206.6 69.5011 205.287 71.6194 202.66C73.7377 200.034 74.7968 196.017 74.7968 190.61Z" fill="black"/>
<path d="M152.014 191.151C152.014 195.425 151.498 199.313 150.464 202.815C149.431 206.265 147.829 209.252 145.66 211.775C143.49 214.299 140.7 216.23 137.29 217.569C133.931 218.908 129.876 219.577 125.122 219.577C120.472 219.577 116.443 218.908 113.033 217.569C109.674 216.23 106.884 214.299 104.663 211.775C102.493 209.252 100.865 206.265 99.7804 202.815C98.7471 199.313 98.2304 195.399 98.2304 191.073C98.2304 185.357 99.1862 180.387 101.098 176.165C103.01 171.89 105.954 168.594 109.933 166.277C113.911 163.96 119 162.801 125.2 162.801C131.503 162.801 136.618 163.985 140.545 166.354C144.523 168.672 147.416 171.967 149.224 176.242C151.084 180.465 152.014 185.434 152.014 191.151ZM113.963 191.151C113.963 194.446 114.324 197.305 115.048 199.725C115.823 202.094 117.037 203.922 118.69 205.209C120.343 206.497 122.487 207.141 125.122 207.141C127.861 207.141 130.031 206.497 131.632 205.209C133.286 203.922 134.474 202.094 135.197 199.725C135.921 197.305 136.282 194.446 136.282 191.151C136.282 186.155 135.456 182.216 133.802 179.332C132.149 176.448 129.281 175.006 125.2 175.006C122.513 175.006 120.343 175.675 118.69 177.014C117.037 178.302 115.823 180.156 115.048 182.576C114.324 184.945 113.963 187.803 113.963 191.151Z" fill="black"/>
<path d="M186.647 175.083C184.89 175.083 183.314 175.469 181.919 176.242C180.524 176.963 179.336 178.044 178.354 179.486C177.373 180.877 176.623 182.576 176.107 184.584C175.59 186.593 175.332 188.885 175.332 191.459C175.332 194.91 175.771 197.82 176.649 200.188C177.528 202.557 178.871 204.36 180.679 205.596C182.487 206.78 184.761 207.372 187.499 207.372C189.927 207.372 192.278 207.038 194.551 206.368C196.876 205.699 199.201 204.875 201.526 203.896V216.488C199.098 217.569 196.592 218.342 194.009 218.805C191.477 219.32 188.765 219.577 185.872 219.577C179.878 219.577 174.97 218.393 171.147 216.024C167.324 213.655 164.508 210.359 162.699 206.136C160.891 201.862 159.987 196.944 159.987 191.382C159.987 187.211 160.555 183.4 161.692 179.95C162.88 176.448 164.611 173.435 166.884 170.912C169.158 168.337 171.948 166.354 175.254 164.964C178.613 163.573 182.462 162.878 186.802 162.878C189.488 162.878 192.304 163.187 195.249 163.805C198.194 164.423 201.087 165.401 203.929 166.74L199.356 178.482C197.341 177.504 195.301 176.705 193.234 176.087C191.167 175.418 188.971 175.083 186.647 175.083Z" fill="black"/>
<path d="M248.522 202.042C248.522 205.029 247.747 207.862 246.197 210.54C244.699 213.217 242.348 215.406 239.145 217.106C235.993 218.753 231.886 219.577 226.823 219.577C224.291 219.577 222.07 219.449 220.158 219.191C218.298 218.985 216.541 218.625 214.888 218.11C213.235 217.595 211.53 216.925 209.773 216.101V202.815C212.77 204.308 215.792 205.467 218.84 206.291C221.889 207.063 224.653 207.45 227.133 207.45C228.631 207.45 229.845 207.269 230.775 206.909C231.705 206.548 232.403 206.059 232.868 205.441C233.333 204.823 233.565 204.128 233.565 203.356C233.565 202.377 233.229 201.553 232.558 200.884C231.886 200.214 230.827 199.519 229.38 198.798C227.934 198.077 225.996 197.176 223.568 196.094C221.501 195.167 219.641 194.189 217.988 193.159C216.335 192.129 214.914 190.97 213.726 189.683C212.589 188.395 211.711 186.902 211.091 185.202C210.471 183.452 210.161 181.392 210.161 179.023C210.161 175.469 211.039 172.508 212.796 170.139C214.552 167.719 216.981 165.916 220.08 164.732C223.232 163.496 226.874 162.878 231.008 162.878C234.624 162.878 237.879 163.29 240.773 164.114C243.666 164.886 246.249 165.788 248.522 166.818L243.95 178.327C241.573 177.246 239.223 176.396 236.898 175.778C234.624 175.109 232.506 174.774 230.543 174.774C229.251 174.774 228.192 174.929 227.365 175.238C226.539 175.547 225.919 175.984 225.505 176.551C225.144 177.066 224.963 177.658 224.963 178.327C224.963 179.203 225.299 179.975 225.97 180.645C226.642 181.314 227.753 182.061 229.303 182.885C230.904 183.658 233.074 184.662 235.813 185.898C238.499 187.082 240.773 188.395 242.633 189.837C244.544 191.228 245.991 192.901 246.972 194.858C248.006 196.764 248.522 199.158 248.522 202.042Z" fill="black"/>
<path d="M68.8294 115.809H40V107.312L46.8974 104.685V71.7006L40 69.1515V60.6543H68.8294V69.1515L61.9321 71.7006V104.685L68.8294 107.312V115.809Z" stroke="#00FF85" stroke-width="2" mask="url(#path-1-outside-1_1053_256)"/>
<path d="M130.164 115.809H110.557L90.3298 76.9534H90.0198C90.1232 77.8289 90.2007 78.8589 90.2523 80.0433C90.3557 81.2278 90.4332 82.4637 90.4848 83.7512C90.5365 85.0386 90.5882 86.3003 90.6398 87.5363C90.6915 88.7723 90.7173 89.9052 90.7173 90.9352V115.809H77.4651V60.6543H96.9947L117.144 98.9689H117.377C117.325 98.0934 117.248 97.0892 117.144 95.9562C117.093 94.7718 117.041 93.5873 116.989 92.4029C116.938 91.1669 116.886 89.9567 116.834 88.7723C116.834 87.5878 116.834 86.5321 116.834 85.6051V60.6543H130.164V115.809Z" stroke="#00FF85" stroke-width="2" mask="url(#path-1-outside-1_1053_256)"/>
<path d="M166.51 115.809H151.552V72.8593H138.068V60.6543H179.994V72.8593H166.51V115.809Z" stroke="#00FF85" stroke-width="2" mask="url(#path-1-outside-1_1053_256)"/>
<path d="M220.745 115.809H187.885V60.6543H220.745V72.6276H202.842V81.2793H219.427V93.2526H202.842V103.681H220.745V115.809Z" stroke="#00FF85" stroke-width="2" mask="url(#path-1-outside-1_1053_256)"/>
<path d="M248.553 60.6543C253.565 60.6543 257.724 61.2723 261.031 62.5082C264.389 63.7442 266.895 65.5724 268.548 67.9928C270.253 70.3617 271.105 73.3486 271.105 76.9534C271.105 79.1679 270.718 81.202 269.943 83.056C269.22 84.9099 268.16 86.5578 266.765 87.9998C265.37 89.4417 263.691 90.7034 261.728 91.7849L277.848 115.809H260.876L249.173 95.7245H245.376V115.809H230.419V60.6543H248.553ZM248.321 71.9324H245.376V84.5237H248.166C249.716 84.5237 251.059 84.3177 252.196 83.9057C253.384 83.4422 254.314 82.7212 254.986 81.7428C255.657 80.7128 255.993 79.3481 255.993 77.6487C255.993 76.4642 255.735 75.46 255.218 74.636C254.701 73.7606 253.875 73.0911 252.738 72.6276C251.602 72.1641 250.129 71.9324 248.321 71.9324Z" stroke="#00FF85" stroke-width="2" mask="url(#path-1-outside-1_1053_256)"/>
<path d="M335.565 115.809H315.958L295.731 76.9534H295.421C295.524 77.8289 295.602 78.8589 295.654 80.0433C295.757 81.2278 295.834 82.4637 295.886 83.7512C295.938 85.0386 295.989 86.3003 296.041 87.5363C296.093 88.7723 296.119 89.9052 296.119 90.9352V115.809H282.866V60.6543H302.396L322.546 98.9689H322.778C322.726 98.0934 322.649 97.0892 322.546 95.9562C322.494 94.7718 322.442 93.5873 322.391 92.4029C322.339 91.1669 322.287 89.9567 322.236 88.7723C322.236 87.5878 322.236 86.5321 322.236 85.6051V60.6543H335.565V115.809Z" stroke="#00FF85" stroke-width="2" mask="url(#path-1-outside-1_1053_256)"/>
<path d="M381.443 115.809L378.731 105.458H360.751L357.961 115.809H341.531L359.589 60.4225H379.506L397.795 115.809H381.443ZM373.228 84.2147C372.97 83.2362 372.608 81.8458 372.143 80.0433C371.678 78.1894 371.213 76.284 370.748 74.327C370.283 72.3701 369.922 70.7737 369.663 69.5377C369.457 70.7737 369.121 72.3186 368.656 74.1725C368.243 76.0265 367.803 77.8547 367.338 79.6571C366.925 81.4595 366.563 82.9787 366.254 84.2147L363.851 93.2526H375.631L373.228 84.2147Z" stroke="#00FF85" stroke-width="2" mask="url(#path-1-outside-1_1053_256)"/>
<path d="M403.731 115.809V60.6543H418.688V103.758H440V115.809H403.731Z" stroke="#00FF85" stroke-width="2" mask="url(#path-1-outside-1_1053_256)"/>
<path d="M90.2965 190.069C90.2965 196.455 89.0824 201.785 86.6541 206.059C84.2775 210.334 80.9192 213.526 76.5793 215.638C72.2394 217.749 67.1245 218.805 61.2346 218.805H43.3324V163.651H62.4746C68.4161 163.651 73.4535 164.68 77.5868 166.74C81.72 168.749 84.8716 171.71 87.0416 175.624C89.2115 179.538 90.2965 184.353 90.2965 190.069ZM74.7968 190.61C74.7968 187.262 74.3318 184.481 73.4019 182.267C72.5235 180.053 71.1802 178.405 69.3719 177.323C67.6153 176.242 65.3678 175.701 62.6296 175.701H58.2896V206.6H61.6221C66.1687 206.6 69.5011 205.287 71.6194 202.66C73.7377 200.034 74.7968 196.017 74.7968 190.61Z" stroke="#00FF85" stroke-width="2" mask="url(#path-1-outside-1_1053_256)"/>
<path d="M152.014 191.151C152.014 195.425 151.498 199.313 150.464 202.815C149.431 206.265 147.829 209.252 145.66 211.775C143.49 214.299 140.7 216.23 137.29 217.569C133.931 218.908 129.876 219.577 125.122 219.577C120.472 219.577 116.443 218.908 113.033 217.569C109.674 216.23 106.884 214.299 104.663 211.775C102.493 209.252 100.865 206.265 99.7804 202.815C98.7471 199.313 98.2304 195.399 98.2304 191.073C98.2304 185.357 99.1862 180.387 101.098 176.165C103.01 171.89 105.954 168.594 109.933 166.277C113.911 163.96 119 162.801 125.2 162.801C131.503 162.801 136.618 163.985 140.545 166.354C144.523 168.672 147.416 171.967 149.224 176.242C151.084 180.465 152.014 185.434 152.014 191.151ZM113.963 191.151C113.963 194.446 114.324 197.305 115.048 199.725C115.823 202.094 117.037 203.922 118.69 205.209C120.343 206.497 122.487 207.141 125.122 207.141C127.861 207.141 130.031 206.497 131.632 205.209C133.286 203.922 134.474 202.094 135.197 199.725C135.921 197.305 136.282 194.446 136.282 191.151C136.282 186.155 135.456 182.216 133.802 179.332C132.149 176.448 129.281 175.006 125.2 175.006C122.513 175.006 120.343 175.675 118.69 177.014C117.037 178.302 115.823 180.156 115.048 182.576C114.324 184.945 113.963 187.803 113.963 191.151Z" stroke="#00FF85" stroke-width="2" mask="url(#path-1-outside-1_1053_256)"/>
<path d="M186.647 175.083C184.89 175.083 183.314 175.469 181.919 176.242C180.524 176.963 179.336 178.044 178.354 179.486C177.373 180.877 176.623 182.576 176.107 184.584C175.59 186.593 175.332 188.885 175.332 191.459C175.332 194.91 175.771 197.82 176.649 200.188C177.528 202.557 178.871 204.36 180.679 205.596C182.487 206.78 184.761 207.372 187.499 207.372C189.927 207.372 192.278 207.038 194.551 206.368C196.876 205.699 199.201 204.875 201.526 203.896V216.488C199.098 217.569 196.592 218.342 194.009 218.805C191.477 219.32 188.765 219.577 185.872 219.577C179.878 219.577 174.97 218.393 171.147 216.024C167.324 213.655 164.508 210.359 162.699 206.136C160.891 201.862 159.987 196.944 159.987 191.382C159.987 187.211 160.555 183.4 161.692 179.95C162.88 176.448 164.611 173.435 166.884 170.912C169.158 168.337 171.948 166.354 175.254 164.964C178.613 163.573 182.462 162.878 186.802 162.878C189.488 162.878 192.304 163.187 195.249 163.805C198.194 164.423 201.087 165.401 203.929 166.74L199.356 178.482C197.341 177.504 195.301 176.705 193.234 176.087C191.167 175.418 188.971 175.083 186.647 175.083Z" stroke="#00FF85" stroke-width="2" mask="url(#path-1-outside-1_1053_256)"/>
<path d="M248.522 202.042C248.522 205.029 247.747 207.862 246.197 210.54C244.699 213.217 242.348 215.406 239.145 217.106C235.993 218.753 231.886 219.577 226.823 219.577C224.291 219.577 222.07 219.449 220.158 219.191C218.298 218.985 216.541 218.625 214.888 218.11C213.235 217.595 211.53 216.925 209.773 216.101V202.815C212.77 204.308 215.792 205.467 218.84 206.291C221.889 207.063 224.653 207.45 227.133 207.45C228.631 207.45 229.845 207.269 230.775 206.909C231.705 206.548 232.403 206.059 232.868 205.441C233.333 204.823 233.565 204.128 233.565 203.356C233.565 202.377 233.229 201.553 232.558 200.884C231.886 200.214 230.827 199.519 229.38 198.798C227.934 198.077 225.996 197.176 223.568 196.094C221.501 195.167 219.641 194.189 217.988 193.159C216.335 192.129 214.914 190.97 213.726 189.683C212.589 188.395 211.711 186.902 211.091 185.202C210.471 183.452 210.161 181.392 210.161 179.023C210.161 175.469 211.039 172.508 212.796 170.139C214.552 167.719 216.981 165.916 220.08 164.732C223.232 163.496 226.874 162.878 231.008 162.878C234.624 162.878 237.879 163.29 240.773 164.114C243.666 164.886 246.249 165.788 248.522 166.818L243.95 178.327C241.573 177.246 239.223 176.396 236.898 175.778C234.624 175.109 232.506 174.774 230.543 174.774C229.251 174.774 228.192 174.929 227.365 175.238C226.539 175.547 225.919 175.984 225.505 176.551C225.144 177.066 224.963 177.658 224.963 178.327C224.963 179.203 225.299 179.975 225.97 180.645C226.642 181.314 227.753 182.061 229.303 182.885C230.904 183.658 233.074 184.662 235.813 185.898C238.499 187.082 240.773 188.395 242.633 189.837C244.544 191.228 245.991 192.901 246.972 194.858C248.006 196.764 248.522 199.158 248.522 202.042Z" stroke="#00FF85" stroke-width="2" mask="url(#path-1-outside-1_1053_256)"/>
</g>
<defs>
<filter id="filter0_d_1053_256" x="23" y="43.4225" width="434" height="193.155" filterUnits="userSpaceOnUse" color-interpolation-filters="sRGB">
<feFlood flood-opacity="0" result="BackgroundImageFix"/>
<feColorMatrix in="SourceAlpha" type="matrix" values="0 0 0 0 0 0 0 0 0 0 0 0 0 0 0 0 0 0 127 0" result="hardAlpha"/>
<feOffset/>
<feGaussianBlur stdDeviation="8"/>
<feComposite in2="hardAlpha" operator="out"/>
<feColorMatrix type="matrix" values="0 0 0 0 0 0 0 0 0 1 0 0 0 0 0.521569 0 0 0 0.24 0"/>
<feBlend mode="normal" in2="BackgroundImageFix" result="effect1_dropShadow_1053_256"/>
<feBlend mode="normal" in="SourceGraphic" in2="effect1_dropShadow_1053_256" result="shape"/>
</filter>
</defs>
</svg>
