<svg width="480" height="280" viewBox="0 0 480 280" fill="none" xmlns="http://www.w3.org/2000/svg">
<rect width="480" height="280" fill="#0C0C0C"/>
<g filter="url(#filter0_d_1032_1072)">
<path d="M290.483 80C302.8 80 310.498 93.3333 304.339 104L254.11 191C247.951 201.667 232.555 201.667 226.397 191L176.167 104C170.009 93.3333 177.707 80 190.024 80L290.483 80Z" stroke="#00FF85" stroke-width="3"/>
</g>
<path d="M433.942 166.823H434.442V166.323V126.172H446H446.5V125.672V114.12V113.62H446H408.508H408.008V114.12V125.672V126.172H408.508H420.067V166.323V166.823H420.567H433.942Z" fill="black" stroke="#00FF85"/>
<path d="M404 149.864C404 152.603 403.32 155.201 401.96 157.657C400.645 160.113 398.583 162.12 395.772 163.679C393.007 165.19 389.403 165.946 384.96 165.946C382.739 165.946 380.789 165.828 379.112 165.591C377.48 165.403 375.939 165.072 374.488 164.6C373.037 164.127 371.541 163.513 370 162.758V150.572C372.629 151.942 375.281 153.005 377.956 153.76C380.631 154.469 383.056 154.823 385.232 154.823C386.547 154.823 387.612 154.658 388.428 154.327C389.244 153.997 389.856 153.548 390.264 152.981C390.672 152.414 390.876 151.777 390.876 151.068C390.876 150.171 390.581 149.415 389.992 148.801C389.403 148.187 388.473 147.55 387.204 146.888C385.935 146.227 384.235 145.401 382.104 144.409C380.291 143.559 378.659 142.661 377.208 141.717C375.757 140.772 374.511 139.71 373.468 138.529C372.471 137.348 371.7 135.978 371.156 134.42C370.612 132.814 370.34 130.925 370.34 128.752C370.34 125.493 371.111 122.778 372.652 120.605C374.193 118.385 376.324 116.732 379.044 115.646C381.809 114.512 385.005 113.946 388.632 113.946C391.805 113.946 394.661 114.324 397.2 115.079C399.739 115.788 402.005 116.614 404 117.559L399.988 128.115C397.903 127.123 395.84 126.343 393.8 125.777C391.805 125.163 389.947 124.856 388.224 124.856C387.091 124.856 386.161 124.997 385.436 125.281C384.711 125.564 384.167 125.966 383.804 126.485C383.487 126.957 383.328 127.501 383.328 128.115C383.328 128.918 383.623 129.626 384.212 130.24C384.801 130.854 385.776 131.539 387.136 132.294C388.541 133.003 390.445 133.924 392.848 135.057C395.205 136.144 397.2 137.348 398.832 138.67C400.509 139.946 401.779 141.481 402.64 143.275C403.547 145.023 404 147.219 404 149.864Z" fill="black"/>
<path fill-rule="evenodd" clip-rule="evenodd" d="M398.86 127.695C397.097 126.9 395.35 126.261 393.62 125.777C391.64 125.163 389.795 124.856 388.085 124.856C386.959 124.856 386.037 124.997 385.317 125.281C384.597 125.564 384.057 125.966 383.697 126.485C383.382 126.957 383.224 127.501 383.224 128.115C383.224 128.918 383.517 129.626 384.102 130.24C384.687 130.854 385.654 131.539 387.004 132.294C388.4 133.003 390.29 133.924 392.675 135.057C395.015 136.144 396.995 137.348 398.616 138.67C400.281 139.946 401.541 141.481 402.396 143.275C403.296 145.023 403.746 147.219 403.746 149.864C403.746 152.603 403.071 155.201 401.721 157.657C400.416 160.113 398.368 162.12 395.578 163.679C392.833 165.19 389.255 165.946 384.844 165.946C382.639 165.946 380.704 165.828 379.039 165.591C377.419 165.403 375.888 165.072 374.448 164.6C373.008 164.127 371.523 163.513 369.993 162.758V150.572C370.323 150.746 370.654 150.914 370.985 151.078C373.27 152.206 375.572 153.1 377.891 153.76C380.546 154.469 382.954 154.823 385.114 154.823C386.419 154.823 387.477 154.658 388.287 154.327C389.097 153.997 389.705 153.548 390.11 152.981C390.515 152.414 390.717 151.777 390.717 151.068C390.717 150.171 390.425 149.415 389.84 148.801C389.255 148.187 388.332 147.55 387.072 146.888C385.812 146.227 384.124 145.401 382.009 144.409C380.209 143.559 378.589 142.661 377.148 141.717C375.708 140.772 374.471 139.71 373.436 138.529C372.445 137.348 371.68 135.978 371.14 134.42C370.6 132.814 370.33 130.925 370.33 128.752C370.33 125.493 371.095 122.778 372.626 120.605C374.156 118.385 376.271 116.732 378.971 115.646C381.716 114.512 384.889 113.946 388.49 113.946C391.64 113.946 394.475 114.324 396.995 115.079C399.516 115.788 401.766 116.614 403.746 117.559L399.763 128.115C399.462 127.97 399.16 127.83 398.86 127.695ZM397.27 114.118C399.832 114.839 402.133 115.683 404.171 116.655L405 117.05L400.309 129.483L399.337 129.018C397.314 128.048 395.32 127.29 393.354 126.74L393.341 126.737L393.328 126.732C391.423 126.142 389.677 125.856 388.085 125.856C387.032 125.856 386.243 125.99 385.678 126.212C385.103 126.439 384.74 126.73 384.516 127.05C384.323 127.343 384.217 127.687 384.217 128.115C384.217 128.643 384.399 129.107 384.818 129.547C385.297 130.051 386.156 130.675 387.469 131.411C388.851 132.112 390.725 133.025 393.094 134.151C395.486 135.261 397.535 136.503 399.229 137.884C401.001 139.244 402.359 140.893 403.284 142.829C404.274 144.756 404.739 147.118 404.739 149.864C404.739 152.775 404.02 155.537 402.593 158.135C401.184 160.783 398.988 162.917 396.059 164.553L396.054 164.556C393.115 166.174 389.357 166.946 384.844 166.946C382.611 166.946 380.632 166.827 378.912 166.583C377.236 166.387 375.645 166.044 374.141 165.551C372.651 165.062 371.123 164.429 369.556 163.656L369 163.381V148.924L370.451 149.685C373.003 151.024 375.57 152.06 378.153 152.796C380.744 153.486 383.061 153.823 385.114 153.823C386.349 153.823 387.266 153.665 387.914 153.4C388.596 153.122 389.034 152.775 389.304 152.397C389.586 152.003 389.725 151.57 389.725 151.068C389.725 150.414 389.521 149.911 389.124 149.494C388.647 148.994 387.834 148.416 386.613 147.775C385.372 147.124 383.699 146.304 381.59 145.315L381.588 145.314C379.752 144.448 378.091 143.528 376.607 142.555C375.099 141.566 373.791 140.445 372.691 139.191L372.684 139.182L372.677 139.174C371.604 137.894 370.78 136.415 370.203 134.749L370.2 134.741C369.617 133.007 369.338 131.005 369.338 128.752C369.338 125.335 370.141 122.406 371.813 120.031C373.462 117.639 375.737 115.871 378.599 114.719C381.485 113.528 384.789 112.946 388.49 112.946C391.714 112.946 394.644 113.332 397.27 114.118Z" fill="#00FF85"/>
<path d="M362.278 151.325L362.278 151.323C363.217 147.958 363.683 144.232 363.683 140.148C363.683 134.689 362.844 129.919 361.151 125.849C359.496 121.711 356.842 118.507 353.192 116.255C349.577 113.948 344.902 112.816 339.205 112.816C333.598 112.816 328.948 113.925 325.29 116.18C321.64 118.431 318.94 121.633 317.192 125.769C315.451 129.841 314.588 134.614 314.588 140.075C314.588 144.207 315.054 147.957 315.993 151.323L315.992 151.323L315.995 151.331C316.982 154.653 318.466 157.54 320.452 159.985L320.452 159.985L320.456 159.99C322.496 162.443 325.057 164.317 328.13 165.614L328.133 165.615C331.256 166.913 334.928 167.554 339.135 167.554C343.432 167.554 347.128 166.914 350.208 165.615C353.328 164.318 355.892 162.442 357.888 159.985C359.876 157.539 361.337 154.649 362.278 151.325ZM344.639 153.069L344.639 153.069L344.633 153.074C343.315 154.195 341.502 154.783 339.135 154.783C336.868 154.783 335.071 154.198 333.702 153.069C332.315 151.927 331.277 150.289 330.606 148.122C329.976 145.888 329.656 143.233 329.656 140.148C329.656 137.013 329.976 134.358 330.606 132.175C331.277 129.956 332.317 128.296 333.702 127.154L333.702 127.155L333.709 127.148C335.077 125.976 336.893 125.368 339.205 125.368C342.71 125.368 345.083 126.663 346.457 129.2C347.881 131.828 348.615 135.464 348.615 140.148C348.615 143.235 348.295 145.892 347.664 148.127C347.039 150.293 346.023 151.928 344.639 153.069Z" fill="black" stroke="#00FF85"/>
<path d="M306.244 166.823H306.744V166.323V114.12V113.62H306.244H292.799H292.299V114.12V132.995H277.776V114.12V113.62H277.276H263.832H263.332V114.12V166.323V166.823H263.832H277.276H277.776V166.323V145.547H292.299V166.323V166.823H292.799H306.244Z" fill="black" stroke="#00FF85"/>
<path d="M222.995 166.323V166.823H223.495H255.928H256.428V166.323V154.917V154.417H255.928H237.37V114.12V113.62H236.87H223.495H222.995V114.12V166.323Z" fill="black" stroke="#00FF85"/>
<path d="M203.08 166.443L203.174 166.823H203.565H218.188H218.867L218.665 166.174L202.31 113.751L202.2 113.4H201.833H184.022H183.653L183.544 113.753L167.397 166.176L167.198 166.823H167.875H182.567H182.956L183.052 166.446L185.45 157.025H200.748L203.08 166.443ZM195.734 136.54L195.734 136.541L197.726 144.473H188.475L190.467 136.541L190.467 136.541L190.469 136.534C190.747 135.362 191.07 133.923 191.44 132.218C191.856 130.51 192.249 128.779 192.618 127.024C192.781 126.336 192.927 125.692 193.055 125.092C193.193 125.729 193.346 126.422 193.514 127.17C193.93 129.024 194.346 130.83 194.762 132.586L194.763 132.589C195.179 134.296 195.503 135.613 195.734 136.54Z" fill="black" stroke="#00FF85"/>
<path d="M146.257 126.476L146.263 126.473L146.27 126.469C147.434 125.786 148.754 125.441 150.244 125.441C152.272 125.441 154.18 125.75 155.973 126.364L155.973 126.364L155.984 126.368C157.804 126.944 159.603 127.689 161.381 128.602L161.884 128.861L162.079 128.33L166.167 117.217L166.322 116.797L165.921 116.597C163.346 115.313 160.72 114.372 158.045 113.778C155.38 113.186 152.826 112.889 150.383 112.889C146.445 112.889 142.933 113.557 139.856 114.905L139.856 114.905L139.854 114.906C136.829 116.252 134.273 118.174 132.19 120.67C130.111 123.114 128.534 126.025 127.453 129.394L127.453 129.394L127.452 129.398C126.419 132.719 125.905 136.377 125.905 140.368C125.905 145.683 126.721 150.403 128.366 154.518L128.367 154.52C130.02 158.606 132.601 161.808 136.11 164.109C139.632 166.419 144.124 167.554 149.551 167.554C152.167 167.554 154.627 167.308 156.927 166.813C159.277 166.366 161.556 165.622 163.763 164.582L164.05 164.447V164.13V152.212V151.442L163.346 151.755C161.285 152.674 159.226 153.446 157.167 154.074L157.164 154.074C155.18 154.693 153.128 155.002 151.007 155.002C148.637 155.002 146.711 154.461 145.197 153.413C143.68 152.313 142.534 150.7 141.776 148.537C141.015 146.364 140.626 143.67 140.626 140.441C140.626 138.034 140.855 135.906 141.305 134.052C141.757 132.195 142.406 130.643 143.245 129.386L143.245 129.386L143.25 129.379C144.089 128.074 145.093 127.113 146.257 126.476Z" fill="black" stroke="#00FF85"/>
<path d="M118.37 151.325L118.37 151.323C119.309 147.958 119.775 144.232 119.775 140.148C119.775 134.689 118.936 129.919 117.243 125.849C115.588 121.711 112.934 118.507 109.284 116.255C105.669 113.948 100.994 112.816 95.2968 112.816C89.6896 112.816 85.0403 113.925 81.3822 116.18C77.7319 118.431 75.0319 121.633 73.2842 125.769C71.5428 129.841 70.6802 134.614 70.6802 140.075C70.6802 144.207 71.1463 147.957 72.0846 151.323L72.0845 151.323L72.0869 151.331C73.0738 154.653 74.5579 157.54 76.5441 159.985L76.544 159.985L76.5477 159.99C78.588 162.443 81.1492 164.317 84.2222 165.614L84.2247 165.615C87.3483 166.913 91.02 167.554 95.2275 167.554C99.5245 167.554 103.221 166.914 106.3 165.615C109.42 164.318 111.984 162.442 113.98 159.985C115.968 157.539 117.429 154.649 118.37 151.325ZM100.731 153.069L100.731 153.069L100.725 153.074C99.4073 154.195 97.5939 154.783 95.2275 154.783C92.9598 154.783 91.1633 154.198 89.7936 153.069C88.4072 151.927 87.3687 150.289 86.6979 148.122C86.0679 145.888 85.7482 143.233 85.7482 140.148C85.7482 137.013 86.0684 134.358 86.6979 132.175C87.3695 129.956 88.4089 128.296 89.7936 127.154L89.7936 127.155L89.801 127.148C91.169 125.976 92.9848 125.368 95.2968 125.368C98.8019 125.368 101.176 126.663 102.55 129.2C103.973 131.828 104.707 135.464 104.707 140.148C104.707 143.235 104.387 145.892 103.756 148.127C103.131 150.293 102.115 151.928 100.731 153.069Z" fill="black" stroke="#00FF85"/>
<path d="M33.5 166.323V166.823H34H66.4327H66.9327V166.323V154.917V154.417H66.4327H47.875V114.12V113.62H47.375H34H33.5V114.12V166.323Z" fill="black" stroke="#00FF85"/>
<defs>
<filter id="filter0_d_1032_1072" x="160.498" y="66.5" width="159.511" height="146" filterUnits="userSpaceOnUse" color-interpolation-filters="sRGB">
<feFlood flood-opacity="0" result="BackgroundImageFix"/>
<feColorMatrix in="SourceAlpha" type="matrix" values="0 0 0 0 0 0 0 0 0 0 0 0 0 0 0 0 0 0 127 0" result="hardAlpha"/>
<feOffset/>
<feGaussianBlur stdDeviation="6"/>
<feColorMatrix type="matrix" values="0 0 0 0 0 0 0 0 0 1 0 0 0 0 0.521569 0 0 0 1 0"/>
<feBlend mode="normal" in2="BackgroundImageFix" result="effect1_dropShadow_1032_1072"/>
<feBlend mode="normal" in="SourceGraphic" in2="effect1_dropShadow_1032_1072" result="shape"/>
</filter>
</defs>
</svg>
