<svg width="480" height="280" viewBox="0 0 480 280" fill="none" xmlns="http://www.w3.org/2000/svg">
<rect width="480" height="280" fill="#0C0C0C"/>
<g filter="url(#filter0_d_1032_1173)">
<path d="M153.427 169.667C155.809 161.032 157 151.444 157 140.905C157 126.81 154.856 114.556 150.568 104.143C146.399 93.6032 139.728 85.4762 130.556 79.7619C121.503 73.9206 109.711 71 95.1787 71C80.8847 71 69.1518 73.8571 59.9798 79.5714C50.8079 85.2857 44.0183 93.4127 39.611 103.952C35.2037 114.365 33 126.619 33 140.714C33 151.381 34.1912 161.032 36.5735 169.667C39.0749 178.175 42.8271 185.54 47.83 191.762C52.952 197.984 59.3842 202.746 67.1268 206.048C74.9885 209.349 84.2795 211 95 211C105.959 211 115.309 209.349 123.052 206.048C130.914 202.746 137.346 197.984 142.349 191.762C147.352 185.54 151.044 178.175 153.427 169.667Z" stroke="#00FF85" stroke-width="3"/>
</g>
<path d="M411.417 169.683H411.917V169.183V160.204V159.869L411.607 159.741L405.172 157.093V122.91L411.603 120.342L411.917 120.216V119.877V110.898V110.398H411.417H383.226H382.726V110.898V119.877V120.216L383.041 120.342L389.471 122.91V157.093L383.036 159.741L382.726 159.869V160.204V169.183V169.683H383.226H411.417Z" fill="black" stroke="#00FF85"/>
<path d="M377.277 137.243L377.278 137.241C377.999 134.744 378.359 132.14 378.359 129.428C378.359 123.397 376.609 118.679 373.048 115.35C369.535 112.018 364.26 110.398 357.322 110.398H338.604H338.104V110.898V169.183V169.683H338.604H353.23H353.73V169.183V150.336H357.322C361.205 150.336 364.508 149.786 367.213 148.666L367.213 148.666L367.221 148.662C369.909 147.493 372.074 145.925 373.698 143.95C375.357 141.94 376.551 139.703 377.277 137.243ZM353.73 136.52V124.132H357.019C359.055 124.132 360.46 124.679 361.343 125.678C362.256 126.711 362.733 128.081 362.733 129.836C362.733 131.517 362.416 132.832 361.822 133.818C361.22 134.765 360.415 135.458 359.399 135.907C358.406 136.314 357.311 136.52 356.109 136.52H353.73Z" fill="black" stroke="#00FF85"/>
<path d="M316.323 169.301L316.416 169.683H316.809H332.799H333.475L333.277 169.037L315.393 110.507L315.285 110.153H314.915H295.439H295.067L294.96 110.508L277.303 169.039L277.108 169.683H277.781H293.847H294.238L294.332 169.304L296.966 158.745H313.763L316.323 169.301ZM308.29 135.914L308.291 135.915L310.488 144.847H300.244L302.441 135.915L302.441 135.915L302.443 135.909C302.747 134.6 303.101 132.993 303.505 131.089C303.959 129.183 304.389 127.25 304.793 125.29C304.991 124.439 305.165 123.648 305.315 122.918C305.478 123.688 305.66 124.534 305.863 125.454C306.318 127.524 306.773 129.539 307.228 131.5L307.229 131.503C307.684 133.409 308.038 134.879 308.29 135.914Z" fill="black" stroke="#00FF85"/>
<path d="M271.948 169.683H272.448V169.183V110.898V110.398H271.948H258.913H258.413V110.898V137.265V137.271V137.277V137.282V137.288V137.294V137.3V137.305V137.311V137.317V137.323V137.328V137.334V137.34V137.346V137.352V137.357V137.363V137.369V137.375V137.38V137.386V137.392V137.398V137.404V137.41V137.415V137.421V137.427V137.433V137.439V137.444V137.45V137.456V137.462V137.468V137.474V137.48V137.485V137.491V137.497V137.503V137.509V137.515V137.521V137.527V137.532V137.538V137.544V137.55V137.556V137.562V137.568V137.574V137.58V137.585V137.591V137.597V137.603V137.609V137.615V137.621V137.627V137.633V137.639V137.645V137.651V137.657V137.663V137.669V137.674V137.68V137.686V137.692V137.698V137.704V137.71V137.716V137.722V137.728V137.734V137.74V137.746V137.752V137.758V137.764V137.77V137.776V137.782V137.788V137.794V137.8V137.806V137.812V137.818V137.824V137.83V137.836V137.843V137.849V137.855V137.861V137.867V137.873V137.879V137.885V137.891V137.897V137.903V137.909V137.915V137.921V137.927V137.934V137.94V137.946V137.952V137.958V137.964V137.97V137.976V137.982V137.988V137.995V138.001V138.007V138.013V138.019V138.025V138.031V138.038V138.044V138.05V138.056V138.062V138.068V138.074V138.081V138.087V138.093V138.099V138.105V138.112V138.118V138.124V138.13V138.136V138.142V138.149V138.155V138.161V138.167V138.173V138.18V138.186V138.192V138.198V138.205V138.211V138.217V138.223V138.23V138.236V138.242V138.248V138.255V138.261V138.267V138.273V138.28V138.286V138.292V138.298V138.305V138.311V138.317V138.323V138.33V138.336V138.342V138.349V138.355V138.361V138.368V138.374V138.38V138.387V138.393V138.399V138.405V138.412V138.418V138.424V138.431V138.437V138.444V138.45V138.456V138.463V138.469V138.475V138.482V138.488V138.494V138.501V138.507V138.514V138.52V138.526V138.533V138.539V138.545V138.552V138.558V138.565V138.571V138.577V138.584V138.59V138.597V138.603V138.61V138.616V138.622V138.629V138.635V138.642V138.648V138.655V138.661V138.668V138.674V138.68V138.687V138.693V138.7V138.706V138.713V138.719V138.726V138.732V138.739V138.745V138.752V138.758V138.765V138.771V138.778V138.784V138.791V138.797V138.804V138.81V138.817V138.823V138.83V138.836V138.843V138.85V138.856V138.863V138.869V138.876V138.882V138.889V138.895V138.902V138.909V138.915V138.922V138.928V138.935V138.941V138.948V138.955V138.961V138.968V138.974V138.981V138.988V138.994V139.001V139.007V139.014V139.021V139.027V139.034V139.041V139.047V139.054V139.061V139.067V139.074V139.08V139.087V139.094V139.1V139.107V139.114V139.12V139.127V139.134V139.14V139.147V139.154V139.161V139.167V139.174V139.181V139.187V139.194V139.201V139.207V139.214V139.221V139.228V139.234V139.241V139.248V139.254V139.261V139.268V139.275V139.281V139.288V139.295V139.302V139.308V139.315V139.322V139.329V139.336V139.342V139.349V139.356V139.363V139.369V139.376V139.383V139.39V139.397V139.403V139.41V139.417V139.424V139.431V139.437V139.444V139.451V139.458V139.465V139.472V139.478V139.485V139.492V139.499V139.506V139.513V139.519V139.526V139.533V139.54V139.547V139.554V139.561V139.568V139.574V139.581V139.588V139.595V139.602V139.609V139.616V139.623V139.63V139.636V139.643V139.65V139.657V139.664V139.671V139.678V139.685V139.692V139.699V139.706V139.713V139.72V139.726V139.733V139.74V139.747V139.754V139.761V139.768V139.775V139.782V139.789V139.796V139.803V139.81V139.817V139.824V139.831V139.838V139.845V139.852V139.859V139.866V139.873V139.88V139.887V139.894V139.901V139.908V139.915V139.922V139.929V139.936V139.943V139.95V139.957V139.965V139.972V139.979V139.986V139.993V140V140.007V140.014V140.021V140.028V140.035V140.042V140.049V140.056V140.064V140.071V140.078V140.085V140.092V140.099V140.106V140.113V140.12V140.128V140.135V140.142V140.149V140.156V140.163V140.17V140.178V140.185V140.192V140.199V140.206V140.213V140.22V140.228V140.235V140.242V140.249V140.256V140.264V140.271V140.278V140.285V140.292V140.3V140.307V140.314V140.321V140.328V140.336V140.343V140.35V140.357V140.364V140.372V140.379V140.386V140.393V140.401V140.408V140.415V140.422V140.43V140.437V140.444V140.451V140.459V140.466V140.473V140.48V140.488V140.495V140.502V140.51V140.517V140.524V140.532V140.539V140.546V140.553V140.561V140.568V140.575V140.583V140.59V140.597V140.605V140.612V140.622L258.414 140.632C258.464 141.884 258.515 143.162 258.565 144.468L258.565 144.469L258.717 148.224L258.717 148.235L258.718 148.246C258.752 148.651 258.784 149.04 258.812 149.414L239.963 110.679L239.826 110.398H239.513H220.416H219.916V110.898V169.183V169.683H220.416H233.375H233.875V169.183V142.898C233.875 141.802 233.849 140.598 233.799 139.287C233.748 137.981 233.698 136.648 233.647 135.287C233.596 133.924 233.521 132.614 233.419 131.357C233.4 130.887 233.378 130.438 233.351 130.012L252.325 169.4L252.461 169.683H252.775H271.948Z" fill="black" stroke="#00FF85"/>
<path d="M210.956 169.683H211.456V169.183V156.367V155.867H210.956H193.95V145.847H209.668H210.168V145.347V132.694V132.194H209.668H193.95V124.051H210.956H211.456V123.551V110.898V110.398H210.956H178.824H178.324V110.898V169.183V169.683H178.824H210.956Z" fill="black" stroke="#00FF85"/>
<path d="M169.616 137.243L169.617 137.241C170.338 134.744 170.698 132.14 170.698 129.428C170.698 123.397 168.948 118.679 165.387 115.35C161.874 112.018 156.599 110.398 149.661 110.398H130.942H130.442V110.898V169.183V169.683H130.942H145.568H146.068V169.183V150.336H149.661C153.544 150.336 156.847 149.786 159.552 148.666L159.552 148.666L159.56 148.662C162.248 147.493 164.413 145.925 166.037 143.95C167.695 141.94 168.89 139.703 169.616 137.243ZM146.068 136.52V124.132H149.357C151.394 124.132 152.799 124.679 153.681 125.678C154.595 126.711 155.072 128.081 155.072 129.836C155.072 131.517 154.755 132.832 154.161 133.818C153.559 134.765 152.754 135.458 151.738 135.907C150.745 136.314 149.65 136.52 148.448 136.52H146.068Z" fill="black" stroke="#00FF85"/>
<path d="M120.142 152.419L120.143 152.417C121.167 148.667 121.676 144.513 121.676 139.959C121.676 133.871 120.76 128.554 118.912 124.019C117.108 119.411 114.213 115.843 110.23 113.334C106.286 110.764 101.181 109.5 94.9552 109.5C88.8278 109.5 83.7514 110.737 79.7598 113.25C75.7765 115.758 72.8316 119.324 70.9254 123.93C69.0252 128.467 68.083 133.787 68.083 139.878C68.083 144.485 68.5922 148.667 69.6163 152.417L69.6162 152.417L69.6186 152.425C70.6956 156.127 72.3149 159.343 74.4817 162.066L74.4817 162.066L74.4853 162.071C76.7106 164.802 79.5048 166.891 82.8596 168.337L82.8621 168.338C86.2719 169.785 90.2819 170.5 94.8795 170.5C99.5752 170.5 103.612 169.786 106.973 168.337C110.379 166.892 113.176 164.802 115.353 162.066C117.521 159.342 119.116 156.123 120.142 152.419ZM100.923 154.434L100.923 154.434L100.917 154.439C99.4659 155.7 97.4724 156.357 94.8795 156.357C92.3938 156.357 90.4194 155.703 88.9115 154.434C87.386 153.15 86.2446 151.311 85.5081 148.881C84.8169 146.379 84.4668 143.408 84.4668 139.959C84.4668 136.454 84.8174 133.483 85.508 131.037C86.2453 128.55 87.3877 126.685 88.9115 125.403L88.9115 125.403L88.9188 125.397C90.4252 124.078 92.4211 123.398 94.9552 123.398C98.7966 123.398 101.411 124.849 102.925 127.704C104.489 130.651 105.292 134.722 105.292 139.959C105.292 143.41 104.942 146.383 104.25 148.886C103.563 151.315 102.447 153.151 100.923 154.434Z" fill="black" stroke="#00FF85"/>
<defs>
<filter id="filter0_d_1032_1173" x="15.5" y="53.5" width="159" height="175" filterUnits="userSpaceOnUse" color-interpolation-filters="sRGB">
<feFlood flood-opacity="0" result="BackgroundImageFix"/>
<feColorMatrix in="SourceAlpha" type="matrix" values="0 0 0 0 0 0 0 0 0 0 0 0 0 0 0 0 0 0 127 0" result="hardAlpha"/>
<feOffset/>
<feGaussianBlur stdDeviation="8"/>
<feColorMatrix type="matrix" values="0 0 0 0 0 0 0 0 0 1 0 0 0 0 0.521569 0 0 0 1 0"/>
<feBlend mode="normal" in2="BackgroundImageFix" result="effect1_dropShadow_1032_1173"/>
<feBlend mode="normal" in="SourceGraphic" in2="effect1_dropShadow_1032_1173" result="shape"/>
</filter>
</defs>
</svg>
