<svg width="480" height="280" viewBox="0 0 480 280" fill="none" xmlns="http://www.w3.org/2000/svg">
<rect width="480" height="280" fill="#0C0C0C"/>
<g filter="url(#filter0_d_1053_151)">
<mask id="path-1-outside-1_1053_151" maskUnits="userSpaceOnUse" x="35" y="115" width="410" height="50" fill="black">
<rect fill="white" x="35" y="115" width="410" height="50"/>
<path d="M80.4235 139.967C80.4235 143.581 79.9967 146.868 79.1432 149.829C78.2898 152.746 76.9669 155.271 75.1746 157.404C73.3823 159.537 71.0779 161.17 68.2614 162.302C65.4876 163.434 62.1377 164 58.2117 164C54.3711 164 51.0425 163.434 48.2261 162.302C45.4523 161.17 43.1479 159.537 41.3129 157.404C39.5206 155.271 38.1764 152.746 37.2802 149.829C36.4267 146.868 36 143.559 36 139.902C36 135.069 36.7895 130.868 38.3684 127.298C39.9473 123.684 42.3797 120.898 45.6656 118.939C48.9515 116.98 53.1549 116 58.2757 116C63.4819 116 67.7067 117.001 70.9499 119.004C74.2358 120.963 76.6255 123.75 78.1191 127.363C79.6553 130.933 80.4235 135.135 80.4235 139.967ZM48.9942 139.967C48.9942 142.754 49.2929 145.17 49.8903 147.216C50.5304 149.219 51.5333 150.765 52.8988 151.853C54.2644 152.941 56.0354 153.486 58.2117 153.486C60.4734 153.486 62.2657 152.941 63.5886 151.853C64.9542 150.765 65.9357 149.219 66.5331 147.216C67.1306 145.17 67.4293 142.754 67.4293 139.967C67.4293 135.744 66.7465 132.414 65.3809 129.976C64.0154 127.537 61.647 126.318 58.2757 126.318C56.0567 126.318 54.2644 126.884 52.8988 128.016C51.5333 129.105 50.5304 130.672 49.8903 132.718C49.2929 134.721 48.9942 137.137 48.9942 139.967Z"/>
<path d="M104.483 116.718C110.287 116.718 114.619 118.003 117.478 120.571C120.379 123.14 121.83 126.797 121.83 131.543C121.83 133.676 121.532 135.722 120.934 137.682C120.337 139.597 119.355 141.339 117.99 142.906C116.667 144.43 114.896 145.649 112.677 146.563C110.458 147.434 107.727 147.869 104.483 147.869H101.027V163.347H88.6728V116.718H104.483ZM104.227 126.906H101.027V137.616H103.459C104.526 137.616 105.508 137.442 106.404 137.094C107.343 136.702 108.089 136.093 108.644 135.265C109.199 134.395 109.476 133.263 109.476 131.869C109.476 130.389 109.05 129.192 108.196 128.278C107.343 127.363 106.02 126.906 104.227 126.906Z"/>
<path d="M149.281 163.347H136.926V127.037H125.789V116.718H160.418V127.037H149.281V163.347Z"/>
<path d="M187.996 163.347H164.184V156.163L169.88 153.943V126.057L164.184 123.902V116.718H187.996V123.902L182.299 126.057V153.943L187.996 156.163V163.347Z"/>
<path d="M215.036 163.347L205.69 129.78H205.434C205.519 130.65 205.605 131.826 205.69 133.306C205.775 134.786 205.861 136.397 205.946 138.139C206.031 139.837 206.074 141.491 206.074 143.102V163.347H195.128V116.718H211.579L221.117 149.829H221.373L230.718 116.718H247.169V163.347H235.839V142.906C235.839 141.426 235.86 139.859 235.903 138.204C235.946 136.506 236.01 134.917 236.095 133.437C236.18 131.913 236.244 130.716 236.287 129.845H236.031L226.814 163.347H215.036Z"/>
<path d="M278.073 163.347H254.261V156.163L259.958 153.943V126.057L254.261 123.902V116.718H278.073V123.902L272.376 126.057V153.943L278.073 156.163V163.347Z"/>
<path d="M317.787 163.347H282.197V155.576L301.977 126.906H282.645V116.718H317.275V124.49L297.496 153.159H317.787V163.347Z"/>
<path d="M345.397 163.347H321.585V156.163L327.282 153.943V126.057L321.585 123.902V116.718H345.397V123.902L339.7 126.057V153.943L345.397 156.163V163.347Z"/>
<path d="M396.057 163.347H379.862L363.155 130.498H362.899C362.985 131.238 363.049 132.109 363.091 133.11C363.177 134.112 363.241 135.156 363.283 136.245C363.326 137.333 363.369 138.4 363.411 139.445C363.454 140.49 363.475 141.448 363.475 142.318V163.347H352.53V116.718H368.66L385.303 149.11H385.495C385.452 148.37 385.388 147.521 385.303 146.563C385.26 145.562 385.218 144.561 385.175 143.559C385.132 142.514 385.09 141.491 385.047 140.49C385.047 139.488 385.047 138.596 385.047 137.812V116.718H396.057V163.347Z"/>
<path d="M424.285 136.049H444V161.192C441.653 162.019 438.943 162.694 435.871 163.216C432.841 163.739 429.662 164 426.333 164C421.938 164 418.076 163.129 414.747 161.388C411.461 159.646 408.879 156.99 407.002 153.42C405.167 149.85 404.249 145.344 404.249 139.902C404.249 135.026 405.167 130.803 407.002 127.233C408.837 123.663 411.525 120.92 415.067 119.004C418.652 117.045 423.047 116.065 428.253 116.065C431.112 116.065 433.822 116.348 436.383 116.914C438.943 117.437 441.162 118.133 443.04 119.004L439.135 128.865C437.514 128.038 435.807 127.429 434.014 127.037C432.222 126.601 430.323 126.384 428.317 126.384C425.586 126.384 423.389 127.015 421.724 128.278C420.06 129.54 418.844 131.216 418.076 133.306C417.35 135.396 416.987 137.703 416.987 140.229C416.987 143.102 417.393 145.54 418.204 147.543C419.014 149.546 420.188 151.069 421.724 152.114C423.26 153.116 425.138 153.616 427.357 153.616C427.869 153.616 428.445 153.595 429.085 153.551C429.726 153.507 430.344 153.442 430.942 153.355C431.582 153.268 432.073 153.181 432.414 153.094V145.78H424.285V136.049Z"/>
</mask>
<path d="M80.4235 139.967C80.4235 143.581 79.9967 146.868 79.1432 149.829C78.2898 152.746 76.9669 155.271 75.1746 157.404C73.3823 159.537 71.0779 161.17 68.2614 162.302C65.4876 163.434 62.1377 164 58.2117 164C54.3711 164 51.0425 163.434 48.2261 162.302C45.4523 161.17 43.1479 159.537 41.3129 157.404C39.5206 155.271 38.1764 152.746 37.2802 149.829C36.4267 146.868 36 143.559 36 139.902C36 135.069 36.7895 130.868 38.3684 127.298C39.9473 123.684 42.3797 120.898 45.6656 118.939C48.9515 116.98 53.1549 116 58.2757 116C63.4819 116 67.7067 117.001 70.9499 119.004C74.2358 120.963 76.6255 123.75 78.1191 127.363C79.6553 130.933 80.4235 135.135 80.4235 139.967ZM48.9942 139.967C48.9942 142.754 49.2929 145.17 49.8903 147.216C50.5304 149.219 51.5333 150.765 52.8988 151.853C54.2644 152.941 56.0354 153.486 58.2117 153.486C60.4734 153.486 62.2657 152.941 63.5886 151.853C64.9542 150.765 65.9357 149.219 66.5331 147.216C67.1306 145.17 67.4293 142.754 67.4293 139.967C67.4293 135.744 66.7465 132.414 65.3809 129.976C64.0154 127.537 61.647 126.318 58.2757 126.318C56.0567 126.318 54.2644 126.884 52.8988 128.016C51.5333 129.105 50.5304 130.672 49.8903 132.718C49.2929 134.721 48.9942 137.137 48.9942 139.967Z" fill="black"/>
<path d="M104.483 116.718C110.287 116.718 114.619 118.003 117.478 120.571C120.379 123.14 121.83 126.797 121.83 131.543C121.83 133.676 121.532 135.722 120.934 137.682C120.337 139.597 119.355 141.339 117.99 142.906C116.667 144.43 114.896 145.649 112.677 146.563C110.458 147.434 107.727 147.869 104.483 147.869H101.027V163.347H88.6728V116.718H104.483ZM104.227 126.906H101.027V137.616H103.459C104.526 137.616 105.508 137.442 106.404 137.094C107.343 136.702 108.089 136.093 108.644 135.265C109.199 134.395 109.476 133.263 109.476 131.869C109.476 130.389 109.05 129.192 108.196 128.278C107.343 127.363 106.02 126.906 104.227 126.906Z" fill="black"/>
<path d="M149.281 163.347H136.926V127.037H125.789V116.718H160.418V127.037H149.281V163.347Z" fill="black"/>
<path d="M187.996 163.347H164.184V156.163L169.88 153.943V126.057L164.184 123.902V116.718H187.996V123.902L182.299 126.057V153.943L187.996 156.163V163.347Z" fill="black"/>
<path d="M215.036 163.347L205.69 129.78H205.434C205.519 130.65 205.605 131.826 205.69 133.306C205.775 134.786 205.861 136.397 205.946 138.139C206.031 139.837 206.074 141.491 206.074 143.102V163.347H195.128V116.718H211.579L221.117 149.829H221.373L230.718 116.718H247.169V163.347H235.839V142.906C235.839 141.426 235.86 139.859 235.903 138.204C235.946 136.506 236.01 134.917 236.095 133.437C236.18 131.913 236.244 130.716 236.287 129.845H236.031L226.814 163.347H215.036Z" fill="black"/>
<path d="M278.073 163.347H254.261V156.163L259.958 153.943V126.057L254.261 123.902V116.718H278.073V123.902L272.376 126.057V153.943L278.073 156.163V163.347Z" fill="black"/>
<path d="M317.787 163.347H282.197V155.576L301.977 126.906H282.645V116.718H317.275V124.49L297.496 153.159H317.787V163.347Z" fill="black"/>
<path d="M345.397 163.347H321.585V156.163L327.282 153.943V126.057L321.585 123.902V116.718H345.397V123.902L339.7 126.057V153.943L345.397 156.163V163.347Z" fill="black"/>
<path d="M396.057 163.347H379.862L363.155 130.498H362.899C362.985 131.238 363.049 132.109 363.091 133.11C363.177 134.112 363.241 135.156 363.283 136.245C363.326 137.333 363.369 138.4 363.411 139.445C363.454 140.49 363.475 141.448 363.475 142.318V163.347H352.53V116.718H368.66L385.303 149.11H385.495C385.452 148.37 385.388 147.521 385.303 146.563C385.26 145.562 385.218 144.561 385.175 143.559C385.132 142.514 385.09 141.491 385.047 140.49C385.047 139.488 385.047 138.596 385.047 137.812V116.718H396.057V163.347Z" fill="black"/>
<path d="M424.285 136.049H444V161.192C441.653 162.019 438.943 162.694 435.871 163.216C432.841 163.739 429.662 164 426.333 164C421.938 164 418.076 163.129 414.747 161.388C411.461 159.646 408.879 156.99 407.002 153.42C405.167 149.85 404.249 145.344 404.249 139.902C404.249 135.026 405.167 130.803 407.002 127.233C408.837 123.663 411.525 120.92 415.067 119.004C418.652 117.045 423.047 116.065 428.253 116.065C431.112 116.065 433.822 116.348 436.383 116.914C438.943 117.437 441.162 118.133 443.04 119.004L439.135 128.865C437.514 128.038 435.807 127.429 434.014 127.037C432.222 126.601 430.323 126.384 428.317 126.384C425.586 126.384 423.389 127.015 421.724 128.278C420.06 129.54 418.844 131.216 418.076 133.306C417.35 135.396 416.987 137.703 416.987 140.229C416.987 143.102 417.393 145.54 418.204 147.543C419.014 149.546 420.188 151.069 421.724 152.114C423.26 153.116 425.138 153.616 427.357 153.616C427.869 153.616 428.445 153.595 429.085 153.551C429.726 153.507 430.344 153.442 430.942 153.355C431.582 153.268 432.073 153.181 432.414 153.094V145.78H424.285V136.049Z" fill="black"/>
<path d="M80.4235 139.967C80.4235 143.581 79.9967 146.868 79.1432 149.829C78.2898 152.746 76.9669 155.271 75.1746 157.404C73.3823 159.537 71.0779 161.17 68.2614 162.302C65.4876 163.434 62.1377 164 58.2117 164C54.3711 164 51.0425 163.434 48.2261 162.302C45.4523 161.17 43.1479 159.537 41.3129 157.404C39.5206 155.271 38.1764 152.746 37.2802 149.829C36.4267 146.868 36 143.559 36 139.902C36 135.069 36.7895 130.868 38.3684 127.298C39.9473 123.684 42.3797 120.898 45.6656 118.939C48.9515 116.98 53.1549 116 58.2757 116C63.4819 116 67.7067 117.001 70.9499 119.004C74.2358 120.963 76.6255 123.75 78.1191 127.363C79.6553 130.933 80.4235 135.135 80.4235 139.967ZM48.9942 139.967C48.9942 142.754 49.2929 145.17 49.8903 147.216C50.5304 149.219 51.5333 150.765 52.8988 151.853C54.2644 152.941 56.0354 153.486 58.2117 153.486C60.4734 153.486 62.2657 152.941 63.5886 151.853C64.9542 150.765 65.9357 149.219 66.5331 147.216C67.1306 145.17 67.4293 142.754 67.4293 139.967C67.4293 135.744 66.7465 132.414 65.3809 129.976C64.0154 127.537 61.647 126.318 58.2757 126.318C56.0567 126.318 54.2644 126.884 52.8988 128.016C51.5333 129.105 50.5304 130.672 49.8903 132.718C49.2929 134.721 48.9942 137.137 48.9942 139.967Z" stroke="#00FF85" stroke-width="2" mask="url(#path-1-outside-1_1053_151)"/>
<path d="M104.483 116.718C110.287 116.718 114.619 118.003 117.478 120.571C120.379 123.14 121.83 126.797 121.83 131.543C121.83 133.676 121.532 135.722 120.934 137.682C120.337 139.597 119.355 141.339 117.99 142.906C116.667 144.43 114.896 145.649 112.677 146.563C110.458 147.434 107.727 147.869 104.483 147.869H101.027V163.347H88.6728V116.718H104.483ZM104.227 126.906H101.027V137.616H103.459C104.526 137.616 105.508 137.442 106.404 137.094C107.343 136.702 108.089 136.093 108.644 135.265C109.199 134.395 109.476 133.263 109.476 131.869C109.476 130.389 109.05 129.192 108.196 128.278C107.343 127.363 106.02 126.906 104.227 126.906Z" stroke="#00FF85" stroke-width="2" mask="url(#path-1-outside-1_1053_151)"/>
<path d="M149.281 163.347H136.926V127.037H125.789V116.718H160.418V127.037H149.281V163.347Z" stroke="#00FF85" stroke-width="2" mask="url(#path-1-outside-1_1053_151)"/>
<path d="M187.996 163.347H164.184V156.163L169.88 153.943V126.057L164.184 123.902V116.718H187.996V123.902L182.299 126.057V153.943L187.996 156.163V163.347Z" stroke="#00FF85" stroke-width="2" mask="url(#path-1-outside-1_1053_151)"/>
<path d="M215.036 163.347L205.69 129.78H205.434C205.519 130.65 205.605 131.826 205.69 133.306C205.775 134.786 205.861 136.397 205.946 138.139C206.031 139.837 206.074 141.491 206.074 143.102V163.347H195.128V116.718H211.579L221.117 149.829H221.373L230.718 116.718H247.169V163.347H235.839V142.906C235.839 141.426 235.86 139.859 235.903 138.204C235.946 136.506 236.01 134.917 236.095 133.437C236.18 131.913 236.244 130.716 236.287 129.845H236.031L226.814 163.347H215.036Z" stroke="#00FF85" stroke-width="2" mask="url(#path-1-outside-1_1053_151)"/>
<path d="M278.073 163.347H254.261V156.163L259.958 153.943V126.057L254.261 123.902V116.718H278.073V123.902L272.376 126.057V153.943L278.073 156.163V163.347Z" stroke="#00FF85" stroke-width="2" mask="url(#path-1-outside-1_1053_151)"/>
<path d="M317.787 163.347H282.197V155.576L301.977 126.906H282.645V116.718H317.275V124.49L297.496 153.159H317.787V163.347Z" stroke="#00FF85" stroke-width="2" mask="url(#path-1-outside-1_1053_151)"/>
<path d="M345.397 163.347H321.585V156.163L327.282 153.943V126.057L321.585 123.902V116.718H345.397V123.902L339.7 126.057V153.943L345.397 156.163V163.347Z" stroke="#00FF85" stroke-width="2" mask="url(#path-1-outside-1_1053_151)"/>
<path d="M396.057 163.347H379.862L363.155 130.498H362.899C362.985 131.238 363.049 132.109 363.091 133.11C363.177 134.112 363.241 135.156 363.283 136.245C363.326 137.333 363.369 138.4 363.411 139.445C363.454 140.49 363.475 141.448 363.475 142.318V163.347H352.53V116.718H368.66L385.303 149.11H385.495C385.452 148.37 385.388 147.521 385.303 146.563C385.26 145.562 385.218 144.561 385.175 143.559C385.132 142.514 385.09 141.491 385.047 140.49C385.047 139.488 385.047 138.596 385.047 137.812V116.718H396.057V163.347Z" stroke="#00FF85" stroke-width="2" mask="url(#path-1-outside-1_1053_151)"/>
<path d="M424.285 136.049H444V161.192C441.653 162.019 438.943 162.694 435.871 163.216C432.841 163.739 429.662 164 426.333 164C421.938 164 418.076 163.129 414.747 161.388C411.461 159.646 408.879 156.99 407.002 153.42C405.167 149.85 404.249 145.344 404.249 139.902C404.249 135.026 405.167 130.803 407.002 127.233C408.837 123.663 411.525 120.92 415.067 119.004C418.652 117.045 423.047 116.065 428.253 116.065C431.112 116.065 433.822 116.348 436.383 116.914C438.943 117.437 441.162 118.133 443.04 119.004L439.135 128.865C437.514 128.038 435.807 127.429 434.014 127.037C432.222 126.601 430.323 126.384 428.317 126.384C425.586 126.384 423.389 127.015 421.724 128.278C420.06 129.54 418.844 131.216 418.076 133.306C417.35 135.396 416.987 137.703 416.987 140.229C416.987 143.102 417.393 145.54 418.204 147.543C419.014 149.546 420.188 151.069 421.724 152.114C423.26 153.116 425.138 153.616 427.357 153.616C427.869 153.616 428.445 153.595 429.085 153.551C429.726 153.507 430.344 153.442 430.942 153.355C431.582 153.268 432.073 153.181 432.414 153.094V145.78H424.285V136.049Z" stroke="#00FF85" stroke-width="2" mask="url(#path-1-outside-1_1053_151)"/>
</g>
<defs>
<filter id="filter0_d_1053_151" x="19" y="99" width="442" height="82" filterUnits="userSpaceOnUse" color-interpolation-filters="sRGB">
<feFlood flood-opacity="0" result="BackgroundImageFix"/>
<feColorMatrix in="SourceAlpha" type="matrix" values="0 0 0 0 0 0 0 0 0 0 0 0 0 0 0 0 0 0 127 0" result="hardAlpha"/>
<feOffset/>
<feGaussianBlur stdDeviation="8"/>
<feComposite in2="hardAlpha" operator="out"/>
<feColorMatrix type="matrix" values="0 0 0 0 0 0 0 0 0 1 0 0 0 0 0.521569 0 0 0 0.24 0"/>
<feBlend mode="normal" in2="BackgroundImageFix" result="effect1_dropShadow_1053_151"/>
<feBlend mode="normal" in="SourceGraphic" in2="effect1_dropShadow_1053_151" result="shape"/>
</filter>
</defs>
</svg>
