<svg width="480" height="280" viewBox="0 0 480 280" fill="none" xmlns="http://www.w3.org/2000/svg">
<g clip-path="url(#clip0_1032_1671)">
<rect width="480" height="280" fill="#0C0C0C"/>
<path fillRule="evenodd" clipRule="evenodd" d="M219.46 169.498C219.477 167.289 221.282 165.512 223.491 165.529L547.494 169.965C549.703 169.982 546.994 169.787 546.977 171.996C546.96 174.205 549.086 171.61 546.877 171.594L223.43 173.529C221.221 173.512 219.444 171.708 219.46 169.498Z" fill="url(#paint0_linear_1032_1671)"/>
<path fillRule="evenodd" clipRule="evenodd" d="M282.924 114.498C282.907 112.289 281.103 110.512 278.894 110.529L-45.1089 114.965C-47.318 114.982 -44.6092 114.787 -44.5924 116.996C-44.5755 119.205 -46.7013 116.61 -44.4922 116.594L278.955 118.529C281.164 118.512 282.941 116.708 282.924 114.498Z" fill="url(#paint1_linear_1032_1671)"/>
<path d="M316.856 79.7919H317.356V79.2919V58.6701H323.467H323.967V58.1701V52.1679V51.6679H323.467H302.915H302.415V52.1679V58.1701V58.6701H302.915H309.025V79.2919V79.7919H309.525H316.856Z" fill="black" stroke="#00FF85"/>
<path d="M300.706 71.0484C300.706 72.5173 300.326 73.9102 299.566 75.2271C298.832 76.5441 297.679 77.6204 296.109 78.4562C294.564 79.2666 292.551 79.6718 290.069 79.6718C288.828 79.6718 287.739 79.6085 286.802 79.4819C285.89 79.3806 285.029 79.2033 284.219 78.95C283.408 78.6968 282.573 78.3675 281.711 77.9623V71.4283C283.18 72.1627 284.662 72.7325 286.156 73.1377C287.65 73.5176 289.005 73.7076 290.221 73.7076C290.955 73.7076 291.551 73.6189 292.006 73.4417C292.462 73.2644 292.804 73.0238 293.032 72.7199C293.26 72.416 293.374 72.0741 293.374 71.6942C293.374 71.213 293.209 70.8078 292.88 70.4785C292.551 70.1493 292.032 69.8074 291.323 69.4528C290.613 69.0983 289.664 68.6551 288.473 68.1232C287.46 67.6674 286.549 67.1862 285.738 66.6796C284.928 66.1731 284.231 65.6033 283.649 64.9702C283.092 64.337 282.661 63.6026 282.357 62.7668C282.053 61.9057 281.901 60.8927 281.901 59.7277C281.901 57.9802 282.332 56.524 283.193 55.359C284.054 54.1687 285.244 53.2823 286.764 52.6998C288.309 52.0919 290.094 51.788 292.12 51.788C293.893 51.788 295.489 51.9906 296.907 52.3958C298.325 52.7757 299.591 53.2189 300.706 53.7255L298.464 59.3858C297.3 58.8539 296.147 58.4361 295.008 58.1322C293.893 57.8029 292.855 57.6383 291.892 57.6383C291.259 57.6383 290.74 57.7143 290.335 57.8662C289.93 58.0182 289.626 58.2335 289.423 58.512C289.246 58.7653 289.157 59.0566 289.157 59.3858C289.157 59.8163 289.322 60.1962 289.651 60.5255C289.98 60.8547 290.525 61.2219 291.285 61.6271C292.07 62.007 293.133 62.5009 294.476 63.1087C295.793 63.6912 296.907 64.337 297.819 65.0461C298.756 65.7299 299.465 66.553 299.946 67.5154C300.453 68.4525 300.706 69.6301 300.706 71.0484Z" fill="black"/>
<path fillRule="evenodd" clipRule="evenodd" d="M297.546 58.989C296.693 58.6416 295.847 58.356 295.008 58.1322C293.893 57.8029 292.855 57.6383 291.892 57.6383C291.259 57.6383 290.74 57.7143 290.335 57.8662C289.93 58.0182 289.626 58.2335 289.423 58.512C289.246 58.7653 289.157 59.0566 289.157 59.3858C289.157 59.8163 289.322 60.1962 289.651 60.5255C289.98 60.8547 290.525 61.2219 291.285 61.6271C292.07 62.007 293.133 62.5009 294.476 63.1087C295.793 63.6912 296.907 64.337 297.819 65.0461C298.756 65.7299 299.465 66.553 299.946 67.5154C300.453 68.4525 300.706 69.6301 300.706 71.0484C300.706 72.5173 300.326 73.9102 299.566 75.2271C298.832 76.5441 297.679 77.6204 296.109 78.4562C294.564 79.2666 292.551 79.6718 290.069 79.6718C288.828 79.6718 287.739 79.6085 286.802 79.4819C285.89 79.3806 285.029 79.2033 284.219 78.95C283.408 78.6968 282.573 78.3675 281.711 77.9623V71.4283C282.044 71.5946 282.377 71.7525 282.711 71.9019C283.852 72.4124 285 72.8243 286.156 73.1377C287.65 73.5176 289.005 73.7076 290.221 73.7076C290.955 73.7076 291.551 73.6189 292.006 73.4417C292.462 73.2644 292.804 73.0238 293.032 72.7199C293.26 72.416 293.374 72.0741 293.374 71.6942C293.374 71.213 293.209 70.8078 292.88 70.4785C292.551 70.1493 292.032 69.8074 291.323 69.4528C290.613 69.0983 289.664 68.6551 288.473 68.1232C287.46 67.6674 286.549 67.1862 285.738 66.6796C284.928 66.1731 284.231 65.6033 283.649 64.9702C283.092 64.337 282.661 63.6026 282.357 62.7668C282.053 61.9057 281.901 60.8927 281.901 59.7277C281.901 57.9802 282.332 56.524 283.193 55.359C284.054 54.1687 285.244 53.2823 286.764 52.6998C288.309 52.0919 290.094 51.788 292.12 51.788C293.893 51.788 295.489 51.9906 296.907 52.3958C298.325 52.7757 299.591 53.2189 300.706 53.7255L298.464 59.3858C298.157 59.2456 297.851 59.1134 297.546 58.989ZM297.174 51.432C298.632 51.823 299.949 52.2828 301.12 52.8151L301.986 53.2089L299.007 60.7326L298.049 60.2955C296.931 59.7849 295.831 59.3867 294.75 59.0984L294.737 59.095L294.724 59.0912C293.683 58.7837 292.741 58.6383 291.892 58.6383C291.329 58.6383 290.94 58.7074 290.686 58.8026C290.425 58.9005 290.3 59.0098 290.237 59.0931C290.188 59.1655 290.157 59.2523 290.157 59.3858C290.157 59.5282 290.2 59.6598 290.358 59.8183C290.58 60.0401 291.015 60.3488 291.738 60.7356C292.51 61.1087 293.557 61.5951 294.884 62.196C296.251 62.8008 297.434 63.4822 298.421 64.2475C299.466 65.0129 300.278 65.9484 300.833 67.054C301.435 68.1748 301.706 69.5235 301.706 71.0484C301.706 72.6967 301.278 74.2591 300.436 75.7207C299.592 77.2308 298.286 78.4306 296.579 79.3389L296.574 79.3417C294.838 80.2524 292.649 80.6718 290.069 80.6718C288.801 80.6718 287.67 80.6075 286.68 80.4745C285.714 80.3664 284.793 80.1773 283.92 79.9045C283.062 79.6361 282.183 79.2895 281.286 78.8672L280.711 78.5969V69.8102L282.159 70.5338C283.569 71.2391 284.986 71.7838 286.41 72.1705C287.841 72.5338 289.109 72.7076 290.221 72.7076C290.887 72.7076 291.346 72.6254 291.644 72.5097C291.975 72.3809 292.144 72.2371 292.232 72.1199C292.33 71.9891 292.374 71.8577 292.374 71.6942C292.374 71.4683 292.308 71.3204 292.173 71.1856C291.955 70.9674 291.546 70.6825 290.875 70.3473C290.185 70.0019 289.25 69.5654 288.066 69.0362L288.063 69.0351C287.015 68.5636 286.063 68.0616 285.208 67.5276C284.33 66.9788 283.562 66.3531 282.913 65.6472L282.905 65.6391L282.898 65.6308C282.254 64.899 281.762 64.055 281.417 63.1085L281.414 63.0996C281.064 62.1068 280.901 60.9763 280.901 59.7277C280.901 57.8134 281.375 56.1382 282.386 54.7687C283.372 53.4076 284.725 52.4112 286.402 51.7676C288.085 51.1061 289.998 50.788 292.12 50.788C293.965 50.788 295.652 50.9983 297.174 51.432Z" fill="#00FF85"/>
<path d="M278.223 79.7919H278.723V79.2919V73.3277V72.8277H278.223H269.948V68.6992H277.577H278.077V68.1992V62.3109V61.8109H277.577H269.948V58.5562H278.223H278.723V58.0562V52.1679V51.6679H278.223H262.116H261.616V52.1679V79.2919V79.7919H262.116H278.223Z" fill="black" stroke="#00FF85"/>
<path d="M235.786 77.1785L235.786 77.1785L235.79 77.1831C237.889 79.2008 240.893 80.1718 244.723 80.1718C247.386 80.1718 249.637 79.7069 251.451 78.7468C253.285 77.7898 254.665 76.4257 255.576 74.6583C256.48 72.9025 256.923 70.8454 256.923 68.5031V52.1679V51.6679H256.423H249.091H248.591V52.1679V68.0472C248.591 69.3056 248.442 70.2909 248.167 71.0248L248.167 71.0247L248.163 71.0378C247.916 71.7557 247.527 72.2473 247.011 72.557L247.01 72.557L247.003 72.5618C246.501 72.8755 245.793 73.0556 244.836 73.0556C243.555 73.0556 242.647 72.6652 242.029 71.9429C241.432 71.2159 241.082 69.9675 241.082 68.0852V52.1679V51.6679H240.582H233.212H232.712V52.1679V68.6551C232.712 72.2692 233.715 75.135 235.786 77.1785Z" fill="black" stroke="#00FF85"/>
<path d="M228.346 71.0575L228.346 71.0557C228.762 69.3907 228.969 67.6021 228.969 65.692C228.969 62.8291 228.505 60.315 227.56 58.1624C226.633 55.9647 225.144 54.2619 223.102 53.0678C221.076 51.8424 218.471 51.2501 215.325 51.2501C212.226 51.2501 209.637 51.8306 207.589 53.0279C205.547 54.2212 204.033 55.9224 203.054 58.1175C202.082 60.2719 201.604 62.7885 201.604 65.654C201.604 67.8205 201.862 69.7938 202.385 71.5694L202.385 71.5694L202.387 71.5778C202.937 73.3335 203.766 74.8636 204.878 76.1604L204.878 76.1604L204.882 76.1648C206.026 77.4692 207.461 78.4629 209.175 79.1484L209.177 79.1493C210.92 79.8361 212.961 80.1718 215.287 80.1718H215.287H215.287H215.287H215.287H215.287H215.288H215.288H215.288H215.288H215.288H215.288H215.288H215.289H215.289H215.289H215.289H215.289H215.289H215.289H215.29H215.29H215.29H215.29H215.29H215.29H215.291H215.291H215.291H215.291H215.291H215.291H215.292H215.292H215.292H215.292H215.292H215.292H215.292H215.293H215.293H215.293H215.293H215.293H215.293H215.294H215.294H215.294H215.294H215.294H215.294H215.295H215.295H215.295H215.295H215.295H215.295H215.296H215.296H215.296H215.296H215.296H215.296H215.297H215.297H215.297H215.297H215.297H215.297H215.298H215.298H215.298H215.298H215.298H215.298H215.299H215.299H215.299H215.299H215.299H215.299H215.3H215.3H215.3H215.3H215.3H215.3H215.301H215.301H215.301H215.301H215.301H215.301H215.302H215.302H215.302H215.302H215.302H215.303L219.711 86.0501L219.861 86.2501H220.111H229.229H230.323L229.607 85.4228L223.392 78.2434C224.603 77.4954 225.599 76.5604 226.372 75.4373C227.271 74.1672 227.927 72.7051 228.346 71.0575ZM218.17 72.2119L218.17 72.2119L218.164 72.2167C217.493 72.7575 216.553 73.0556 215.287 73.0556C214.077 73.0556 213.143 72.7604 212.441 72.2119C211.725 71.652 211.181 70.8456 210.825 69.7598C210.489 68.6287 210.316 67.2755 210.316 65.692C210.316 64.0806 210.49 62.7279 210.825 61.624C211.181 60.5102 211.727 59.6925 212.441 59.134L212.441 59.1341L212.449 59.1281C213.149 58.5592 214.092 58.2523 215.325 58.2523C217.193 58.2523 218.407 58.9025 219.107 60.1277C219.858 61.4417 220.257 63.2818 220.257 65.692C220.257 67.2777 220.083 68.6326 219.746 69.7647C219.416 70.8491 218.885 71.6533 218.17 72.2119Z" fill="black" stroke="#00FF85"/>
<path d="M198.35 79.7919H198.85V79.2919V73.3277V72.8277H198.35H190.075V68.6992H197.704H198.204V68.1992V62.3109V61.8109H197.704H190.075V58.5562H198.35H198.85V58.0562V52.1679V51.6679H198.35H182.243H181.743V52.1679V79.2919V79.7919H182.243H198.35Z" fill="black" stroke="#00FF85"/>
<path d="M172.592 67.6421C173.396 67.1514 174.103 66.5922 174.71 65.963C175.438 65.208 175.993 64.3432 176.371 63.3715C176.778 62.3944 176.977 61.3296 176.977 60.1836C176.977 58.3337 176.541 56.7578 175.634 55.4904C174.753 54.1996 173.432 53.2461 171.713 52.611C170.018 51.9756 167.915 51.6679 165.423 51.6679H156.533H156.033V52.1679V79.2919V79.7919H156.533H163.865H164.365V79.2919V69.9148H165.439L171.03 79.543L171.175 79.7919H171.463H179.782H180.718L180.198 79.014L172.592 67.6421ZM168.259 59.2974L168.259 59.2975L168.266 59.3089C168.459 59.6188 168.57 60.0161 168.57 60.5255C168.57 61.2971 168.418 61.8619 168.16 62.2615C167.893 62.6497 167.523 62.9414 167.031 63.1347C166.543 63.3114 165.947 63.4065 165.233 63.4065H164.365V58.2143H165.309C166.158 58.2143 166.809 58.3243 167.285 58.519C167.762 58.7142 168.072 58.9793 168.259 59.2974Z" fill="black" stroke="#00FF85"/>
<path d="M265.99 96.885C264.477 95.3717 262.023 95.3717 260.51 96.885C258.997 98.3983 258.997 100.852 260.51 102.365L269.395 111.25H201.25C199.11 111.25 197.375 112.985 197.375 115.125C197.375 117.265 199.11 119 201.25 119H269.395L260.51 127.885C258.997 129.398 258.997 131.852 260.51 133.365C262.023 134.878 264.477 134.878 265.99 133.365L281.49 117.865C281.862 117.494 282.142 117.065 282.331 116.608C282.503 116.193 282.599 115.753 282.621 115.311C282.624 115.249 282.625 115.187 282.625 115.125C282.625 114.6 282.52 114.099 282.331 113.642C282.142 113.185 281.862 112.757 281.49 112.385L265.99 96.885Z" fill="black" stroke="#00FF85" stroke-linecap="round" stroke-linejoin="round"/>
<path d="M214.01 188.115C215.523 189.628 217.977 189.628 219.49 188.115C221.003 186.602 221.003 184.148 219.49 182.635L210.605 173.75L278.75 173.75C280.89 173.75 282.625 172.015 282.625 169.875C282.625 167.735 280.89 166 278.75 166L210.605 166L219.49 157.115C221.003 155.602 221.003 153.148 219.49 151.635C217.977 150.122 215.523 150.122 214.01 151.635L198.514 167.131C198.5 167.145 198.486 167.159 198.472 167.174C197.793 167.872 197.375 168.824 197.375 169.875C197.375 170.4 197.48 170.901 197.669 171.358C197.858 171.815 198.138 172.244 198.51 172.615L214.01 188.115Z" fill="black" stroke="#00FF85" stroke-linecap="round" stroke-linejoin="round"/>
<path d="M336.506 228.331H337.006V227.831V221.85V221.35H336.506H328.206V217.207H335.859H336.359V216.707V210.803V210.303H335.859H328.206V207.036H336.506H337.006V206.536V200.631V200.131H336.506H320.354H319.854V200.631V227.831V228.331H320.354H336.506Z" fill="black" stroke="#00FF85"/>
<path d="M316.157 219.564C316.157 221.037 315.777 222.434 315.015 223.755C314.278 225.075 313.123 226.155 311.548 226.993C309.999 227.806 307.98 228.212 305.491 228.212C304.246 228.212 303.154 228.148 302.215 228.021C301.3 227.92 300.437 227.742 299.624 227.488C298.811 227.234 297.973 226.904 297.11 226.498V219.945C298.583 220.682 300.069 221.253 301.567 221.66C303.065 222.041 304.424 222.231 305.643 222.231C306.38 222.231 306.977 222.142 307.434 221.964C307.891 221.787 308.234 221.545 308.462 221.241C308.691 220.936 308.805 220.593 308.805 220.212C308.805 219.729 308.64 219.323 308.31 218.993C307.98 218.663 307.459 218.32 306.748 217.964C306.037 217.609 305.084 217.164 303.891 216.631C302.875 216.174 301.961 215.691 301.148 215.183C300.335 214.675 299.637 214.104 299.053 213.469C298.494 212.834 298.062 212.098 297.757 211.26C297.453 210.396 297.3 209.38 297.3 208.212C297.3 206.46 297.732 204.999 298.596 203.831C299.459 202.637 300.653 201.748 302.177 201.164C303.726 200.555 305.516 200.25 307.548 200.25C309.326 200.25 310.926 200.453 312.348 200.86C313.77 201.241 315.04 201.685 316.157 202.193L313.91 207.869C312.742 207.336 311.586 206.917 310.443 206.612C309.326 206.282 308.284 206.117 307.319 206.117C306.684 206.117 306.164 206.193 305.757 206.345C305.351 206.498 305.046 206.714 304.843 206.993C304.665 207.247 304.577 207.539 304.577 207.869C304.577 208.301 304.742 208.682 305.072 209.012C305.402 209.342 305.948 209.71 306.71 210.117C307.497 210.498 308.564 210.993 309.91 211.602C311.231 212.187 312.348 212.834 313.262 213.545C314.202 214.231 314.913 215.056 315.396 216.021C315.904 216.961 316.157 218.142 316.157 219.564Z" fill="black"/>
<path fillRule="evenodd" clipRule="evenodd" d="M312.991 207.472C312.135 207.123 311.286 206.837 310.443 206.612C309.326 206.282 308.284 206.117 307.319 206.117C306.684 206.117 306.164 206.193 305.757 206.345C305.351 206.498 305.046 206.714 304.843 206.993C304.665 207.247 304.577 207.539 304.577 207.869C304.577 208.301 304.742 208.682 305.072 209.012C305.402 209.342 305.948 209.71 306.71 210.117C307.497 210.498 308.564 210.993 309.91 211.602C311.231 212.187 312.348 212.834 313.262 213.545C314.202 214.231 314.913 215.056 315.396 216.021C315.904 216.961 316.157 218.142 316.157 219.564C316.157 221.037 315.777 222.434 315.015 223.755C314.278 225.075 313.123 226.155 311.548 226.993C309.999 227.806 307.98 228.212 305.491 228.212C304.246 228.212 303.154 228.148 302.215 228.021C301.3 227.92 300.437 227.742 299.624 227.488C298.811 227.234 297.973 226.904 297.11 226.498V219.945C297.443 220.112 297.776 220.27 298.11 220.419C299.255 220.932 300.407 221.345 301.567 221.66C303.065 222.041 304.424 222.231 305.643 222.231C306.38 222.231 306.977 222.142 307.434 221.964C307.891 221.787 308.234 221.545 308.462 221.241C308.691 220.936 308.805 220.593 308.805 220.212C308.805 219.729 308.64 219.323 308.31 218.993C307.98 218.663 307.459 218.32 306.748 217.964C306.037 217.609 305.084 217.164 303.891 216.631C302.875 216.174 301.961 215.691 301.148 215.183C300.335 214.675 299.637 214.104 299.053 213.469C298.494 212.834 298.062 212.098 297.757 211.26C297.453 210.396 297.3 209.38 297.3 208.212C297.3 206.46 297.732 204.999 298.596 203.831C299.459 202.637 300.653 201.748 302.177 201.164C303.726 200.555 305.516 200.25 307.548 200.25C309.326 200.25 310.926 200.453 312.348 200.86C313.77 201.241 315.04 201.685 316.157 202.193L313.91 207.869C313.603 207.729 313.297 207.597 312.991 207.472ZM312.615 199.896C314.077 200.288 315.397 200.749 316.571 201.283L317.438 201.676L314.452 209.216L313.495 208.779C312.373 208.267 311.27 207.867 310.186 207.578L310.173 207.575L310.16 207.571C309.116 207.263 308.171 207.117 307.319 207.117C306.754 207.117 306.364 207.186 306.109 207.282C305.846 207.38 305.721 207.49 305.657 207.574C305.608 207.647 305.577 207.735 305.577 207.869C305.577 208.013 305.619 208.145 305.779 208.305C306.002 208.528 306.438 208.837 307.163 209.225C307.937 209.599 308.988 210.087 310.318 210.69C311.689 211.296 312.875 211.979 313.864 212.747C314.912 213.514 315.726 214.452 316.283 215.56C316.886 216.683 317.157 218.035 317.157 219.564C317.157 221.217 316.728 222.783 315.884 224.248C315.038 225.762 313.729 226.965 312.018 227.876L312.013 227.878C310.272 228.791 308.077 229.212 305.491 229.212C304.22 229.212 303.085 229.147 302.092 229.014C301.124 228.906 300.201 228.716 299.326 228.443C298.465 228.174 297.584 227.826 296.684 227.403L296.11 227.132V218.327L297.557 219.051C298.972 219.758 300.393 220.305 301.821 220.692C303.256 221.057 304.528 221.231 305.643 221.231C306.312 221.231 306.772 221.149 307.071 221.032C307.404 220.903 307.574 220.759 307.662 220.641C307.761 220.509 307.805 220.377 307.805 220.212C307.805 219.985 307.738 219.836 307.603 219.7C307.384 219.481 306.973 219.195 306.301 218.859C305.608 218.512 304.671 218.075 303.483 217.544L303.48 217.543C302.43 217.07 301.475 216.567 300.618 216.031C299.738 215.481 298.968 214.854 298.317 214.146L298.309 214.138L298.302 214.13C297.657 213.396 297.163 212.55 296.818 211.601L296.814 211.592C296.463 210.597 296.3 209.464 296.3 208.212C296.3 206.293 296.775 204.613 297.788 203.241C298.777 201.876 300.133 200.877 301.814 200.232C303.502 199.569 305.419 199.25 307.548 199.25C309.397 199.25 311.089 199.461 312.615 199.896Z" fill="#00FF85"/>
<path d="M292.501 228.331H293.001V227.831V200.631V200.131H292.501H285.949H285.449V200.631V212.936V212.939V212.941V212.944V212.947V212.949V212.952V212.955V212.957V212.96V212.963V212.965V212.968V212.971V212.974V212.976V212.979V212.982V212.984V212.987V212.99V212.992V212.995V212.998V213.001V213.003V213.006V213.009V213.011V213.014V213.017V213.02V213.022V213.025V213.028V213.031V213.033V213.036V213.039V213.041V213.044V213.047V213.05V213.052V213.055V213.058V213.061V213.063V213.066V213.069V213.072V213.074V213.077V213.08V213.083V213.085V213.088V213.091V213.094V213.096V213.099V213.102V213.105V213.108V213.11V213.113V213.116V213.119V213.121V213.124V213.127V213.13V213.133V213.135V213.138V213.141V213.144V213.146V213.149V213.152V213.155V213.158V213.16V213.163V213.166V213.169V213.172V213.174V213.177V213.18V213.183V213.186V213.189V213.191V213.194V213.197V213.2V213.203V213.205V213.208V213.211V213.214V213.217V213.22V213.222V213.225V213.228V213.231V213.234V213.237V213.239V213.242V213.245V213.248V213.251V213.254V213.256V213.259V213.262V213.265V213.268V213.271V213.274V213.276V213.279V213.282V213.285V213.288V213.291V213.294V213.296V213.299V213.302V213.305V213.308V213.311V213.314V213.317V213.319V213.322V213.325V213.328V213.331V213.334V213.337V213.34V213.342V213.345V213.348V213.351V213.354V213.357V213.36V213.363V213.366V213.369V213.371V213.374V213.377V213.38V213.383V213.386V213.389V213.392V213.395V213.398V213.401V213.404V213.406V213.409V213.412V213.415V213.418V213.421V213.424V213.427V213.43V213.433V213.436V213.439V213.442V213.445V213.447V213.45V213.453V213.456V213.459V213.462V213.465V213.468V213.471V213.474V213.477V213.48V213.483V213.486V213.489V213.492V213.495V213.498V213.501V213.504V213.507V213.51V213.513V213.516V213.519V213.522V213.525V213.527V213.53V213.533V213.536V213.539V213.542V213.545V213.548V213.551V213.554V213.557V213.56V213.563V213.566V213.569V213.572V213.575V213.578V213.581V213.584V213.587V213.59V213.593V213.596V213.599V213.602V213.606V213.609V213.612V213.615V213.618V213.621V213.624V213.627V213.63V213.633V213.636V213.639V213.642V213.645V213.648V213.651V213.654V213.657V213.66V213.663V213.666V213.669V213.672V213.675V213.678V213.681V213.685V213.688V213.691V213.694V213.697V213.7V213.703V213.706V213.709V213.712V213.715V213.718V213.721V213.724V213.727V213.731V213.734V213.737V213.74V213.743V213.746V213.749V213.752V213.755V213.758V213.761V213.765V213.768V213.771V213.774V213.777V213.78V213.783V213.786V213.789V213.792V213.796V213.799V213.802V213.805V213.808V213.811V213.814V213.817V213.82V213.824V213.827V213.83V213.833V213.836V213.839V213.842V213.846V213.849V213.852V213.855V213.858V213.861V213.864V213.867V213.871V213.874V213.877V213.88V213.883V213.886V213.89V213.893V213.896V213.899V213.902V213.905V213.908V213.912V213.915V213.918V213.921V213.924V213.927V213.931V213.934V213.937V213.94V213.943V213.947V213.95V213.953V213.956V213.959V213.962V213.966V213.969V213.972V213.975V213.978V213.982V213.985V213.988V213.991V213.994V213.998V214.001V214.004V214.007V214.01V214.014V214.017V214.02V214.023V214.026V214.03V214.033V214.036V214.039V214.043V214.046V214.049V214.052V214.055V214.059V214.062V214.065V214.068V214.072V214.075V214.078V214.081V214.085V214.088V214.091V214.094V214.098V214.101V214.104V214.107V214.111V214.114V214.117V214.12V214.124V214.127V214.13V214.133V214.137V214.14V214.143V214.146V214.15V214.153V214.156V214.16V214.163V214.166V214.169V214.173V214.176V214.179V214.183V214.186V214.189V214.192V214.196V214.199V214.202V214.206V214.209V214.212V214.215V214.219V214.222V214.225V214.229V214.232V214.235V214.239V214.242V214.245V214.249V214.252V214.255V214.258V214.262V214.265V214.268V214.272V214.275V214.278V214.282V214.285V214.288V214.292V214.295V214.298V214.302V214.305V214.308V214.312V214.315V214.318V214.322V214.325V214.329V214.332V214.335V214.339V214.342V214.345V214.349V214.352V214.355V214.359V214.362V214.365V214.369V214.372V214.376V214.379V214.382V214.386V214.389V214.392V214.396V214.399V214.403V214.406V214.409V214.413V214.416V214.419V214.423V214.426V214.43V214.433V214.436V214.44V214.443V214.447V214.45V214.453V214.457V214.46V214.464V214.467V214.47V214.474V214.477V214.481V214.484V214.488V214.491V214.494V214.498V214.509L285.449 214.52C285.474 215.103 285.5 215.7 285.525 216.309L285.525 216.31L285.575 217.445L276.639 200.399L276.499 200.131H276.196H266.596H266.096V200.631V227.831V228.331H266.596H273.11H273.61V227.831V215.564C273.61 215.048 273.598 214.483 273.572 213.867C273.547 213.258 273.521 212.636 273.496 212.002C273.478 211.566 273.455 211.142 273.426 210.73L282.419 228.061L282.559 228.331H282.863H292.501Z" fill="black" stroke="#00FF85"/>
<path d="M254.633 227.686C256.377 226.999 257.818 226.002 258.942 224.69C260.058 223.388 260.878 221.851 261.404 220.088L261.404 220.087C261.928 218.307 262.187 216.341 262.187 214.193C262.187 211.322 261.721 208.801 260.774 206.643C259.844 204.439 258.351 202.732 256.304 201.535C254.272 200.306 251.661 199.712 248.506 199.712C245.399 199.712 242.803 200.294 240.749 201.495C238.701 202.691 237.183 204.397 236.202 206.598C235.227 208.758 234.749 211.282 234.749 214.155C234.749 216.327 235.007 218.306 235.531 220.087L235.531 220.087L235.533 220.095C236.085 221.855 236.916 223.39 238.031 224.69L238.031 224.69L238.035 224.694C239.182 226.002 240.621 226.999 242.339 227.686L242.341 227.687C244.089 228.375 246.135 228.712 248.468 228.712C250.848 228.712 252.908 228.376 254.633 227.686ZM254.633 227.686C254.633 227.686 254.632 227.687 254.632 227.687L254.449 227.222L254.634 227.686C254.634 227.686 254.634 227.686 254.633 227.686ZM251.36 220.732L251.36 220.732L251.354 220.737C250.681 221.28 249.737 221.579 248.468 221.579C247.255 221.579 246.318 221.283 245.613 220.732C244.895 220.171 244.349 219.362 243.993 218.273C243.655 217.138 243.482 215.781 243.482 214.193C243.482 212.577 243.656 211.22 243.993 210.113C244.35 208.996 244.896 208.176 245.613 207.616L245.614 207.616L245.621 207.61C246.323 207.039 247.269 206.731 248.506 206.731C250.38 206.731 251.598 207.383 252.3 208.613C253.053 209.93 253.453 211.776 253.453 214.193C253.453 215.783 253.279 217.142 252.941 218.277C252.61 219.365 252.077 220.172 251.36 220.732Z" fill="black" stroke="#00FF85"/>
<path d="M231.845 213.011L231.846 213.008C232.217 211.815 232.402 210.572 232.402 209.279C232.402 206.4 231.499 204.116 229.641 202.502C227.811 200.891 225.092 200.131 221.578 200.131H212.169H211.669V200.631V227.831V228.331H212.169H219.521H220.021V227.831V219.303H221.578C223.549 219.303 225.24 219.044 226.634 218.507L226.634 218.507L226.642 218.504C228.02 217.948 229.142 217.196 229.99 216.24C230.847 215.275 231.468 214.198 231.845 213.011ZM220.021 212.322V207.074H221.426C222.418 207.074 223.048 207.322 223.426 207.719C223.83 208.143 224.05 208.71 224.05 209.469C224.05 210.214 223.899 210.77 223.639 211.173C223.367 211.568 223.004 211.86 222.538 212.052C222.069 212.23 221.548 212.322 220.969 212.322H220.021Z" fill="black" stroke="#00FF85"/>
<path d="M207.973 219.564C207.973 221.037 207.592 222.434 206.83 223.755C206.094 225.075 204.938 226.155 203.363 226.993C201.814 227.806 199.795 228.212 197.306 228.212C196.062 228.212 194.97 228.148 194.03 228.021C193.116 227.92 192.252 227.742 191.44 227.488C190.627 227.234 189.789 226.904 188.925 226.498V219.945C190.398 220.682 191.884 221.253 193.382 221.66C194.881 222.041 196.24 222.231 197.459 222.231C198.195 222.231 198.792 222.142 199.249 221.964C199.706 221.787 200.049 221.545 200.278 221.241C200.506 220.936 200.621 220.593 200.621 220.212C200.621 219.729 200.455 219.323 200.125 218.993C199.795 218.663 199.275 218.32 198.563 217.964C197.852 217.609 196.9 217.164 195.706 216.631C194.69 216.174 193.776 215.691 192.963 215.183C192.151 214.675 191.452 214.104 190.868 213.469C190.309 212.834 189.878 212.098 189.573 211.26C189.268 210.396 189.116 209.38 189.116 208.212C189.116 206.46 189.548 204.999 190.411 203.831C191.275 202.637 192.468 201.748 193.992 201.164C195.541 200.555 197.332 200.25 199.363 200.25C201.141 200.25 202.741 200.453 204.163 200.86C205.586 201.241 206.855 201.685 207.973 202.193L205.725 207.869C204.557 207.336 203.401 206.917 202.259 206.612C201.141 206.282 200.1 206.117 199.135 206.117C198.5 206.117 197.979 206.193 197.573 206.345C197.167 206.498 196.862 206.714 196.659 206.993C196.481 207.247 196.392 207.539 196.392 207.869C196.392 208.301 196.557 208.682 196.887 209.012C197.217 209.342 197.763 209.71 198.525 210.117C199.313 210.498 200.379 210.993 201.725 211.602C203.046 212.187 204.163 212.834 205.078 213.545C206.017 214.231 206.728 215.056 207.211 216.021C207.719 216.961 207.973 218.142 207.973 219.564Z" fill="black"/>
<path fillRule="evenodd" clipRule="evenodd" d="M204.807 207.472C203.951 207.123 203.101 206.837 202.259 206.612C201.141 206.282 200.1 206.117 199.135 206.117C198.5 206.117 197.979 206.193 197.573 206.345C197.167 206.498 196.862 206.714 196.659 206.993C196.481 207.247 196.392 207.539 196.392 207.869C196.392 208.301 196.557 208.682 196.887 209.012C197.217 209.342 197.763 209.71 198.525 210.117C199.313 210.498 200.379 210.993 201.725 211.602C203.046 212.187 204.163 212.834 205.078 213.545C206.017 214.231 206.728 215.056 207.211 216.021C207.719 216.961 207.973 218.142 207.973 219.564C207.973 221.037 207.592 222.434 206.83 223.755C206.094 225.075 204.938 226.155 203.363 226.993C201.814 227.806 199.795 228.212 197.306 228.212C196.062 228.212 194.97 228.148 194.03 228.021C193.116 227.92 192.252 227.742 191.44 227.488C190.627 227.234 189.789 226.904 188.925 226.498V219.945C189.258 220.112 189.591 220.27 189.925 220.419C191.07 220.932 192.222 221.345 193.382 221.66C194.881 222.041 196.24 222.231 197.459 222.231C198.195 222.231 198.792 222.142 199.249 221.964C199.706 221.787 200.049 221.545 200.278 221.241C200.506 220.936 200.621 220.593 200.621 220.212C200.621 219.729 200.455 219.323 200.125 218.993C199.795 218.663 199.275 218.32 198.563 217.964C197.852 217.609 196.9 217.164 195.706 216.631C194.69 216.174 193.776 215.691 192.963 215.183C192.151 214.675 191.452 214.104 190.868 213.469C190.309 212.834 189.878 212.098 189.573 211.26C189.268 210.396 189.116 209.38 189.116 208.212C189.116 206.46 189.548 204.999 190.411 203.831C191.275 202.637 192.468 201.748 193.992 201.164C195.541 200.555 197.332 200.25 199.363 200.25C201.141 200.25 202.741 200.453 204.163 200.86C205.586 201.241 206.855 201.685 207.973 202.193L205.725 207.869C205.418 207.729 205.112 207.597 204.807 207.472ZM204.43 199.896C205.892 200.288 207.213 200.749 208.387 201.283L209.253 201.676L206.268 209.216L205.31 208.779C204.188 208.267 203.085 207.867 202.001 207.578L201.988 207.575L201.975 207.571C200.931 207.263 199.987 207.117 199.135 207.117C198.569 207.117 198.179 207.186 197.924 207.282C197.662 207.38 197.536 207.49 197.473 207.574C197.423 207.647 197.392 207.735 197.392 207.869C197.392 208.013 197.435 208.145 197.594 208.305C197.817 208.528 198.254 208.837 198.979 209.225C199.753 209.599 200.803 210.087 202.134 210.69C203.504 211.296 204.691 211.979 205.68 212.747C206.727 213.514 207.541 214.452 208.098 215.56C208.702 216.683 208.973 218.035 208.973 219.564C208.973 221.217 208.544 222.783 207.7 224.248C206.854 225.762 205.544 226.965 203.833 227.876L203.828 227.878C202.088 228.791 199.893 229.212 197.306 229.212C196.035 229.212 194.9 229.147 193.908 229.014C192.939 228.906 192.016 228.716 191.141 228.443C190.28 228.174 189.399 227.826 188.499 227.403L187.925 227.132V218.327L189.373 219.051C190.787 219.758 192.209 220.305 193.637 220.692C195.072 221.057 196.343 221.231 197.459 221.231C198.127 221.231 198.588 221.149 198.887 221.032C199.219 220.903 199.389 220.759 199.478 220.641C199.576 220.509 199.621 220.377 199.621 220.212C199.621 219.985 199.554 219.836 199.418 219.7C199.199 219.481 198.789 219.195 198.116 218.859C197.424 218.512 196.486 218.075 195.298 217.544L195.296 217.543C194.245 217.07 193.29 216.567 192.433 216.031C191.553 215.481 190.783 214.854 190.132 214.146L190.125 214.138L190.117 214.13C189.472 213.396 188.978 212.55 188.633 211.601L188.63 211.592C188.279 210.597 188.116 209.464 188.116 208.212C188.116 206.293 188.591 204.613 189.604 203.241C190.592 201.876 191.949 200.877 193.63 200.232C195.317 199.569 197.235 199.25 199.363 199.25C201.213 199.25 202.905 199.461 204.43 199.896Z" fill="#00FF85"/>
<path d="M185.427 228.331H185.927V227.831V221.85V221.35H185.427H177.127V217.207H184.78H185.28V216.707V210.803V210.303H184.78H177.127V207.036H185.427H185.927V206.536V200.631V200.131H185.427H169.275H168.775V200.631V227.831V228.331H169.275H185.427Z" fill="black" stroke="#00FF85"/>
<path d="M159.596 216.148C160.403 215.656 161.112 215.095 161.72 214.464C162.45 213.707 163.006 212.84 163.386 211.866C163.793 210.886 163.994 209.818 163.994 208.669C163.994 206.814 163.556 205.234 162.646 203.964C161.763 202.67 160.44 201.714 158.716 201.077C157.016 200.44 154.908 200.131 152.408 200.131H143.494H142.994V200.631V227.831V228.331H143.494H150.846H151.346V227.831V218.426H152.425L158.033 228.082L158.177 228.331H158.465H166.808H167.744L167.224 227.553L159.596 216.148ZM155.253 207.78L155.253 207.78L155.26 207.791C155.455 208.102 155.565 208.501 155.565 209.012C155.565 209.786 155.413 210.353 155.154 210.754C154.886 211.143 154.515 211.436 154.022 211.63C153.532 211.807 152.934 211.903 152.217 211.903H151.346V206.693H152.294C153.146 206.693 153.798 206.803 154.276 206.999C154.755 207.195 155.065 207.461 155.253 207.78Z" fill="black" stroke="#00FF85"/>
</g>
<defs>
<linearGradient id="paint0_linear_1032_1671" x1="225.278" y1="171.611" x2="544.186" y2="171.434" gradientUnits="userSpaceOnUse">
<stop stop-color="#00FF85"/>
<stop offset="1"/>
</linearGradient>
<linearGradient id="paint1_linear_1032_1671" x1="277.107" y1="116.611" x2="-41.8009" y2="116.434" gradientUnits="userSpaceOnUse">
<stop stop-color="#00FF85"/>
<stop offset="1"/>
</linearGradient>
<clipPath id="clip0_1032_1671">
<rect width="480" height="280" fill="white"/>
</clipPath>
</defs>
</svg>
