<svg width="480" height="280" viewBox="0 0 480 280" fill="none" xmlns="http://www.w3.org/2000/svg">
<g clip-path="url(#clip0_1032_1569)">
<rect width="480" height="280" fill="#0C0C0C"/>
<g filter="url(#filter0_d_1032_1569)">
<path d="M293 85C315.368 85 333.5 66.8675 333.5 44.5C333.5 22.1325 315.368 4 293 4C270.632 4 252.5 22.1325 252.5 44.5C252.5 66.8675 270.632 85 293 85Z" stroke="#00FF85" stroke-width="3" stroke-linecap="round" stroke-linejoin="round"/>
<path d="M131 179.5C153.368 179.5 171.5 161.368 171.5 139C171.5 116.632 153.368 98.5 131 98.5C108.632 98.5 90.5 116.632 90.5 139C90.5 161.368 108.632 179.5 131 179.5Z" stroke="#00FF85" stroke-width="3" stroke-linecap="round" stroke-linejoin="round"/>
<path d="M293 274C315.368 274 333.5 255.868 333.5 233.5C333.5 211.132 315.368 193 293 193C270.632 193 252.5 211.132 252.5 233.5C252.5 255.868 270.632 274 293 274Z" stroke="#00FF85" stroke-width="3" stroke-linecap="round" stroke-linejoin="round"/>
<path d="M165.965 159.385L258.17 213.115" stroke="#00FF85" stroke-width="3" stroke-linecap="round" stroke-linejoin="round"/>
<path d="M258.035 64.885L165.965 118.615" stroke="#00FF85" stroke-width="3" stroke-linecap="round" stroke-linejoin="round"/>
</g>
<path d="M370.877 169.683H371.377V169.183V156.349V155.849H370.877H352.494V145.813H369.487H369.987V145.313V132.643V132.143H369.487H352.494V123.988H370.877H371.377V123.488V110.817V110.317H370.877H336.217H335.717V110.817V169.183V169.683H336.217H370.877Z" fill="black" stroke="#00FF85"/>
<path d="M314.636 143.93C316.545 142.825 318.199 141.549 319.594 140.102C321.11 138.53 322.263 136.732 323.05 134.71C323.893 132.683 324.312 130.466 324.312 128.065C324.312 124.174 323.394 120.906 321.524 118.297C319.71 115.635 316.975 113.646 313.36 112.311C309.798 110.975 305.347 110.317 300.025 110.317H280.896H280.396V110.817V169.183V169.683H280.896H296.673H297.173V169.183V148.429H300.391L312.589 169.434L312.734 169.683H313.022H330.924H331.86L331.339 168.905L314.636 143.93ZM306.624 125.867L306.623 125.867L306.631 125.878C307.116 126.655 307.372 127.621 307.372 128.801C307.372 130.536 307.03 131.873 306.393 132.856C305.747 133.799 304.852 134.499 303.69 134.954C302.56 135.364 301.205 135.576 299.616 135.576H297.173V123.252H299.779C301.65 123.252 303.132 123.493 304.249 123.95C305.368 124.408 306.145 125.053 306.624 125.867Z" fill="black" stroke="#00FF85"/>
<path d="M256.903 169.309L257.001 169.682H257.387H274.635H275.326L275.11 169.026L255.818 110.416L255.705 110.072H255.344H234.335H233.972L233.86 110.418L214.814 169.028L214.601 169.682H215.289H232.619H233.002L233.102 169.312L235.945 158.729H254.14L256.903 169.309ZM248.239 135.876L248.239 135.877L250.607 144.813H239.481L241.849 135.877L241.849 135.877L241.85 135.87C242.178 134.56 242.56 132.951 242.996 131.044C243.486 129.136 243.95 127.2 244.386 125.237C244.617 124.315 244.818 123.463 244.989 122.682C245.174 123.501 245.385 124.408 245.62 125.401C246.111 127.474 246.602 129.492 247.093 131.456L247.094 131.46C247.584 133.367 247.966 134.84 248.239 135.876Z" fill="black" stroke="#00FF85"/>
<path d="M209.026 169.683H209.526V169.183V110.817V110.317H209.026H193.168H192.668V110.817V131.98H175.357V110.817V110.317H174.857H158.999H158.499V110.817V169.183V169.683H158.999H174.857H175.357V169.183V145.895H192.668V169.183V169.683H193.168H209.026Z" fill="black" stroke="#00FF85"/>
<path d="M140.336 167.827L140.339 167.826C143.786 165.991 146.342 163.613 147.978 160.683C149.653 157.777 150.495 154.695 150.495 151.444C150.495 148.339 149.941 145.72 148.804 143.611C147.731 141.469 146.154 139.641 144.083 138.129C142.084 136.575 139.652 135.168 136.793 133.903C133.913 132.599 131.632 131.54 129.949 130.726C128.332 129.863 127.215 129.102 126.561 128.448C125.938 127.824 125.645 127.131 125.645 126.349C125.645 125.738 125.807 125.214 126.124 124.759C126.489 124.259 127.053 123.848 127.854 123.547C128.651 123.249 129.703 123.089 131.03 123.089C133.045 123.089 135.231 123.433 137.592 124.131L137.592 124.131L137.605 124.134C140.028 124.781 142.481 125.67 144.964 126.804L145.443 127.022L145.637 126.533L150.46 114.353L150.635 113.911L150.202 113.714C147.776 112.611 145.026 111.649 141.954 110.826C138.851 109.94 135.371 109.5 131.521 109.5C127.113 109.5 123.207 110.161 119.814 111.496C116.466 112.78 113.823 114.742 111.907 117.389C109.98 119.998 109.032 123.241 109.032 127.084C109.032 129.633 109.364 131.872 110.041 133.79L110.041 133.79L110.043 133.795C110.717 135.649 111.674 137.284 112.917 138.695L112.917 138.696L112.924 138.704C114.211 140.102 115.745 141.357 117.523 142.468C119.289 143.571 121.271 144.617 123.468 145.606L123.469 145.606C126.028 146.749 128.064 147.7 129.581 148.458C131.087 149.211 132.149 149.919 132.802 150.572C133.413 151.183 133.718 151.926 133.718 152.834C133.718 153.543 133.508 154.173 133.083 154.741C132.662 155.302 132.013 155.771 131.094 156.128C130.193 156.479 128.98 156.666 127.434 156.666C124.87 156.666 121.998 156.266 118.814 155.456C115.634 154.594 112.478 153.38 109.347 151.814L108.623 151.453V152.262V166.322V166.639L108.91 166.774C110.781 167.654 112.601 168.372 114.369 168.924C116.144 169.479 118.027 169.866 120.016 170.088C122.058 170.363 124.423 170.5 127.107 170.5C132.496 170.5 136.917 169.621 140.336 167.827Z" fill="black" stroke="#00FF85"/>
</g>
<defs>
<filter id="filter0_d_1032_1569" x="34" y="-39" width="356" height="356" filterUnits="userSpaceOnUse" color-interpolation-filters="sRGB">
<feFlood flood-opacity="0" result="BackgroundImageFix"/>
<feColorMatrix in="SourceAlpha" type="matrix" values="0 0 0 0 0 0 0 0 0 0 0 0 0 0 0 0 0 0 127 0" result="hardAlpha"/>
<feOffset/>
<feGaussianBlur stdDeviation="8"/>
<feColorMatrix type="matrix" values="0 0 0 0 0 0 0 0 0 1 0 0 0 0 0.521569 0 0 0 1 0"/>
<feBlend mode="normal" in2="BackgroundImageFix" result="effect1_dropShadow_1032_1569"/>
<feBlend mode="normal" in="SourceGraphic" in2="effect1_dropShadow_1032_1569" result="shape"/>
</filter>
<clipPath id="clip0_1032_1569">
<rect width="480" height="280" fill="white"/>
</clipPath>
</defs>
</svg>
