<svg width="480" height="280" viewBox="0 0 480 280" fill="none" xmlns="http://www.w3.org/2000/svg">
<rect width="480" height="280" fill="#0C0C0C"/>
<g filter="url(#filter0_d_1053_226)">
<mask id="path-1-outside-1_1053_226" maskUnits="userSpaceOnUse" x="38" y="114.851" width="404" height="51" fill="black">
<rect fill="white" x="38" y="114.851" width="404" height="51"/>
<path d="M106.304 116.573L94.7385 163.492H79.756L75.2876 143.056C75.2 142.661 75.0686 142.004 74.8933 141.084C74.7181 140.164 74.499 139.113 74.2362 137.93C74.0172 136.747 73.82 135.586 73.6448 134.447C73.4695 133.308 73.3381 132.344 73.2505 131.556C73.1629 132.344 73.0096 133.308 72.7905 134.447C72.6153 135.586 72.4182 136.747 72.1991 137.93C71.9801 139.113 71.761 140.164 71.542 141.084C71.3668 142.004 71.2353 142.661 71.1477 143.056L66.6135 163.492H51.6311L40 116.573H52.2225L57.3481 140.099C57.4795 140.668 57.6547 141.5 57.8738 142.596C58.0928 143.647 58.3119 144.786 58.5309 146.013C58.7938 147.239 59.0347 148.444 59.2538 149.627C59.4728 150.766 59.6261 151.73 59.7137 152.518C59.889 151.204 60.108 149.693 60.3709 147.984C60.6775 146.276 61.0061 144.567 61.3566 142.858C61.707 141.106 62.0356 139.485 62.3422 137.996C62.6927 136.506 62.9775 135.28 63.1965 134.316L67.3364 116.573H79.0989L83.1074 134.316C83.3264 135.236 83.5893 136.462 83.8959 137.996C84.2464 139.485 84.5969 141.106 84.9473 142.858C85.2978 144.611 85.6264 146.341 85.933 148.05C86.2397 149.758 86.4587 151.248 86.5901 152.518C86.7216 151.423 86.9406 150.065 87.2473 148.444C87.5539 146.823 87.8606 145.246 88.1672 143.713C88.4739 142.136 88.7148 140.953 88.8901 140.164L94.0814 116.573H106.304Z"/>
<path d="M155.608 139.967C155.608 143.603 155.17 146.911 154.293 149.89C153.417 152.825 152.059 155.366 150.219 157.512C148.379 159.659 146.014 161.302 143.122 162.441C140.275 163.58 136.836 164.149 132.806 164.149C128.863 164.149 125.446 163.58 122.554 162.441C119.707 161.302 117.341 159.659 115.457 157.512C113.617 155.366 112.238 152.825 111.318 149.89C110.441 146.911 110.003 143.581 110.003 139.901C110.003 135.039 110.814 130.811 112.435 127.219C114.056 123.583 116.553 120.779 119.926 118.808C123.299 116.836 127.614 115.851 132.871 115.851C138.216 115.851 142.553 116.858 145.882 118.873C149.256 120.845 151.709 123.649 153.242 127.285C154.819 130.877 155.608 135.104 155.608 139.967ZM123.343 139.967C123.343 142.771 123.65 145.202 124.263 147.261C124.92 149.276 125.95 150.832 127.351 151.927C128.753 153.022 130.571 153.57 132.806 153.57C135.127 153.57 136.967 153.022 138.325 151.927C139.727 150.832 140.735 149.276 141.348 147.261C141.961 145.202 142.268 142.771 142.268 139.967C142.268 135.718 141.567 132.366 140.165 129.913C138.763 127.46 136.332 126.233 132.871 126.233C130.593 126.233 128.753 126.803 127.351 127.942C125.95 129.037 124.92 130.614 124.263 132.673C123.65 134.688 123.343 137.12 123.343 139.967Z"/>
<path d="M179.453 116.573C183.703 116.573 187.229 117.099 190.033 118.151C192.88 119.202 195.005 120.757 196.407 122.816C197.853 124.831 198.575 127.372 198.575 130.439C198.575 132.323 198.247 134.053 197.59 135.63C196.976 137.207 196.078 138.609 194.896 139.836C193.713 141.062 192.289 142.136 190.624 143.056L204.292 163.492H189.901L179.979 146.407H176.759V163.492H164.076V116.573H179.453ZM179.256 126.168H176.759V136.879H179.125C180.439 136.879 181.578 136.703 182.542 136.353C183.549 135.959 184.338 135.345 184.907 134.513C185.477 133.637 185.762 132.476 185.762 131.03C185.762 130.023 185.543 129.168 185.104 128.467C184.666 127.723 183.965 127.153 183.002 126.759C182.038 126.365 180.789 126.168 179.256 126.168Z"/>
<path d="M248.632 163.492H234.307L225.042 145.553L221.296 147.787V163.492H208.548V116.573H221.296V136.944C221.822 135.937 222.435 134.929 223.136 133.922C223.837 132.87 224.516 131.884 225.173 130.965L235.03 116.573H248.895L234.11 137.601L248.632 163.492Z"/>
<path d="M266.146 163.492H253.661V116.573H281.392V126.759H266.146V135.696H280.209V145.881H266.146V163.492Z"/>
<path d="M289.084 163.492V116.573H301.767V153.241H319.838V163.492H289.084Z"/>
<path d="M369.943 139.967C369.943 143.603 369.505 146.911 368.629 149.89C367.753 152.825 366.395 155.366 364.555 157.512C362.715 159.659 360.349 161.302 357.458 162.441C354.61 163.58 351.171 164.149 347.141 164.149C343.198 164.149 339.781 163.58 336.89 162.441C334.042 161.302 331.677 159.659 329.793 157.512C327.953 155.366 326.573 152.825 325.653 149.89C324.777 146.911 324.339 143.581 324.339 139.901C324.339 135.039 325.149 130.811 326.77 127.219C328.391 123.583 330.888 120.779 334.261 118.808C337.635 116.836 341.95 115.851 347.207 115.851C352.551 115.851 356.888 116.858 360.218 118.873C363.591 120.845 366.044 123.649 367.578 127.285C369.155 130.877 369.943 135.104 369.943 139.967ZM337.679 139.967C337.679 142.771 337.985 145.202 338.598 147.261C339.256 149.276 340.285 150.832 341.687 151.927C343.089 153.022 344.907 153.57 347.141 153.57C349.463 153.57 351.303 153.022 352.661 151.927C354.063 150.832 355.07 149.276 355.684 147.261C356.297 145.202 356.604 142.771 356.604 139.967C356.604 135.718 355.903 132.366 354.501 129.913C353.099 127.46 350.668 126.233 347.207 126.233C344.929 126.233 343.089 126.803 341.687 127.942C340.285 129.037 339.256 130.614 338.598 132.673C337.985 134.688 337.679 137.12 337.679 139.967Z"/>
<path d="M440 116.573L428.435 163.492H413.452L408.984 143.056C408.896 142.661 408.765 142.004 408.589 141.084C408.414 140.164 408.195 139.113 407.932 137.93C407.713 136.747 407.516 135.586 407.341 134.447C407.166 133.308 407.034 132.344 406.947 131.556C406.859 132.344 406.706 133.308 406.487 134.447C406.311 135.586 406.114 136.747 405.895 137.93C405.676 139.113 405.457 140.164 405.238 141.084C405.063 142.004 404.931 142.661 404.844 143.056L400.31 163.492H385.327L373.696 116.573H385.919L391.044 140.099C391.176 140.668 391.351 141.5 391.57 142.596C391.789 143.647 392.008 144.786 392.227 146.013C392.49 147.239 392.731 148.444 392.95 149.627C393.169 150.766 393.322 151.73 393.41 152.518C393.585 151.204 393.804 149.693 394.067 147.984C394.374 146.276 394.702 144.567 395.053 142.858C395.403 141.106 395.732 139.485 396.038 137.996C396.389 136.506 396.674 135.28 396.893 134.316L401.032 116.573H412.795L416.804 134.316C417.023 135.236 417.285 136.462 417.592 137.996C417.943 139.485 418.293 141.106 418.643 142.858C418.994 144.611 419.322 146.341 419.629 148.05C419.936 149.758 420.155 151.248 420.286 152.518C420.418 151.423 420.637 150.065 420.943 148.444C421.25 146.823 421.557 145.246 421.863 143.713C422.17 142.136 422.411 140.953 422.586 140.164L427.777 116.573H440Z"/>
</mask>
<path d="M106.304 116.573L94.7385 163.492H79.756L75.2876 143.056C75.2 142.661 75.0686 142.004 74.8933 141.084C74.7181 140.164 74.499 139.113 74.2362 137.93C74.0172 136.747 73.82 135.586 73.6448 134.447C73.4695 133.308 73.3381 132.344 73.2505 131.556C73.1629 132.344 73.0096 133.308 72.7905 134.447C72.6153 135.586 72.4182 136.747 72.1991 137.93C71.9801 139.113 71.761 140.164 71.542 141.084C71.3668 142.004 71.2353 142.661 71.1477 143.056L66.6135 163.492H51.6311L40 116.573H52.2225L57.3481 140.099C57.4795 140.668 57.6547 141.5 57.8738 142.596C58.0928 143.647 58.3119 144.786 58.5309 146.013C58.7938 147.239 59.0347 148.444 59.2538 149.627C59.4728 150.766 59.6261 151.73 59.7137 152.518C59.889 151.204 60.108 149.693 60.3709 147.984C60.6775 146.276 61.0061 144.567 61.3566 142.858C61.707 141.106 62.0356 139.485 62.3422 137.996C62.6927 136.506 62.9775 135.28 63.1965 134.316L67.3364 116.573H79.0989L83.1074 134.316C83.3264 135.236 83.5893 136.462 83.8959 137.996C84.2464 139.485 84.5969 141.106 84.9473 142.858C85.2978 144.611 85.6264 146.341 85.933 148.05C86.2397 149.758 86.4587 151.248 86.5901 152.518C86.7216 151.423 86.9406 150.065 87.2473 148.444C87.5539 146.823 87.8606 145.246 88.1672 143.713C88.4739 142.136 88.7148 140.953 88.8901 140.164L94.0814 116.573H106.304Z" fill="black"/>
<path d="M155.608 139.967C155.608 143.603 155.17 146.911 154.293 149.89C153.417 152.825 152.059 155.366 150.219 157.512C148.379 159.659 146.014 161.302 143.122 162.441C140.275 163.58 136.836 164.149 132.806 164.149C128.863 164.149 125.446 163.58 122.554 162.441C119.707 161.302 117.341 159.659 115.457 157.512C113.617 155.366 112.238 152.825 111.318 149.89C110.441 146.911 110.003 143.581 110.003 139.901C110.003 135.039 110.814 130.811 112.435 127.219C114.056 123.583 116.553 120.779 119.926 118.808C123.299 116.836 127.614 115.851 132.871 115.851C138.216 115.851 142.553 116.858 145.882 118.873C149.256 120.845 151.709 123.649 153.242 127.285C154.819 130.877 155.608 135.104 155.608 139.967ZM123.343 139.967C123.343 142.771 123.65 145.202 124.263 147.261C124.92 149.276 125.95 150.832 127.351 151.927C128.753 153.022 130.571 153.57 132.806 153.57C135.127 153.57 136.967 153.022 138.325 151.927C139.727 150.832 140.735 149.276 141.348 147.261C141.961 145.202 142.268 142.771 142.268 139.967C142.268 135.718 141.567 132.366 140.165 129.913C138.763 127.46 136.332 126.233 132.871 126.233C130.593 126.233 128.753 126.803 127.351 127.942C125.95 129.037 124.92 130.614 124.263 132.673C123.65 134.688 123.343 137.12 123.343 139.967Z" fill="black"/>
<path d="M179.453 116.573C183.703 116.573 187.229 117.099 190.033 118.151C192.88 119.202 195.005 120.757 196.407 122.816C197.853 124.831 198.575 127.372 198.575 130.439C198.575 132.323 198.247 134.053 197.59 135.63C196.976 137.207 196.078 138.609 194.896 139.836C193.713 141.062 192.289 142.136 190.624 143.056L204.292 163.492H189.901L179.979 146.407H176.759V163.492H164.076V116.573H179.453ZM179.256 126.168H176.759V136.879H179.125C180.439 136.879 181.578 136.703 182.542 136.353C183.549 135.959 184.338 135.345 184.907 134.513C185.477 133.637 185.762 132.476 185.762 131.03C185.762 130.023 185.543 129.168 185.104 128.467C184.666 127.723 183.965 127.153 183.002 126.759C182.038 126.365 180.789 126.168 179.256 126.168Z" fill="black"/>
<path d="M248.632 163.492H234.307L225.042 145.553L221.296 147.787V163.492H208.548V116.573H221.296V136.944C221.822 135.937 222.435 134.929 223.136 133.922C223.837 132.87 224.516 131.884 225.173 130.965L235.03 116.573H248.895L234.11 137.601L248.632 163.492Z" fill="black"/>
<path d="M266.146 163.492H253.661V116.573H281.392V126.759H266.146V135.696H280.209V145.881H266.146V163.492Z" fill="black"/>
<path d="M289.084 163.492V116.573H301.767V153.241H319.838V163.492H289.084Z" fill="black"/>
<path d="M369.943 139.967C369.943 143.603 369.505 146.911 368.629 149.89C367.753 152.825 366.395 155.366 364.555 157.512C362.715 159.659 360.349 161.302 357.458 162.441C354.61 163.58 351.171 164.149 347.141 164.149C343.198 164.149 339.781 163.58 336.89 162.441C334.042 161.302 331.677 159.659 329.793 157.512C327.953 155.366 326.573 152.825 325.653 149.89C324.777 146.911 324.339 143.581 324.339 139.901C324.339 135.039 325.149 130.811 326.77 127.219C328.391 123.583 330.888 120.779 334.261 118.808C337.635 116.836 341.95 115.851 347.207 115.851C352.551 115.851 356.888 116.858 360.218 118.873C363.591 120.845 366.044 123.649 367.578 127.285C369.155 130.877 369.943 135.104 369.943 139.967ZM337.679 139.967C337.679 142.771 337.985 145.202 338.598 147.261C339.256 149.276 340.285 150.832 341.687 151.927C343.089 153.022 344.907 153.57 347.141 153.57C349.463 153.57 351.303 153.022 352.661 151.927C354.063 150.832 355.07 149.276 355.684 147.261C356.297 145.202 356.604 142.771 356.604 139.967C356.604 135.718 355.903 132.366 354.501 129.913C353.099 127.46 350.668 126.233 347.207 126.233C344.929 126.233 343.089 126.803 341.687 127.942C340.285 129.037 339.256 130.614 338.598 132.673C337.985 134.688 337.679 137.12 337.679 139.967Z" fill="black"/>
<path d="M440 116.573L428.435 163.492H413.452L408.984 143.056C408.896 142.661 408.765 142.004 408.589 141.084C408.414 140.164 408.195 139.113 407.932 137.93C407.713 136.747 407.516 135.586 407.341 134.447C407.166 133.308 407.034 132.344 406.947 131.556C406.859 132.344 406.706 133.308 406.487 134.447C406.311 135.586 406.114 136.747 405.895 137.93C405.676 139.113 405.457 140.164 405.238 141.084C405.063 142.004 404.931 142.661 404.844 143.056L400.31 163.492H385.327L373.696 116.573H385.919L391.044 140.099C391.176 140.668 391.351 141.5 391.57 142.596C391.789 143.647 392.008 144.786 392.227 146.013C392.49 147.239 392.731 148.444 392.95 149.627C393.169 150.766 393.322 151.73 393.41 152.518C393.585 151.204 393.804 149.693 394.067 147.984C394.374 146.276 394.702 144.567 395.053 142.858C395.403 141.106 395.732 139.485 396.038 137.996C396.389 136.506 396.674 135.28 396.893 134.316L401.032 116.573H412.795L416.804 134.316C417.023 135.236 417.285 136.462 417.592 137.996C417.943 139.485 418.293 141.106 418.643 142.858C418.994 144.611 419.322 146.341 419.629 148.05C419.936 149.758 420.155 151.248 420.286 152.518C420.418 151.423 420.637 150.065 420.943 148.444C421.25 146.823 421.557 145.246 421.863 143.713C422.17 142.136 422.411 140.953 422.586 140.164L427.777 116.573H440Z" fill="black"/>
<path d="M106.304 116.573L94.7385 163.492H79.756L75.2876 143.056C75.2 142.661 75.0686 142.004 74.8933 141.084C74.7181 140.164 74.499 139.113 74.2362 137.93C74.0172 136.747 73.82 135.586 73.6448 134.447C73.4695 133.308 73.3381 132.344 73.2505 131.556C73.1629 132.344 73.0096 133.308 72.7905 134.447C72.6153 135.586 72.4182 136.747 72.1991 137.93C71.9801 139.113 71.761 140.164 71.542 141.084C71.3668 142.004 71.2353 142.661 71.1477 143.056L66.6135 163.492H51.6311L40 116.573H52.2225L57.3481 140.099C57.4795 140.668 57.6547 141.5 57.8738 142.596C58.0928 143.647 58.3119 144.786 58.5309 146.013C58.7938 147.239 59.0347 148.444 59.2538 149.627C59.4728 150.766 59.6261 151.73 59.7137 152.518C59.889 151.204 60.108 149.693 60.3709 147.984C60.6775 146.276 61.0061 144.567 61.3566 142.858C61.707 141.106 62.0356 139.485 62.3422 137.996C62.6927 136.506 62.9775 135.28 63.1965 134.316L67.3364 116.573H79.0989L83.1074 134.316C83.3264 135.236 83.5893 136.462 83.8959 137.996C84.2464 139.485 84.5969 141.106 84.9473 142.858C85.2978 144.611 85.6264 146.341 85.933 148.05C86.2397 149.758 86.4587 151.248 86.5901 152.518C86.7216 151.423 86.9406 150.065 87.2473 148.444C87.5539 146.823 87.8606 145.246 88.1672 143.713C88.4739 142.136 88.7148 140.953 88.8901 140.164L94.0814 116.573H106.304Z" stroke="#00FF85" stroke-width="2" mask="url(#path-1-outside-1_1053_226)"/>
<path d="M155.608 139.967C155.608 143.603 155.17 146.911 154.293 149.89C153.417 152.825 152.059 155.366 150.219 157.512C148.379 159.659 146.014 161.302 143.122 162.441C140.275 163.58 136.836 164.149 132.806 164.149C128.863 164.149 125.446 163.58 122.554 162.441C119.707 161.302 117.341 159.659 115.457 157.512C113.617 155.366 112.238 152.825 111.318 149.89C110.441 146.911 110.003 143.581 110.003 139.901C110.003 135.039 110.814 130.811 112.435 127.219C114.056 123.583 116.553 120.779 119.926 118.808C123.299 116.836 127.614 115.851 132.871 115.851C138.216 115.851 142.553 116.858 145.882 118.873C149.256 120.845 151.709 123.649 153.242 127.285C154.819 130.877 155.608 135.104 155.608 139.967ZM123.343 139.967C123.343 142.771 123.65 145.202 124.263 147.261C124.92 149.276 125.95 150.832 127.351 151.927C128.753 153.022 130.571 153.57 132.806 153.57C135.127 153.57 136.967 153.022 138.325 151.927C139.727 150.832 140.735 149.276 141.348 147.261C141.961 145.202 142.268 142.771 142.268 139.967C142.268 135.718 141.567 132.366 140.165 129.913C138.763 127.46 136.332 126.233 132.871 126.233C130.593 126.233 128.753 126.803 127.351 127.942C125.95 129.037 124.92 130.614 124.263 132.673C123.65 134.688 123.343 137.12 123.343 139.967Z" stroke="#00FF85" stroke-width="2" mask="url(#path-1-outside-1_1053_226)"/>
<path d="M179.453 116.573C183.703 116.573 187.229 117.099 190.033 118.151C192.88 119.202 195.005 120.757 196.407 122.816C197.853 124.831 198.575 127.372 198.575 130.439C198.575 132.323 198.247 134.053 197.59 135.63C196.976 137.207 196.078 138.609 194.896 139.836C193.713 141.062 192.289 142.136 190.624 143.056L204.292 163.492H189.901L179.979 146.407H176.759V163.492H164.076V116.573H179.453ZM179.256 126.168H176.759V136.879H179.125C180.439 136.879 181.578 136.703 182.542 136.353C183.549 135.959 184.338 135.345 184.907 134.513C185.477 133.637 185.762 132.476 185.762 131.03C185.762 130.023 185.543 129.168 185.104 128.467C184.666 127.723 183.965 127.153 183.002 126.759C182.038 126.365 180.789 126.168 179.256 126.168Z" stroke="#00FF85" stroke-width="2" mask="url(#path-1-outside-1_1053_226)"/>
<path d="M248.632 163.492H234.307L225.042 145.553L221.296 147.787V163.492H208.548V116.573H221.296V136.944C221.822 135.937 222.435 134.929 223.136 133.922C223.837 132.87 224.516 131.884 225.173 130.965L235.03 116.573H248.895L234.11 137.601L248.632 163.492Z" stroke="#00FF85" stroke-width="2" mask="url(#path-1-outside-1_1053_226)"/>
<path d="M266.146 163.492H253.661V116.573H281.392V126.759H266.146V135.696H280.209V145.881H266.146V163.492Z" stroke="#00FF85" stroke-width="2" mask="url(#path-1-outside-1_1053_226)"/>
<path d="M289.084 163.492V116.573H301.767V153.241H319.838V163.492H289.084Z" stroke="#00FF85" stroke-width="2" mask="url(#path-1-outside-1_1053_226)"/>
<path d="M369.943 139.967C369.943 143.603 369.505 146.911 368.629 149.89C367.753 152.825 366.395 155.366 364.555 157.512C362.715 159.659 360.349 161.302 357.458 162.441C354.61 163.58 351.171 164.149 347.141 164.149C343.198 164.149 339.781 163.58 336.89 162.441C334.042 161.302 331.677 159.659 329.793 157.512C327.953 155.366 326.573 152.825 325.653 149.89C324.777 146.911 324.339 143.581 324.339 139.901C324.339 135.039 325.149 130.811 326.77 127.219C328.391 123.583 330.888 120.779 334.261 118.808C337.635 116.836 341.95 115.851 347.207 115.851C352.551 115.851 356.888 116.858 360.218 118.873C363.591 120.845 366.044 123.649 367.578 127.285C369.155 130.877 369.943 135.104 369.943 139.967ZM337.679 139.967C337.679 142.771 337.985 145.202 338.598 147.261C339.256 149.276 340.285 150.832 341.687 151.927C343.089 153.022 344.907 153.57 347.141 153.57C349.463 153.57 351.303 153.022 352.661 151.927C354.063 150.832 355.07 149.276 355.684 147.261C356.297 145.202 356.604 142.771 356.604 139.967C356.604 135.718 355.903 132.366 354.501 129.913C353.099 127.46 350.668 126.233 347.207 126.233C344.929 126.233 343.089 126.803 341.687 127.942C340.285 129.037 339.256 130.614 338.598 132.673C337.985 134.688 337.679 137.12 337.679 139.967Z" stroke="#00FF85" stroke-width="2" mask="url(#path-1-outside-1_1053_226)"/>
<path d="M440 116.573L428.435 163.492H413.452L408.984 143.056C408.896 142.661 408.765 142.004 408.589 141.084C408.414 140.164 408.195 139.113 407.932 137.93C407.713 136.747 407.516 135.586 407.341 134.447C407.166 133.308 407.034 132.344 406.947 131.556C406.859 132.344 406.706 133.308 406.487 134.447C406.311 135.586 406.114 136.747 405.895 137.93C405.676 139.113 405.457 140.164 405.238 141.084C405.063 142.004 404.931 142.661 404.844 143.056L400.31 163.492H385.327L373.696 116.573H385.919L391.044 140.099C391.176 140.668 391.351 141.5 391.57 142.596C391.789 143.647 392.008 144.786 392.227 146.013C392.49 147.239 392.731 148.444 392.95 149.627C393.169 150.766 393.322 151.73 393.41 152.518C393.585 151.204 393.804 149.693 394.067 147.984C394.374 146.276 394.702 144.567 395.053 142.858C395.403 141.106 395.732 139.485 396.038 137.996C396.389 136.506 396.674 135.28 396.893 134.316L401.032 116.573H412.795L416.804 134.316C417.023 135.236 417.285 136.462 417.592 137.996C417.943 139.485 418.293 141.106 418.643 142.858C418.994 144.611 419.322 146.341 419.629 148.05C419.936 149.758 420.155 151.248 420.286 152.518C420.418 151.423 420.637 150.065 420.943 148.444C421.25 146.823 421.557 145.246 421.863 143.713C422.17 142.136 422.411 140.953 422.586 140.164L427.777 116.573H440Z" stroke="#00FF85" stroke-width="2" mask="url(#path-1-outside-1_1053_226)"/>
</g>
<defs>
<filter id="filter0_d_1053_226" x="22.7217" y="98.8506" width="434.555" height="82.2986" filterUnits="userSpaceOnUse" color-interpolation-filters="sRGB">
<feFlood flood-opacity="0" result="BackgroundImageFix"/>
<feColorMatrix in="SourceAlpha" type="matrix" values="0 0 0 0 0 0 0 0 0 0 0 0 0 0 0 0 0 0 127 0" result="hardAlpha"/>
<feOffset/>
<feGaussianBlur stdDeviation="8"/>
<feComposite in2="hardAlpha" operator="out"/>
<feColorMatrix type="matrix" values="0 0 0 0 0 0 0 0 0 1 0 0 0 0 0.521569 0 0 0 0.24 0"/>
<feBlend mode="normal" in2="BackgroundImageFix" result="effect1_dropShadow_1053_226"/>
<feBlend mode="normal" in="SourceGraphic" in2="effect1_dropShadow_1053_226" result="shape"/>
</filter>
</defs>
</svg>
