<svg width="47" height="46" viewBox="0 0 47 46" fill="none" xmlns="http://www.w3.org/2000/svg">
<rect x="0.664062" width="46" height="46" rx="8" fill="#262626"/>
<path  fillRule="evenodd"  clipRule="evenodd" d="M16.1715 12.5878C18.6524 12.1956 21.1566 11.9992 23.6641 12C26.2098 12 28.7104 12.2008 31.1566 12.5867C33.2288 12.9161 34.6641 14.8702 34.6641 17.0657V23.8575C34.6641 26.053 33.2288 28.007 31.1566 28.3365C29.948 28.5272 28.7333 28.6714 27.5151 28.7686C27.4531 28.773 27.3929 28.7925 27.339 28.8258C27.285 28.859 27.2389 28.905 27.204 28.9604L24.3178 33.6233C24.246 33.7392 24.1488 33.8342 24.0348 33.8999C23.9207 33.9656 23.7934 34 23.6641 34C23.5347 34 23.4074 33.9656 23.2933 33.8999C23.1793 33.8342 23.0821 33.7392 23.0103 33.6233L20.1242 28.9604C20.0892 28.905 20.0431 28.859 19.9892 28.8258C19.9352 28.7925 19.875 28.773 19.813 28.7686C18.5948 28.671 17.3801 28.5265 16.1715 28.3354C14.0993 28.0082 12.6641 26.0519 12.6641 23.8564V17.0668C12.6641 14.8713 14.0993 12.915 16.1715 12.5878ZM18.1641 18.7693C18.1641 18.5448 18.2468 18.3296 18.3942 18.1709C18.5415 18.0123 18.7414 17.9231 18.9498 17.9231H28.3783C28.5867 17.9231 28.7866 18.0123 28.9339 18.1709C29.0813 18.3296 29.1641 18.5448 29.1641 18.7693C29.1641 18.9937 29.0813 19.2089 28.9339 19.3676C28.7866 19.5263 28.5867 19.6154 28.3783 19.6154H18.9498C18.7414 19.6154 18.5415 19.5263 18.3942 19.3676C18.2468 19.2089 18.1641 18.9937 18.1641 18.7693ZM18.9498 21.3077C18.7414 21.3077 18.5415 21.3969 18.3942 21.5556C18.2468 21.7143 18.1641 21.9295 18.1641 22.1539C18.1641 22.3783 18.2468 22.5935 18.3942 22.7522C18.5415 22.9109 18.7414 23 18.9498 23H23.6641C23.8724 23 24.0723 22.9109 24.2196 22.7522C24.367 22.5935 24.4498 22.3783 24.4498 22.1539C24.4498 21.9295 24.367 21.7143 24.2196 21.5556C24.0723 21.3969 23.8724 21.3077 23.6641 21.3077H18.9498Z" fill="#C2C2C2"/>
</svg>
