<svg width="46" height="46" viewBox="0 0 46 46" fill="none" xmlns="http://www.w3.org/2000/svg">
<rect width="46" height="46" rx="8" fill="#262626"/>
<path  fillRule="evenodd"  clipRule="evenodd" d="M17.0442 15.8472L30.1539 28.9569C31.6426 27.1728 32.4101 24.8963 32.3055 22.575C32.201 20.2536 31.2319 18.0554 29.5888 16.4123C27.9457 14.7692 25.7475 13.8002 23.4262 13.6956C21.1049 13.591 18.8284 14.3585 17.0442 15.8472ZM28.9581 30.1528L15.8483 17.0431C14.3596 18.8272 13.5921 21.1037 13.6967 23.425C13.8013 25.7464 14.7704 27.9446 16.4134 29.5877C18.0565 31.2308 20.2548 32.1998 22.5761 32.3044C24.8974 32.409 27.1739 31.6415 28.9581 30.1528ZM15.2222 15.2222C19.5172 10.9259 26.4816 10.9259 30.7778 15.2222C35.0741 19.5172 35.0741 26.4816 30.7778 30.7778C26.4828 35.0741 19.5184 35.0741 15.2222 30.7778C10.9259 26.4828 10.9259 19.5184 15.2222 15.2222Z" fill="#B2B2B2"/>
</svg>
