<svg width="46" height="46" viewBox="0 0 46 46" fill="none" xmlns="http://www.w3.org/2000/svg">
<rect width="46" height="46" rx="8" fill="#262626"/>
<path  fillRule="evenodd"  clipRule="evenodd" d="M14.8397 20.6282C15.2232 19.0739 15.9771 17.6566 17.0256 16.5186C18.0742 15.3807 19.3803 14.5623 20.8128 14.1457C22.2453 13.729 23.7537 13.7288 25.1863 14.1451C26.6189 14.5615 27.9252 15.3796 28.9739 16.5173L31.1175 18.8428H27.5321C27.3081 18.8428 27.0932 18.9393 26.9348 19.1112C26.7763 19.2831 26.6873 19.5162 26.6873 19.7593C26.6873 20.0024 26.7763 20.2355 26.9348 20.4074C27.0932 20.5793 27.3081 20.6758 27.5321 20.6758H33.1552C33.3792 20.6758 33.5941 20.5793 33.7526 20.4074C33.911 20.2355 34 20.0024 34 19.7593V13.6589C34 13.4158 33.911 13.1827 33.7526 13.0108C33.5941 12.839 33.3792 12.7424 33.1552 12.7424C32.9311 12.7424 32.7163 12.839 32.5578 13.0108C32.3994 13.1827 32.3104 13.4158 32.3104 13.6589V17.545L30.1702 15.2231C28.912 13.8574 27.3445 12.8752 25.6254 12.3752C23.9062 11.8751 22.0961 11.8749 20.3769 12.3746C18.6577 12.8742 17.09 13.8561 15.8315 15.2215C14.573 16.5869 13.668 18.2876 13.2075 20.1528C13.1788 20.2691 13.1715 20.3905 13.1861 20.5099C13.2006 20.6293 13.2366 20.7444 13.2922 20.8487C13.3477 20.953 13.4217 21.0444 13.5098 21.1177C13.5979 21.191 13.6984 21.2447 13.8056 21.2758C13.9129 21.307 14.0247 21.3149 14.1348 21.2991C14.2449 21.2834 14.351 21.2442 14.4471 21.184C14.5432 21.1237 14.6275 21.0435 14.695 20.9479C14.7626 20.8524 14.8121 20.7433 14.8408 20.6269L14.8397 20.6282ZM32.1955 24.7244C32.0883 24.6932 31.9765 24.6852 31.8665 24.7008C31.7565 24.7164 31.6504 24.7555 31.5542 24.8156C31.4581 24.8757 31.3738 24.9558 31.3062 25.0513C31.2386 25.1468 31.1891 25.2558 31.1603 25.3721C30.7768 26.9263 30.0229 28.3437 28.9744 29.4816C27.9258 30.6195 26.6197 31.438 25.1872 31.8546C23.7547 32.2712 22.2463 32.2714 20.8137 31.8551C19.3811 31.4388 18.0748 30.6207 17.0261 29.483L14.8836 27.1575H18.469C18.6931 27.1575 18.9079 27.0609 19.0664 26.889C19.2248 26.7172 19.3138 26.484 19.3138 26.241C19.3138 25.9979 19.2248 25.7648 19.0664 25.5929C18.9079 25.421 18.6931 25.3244 18.469 25.3244H12.8448C12.6208 25.3244 12.4059 25.421 12.2474 25.5929C12.089 25.7648 12 25.9979 12 26.241V32.3413C12 32.5844 12.089 32.8175 12.2474 32.9894C12.4059 33.1613 12.6208 33.2579 12.8448 33.2579C13.0689 33.2579 13.2837 33.1613 13.4422 32.9894C13.6006 32.8175 13.6896 32.5844 13.6896 32.3413V28.4553L15.8298 30.7771C17.0881 32.1428 18.6557 33.125 20.3749 33.625C22.094 34.1249 23.9043 34.125 25.6235 33.6253C27.3427 33.1255 28.9104 32.1435 30.1688 30.7779C31.4273 29.4124 32.3321 27.7115 32.7925 25.8462C32.8503 25.6116 32.8199 25.3616 32.708 25.1513C32.596 24.941 32.4117 24.7874 32.1955 24.7244Z" fill="#C2C2C2"/>
</svg>
