<svg width="46" height="46" viewBox="0 0 46 46" fill="none" xmlns="http://www.w3.org/2000/svg">
<rect width="46" height="46" rx="8" fill="#262626"/>
<path d="M33.1947 12.8053C32.679 12.2897 31.9796 12 31.2503 12C30.521 12 29.8216 12.2897 29.3059 12.8053L28.0938 14.0174L31.9826 17.9062L33.1947 16.6941C33.7103 16.1784 34 15.4789 34 14.7497C34 14.0204 33.7103 13.321 33.1947 12.8053ZM30.8711 19.0177L26.9823 15.1289L14.2537 27.8575C13.6072 28.5037 13.1319 29.3009 12.8708 30.177L12.0327 32.9898C11.9923 33.1256 11.9893 33.2697 12.024 33.407C12.0588 33.5443 12.13 33.6697 12.2301 33.7699C12.3303 33.87 12.4557 33.9412 12.593 33.976C12.7303 34.0107 12.8744 34.0077 13.0102 33.9673L15.823 33.1292C16.6991 32.8681 17.4963 32.3928 18.1425 31.7463L30.8711 19.0177Z" fill="#C2C2C2"/>
</svg>
