<svg width="46" height="46" viewBox="0 0 46 46" fill="none" xmlns="http://www.w3.org/2000/svg">
<rect width="46" height="46" rx="8" fill="#262626"/>
<path  fillRule="evenodd"  clipRule="evenodd" d="M19.2501 17.375C19.2501 16.3804 19.6452 15.4266 20.3484 14.7233C21.0517 14.0201 22.0055 13.625 23.0001 13.625C23.9946 13.625 24.9485 14.0201 25.6517 14.7233C26.355 15.4266 26.7501 16.3804 26.7501 17.375C26.7501 18.3696 26.355 19.3234 25.6517 20.0267C24.9485 20.7299 23.9946 21.125 23.0001 21.125C22.0055 21.125 21.0517 20.7299 20.3484 20.0267C19.6452 19.3234 19.2501 18.3696 19.2501 17.375ZM26.7501 20.375C26.7501 19.5794 27.0662 18.8163 27.6288 18.2537C28.1914 17.6911 28.9544 17.375 29.7501 17.375C30.5457 17.375 31.3088 17.6911 31.8714 18.2537C32.434 18.8163 32.7501 19.5794 32.7501 20.375C32.7501 21.1706 32.434 21.9337 31.8714 22.4963C31.3088 23.0589 30.5457 23.375 29.7501 23.375C28.9544 23.375 28.1914 23.0589 27.6288 22.4963C27.0662 21.9337 26.7501 21.1706 26.7501 20.375ZM13.2501 20.375C13.2501 19.5794 13.5662 18.8163 14.1288 18.2537C14.6914 17.6911 15.4544 17.375 16.2501 17.375C17.0457 17.375 17.8088 17.6911 18.3714 18.2537C18.934 18.8163 19.2501 19.5794 19.2501 20.375C19.2501 21.1706 18.934 21.9337 18.3714 22.4963C17.8088 23.0589 17.0457 23.375 16.2501 23.375C15.4544 23.375 14.6914 23.0589 14.1288 22.4963C13.5662 21.9337 13.2501 21.1706 13.2501 20.375ZM17.3101 25.742C17.92 24.786 18.7612 23.9993 19.7557 23.4544C20.7502 22.9096 21.8661 22.6244 23.0001 22.625C23.9499 22.6241 24.8892 22.8239 25.7565 23.2112C26.6238 23.5984 27.3995 24.1645 28.0328 24.8724C28.6662 25.5802 29.1429 26.4138 29.4317 27.3186C29.7206 28.2235 29.8151 29.1791 29.7091 30.123C29.6961 30.2403 29.6557 30.3528 29.591 30.4515C29.5264 30.5502 29.4394 30.6323 29.3371 30.691C27.4086 31.7975 25.2234 32.3782 23.0001 32.375C20.6951 32.375 18.5301 31.763 16.6631 30.691C16.5608 30.6323 16.4738 30.5502 16.4091 30.4515C16.3445 30.3528 16.304 30.2403 16.2911 30.123C16.1231 28.5896 16.4825 27.0448 17.3101 25.743V25.742Z" fill="#C2C2C2"/>
<path d="M16.0821 24.879C15.0958 26.4014 14.6363 28.2053 14.7741 30.014C14.1736 29.923 13.583 29.7756 13.0101 29.574L12.8951 29.534C12.7925 29.4976 12.7026 29.4322 12.6364 29.3458C12.5702 29.2593 12.5305 29.1555 12.5221 29.047L12.5121 28.926C12.4717 28.424 12.5328 27.9189 12.6919 27.441C12.8509 26.9632 13.1046 26.5222 13.4378 26.1445C13.771 25.7668 14.1768 25.4601 14.6312 25.2427C15.0855 25.0252 15.5789 24.9016 16.0821 24.879ZM31.2261 30.014C31.3638 28.2053 30.9043 26.4014 29.9181 24.879C30.4212 24.9016 30.9147 25.0252 31.369 25.2427C31.8233 25.4601 32.2292 25.7668 32.5624 26.1445C32.8955 26.5222 33.1492 26.9632 33.3083 27.441C33.4673 27.9189 33.5285 28.424 33.4881 28.926L33.4781 29.047C33.4695 29.1554 33.4297 29.2589 33.3635 29.3452C33.2973 29.4314 33.2075 29.4967 33.1051 29.533L32.9901 29.573C32.4231 29.773 31.8341 29.922 31.2261 30.014Z" fill="#C2C2C2"/>
</svg>
