<svg width="46" height="46" viewBox="0 0 46 46" fill="none" xmlns="http://www.w3.org/2000/svg">
<rect width="46" height="46" rx="8" fill="#262626"/>
<path  fillRule="evenodd"  clipRule="evenodd" d="M23 12.5C21.6076 12.5 20.2723 13.0531 19.2877 14.0377C18.3031 15.0223 17.75 16.3576 17.75 17.75V20.75C16.9544 20.75 16.1913 21.0661 15.6287 21.6287C15.0661 22.1913 14.75 22.9544 14.75 23.75V30.5C14.75 31.2956 15.0661 32.0587 15.6287 32.6213C16.1913 33.1839 16.9544 33.5 17.75 33.5H28.25C29.0456 33.5 29.8087 33.1839 30.3713 32.6213C30.9339 32.0587 31.25 31.2956 31.25 30.5V23.75C31.25 22.9544 30.9339 22.1913 30.3713 21.6287C29.8087 21.0661 29.0456 20.75 28.25 20.75V17.75C28.25 14.85 25.9 12.5 23 12.5ZM26.75 20.75V17.75C26.75 16.7554 26.3549 15.8016 25.6517 15.0983C24.9484 14.3951 23.9946 14 23 14C22.0054 14 21.0516 14.3951 20.3483 15.0983C19.6451 15.8016 19.25 16.7554 19.25 17.75V20.75H26.75Z" fill="#C2C2C2"/>
</svg>
