<svg width="17" height="12" viewBox="0 0 17 12" fill="none" xmlns="http://www.w3.org/2000/svg">
<g  clipPath="url(#clip0_1037_2083)">
<path d="M14.2536 1.00498C13.148 0.528727 11.981 0.190857 10.7821 0C10.6181 0.27595 10.4697 0.559867 10.3375 0.85056C9.06048 0.669492 7.76188 0.669492 6.4849 0.85056C6.35263 0.559897 6.2042 0.275984 6.04022 0C4.84062 0.192468 3.67278 0.531141 2.56616 1.00747C0.36923 4.066 -0.226323 7.04857 0.0714537 9.98879C1.35803 10.8833 2.79808 11.5635 4.329 12C4.67371 11.5637 4.97875 11.1009 5.24085 10.6164C4.74302 10.4415 4.26251 10.2256 3.80491 9.97136C3.92534 9.88916 4.04313 9.80448 4.15695 9.72229C5.48847 10.3115 6.94176 10.617 8.41317 10.617C9.88458 10.617 11.3379 10.3115 12.6694 9.72229C12.7845 9.81071 12.9023 9.89539 13.0214 9.97136C12.5629 10.226 12.0816 10.4423 11.5828 10.6177C11.8446 11.1019 12.1497 11.5644 12.4947 12C14.0269 11.5653 15.4681 10.8853 16.7549 9.99004C17.1043 6.58032 16.158 3.62516 14.2536 1.00498ZM5.61804 8.18057C4.78823 8.18057 4.10269 7.47198 4.10269 6.60025C4.10269 5.72852 4.76441 5.0137 5.61539 5.0137C6.46637 5.0137 7.14662 5.72852 7.13207 6.60025C7.11751 7.47198 6.46372 8.18057 5.61804 8.18057ZM11.2083 8.18057C10.3772 8.18057 9.69427 7.47198 9.69427 6.60025C9.69427 5.72852 10.356 5.0137 11.2083 5.0137C12.0606 5.0137 12.7356 5.72852 12.721 6.60025C12.7064 7.47198 12.054 8.18057 11.2083 8.18057Z" fill="white"/>
</g>
<defs>
<clipPath id="clip0_1037_2083">
<rect width="17" height="12" fill="white"/>
</clipPath>
</defs>
</svg>
