<svg width="128" height="33" viewBox="0 0 128 33" fill="none" xmlns="http://www.w3.org/2000/svg">
<path d="M83.1473 27.1289L77.4209 20.2942H81.9861L86.9473 26.1525V27.1289H83.1473ZM68 27.1289V8.15529H83.3056C83.9741 8.15529 84.5899 8.32242 85.1528 8.65668C85.7158 8.99094 86.1644 9.43955 86.4987 10.0025C86.8329 10.5479 87 11.1548 87 11.8234V16.9428C87 17.6113 86.8329 18.2271 86.4987 18.79C86.1644 19.353 85.7158 19.8016 85.1528 20.1359C84.5899 20.4525 83.9741 20.6109 83.3056 20.6109L71.4833 20.6372V27.1289H68ZM71.8 17.1011H83.1473C83.2352 17.1011 83.3144 17.0747 83.3848 17.022C83.4551 16.9692 83.4903 16.8988 83.4903 16.8109V11.9553C83.4903 11.8673 83.4551 11.797 83.3848 11.7442C83.3144 11.6738 83.2352 11.6386 83.1473 11.6386H71.8C71.712 11.6386 71.6329 11.6738 71.5625 11.7442C71.5097 11.797 71.4833 11.8673 71.4833 11.9553V16.8109C71.4833 16.8988 71.5097 16.9692 71.5625 17.022C71.6329 17.0747 71.712 17.1011 71.8 17.1011Z" fill="white"/>
<path d="M89.8288 27.1289V8.12891H107.325V11.6386H93.3386V15.8609H104.58V19.397H93.3386V23.6192H107.325V27.1289H89.8288Z" fill="white"/>
<path d="M110.033 27.1289V8.12891H127.529V11.6386H113.543V15.8609H124.784V19.397H113.543V27.1289H110.033Z" fill="white"/>
<path d="M24 22.5826V24.1956L46.2222 15.2343L48.2823 14.4035L54.4 11.9365L56 11.2913V9.67824L54.4 10.3235L46.3529 13.5685L44.2667 14.4098L24 22.5826Z" fill="#16A34A"/>
<path d="M24 24.1956V22.5826L1.6 13.5495L0 12.9043V20.9695V22.5826L24 32.2608L56 18.55V16.9369L54.4 16.1304V17.7434L24 30.6478L1.6 21.6147V15.1626L24 24.1956Z" fill="#16A34A"/>
<path fill-rule="evenodd" clip-rule="evenodd" d="M31.9886 0L56 9.65838V11.3714L54.4046 12.0131V16.0806L56 16.8828V18.5899L24.0123 32.2608L0 22.6021V12.8671L31.9886 0ZM54.4046 16.26V17.7879L24.0122 30.6564L1.59544 21.6394V15.0491L23.9316 24.0336V22.6021L0.159544 13.0399V22.4934L24.0105 32.0873L55.8405 18.4837V16.982L54.4046 16.26ZM1.59544 13.6175L24.0114 22.4613L54.4046 10.4088L31.9886 0.982454L1.59544 13.6175ZM55.8405 9.83117L24.0912 22.6021V24.0336L55.8405 11.2628V9.83117ZM54.245 12.0773L24.0114 24.2385L1.75499 15.2861V21.5308L24.0106 30.4829L54.245 17.6813V12.0773Z" fill="#16A34A"/>
<path fill-rule="evenodd" clip-rule="evenodd" d="M23.819 25.853L54.1127 13.0889L54.1746 13.2361L23.8217 26.0251L3.04419 18.0282L3.10148 17.8792L23.819 25.853ZM54.1746 14.8331L23.8217 27.6222L3.04419 19.6253L3.10148 19.4762L23.819 27.45L54.1127 14.6859L54.1746 14.8331ZM23.819 29.0471L54.1127 16.283L54.1746 16.4302L23.8217 29.2193L3.04419 21.2224L3.10148 21.0733L23.819 29.0471Z" fill="#16A34A"/>
</svg>
