<svg width="150" height="32" viewBox="0 0 150 32" fill="none" xmlns="http://www.w3.org/2000/svg">
<path d="M68 25V6H71.4996V21.4951H87.0886V25H68Z" fill="white"/>
<path d="M88.6871 25V6.02635H106.265V9.53121H92.2132V13.7476H103.507V17.2788H92.2132V21.4951H106.265V25H88.6871Z" fill="white"/>
<path d="M108.932 25V6.02635H112.776L124.495 19.8877V6.02635H128.021V25H124.177L112.432 11.1123V25H108.932Z" fill="white"/>
<path d="M134.597 25C133.925 25 133.306 24.8331 132.741 24.4993C132.193 24.1655 131.751 23.7263 131.415 23.1817C131.079 22.6195 130.911 22.0046 130.911 21.337V19.8877H134.411V21.1789C134.411 21.2668 134.438 21.3458 134.491 21.4161C134.561 21.4688 134.641 21.4951 134.729 21.4951H146.156C146.244 21.4951 146.315 21.4688 146.368 21.4161C146.439 21.3458 146.474 21.2668 146.474 21.1789V17.5687C146.474 17.4808 146.439 17.4105 146.368 17.3578C146.315 17.3051 146.244 17.2788 146.156 17.2788H134.597C133.925 17.2788 133.306 17.1119 132.741 16.7781C132.193 16.4443 131.751 16.0051 131.415 15.4605C131.079 14.8983 130.911 14.2746 130.911 13.5895V9.68932C130.911 9.02173 131.079 8.41563 131.415 7.87101C131.751 7.30883 132.193 6.86084 132.741 6.52705C133.306 6.19325 133.925 6.02635 134.597 6.02635H146.315C146.986 6.02635 147.596 6.19325 148.144 6.52705C148.71 6.86084 149.16 7.30883 149.496 7.87101C149.832 8.41563 150 9.02173 150 9.68932V11.1387H146.474V9.84743C146.474 9.75959 146.439 9.68932 146.368 9.63662C146.315 9.56634 146.244 9.53121 146.156 9.53121H134.729C134.641 9.53121 134.561 9.56634 134.491 9.63662C134.438 9.68932 134.411 9.75959 134.411 9.84743V13.4577C134.411 13.5455 134.438 13.6158 134.491 13.6685C134.561 13.7212 134.641 13.7476 134.729 13.7476H146.315C146.986 13.7476 147.596 13.9145 148.144 14.2483C148.71 14.5821 149.16 15.0301 149.496 15.5922C149.832 16.1368 150 16.7517 150 17.4369V21.337C150 22.0046 149.832 22.6195 149.496 23.1817C149.16 23.7263 148.71 24.1655 148.144 24.4993C147.596 24.8331 146.986 25 146.315 25H134.597Z" fill="white"/>
<path fillRule="evenodd" clipRule="evenodd" d="M2.03489 5.20004C2.05008 5.2125 2.06693 5.22581 2.08558 5.23998C2.33566 5.42984 2.76582 5.65478 3.41274 5.8924C4.69477 6.3633 6.60362 6.8045 9.02696 7.18098C13.8587 7.93164 20.5672 8.40008 28 8.40008C35.4328 8.40008 42.1413 7.93164 46.973 7.18098C49.3964 6.8045 51.3052 6.3633 52.5873 5.8924C53.2342 5.65478 53.6643 5.42984 53.9144 5.23998C53.9331 5.22581 53.9499 5.2125 53.9651 5.20004C53.9499 5.18759 53.9331 5.17427 53.9144 5.1601C53.6643 4.97024 53.2342 4.7453 52.5873 4.50768C51.3052 4.03678 49.3964 3.59559 46.973 3.2191C42.1413 2.46844 35.4328 2 28 2C20.5672 2 13.8587 2.46844 9.02696 3.2191C6.60362 3.59559 4.69477 4.03678 3.41274 4.50768C2.76582 4.7453 2.33566 4.97024 2.08558 5.1601C2.06693 5.17427 2.05008 5.18759 2.03489 5.20004ZM54.069 7.4318C53.8085 7.55408 53.5281 7.66889 53.2327 7.77737C51.7787 8.31144 49.7284 8.77528 47.2595 9.15886C42.3067 9.92831 35.4979 10.4001 28 10.4001C20.5021 10.4001 13.6933 9.92831 8.74051 9.15886C6.27157 8.77528 4.22131 8.31144 2.7673 7.77737C2.47194 7.66889 2.19152 7.55408 1.93103 7.4318V10.9832C1.9565 11.0118 2.00348 11.0577 2.08558 11.12C2.33566 11.3099 2.76582 11.5348 3.41274 11.7725C4.69477 12.2434 6.60362 12.6846 9.02696 13.061C13.8587 13.8117 20.5672 14.2801 28 14.2801C35.4328 14.2801 42.1413 13.8117 46.973 13.061C49.3964 12.6846 51.3052 12.2434 52.5873 11.7725C53.2342 11.5348 53.6643 11.3099 53.9144 11.12C53.9965 11.0577 54.0435 11.0118 54.069 10.9832V7.4318ZM54.0957 10.948C54.0959 10.948 54.0949 10.9501 54.092 10.9544C54.0941 10.9501 54.0956 10.948 54.0957 10.948ZM1.90425 10.948C1.90444 10.948 1.90585 10.9501 1.90793 10.9543C1.90511 10.9501 1.90407 10.948 1.90425 10.948ZM56 5.20004V11.0801C56 11.8532 55.4998 12.3962 55.0561 12.7331C54.5859 13.09 53.9538 13.3926 53.2327 13.6574C51.7787 14.1915 49.7284 14.6553 47.2595 15.0389C42.3067 15.8084 35.4979 16.2801 28 16.2801C20.5021 16.2801 13.6933 15.8084 8.74051 15.0389C6.27157 14.6553 4.22131 14.1915 2.7673 13.6574C2.0462 13.3926 1.41411 13.09 0.943939 12.7331C0.500231 12.3962 0 11.8532 0 11.0801V5.20004C0 4.42698 0.500231 3.88394 0.943939 3.54707C1.41411 3.19011 2.0462 2.88758 2.7673 2.62271C4.22131 2.08864 6.27157 1.6248 8.74051 1.24123C13.6933 0.471769 20.5021 0 28 0C35.4979 0 42.3067 0.471769 47.2595 1.24123C49.7284 1.6248 51.7787 2.08864 53.2327 2.62271C53.9538 2.88758 54.5859 3.19011 55.0561 3.54707C55.4998 3.88394 56 4.42698 56 5.20004ZM54.092 5.07435C54.0941 5.07004 54.0956 5.06791 54.0957 5.06792C54.0959 5.06793 54.0949 5.07009 54.092 5.07435ZM1.90793 5.07423C1.90511 5.07004 1.90407 5.06793 1.90425 5.06792C1.90444 5.06791 1.90585 5.07 1.90793 5.07423Z" fill="#16A34A"/>
<path fillRule="evenodd" clipRule="evenodd" d="M13.285 22.8396L13.285 22.8396L13.285 22.8397L13.2851 22.8401L13.2855 22.8429C13.2861 22.846 13.2879 22.8534 13.2928 22.8656C13.3028 22.8907 13.3265 22.9373 13.38 23.0038C13.4917 23.1428 13.6972 23.3238 14.0367 23.5281C14.7162 23.9369 15.7638 24.3391 17.1425 24.6899C19.8848 25.3877 23.7238 25.8297 27.9995 25.8297C32.2753 25.8297 36.1143 25.3877 38.8566 24.6899C40.2353 24.3391 41.2828 23.9369 41.9623 23.5281C42.3018 23.3238 42.5073 23.1428 42.6191 23.0038C42.6725 22.9373 42.6963 22.8907 42.7063 22.8656C42.7112 22.8534 42.7129 22.846 42.7135 22.8429L42.714 22.8401L42.714 22.8397V22.8396V22.8396L42.714 22.8392L42.7135 22.8364C42.7129 22.8333 42.7112 22.8259 42.7063 22.8137C42.6963 22.7886 42.6725 22.742 42.6191 22.6755C42.5073 22.5365 42.3018 22.3555 41.9623 22.1512C41.2828 21.7424 40.2353 21.3402 38.8566 20.9894C36.1143 20.2916 32.2753 19.8496 27.9995 19.8496C23.7238 19.8496 19.8848 20.2916 17.1425 20.9894C15.7638 21.3402 14.7162 21.7424 14.0367 22.1512C13.6972 22.3555 13.4917 22.5365 13.38 22.6755C13.3265 22.742 13.3028 22.7886 13.2928 22.8137C13.2879 22.8259 13.2861 22.8333 13.2855 22.8364L13.2851 22.8392L13.285 22.8396ZM42.714 25.3835C41.829 25.8741 40.6625 26.2899 39.3173 26.6322C36.3846 27.3784 32.3836 27.8297 27.9995 27.8297C23.6154 27.8297 19.6144 27.3784 16.6817 26.6322C15.3365 26.2899 14.17 25.8741 13.285 25.3835V26.9697L13.285 26.9698L13.2851 26.9701L13.2855 26.973C13.2861 26.976 13.2879 26.9834 13.2928 26.9957C13.3028 27.0207 13.3265 27.0674 13.38 27.1338C13.4917 27.2728 13.6972 27.4539 14.0367 27.6581C14.7162 28.0669 15.7638 28.4691 17.1425 28.82C19.8848 29.5178 23.7238 29.9597 27.9995 29.9597C32.2753 29.9597 36.1143 29.5178 38.8566 28.82C40.2353 28.4691 41.2828 28.0669 41.9623 27.6581C42.3018 27.4539 42.5073 27.2728 42.6191 27.1338C42.6725 27.0674 42.6963 27.0207 42.7063 26.9957C42.7112 26.9834 42.7129 26.976 42.7135 26.973L42.714 26.9701L42.714 26.9698V26.9697V25.3835ZM44.645 22.8396V26.9697C44.645 28.101 43.7702 28.8834 42.9323 29.3875C42.0249 29.9334 40.7762 30.391 39.3173 30.7622C36.3846 31.5085 32.3836 31.9597 27.9995 31.9597C23.6154 31.9597 19.6144 31.5085 16.6817 30.7622C15.2229 30.391 13.9741 29.9334 13.0668 29.3875C12.2289 28.8834 11.354 28.101 11.354 26.9697V22.8396C11.354 21.7084 12.2289 20.9259 13.0668 20.4218C13.9741 19.876 15.2229 19.4184 16.6817 19.0471C19.6144 18.3009 23.6154 17.8496 27.9995 17.8496C32.3836 17.8496 36.3846 18.3009 39.3173 19.0471C40.7762 19.4184 42.0249 19.876 42.9323 20.4218C43.7702 20.9259 44.645 21.7084 44.645 22.8396Z" fill="#16A34A"/>
</svg>
