<svg width="136" height="36" viewBox="0 0 136 36" fill="none" xmlns="http://www.w3.org/2000/svg">
<path d="M71.5428 29C70.8955 29 70.3007 28.8417 69.7583 28.525C69.2159 28.2083 68.7873 27.7773 68.4724 27.2319C68.1575 26.6866 68 26.0884 68 25.4375V13.5625C68 12.9116 68.1575 12.3134 68.4724 11.7681C68.7873 11.2227 69.2159 10.7917 69.7583 10.475C70.3007 10.1583 70.8955 10 71.5428 10H83.3523C83.9996 10 84.5857 10.1583 85.1106 10.475C85.653 10.7917 86.0816 11.2227 86.3965 11.7681C86.7289 12.3134 86.8952 12.9116 86.8952 13.5625V14.8556H83.7197V13.6681C83.7197 13.5273 83.6672 13.413 83.5623 13.325C83.4748 13.237 83.3698 13.1931 83.2473 13.1931H71.6216C71.4991 13.1931 71.3854 13.237 71.2804 13.325C71.1929 13.413 71.1492 13.5273 71.1492 13.6681V25.3319C71.1492 25.4727 71.1929 25.587 71.2804 25.675C71.3854 25.763 71.4991 25.8069 71.6216 25.8069H83.2473C83.3698 25.8069 83.4748 25.763 83.5623 25.675C83.6672 25.587 83.7197 25.4727 83.7197 25.3319V21.6111H79.3633V18.4181H86.8952V25.4375C86.8952 26.0884 86.7289 26.6866 86.3965 27.2319C86.0816 27.7773 85.653 28.2083 85.1106 28.525C84.5857 28.8417 83.9996 29 83.3523 29H71.5428Z" fill="white"/>
<path d="M105.058 29L99.2578 22.0333H103.378L108.6 28.2611V29H105.058ZM89.784 29V10.0264H105.136C105.784 10.0264 106.37 10.1935 106.895 10.5278C107.437 10.8444 107.866 11.2755 108.18 11.8208C108.513 12.3486 108.679 12.938 108.679 13.5889V18.8139C108.679 19.4472 108.513 20.0366 108.18 20.5819C107.866 21.1273 107.437 21.5583 106.895 21.875C106.37 22.1917 105.784 22.35 105.136 22.35L92.9332 22.3764V29H89.784ZM93.4055 19.1569H105.031C105.154 19.1569 105.259 19.113 105.346 19.025C105.451 18.937 105.504 18.8227 105.504 18.6819V13.6681C105.504 13.5449 105.451 13.4394 105.346 13.3514C105.259 13.2458 105.154 13.1931 105.031 13.1931H93.4055C93.2831 13.1931 93.1693 13.2458 93.0644 13.3514C92.9769 13.4394 92.9332 13.5449 92.9332 13.6681V18.6819C92.9332 18.8227 92.9769 18.937 93.0644 19.025C93.1693 19.113 93.2831 19.1569 93.4055 19.1569Z" fill="white"/>
<path d="M111.23 29V10H114.353V29H111.23Z" fill="white"/>
<path d="M117.105 29V10H132.457C133.104 10 133.691 10.1583 134.215 10.475C134.758 10.7917 135.186 11.2227 135.501 11.7681C135.834 12.3134 136 12.9116 136 13.5625V25.4375C136 26.0884 135.834 26.6866 135.501 27.2319C135.186 27.7773 134.758 28.2083 134.215 28.525C133.691 28.8417 133.104 29 132.457 29H117.105ZM120.726 25.8069H132.352C132.475 25.8069 132.58 25.763 132.667 25.675C132.772 25.587 132.825 25.4727 132.825 25.3319V13.6681C132.825 13.5273 132.772 13.413 132.667 13.325C132.58 13.237 132.475 13.1931 132.352 13.1931H120.726C120.586 13.1931 120.464 13.237 120.359 13.325C120.272 13.413 120.228 13.5273 120.228 13.6681V25.3319C120.228 25.4727 120.272 25.587 120.359 25.675C120.464 25.763 120.586 25.8069 120.726 25.8069Z" fill="white"/>
<path fillRule="evenodd" clipRule="evenodd" d="M9.844 8.18945L21.4294 12.7047L9.844 17.2199L1.98582 14.1573V22.3747L10.2046 25.5778L9.48345 27.4281L0 23.7321V12.026L9.844 8.18945ZM3.72722 12.7047L9.844 15.0886L15.9608 12.7047L9.844 10.3208L3.72722 12.7047Z" fill="#16A34A"/>
<path fillRule="evenodd" clipRule="evenodd" d="M19.3764 4.55957L30.9934 9.02757L19.3764 13.4956L7.75928 9.02757L19.3764 4.55957ZM13.2913 9.02757L19.3764 11.3679L25.4615 9.02757L19.3764 6.6872L13.2913 9.02757Z" fill="#16A34A"/>
<path fillRule="evenodd" clipRule="evenodd" d="M28.0001 0.918945L39.4672 5.62329L28.0001 10.3276L16.533 5.62329L28.0001 0.918945ZM21.765 5.62329L28.0001 8.1812L34.2351 5.62329L28.0001 3.06538L21.765 5.62329Z" fill="#16A34A"/>
<path fillRule="evenodd" clipRule="evenodd" d="M36.6242 4.55957L48.2412 9.02757L36.6242 13.4956L25.0071 9.02757L36.6242 4.55957ZM30.5391 9.02757L36.6242 11.3679L42.7093 9.02757L36.6242 6.6872L30.5391 9.02757Z" fill="#16A34A"/>
<path fillRule="evenodd" clipRule="evenodd" d="M46.1562 8.18945L56.0002 12.026V23.7321L46.5168 27.4281L45.7957 25.5778L54.0144 22.3747V14.1573L46.1562 17.2199L34.5708 12.7047L46.1562 8.18945ZM52.273 12.7047L46.1562 15.0886L40.0394 12.7047L46.1562 10.3208L52.273 12.7047Z" fill="#16A34A"/>
<path fillRule="evenodd" clipRule="evenodd" d="M37.0781 11.3633L46.9221 15.3008V27.2663L37.4469 31.0563L36.7094 29.2125L44.9363 25.9218V17.4396L37.0781 20.5828L25.5535 15.973L37.0781 11.3633ZM43.2557 15.973L37.0781 18.444L30.9006 15.973L37.0781 13.5021L43.2557 15.973Z" fill="#16A34A"/>
<path fillRule="evenodd" clipRule="evenodd" d="M28.0003 14.9941L37.8443 18.9316V30.8972L28.0003 34.8347L18.1562 30.8972V18.9316L28.0003 14.9941ZM20.1421 21.0704V29.5527L28.0003 32.6959L35.8584 29.5527V21.0704L28.0003 24.2136L20.1421 21.0704ZM34.1778 19.6039L28.0003 22.0748L21.8227 19.6039L28.0003 17.1329L34.1778 19.6039Z" fill="#16A34A"/>
<path fillRule="evenodd" clipRule="evenodd" d="M18.459 11.3662L37.2057 18.5407L36.4959 20.3953L18.4766 13.4992L12.2804 15.9882L28.3118 22.428V35.2345L8.62378 27.3258V15.317L18.459 11.3662ZM10.6096 17.4571V25.9834L26.326 32.2967V23.7703L10.6096 17.4571Z" fill="#16A34A"/>
</svg>
