<svg width="176" height="34" viewBox="0 0 176 34" fill="none" xmlns="http://www.w3.org/2000/svg">
<path fillRule="evenodd" clipRule="evenodd" d="M14.1993 8.36426H28.9032V15.382L20.2588 21.1822L28.9032 26.9825V34.0002H14.1993L0 24.4727V17.8917L14.1993 8.36426ZM18.5161 20.0129L27.0968 14.2554V11.1396L16.1943 18.455L18.5161 20.0129ZM24.767 10.3643H14.7039L2.64591 18.455L14.7039 26.5457H24.767L12.7089 18.455L24.767 10.3643ZM27.0968 28.5457H14.1993L1.80644 20.2303V23.3462L14.7039 32.0002H27.0968V28.5457Z" fill="#16A34A"/>
<path fillRule="evenodd" clipRule="evenodd" d="M41.8007 0H27.0968V7.01771L35.7412 12.818L27.0968 18.6182V25.6359H41.8007L56 16.1084V9.52747L41.8007 0ZM37.4839 11.6486L28.9032 5.89117V2.77536L39.8057 10.0907L37.4839 11.6486ZM31.233 2H41.2961L53.3541 10.0907L41.2961 18.1815H31.233L43.2911 10.0907L31.233 2ZM28.9032 20.1815H41.8007L54.1936 11.8661V14.9819L41.2961 23.6359H28.9032V20.1815Z" fill="#16A34A"/>
<path d="M71.663 26.9971C70.9954 26.9971 70.3805 26.8302 69.8183 26.4964C69.2737 26.1626 68.8345 25.7234 68.5007 25.1788C68.1669 24.6166 68 24.0017 68 23.3341V11.6864C68 11.0188 68.1669 10.4127 68.5007 9.86808C68.8345 9.3059 69.2737 8.85791 69.8183 8.52412C70.3805 8.19032 70.9954 8.02342 71.663 8.02342H86.9209V11.5283H72.4008C72.1197 11.5283 71.8913 11.6073 71.7157 11.7654C71.5576 11.9236 71.4785 12.1519 71.4785 12.4506V22.5699C71.4785 22.851 71.5576 23.0794 71.7157 23.255C71.8913 23.4132 72.1197 23.4922 72.4008 23.4922H86.9209V26.9971H71.663Z" fill="white"/>
<path d="M89.6949 26.9971V7.99707H93.1734V23.4922H108.668V26.9971H89.6949Z" fill="white"/>
<path d="M109.836 26.9971V8.02342H113.288V26.9971H109.836Z" fill="white"/>
<path d="M115.893 26.9971V8.02342H133.365V11.5283H119.398V15.7446H130.624V19.2759H119.398V23.4922H133.365V26.9971H115.893Z" fill="white"/>
<path d="M136.017 26.9971V8.02342H139.838L151.485 21.8847V8.02342H154.99V26.9971H151.169L139.495 13.1094V26.9971H136.017Z" fill="white"/>
<path d="M164.741 26.9971V11.5283H156.994V8.02342H175.967V11.5283H168.246V26.9971H164.741Z" fill="white"/>
</svg>
