<svg width="102" height="24" viewBox="0 0 102 24" fill="none" xmlns="http://www.w3.org/2000/svg">
<path d="M6.90223 16.0827L4.81539 24H0.0173257L0 23.9953L2.40834 14.8585L6.90223 16.0827Z" fill="#0046A4"/>
<path d="M15.7437 11.5133L12.4528 23.9986H7.65338L7.63741 23.9943L11.2498 10.2891L15.7437 11.5133Z" fill="#0046A4"/>
<path d="M27.3928 7.71006L24.5797 6.94383L20.0844 23.9985H15.2885L15.2692 23.9932L20.0858 5.71968L17.2725 4.95344L24.0016 0L27.3928 7.71006Z" fill="#0046A4"/>
<path d="M100.939 18.707L101.547 16.9136H102L100.986 19.7237C100.955 19.8081 100.909 19.8852 100.849 19.955C100.789 20.0277 100.715 20.0845 100.627 20.1252C100.538 20.1659 100.434 20.1863 100.315 20.1863C100.28 20.1863 100.245 20.1834 100.208 20.1776C100.171 20.1717 100.129 20.163 100.084 20.1514V19.7325C100.126 19.7383 100.168 19.7441 100.208 19.7499C100.25 19.7587 100.285 19.763 100.31 19.763C100.359 19.763 100.4 19.747 100.434 19.715C100.471 19.686 100.509 19.6307 100.546 19.5492C100.583 19.4678 100.628 19.3499 100.682 19.1958L99.7628 16.9136H100.255L100.939 18.707Z" fill="white"/>
<path fill-rule="evenodd" clip-rule="evenodd" d="M84.3378 16.8743C84.5174 16.8743 84.6743 16.918 84.8083 17.0052C84.9452 17.0925 85.0578 17.206 85.1462 17.3456V16.9136H85.5611V19.1303C85.5611 19.3514 85.5084 19.5391 85.4029 19.6932C85.3002 19.8474 85.1591 19.9652 84.9794 20.0467C84.7998 20.1281 84.5973 20.1688 84.372 20.1688C84.1239 20.1688 83.9186 20.1252 83.756 20.0379C83.5935 19.9507 83.4552 19.8314 83.3411 19.6801L83.6063 19.4271C83.6918 19.5492 83.8016 19.6423 83.9357 19.7063C84.0725 19.7703 84.218 19.8023 84.372 19.8023C84.5003 19.8023 84.6187 19.7776 84.727 19.7281C84.8382 19.6816 84.9266 19.6074 84.9922 19.5056C85.0578 19.4067 85.0906 19.2816 85.0906 19.1303V18.7812C85.0108 18.9179 84.901 19.0256 84.7612 19.1041C84.6215 19.1797 84.4746 19.2176 84.3206 19.2176C84.1695 19.2176 84.0312 19.187 83.9057 19.1259C83.7803 19.0619 83.6719 18.9761 83.5806 18.8685C83.4922 18.7608 83.4224 18.6372 83.371 18.4976C83.3225 18.3579 83.2983 18.211 83.2983 18.0569C83.2983 17.894 83.324 17.7412 83.3753 17.5986C83.4266 17.4561 83.4979 17.331 83.5891 17.2234C83.6833 17.1128 83.7931 17.027 83.9185 16.9659C84.044 16.9048 84.1838 16.8743 84.3378 16.8743ZM84.4404 17.2845C84.3378 17.2845 84.2451 17.3077 84.1624 17.3543C84.0825 17.3979 84.0141 17.4576 83.9571 17.5332C83.9 17.6059 83.8558 17.6889 83.8245 17.7819C83.7931 17.875 83.7774 17.971 83.7774 18.0699C83.7774 18.1747 83.7945 18.2721 83.8287 18.3623C83.8658 18.4525 83.9157 18.5339 83.9785 18.6066C84.0412 18.6765 84.1153 18.7318 84.2009 18.7725C84.2864 18.8103 84.3777 18.8292 84.4746 18.8292C84.5459 18.8292 84.6144 18.8176 84.68 18.7943C84.7455 18.7681 84.8054 18.7347 84.8596 18.694C84.9166 18.6503 84.9652 18.6023 85.0051 18.5499C85.045 18.4947 85.0735 18.4365 85.0906 18.3754V17.7775C85.0535 17.6786 85.0008 17.5928 84.9323 17.5201C84.8639 17.4445 84.7869 17.3863 84.7014 17.3456C84.6158 17.3049 84.5288 17.2845 84.4404 17.2845Z" fill="white"/>
<path fill-rule="evenodd" clip-rule="evenodd" d="M90.775 16.8743C90.9547 16.8743 91.1115 16.918 91.2456 17.0052C91.3824 17.0925 91.4951 17.206 91.5835 17.3456V16.9136H91.9984V19.1303C91.9984 19.3514 91.9456 19.5391 91.8401 19.6932C91.7375 19.8474 91.5963 19.9652 91.4166 20.0467C91.237 20.1281 91.0345 20.1688 90.8093 20.1688C90.5612 20.1688 90.3558 20.1252 90.1933 20.0379C90.0307 19.9507 89.8924 19.8314 89.7783 19.6801L90.0436 19.4271C90.1291 19.5492 90.2389 19.6423 90.3729 19.7063C90.5098 19.7703 90.6553 19.8023 90.8093 19.8023C90.9376 19.8023 91.056 19.7776 91.1643 19.7281C91.2755 19.6816 91.3639 19.6074 91.4295 19.5056C91.4951 19.4067 91.5279 19.2816 91.5279 19.1303V18.7812C91.4481 18.9179 91.3382 19.0256 91.1985 19.1041C91.0588 19.1797 90.9119 19.2176 90.7579 19.2176C90.6068 19.2176 90.4684 19.187 90.3429 19.1259C90.2175 19.0619 90.1092 18.9761 90.0179 18.8685C89.9295 18.7608 89.8596 18.6372 89.8083 18.4976C89.7598 18.3579 89.7356 18.211 89.7356 18.0569C89.7356 17.894 89.7613 17.7412 89.8126 17.5986C89.8639 17.4561 89.9352 17.331 90.0264 17.2234C90.1205 17.1128 90.2303 17.027 90.3558 16.9659C90.4813 16.9048 90.621 16.8743 90.775 16.8743ZM90.8777 17.2845C90.775 17.2845 90.6823 17.3077 90.5996 17.3543C90.5198 17.3979 90.4513 17.4576 90.3943 17.5332C90.3372 17.6059 90.2931 17.6889 90.2617 17.7819C90.2303 17.875 90.2146 17.971 90.2146 18.0699C90.2146 18.1747 90.2317 18.2721 90.266 18.3623C90.303 18.4524 90.353 18.5339 90.4157 18.6066C90.4784 18.6765 90.5526 18.7318 90.6381 18.7725C90.7237 18.8103 90.815 18.8292 90.9119 18.8292C90.9832 18.8292 91.0517 18.8176 91.1172 18.7943C91.1828 18.7681 91.2427 18.7347 91.2969 18.694C91.3539 18.6503 91.4024 18.6023 91.4423 18.5499C91.4822 18.4947 91.5108 18.4365 91.5279 18.3754V17.7775C91.4908 17.6786 91.4381 17.5928 91.3696 17.5201C91.3012 17.4445 91.2242 17.3863 91.1386 17.3456C91.0531 17.3049 90.9661 17.2845 90.8777 17.2845Z" fill="white"/>
<path fill-rule="evenodd" clip-rule="evenodd" d="M48.3864 16.8743C48.5404 16.8743 48.6816 16.9063 48.8099 16.9703C48.9382 17.0314 49.0495 17.1172 49.1436 17.2278C49.2377 17.3383 49.3104 17.4648 49.3617 17.6074C49.4159 17.747 49.443 17.8954 49.443 18.0525C49.443 18.2706 49.4002 18.4699 49.3147 18.6503C49.232 18.8306 49.115 18.9747 48.9639 19.0823C48.8156 19.187 48.6445 19.2394 48.4506 19.2394C48.2709 19.2394 48.1127 19.1958 47.9758 19.1085C47.8389 19.0212 47.7305 18.9078 47.6507 18.7681V20.1252H47.1802V16.9136H47.5951V17.3238C47.6806 17.187 47.7918 17.0779 47.9287 16.9965C48.0656 16.915 48.2182 16.8743 48.3864 16.8743ZM48.2624 17.2845C48.2025 17.2845 48.1398 17.2961 48.0742 17.3194C48.0086 17.3426 47.9473 17.3747 47.8903 17.4154C47.8332 17.4561 47.7833 17.5041 47.7405 17.5594C47.6978 17.6147 47.6678 17.6728 47.6507 17.7339V18.3317C47.6906 18.4248 47.7434 18.5092 47.8089 18.5848C47.8745 18.6575 47.9501 18.7172 48.0357 18.7637C48.1212 18.8074 48.2082 18.8292 48.2966 18.8292C48.3964 18.8292 48.4862 18.8074 48.5661 18.7637C48.6488 18.7201 48.7187 18.6619 48.7757 18.5892C48.8356 18.5165 48.8812 18.4335 48.9125 18.3405C48.9439 18.2474 48.9596 18.1514 48.9596 18.0525C48.9596 17.9477 48.9425 17.8488 48.9083 17.7557C48.8741 17.6627 48.8241 17.5812 48.7586 17.5114C48.6958 17.4416 48.6217 17.3863 48.5362 17.3456C48.4535 17.3049 48.3622 17.2845 48.2624 17.2845Z" fill="white"/>
<path fill-rule="evenodd" clip-rule="evenodd" d="M35.6325 16.8743C35.8065 16.8743 35.9633 16.9063 36.1031 16.9703C36.2457 17.0314 36.3668 17.1172 36.4667 17.2278C36.5693 17.3354 36.6477 17.4605 36.7019 17.603C36.7561 17.7456 36.7832 17.8969 36.7832 18.0569C36.7832 18.2169 36.7561 18.3681 36.7019 18.5106C36.6477 18.6503 36.5693 18.7754 36.4667 18.886C36.3669 18.9965 36.2456 19.0837 36.1031 19.1477C35.9633 19.2088 35.8065 19.2394 35.6325 19.2394C35.4557 19.2394 35.2974 19.2088 35.1577 19.1477C35.018 19.0837 34.8967 18.9965 34.7941 18.886C34.6943 18.7754 34.6173 18.6503 34.5631 18.5106C34.5089 18.3681 34.4818 18.2168 34.4818 18.0569C34.4818 17.8969 34.5089 17.7456 34.5631 17.603C34.6173 17.4605 34.6943 17.3354 34.7941 17.2278C34.8967 17.1172 35.018 17.0314 35.1577 16.9703C35.3003 16.9063 35.4586 16.8743 35.6325 16.8743ZM35.6325 17.2845C35.507 17.2845 35.3944 17.3194 35.2946 17.3892C35.1948 17.459 35.1149 17.5521 35.0551 17.6685C34.9952 17.7819 34.9652 17.9128 34.9652 18.0612C34.9652 18.2067 34.9952 18.3376 35.0551 18.4539C35.1149 18.5703 35.1948 18.6619 35.2946 18.7289C35.3944 18.7958 35.507 18.8292 35.6325 18.8292C35.7551 18.8292 35.8663 18.7958 35.9661 18.7289C36.0688 18.659 36.1501 18.566 36.21 18.4496C36.2699 18.3303 36.2998 18.1994 36.2998 18.0569C36.2998 17.9114 36.2699 17.7805 36.21 17.6641C36.1501 17.5478 36.0688 17.4561 35.9661 17.3892C35.8663 17.3194 35.7551 17.2845 35.6325 17.2845Z" fill="white"/>
<path d="M37.6497 18.2139C37.6497 18.4175 37.6853 18.5718 37.7566 18.6765C37.8307 18.7783 37.9377 18.8292 38.0774 18.8292C38.1658 18.8292 38.2514 18.8103 38.3341 18.7725C38.4196 18.7347 38.4966 18.6794 38.5651 18.6066C38.6364 18.531 38.6934 18.4408 38.7362 18.3361V16.9136H39.2067V18.6547C39.2067 18.7099 39.2167 18.7492 39.2366 18.7725C39.2566 18.7958 39.2894 18.8089 39.335 18.8118V19.1958C39.2866 19.2045 39.2466 19.2103 39.2152 19.2132C39.1839 19.2161 39.154 19.2176 39.1254 19.2176C39.0399 19.2176 38.9686 19.1943 38.9115 19.1477C38.8545 19.0983 38.8218 19.0358 38.8132 18.9601L38.8046 18.7332C38.7048 18.899 38.575 19.0256 38.4153 19.1128C38.2557 19.1972 38.0802 19.2394 37.8892 19.2394C37.6554 19.2394 37.4786 19.1608 37.3588 19.0038C37.239 18.8467 37.1791 18.6154 37.1791 18.3099V16.9136H37.6497V18.2139Z" fill="white"/>
<path fill-rule="evenodd" clip-rule="evenodd" d="M50.8842 16.8743C51.1181 16.8743 51.3191 16.9296 51.4874 17.0401C51.6585 17.1478 51.7911 17.2903 51.8852 17.4677C51.9793 17.6452 52.0263 17.8358 52.0263 18.0394C52.0263 18.0743 52.0249 18.1077 52.0221 18.1397C52.0192 18.1688 52.0164 18.1936 52.0135 18.2139H50.2212C50.2298 18.3477 50.2654 18.4656 50.3281 18.5674C50.3937 18.6663 50.4765 18.7449 50.5763 18.803C50.6761 18.8583 50.783 18.886 50.897 18.886C51.0225 18.886 51.1409 18.854 51.2521 18.79C51.3662 18.726 51.4432 18.6416 51.4831 18.5369L51.8852 18.6547C51.8367 18.7652 51.7626 18.8656 51.6627 18.9557C51.5658 19.043 51.4503 19.1129 51.3163 19.1652C51.1823 19.2147 51.0368 19.2394 50.88 19.2394C50.706 19.2394 50.5477 19.2088 50.4051 19.1477C50.2654 19.0837 50.1442 18.9979 50.0416 18.8903C49.9389 18.7798 49.8591 18.6547 49.802 18.515C49.7479 18.3725 49.7207 18.2212 49.7207 18.0612C49.7207 17.8459 49.7692 17.6496 49.8662 17.4721C49.9631 17.2918 50.0986 17.1478 50.2725 17.0401C50.4465 16.9296 50.6504 16.8743 50.8842 16.8743ZM50.88 17.2278C50.7631 17.2278 50.6547 17.2569 50.5549 17.315C50.4579 17.3703 50.3781 17.4488 50.3153 17.5507C50.2526 17.6496 50.2169 17.7645 50.2084 17.8954H51.5601C51.5515 17.7645 51.5145 17.6496 51.4489 17.5507C51.3861 17.4488 51.3048 17.3703 51.205 17.315C51.1081 17.2569 50.9997 17.2278 50.88 17.2278Z" fill="white"/>
<path fill-rule="evenodd" clip-rule="evenodd" d="M70.3891 16.8743C70.6885 16.8743 70.9237 16.9557 71.0948 17.1186C71.2688 17.2786 71.3558 17.507 71.3558 17.8038V18.6547C71.3558 18.7099 71.3643 18.7492 71.3814 18.7725C71.4014 18.7958 71.4342 18.8089 71.4798 18.8118V19.1958C71.4371 19.2045 71.3986 19.2103 71.3644 19.2132C71.3301 19.2161 71.3016 19.2176 71.2788 19.2176C71.179 19.2176 71.1034 19.1928 71.0521 19.1434C71.0008 19.0939 70.9708 19.0357 70.9622 18.9688L70.9494 18.8379C70.8525 18.9659 70.7284 19.0648 70.5773 19.1347C70.4261 19.2045 70.2736 19.2394 70.1196 19.2394C69.9713 19.2394 69.8387 19.2088 69.7218 19.1477C69.6049 19.0837 69.5136 18.9979 69.448 18.8903C69.3824 18.7827 69.3496 18.6619 69.3496 18.5281C69.3496 18.3827 69.3895 18.2561 69.4694 18.1485C69.5521 18.0379 69.6647 17.9535 69.8073 17.8954C69.9499 17.8343 70.1153 17.8038 70.3035 17.8038C70.4033 17.8038 70.5045 17.811 70.6072 17.8256C70.7127 17.8401 70.8054 17.8634 70.8853 17.8954V17.7514C70.8853 17.5914 70.8382 17.4663 70.7441 17.3761C70.65 17.286 70.5145 17.2409 70.3377 17.2409C70.2123 17.2409 70.0939 17.2641 69.9827 17.3106C69.8715 17.3543 69.7531 17.4168 69.6277 17.4983L69.4694 17.1754C69.6177 17.0736 69.7659 16.9979 69.9142 16.9485C70.0654 16.899 70.2237 16.8743 70.3891 16.8743ZM70.3719 18.0961C70.2009 18.0961 70.0611 18.131 69.9528 18.2008C69.8473 18.2706 69.7944 18.3667 69.7944 18.4888C69.7944 18.5557 69.8116 18.6197 69.8458 18.6808C69.8828 18.7419 69.9342 18.7914 69.9998 18.8292C70.0682 18.867 70.1524 18.886 70.2522 18.886C70.3548 18.886 70.4532 18.8656 70.5473 18.8249C70.6414 18.7841 70.717 18.7317 70.7741 18.6677C70.8083 18.6299 70.8354 18.5921 70.8553 18.5543C70.8753 18.5165 70.8853 18.483 70.8853 18.4539V18.1921C70.8054 18.1601 70.7213 18.1369 70.6329 18.1223C70.5445 18.1049 70.4575 18.0961 70.3719 18.0961Z" fill="white"/>
<path fill-rule="evenodd" clip-rule="evenodd" d="M76.7711 16.8743C77.005 16.8743 77.206 16.9296 77.3743 17.0401C77.5454 17.1478 77.678 17.2903 77.7721 17.4677C77.8662 17.6452 77.9132 17.8358 77.9132 18.0394C77.9132 18.0743 77.9118 18.1077 77.909 18.1397C77.9061 18.1688 77.9033 18.1936 77.9004 18.2139H76.1081C76.1167 18.3477 76.1523 18.4656 76.215 18.5674C76.2806 18.6663 76.3634 18.7449 76.4632 18.803C76.563 18.8583 76.6699 18.886 76.784 18.886C76.9094 18.886 77.0278 18.854 77.139 18.79C77.2531 18.726 77.3301 18.6416 77.37 18.5369L77.7721 18.6547C77.7236 18.7652 77.6495 18.8656 77.5496 18.9557C77.4527 19.043 77.3372 19.1129 77.2032 19.1652C77.0692 19.2147 76.9237 19.2394 76.7669 19.2394C76.5929 19.2394 76.4346 19.2088 76.292 19.1477C76.1523 19.0837 76.0311 18.9979 75.9285 18.8903C75.8258 18.7798 75.746 18.6547 75.6889 18.515C75.6348 18.3725 75.6076 18.2212 75.6076 18.0612C75.6076 17.8459 75.6561 17.6496 75.7531 17.4721C75.85 17.2918 75.9855 17.1478 76.1595 17.0401C76.3334 16.9296 76.5373 16.8743 76.7711 16.8743ZM76.7669 17.2278C76.65 17.2278 76.5416 17.2569 76.4418 17.315C76.3448 17.3703 76.265 17.4488 76.2022 17.5507C76.1395 17.6496 76.1038 17.7645 76.0953 17.8954H77.447C77.4384 17.7645 77.4014 17.6496 77.3358 17.5507C77.2731 17.4488 77.1917 17.3703 77.0919 17.315C76.995 17.2569 76.8866 17.2278 76.7669 17.2278Z" fill="white"/>
<path fill-rule="evenodd" clip-rule="evenodd" d="M93.5807 16.8743C93.8146 16.8743 94.0156 16.9296 94.1838 17.0401C94.3549 17.1478 94.4876 17.2903 94.5817 17.4677C94.6758 17.6452 94.7228 17.8358 94.7228 18.0394C94.7228 18.0743 94.7214 18.1077 94.7185 18.1397C94.7157 18.1688 94.7129 18.1936 94.71 18.2139H92.9177C92.9263 18.3477 92.9619 18.4656 93.0246 18.5674C93.0902 18.6663 93.1729 18.7449 93.2728 18.803C93.3726 18.8583 93.4795 18.886 93.5935 18.886C93.719 18.886 93.8374 18.854 93.9486 18.79C94.0626 18.726 94.1396 18.6416 94.1796 18.5369L94.5817 18.6547C94.5332 18.7652 94.459 18.8656 94.3592 18.9557C94.2623 19.043 94.1468 19.1129 94.0128 19.1652C93.8787 19.2147 93.7332 19.2394 93.5764 19.2394C93.4025 19.2394 93.2442 19.2088 93.1016 19.1477C92.9619 19.0837 92.8407 18.9979 92.738 18.8903C92.6354 18.7798 92.5555 18.6547 92.4985 18.515C92.4443 18.3725 92.4172 18.2212 92.4172 18.0612C92.4172 17.8459 92.4657 17.6496 92.5627 17.4721C92.6596 17.2918 92.7951 17.1478 92.969 17.0401C93.143 16.9296 93.3469 16.8743 93.5807 16.8743ZM93.5764 17.2278C93.4595 17.2278 93.3511 17.2569 93.2513 17.315C93.1544 17.3703 93.0745 17.4488 93.0118 17.5507C92.949 17.6496 92.9134 17.7645 92.9048 17.8954H94.2566C94.248 17.7645 94.211 17.6496 94.1454 17.5507C94.0826 17.4488 94.0013 17.3703 93.9015 17.315C93.8046 17.2569 93.6962 17.2278 93.5764 17.2278Z" fill="white"/>
<path d="M98.6728 16.8743C98.9009 16.8743 99.0991 16.9267 99.2674 17.0314C99.4385 17.1332 99.5639 17.27 99.6438 17.4416L99.1861 17.59C99.1347 17.494 99.062 17.4198 98.9679 17.3674C98.8767 17.3121 98.7754 17.2845 98.6642 17.2845C98.5388 17.2845 98.4247 17.3179 98.322 17.3848C98.2222 17.4488 98.1423 17.539 98.0825 17.6554C98.0254 17.7688 97.9969 17.9012 97.9969 18.0525C97.9969 18.1979 98.0268 18.3303 98.0867 18.4496C98.1466 18.566 98.2265 18.659 98.3263 18.7289C98.429 18.7958 98.543 18.8292 98.6685 18.8292C98.7455 18.8292 98.8196 18.8161 98.8909 18.79C98.9651 18.7609 99.0292 18.723 99.0834 18.6765C99.1376 18.627 99.1761 18.5732 99.1989 18.515L99.6609 18.6547C99.6124 18.7681 99.5397 18.8685 99.4427 18.9557C99.3486 19.043 99.236 19.1129 99.1048 19.1652C98.9765 19.2147 98.8324 19.2394 98.6728 19.2394C98.4988 19.2394 98.3406 19.2088 98.198 19.1477C98.0582 19.0837 97.937 18.9965 97.8344 18.886C97.7317 18.7754 97.6518 18.6488 97.5948 18.5063C97.5406 18.3638 97.5135 18.2125 97.5135 18.0525C97.5135 17.8372 97.5606 17.6409 97.6547 17.4634C97.7517 17.286 97.8857 17.1434 98.0568 17.0358C98.2307 16.9281 98.4361 16.8743 98.6728 16.8743Z" fill="white"/>
<path d="M54.5961 16.9136H55.0837V17.2845H54.5961V18.5587C54.6018 18.6372 54.6261 18.6954 54.6688 18.7332C54.7144 18.771 54.7701 18.79 54.8357 18.79C54.9013 18.79 54.964 18.7783 55.0239 18.755C55.0837 18.7317 55.1279 18.7128 55.1565 18.6983L55.2549 19.078C55.2149 19.0983 55.165 19.1201 55.1051 19.1434C55.0453 19.1667 54.9768 19.1871 54.8998 19.2045C54.8257 19.222 54.7487 19.2307 54.6688 19.2307C54.5719 19.2307 54.4821 19.2132 54.3994 19.1783C54.3167 19.1434 54.2496 19.0881 54.1983 19.0125C54.1498 18.934 54.1256 18.8336 54.1256 18.7114V17.2845H53.8304V16.9136H54.1256V16.163H54.5961V16.9136Z" fill="white"/>
<path d="M78.8622 16.9136H79.3498V17.2845H78.8622V18.5587C78.8679 18.6372 78.8922 18.6954 78.9349 18.7332C78.9806 18.771 79.0362 18.79 79.1018 18.79C79.1674 18.79 79.2301 18.7783 79.29 18.755C79.3499 18.7317 79.3941 18.7128 79.4226 18.6983L79.521 19.078C79.481 19.0983 79.4311 19.1201 79.3712 19.1434C79.3114 19.1667 79.2429 19.1871 79.1659 19.2045C79.0918 19.222 79.0148 19.2307 78.9349 19.2307C78.838 19.2307 78.7482 19.2132 78.6655 19.1783C78.5828 19.1434 78.5157 19.0881 78.4644 19.0125C78.4159 18.934 78.3917 18.8336 78.3917 18.7114V17.2845H78.0965V16.9136H78.3917V16.163H78.8622V16.9136Z" fill="white"/>
<path d="M33.3251 17.6379L34.1721 16.0976H34.6983L33.5647 18.0874V19.1958H33.0856V18.0787L31.9606 16.0976H32.4868L33.3251 17.6379Z" fill="white"/>
<path d="M41.0134 16.8918C41.0334 16.8918 41.0505 16.8932 41.0648 16.8961V17.3281C40.8823 17.331 40.7197 17.3732 40.5771 17.4547C40.4374 17.5361 40.3376 17.651 40.2777 17.7994V19.1958H39.8072V16.9136H40.2435V17.4241C40.3205 17.267 40.4217 17.1419 40.5472 17.0489C40.6727 16.9529 40.8053 16.9005 40.945 16.8918H41.0134Z" fill="white"/>
<path d="M44.4724 16.5296H42.9068V17.411H44.2628V17.8168H42.9068V18.7637H44.511V19.1958H42.4277V16.0976H44.4724V16.5296Z" fill="white"/>
<path d="M45.7409 17.6947L45.7794 17.7688L45.8179 17.6947L46.3441 16.9136H46.8531L46.0489 18.0569L46.8616 19.1958H46.3526L45.8179 18.419L45.7794 18.3492L45.7409 18.419L45.2062 19.1958H44.6972L45.5099 18.0612L44.7057 16.9136H45.2105L45.7409 17.6947Z" fill="white"/>
<path d="M53.6164 16.8918C53.6364 16.8918 53.6535 16.8932 53.6678 16.8961V17.3281C53.4853 17.331 53.3227 17.3732 53.1801 17.4547C53.0404 17.5361 52.9406 17.651 52.8807 17.7994V19.1958H52.4101V16.9136H52.8465V17.4241C52.9234 17.267 53.0247 17.1419 53.1502 17.0489C53.2756 16.9529 53.4083 16.9005 53.548 16.8918H53.6164Z" fill="white"/>
<path fill-rule="evenodd" clip-rule="evenodd" d="M58.2631 16.0976C58.4057 16.0976 58.5283 16.1368 58.631 16.2154C58.7365 16.291 58.8163 16.3899 58.8705 16.5121C58.9275 16.6314 58.9561 16.7565 58.9561 16.8874C58.9561 17.0387 58.9176 17.1812 58.8406 17.315C58.7664 17.4459 58.6595 17.5434 58.5198 17.6074C58.6937 17.6597 58.8306 17.7557 58.9304 17.8954C59.0331 18.0321 59.0844 18.1994 59.0844 18.3972C59.0844 18.563 59.0416 18.7056 58.9561 18.8249C58.8734 18.9441 58.7607 19.0358 58.6181 19.0998C58.4755 19.1638 58.3187 19.1958 58.1476 19.1958H56.6975V16.0976H58.2631ZM57.1766 18.7725H58.1476C58.2332 18.7725 58.3087 18.7521 58.3743 18.7114C58.4428 18.6677 58.4955 18.611 58.5326 18.5412C58.5725 18.4685 58.5925 18.3899 58.5925 18.3056C58.5925 18.2183 58.5739 18.1398 58.5369 18.0699C58.5026 17.9972 58.4542 17.939 58.3915 17.8954C58.3316 17.8488 58.2602 17.8256 58.1775 17.8256H57.1766V18.7725ZM57.1766 17.4328H58.0578C58.1376 17.4328 58.2089 17.414 58.2717 17.3761C58.3344 17.3354 58.3843 17.2815 58.4214 17.2146C58.4585 17.1448 58.477 17.0663 58.477 16.979C58.477 16.8888 58.4599 16.8103 58.4257 16.7434C58.3914 16.6736 58.3444 16.6198 58.2845 16.5819C58.2274 16.5412 58.1605 16.5208 58.0835 16.5208H57.1766V17.4328Z" fill="white"/>
<path d="M60.4652 16.6605C60.6506 16.6605 60.8089 16.6925 60.94 16.7565C61.0712 16.8175 61.171 16.9034 61.2395 17.0139C61.3108 17.1215 61.3464 17.2438 61.3464 17.3805C61.3464 17.4881 61.3251 17.5827 61.2823 17.6641C61.2424 17.7456 61.1895 17.8183 61.1239 17.8823C61.0584 17.9434 60.9885 17.9972 60.9144 18.0437C60.8431 18.0874 60.776 18.1266 60.7133 18.1615C60.6021 18.2168 60.5051 18.2678 60.4225 18.3143C60.3426 18.3609 60.2742 18.4074 60.2171 18.4539C60.1601 18.4976 60.113 18.5441 60.0759 18.5936C60.0389 18.6401 60.0075 18.6968 59.9819 18.7637H61.3935V19.1958H59.413C59.413 19.0736 59.4229 18.9616 59.4429 18.8597C59.4629 18.755 59.4971 18.6561 59.5456 18.563C59.5969 18.4699 59.6668 18.3827 59.7552 18.3012C59.8464 18.2169 59.9619 18.1368 60.1016 18.0612C60.2014 18.003 60.2955 17.9521 60.3839 17.9085C60.4723 17.862 60.5508 17.8168 60.6192 17.7732C60.6877 17.7267 60.7404 17.6772 60.7775 17.6248C60.8174 17.5725 60.8374 17.5128 60.8374 17.4459C60.8374 17.3819 60.8203 17.3223 60.786 17.267C60.7518 17.2117 60.7005 17.1681 60.632 17.1361C60.5636 17.1012 60.4809 17.0837 60.3839 17.0837C60.3069 17.0837 60.2356 17.0939 60.1701 17.1143C60.1073 17.1347 60.0489 17.1623 59.9947 17.1972C59.9434 17.2292 59.8963 17.2656 59.8535 17.3063C59.8108 17.3441 59.7737 17.382 59.7423 17.4198L59.4472 17.075C59.4757 17.0401 59.5199 17.0008 59.5798 16.9572C59.6425 16.9107 59.7167 16.8655 59.8022 16.8219C59.8906 16.7754 59.9904 16.7376 60.1016 16.7085C60.2128 16.6765 60.3341 16.6605 60.4652 16.6605Z" fill="white"/>
<path fill-rule="evenodd" clip-rule="evenodd" d="M63.4973 16.0976C63.6399 16.0976 63.7625 16.1368 63.8652 16.2154C63.9707 16.291 64.0505 16.3899 64.1047 16.5121C64.1617 16.6314 64.1903 16.7565 64.1903 16.8874C64.1903 17.0387 64.1517 17.1812 64.0748 17.315C64.0006 17.4459 63.8937 17.5434 63.754 17.6074C63.9279 17.6597 64.0648 17.7557 64.1646 17.8954C64.2673 18.0321 64.3186 18.1994 64.3186 18.3972C64.3186 18.563 64.2758 18.7056 64.1903 18.8249C64.1076 18.9441 63.9949 19.0358 63.8524 19.0998C63.7098 19.1638 63.5529 19.1958 63.3818 19.1958H61.9317V16.0976H63.4973ZM62.4108 18.7725H63.3818C63.4673 18.7725 63.5429 18.7521 63.6085 18.7114C63.677 18.6677 63.7297 18.611 63.7668 18.5412C63.8067 18.4685 63.8267 18.3899 63.8267 18.3056C63.8267 18.2183 63.8081 18.1398 63.771 18.0699C63.7368 17.9972 63.6884 17.939 63.6256 17.8954C63.5658 17.8488 63.4944 17.8256 63.4117 17.8256H62.4108V18.7725ZM62.4108 17.4328H63.292C63.3718 17.4328 63.4431 17.414 63.5059 17.3761C63.5686 17.3354 63.6185 17.2815 63.6556 17.2146C63.6926 17.1448 63.7112 17.0663 63.7112 16.979C63.7112 16.8888 63.6941 16.8103 63.6598 16.7434C63.6256 16.6736 63.5786 16.6198 63.5187 16.5819C63.4617 16.5412 63.3946 16.5208 63.3177 16.5208H62.4108V17.4328Z" fill="white"/>
<path d="M67.3937 17.9914L68.3989 16.0976H68.9122V19.1958H68.4288V16.9877L67.5348 18.6634H67.2525L66.3542 16.9877V19.1958H65.8751V16.0976H66.3884L67.3937 17.9914Z" fill="white"/>
<path d="M73.1329 16.8918C73.1529 16.8918 73.17 16.8932 73.1843 16.8961V17.3281C73.0018 17.331 72.8392 17.3732 72.6966 17.4547C72.5569 17.5361 72.4571 17.651 72.3972 17.7994V19.1958H71.9267V16.9136H72.363V17.4241C72.44 17.267 72.5412 17.1419 72.6666 17.0489C72.7921 16.9529 72.9247 16.9005 73.0645 16.8918H73.1329Z" fill="white"/>
<path d="M73.9971 18.0176L75.0322 16.9179H75.537L74.6687 17.8735L75.5841 19.1958H75.0836L74.3649 18.1441L73.9971 18.5019V19.1958H73.5266V16.0103H73.9971V18.0176Z" fill="white"/>
<path d="M80.3174 19.1958H79.8469V16.9136H80.3174V19.1958Z" fill="white"/>
<path d="M82.2217 16.8743C82.3557 16.8743 82.4655 16.899 82.5511 16.9485C82.6395 16.9979 82.7079 17.0663 82.7564 17.1536C82.8077 17.238 82.842 17.3369 82.8591 17.4503C82.879 17.5609 82.889 17.6787 82.889 17.8038V19.1958H82.4185V17.9172C82.4185 17.7048 82.3843 17.5492 82.3158 17.4503C82.2503 17.3514 82.1518 17.302 82.0207 17.302C81.9294 17.302 81.8382 17.3252 81.7469 17.3717C81.6585 17.4183 81.5786 17.4823 81.5073 17.5637C81.4361 17.6423 81.3847 17.7339 81.3534 17.8387V19.1958H80.8828V16.9136H81.3106V17.3717C81.3677 17.2699 81.4418 17.1826 81.533 17.1099C81.6271 17.0343 81.7327 16.9761 81.8496 16.9354C81.9665 16.8947 82.0905 16.8743 82.2217 16.8743Z" fill="white"/>
<path fill-rule="evenodd" clip-rule="evenodd" d="M89.6194 19.1958H89.1146L88.7939 18.3536H87.6218L87.3052 19.1958H86.7962L87.9854 16.0976H88.4388L89.6194 19.1958ZM87.7073 17.9914H88.6997L88.2121 16.6343L87.7073 17.9914Z" fill="white"/>
<path d="M96.4455 16.8743C96.5796 16.8743 96.6893 16.899 96.7749 16.9485C96.8633 16.9979 96.9317 17.0663 96.9802 17.1536C97.0315 17.238 97.0658 17.3369 97.0829 17.4503C97.1028 17.5609 97.1129 17.6787 97.1129 17.8038V19.1958H96.6423V17.9172C96.6423 17.7048 96.608 17.5492 96.5396 17.4503C96.474 17.3514 96.3757 17.302 96.2445 17.302C96.1532 17.302 96.062 17.3252 95.9707 17.3717C95.8823 17.4183 95.8025 17.4823 95.7312 17.5637C95.6599 17.6423 95.6086 17.7339 95.5772 17.8387V19.1958H95.1066V16.9136H95.5344V17.3717C95.5914 17.2699 95.6656 17.1826 95.7569 17.1099C95.851 17.0343 95.9565 16.9761 96.0734 16.9354C96.1903 16.8947 96.3144 16.8743 96.4455 16.8743Z" fill="white"/>
<path d="M80.3174 16.5383H79.8469V16.0103H80.3174V16.5383Z" fill="white"/>
<path d="M36.884 3.8137C37.2785 3.8137 37.646 3.8451 37.9867 3.90789C38.3318 3.97067 38.65 4.05813 38.9413 4.17025C39.2371 4.27788 39.5061 4.41021 39.7481 4.56718C39.9902 4.72415 40.212 4.89682 40.4137 5.08517L39.896 5.90585C39.8154 6.03591 39.71 6.11668 39.58 6.14808C39.4501 6.17498 39.3089 6.14134 39.1565 6.04716C39.0086 5.96195 38.8606 5.87674 38.7127 5.79153C38.5648 5.70632 38.399 5.63228 38.2153 5.5695C38.036 5.50671 37.832 5.45515 37.6034 5.41479C37.3793 5.37442 37.1193 5.35426 36.8235 5.35426C36.3439 5.35427 35.9092 5.43498 35.5192 5.59643C35.1338 5.75788 34.8044 5.98885 34.531 6.28932C34.2575 6.5898 34.0469 6.95085 33.899 7.37242C33.751 7.79399 33.6771 8.2649 33.6771 8.78514C33.6771 9.34125 33.7555 9.83906 33.9124 10.2786C34.0738 10.7136 34.2979 11.0836 34.5847 11.3886C34.8761 11.6891 35.2257 11.92 35.6335 12.0815C36.0414 12.2385 36.4963 12.3169 36.9983 12.3169C37.3569 12.3169 37.6774 12.2789 37.9598 12.2026C38.2421 12.1264 38.5178 12.0232 38.7867 11.8931V10.1306H37.5631C37.4466 10.1306 37.3547 10.0992 37.2874 10.0364C37.2247 9.96914 37.1933 9.88842 37.1933 9.79425V8.77167H40.4204V12.7071C39.9274 13.0704 39.4007 13.3373 38.8405 13.5077C38.2847 13.6736 37.6886 13.7566 37.0521 13.7566C36.2588 13.7566 35.5394 13.6332 34.894 13.3866C34.253 13.1399 33.704 12.7968 33.2468 12.3573C32.7941 11.9178 32.4445 11.393 32.198 10.7831C31.9515 10.1732 31.8282 9.50719 31.8282 8.78514C31.8282 8.05412 31.947 7.38365 32.1845 6.77371C32.4221 6.16377 32.7582 5.639 33.193 5.19949C33.6322 4.75998 34.1634 4.41916 34.7864 4.17698C35.4094 3.9348 36.1086 3.8137 36.884 3.8137Z" fill="white"/>
<path fill-rule="evenodd" clip-rule="evenodd" d="M55.0219 3.8137C55.5149 3.8137 55.9788 3.872 56.4136 3.98861C56.8483 4.10073 57.2472 4.26221 57.6103 4.473C57.9733 4.6793 58.2983 4.93267 58.5851 5.23315C58.8765 5.52915 59.123 5.86104 59.3247 6.2288C59.5263 6.59655 59.6788 6.99568 59.7819 7.42621C59.8894 7.85676 59.9432 8.30974 59.9432 8.78514C59.9432 9.49823 59.8244 10.1598 59.5869 10.7697C59.3538 11.3751 59.0221 11.8999 58.5919 12.3439C58.1616 12.7878 57.6439 13.1354 57.0388 13.3866C56.4337 13.6332 55.7614 13.7566 55.0219 13.7566C54.2868 13.7566 53.6167 13.6332 53.0116 13.3866C52.4065 13.1354 51.8866 12.7879 51.4518 12.3439C51.0215 11.8999 50.6876 11.3751 50.4501 10.7697C50.2125 10.1598 50.0937 9.49823 50.0937 8.78514C50.0937 8.07205 50.2125 7.41276 50.4501 6.80731C50.6876 6.19738 51.0215 5.67041 51.4518 5.22642C51.8866 4.78242 52.4065 4.43711 53.0116 4.19044C53.6167 3.9393 54.2868 3.8137 55.0219 3.8137ZM55.0219 5.35426C54.5468 5.35426 54.1187 5.43273 53.7377 5.58969C53.3612 5.74666 53.0385 5.97314 52.7696 6.26912C52.5051 6.56512 52.3012 6.92617 52.1578 7.35222C52.0143 7.7738 51.9426 8.25144 51.9426 8.78514C51.9426 9.31883 52.0143 9.79872 52.1578 10.2248C52.3012 10.6464 52.5051 11.0052 52.7696 11.3012C53.0385 11.5927 53.3612 11.8169 53.7377 11.9738C54.1187 12.1308 54.5468 12.2093 55.0219 12.2093C55.497 12.2093 55.9228 12.1308 56.2993 11.9738C56.6802 11.8169 57.0029 11.5927 57.2674 11.3012C57.5318 11.0052 57.7358 10.6464 57.8792 10.2248C58.0226 9.79872 58.0943 9.31883 58.0943 8.78514C58.0943 8.25144 58.0226 7.7738 57.8792 7.35222C57.7358 6.92617 57.5318 6.56512 57.2674 6.26912C57.0029 5.97314 56.6802 5.74666 56.2993 5.58969C55.9228 5.43273 55.497 5.35427 55.0219 5.35426Z" fill="white"/>
<path d="M78.1622 3.8137C78.7359 3.8137 79.2648 3.90341 79.7489 4.08279C80.2329 4.26218 80.6453 4.51331 80.986 4.83621L80.5355 5.69061C80.4817 5.78479 80.4234 5.85433 80.3607 5.89918C80.3024 5.93953 80.2284 5.9597 80.1388 5.9597C80.0447 5.9597 79.9416 5.92606 79.8295 5.85879C79.722 5.78704 79.592 5.70856 79.4396 5.62336C79.2872 5.53814 79.1079 5.46186 78.9018 5.39459C78.7001 5.32283 78.4603 5.28694 78.1824 5.28694C77.9314 5.28694 77.7118 5.31835 77.5235 5.38113C77.3353 5.43943 77.1761 5.52245 77.0462 5.63009C76.9207 5.73772 76.8265 5.86775 76.7638 6.02023C76.701 6.16823 76.6697 6.33196 76.6697 6.51135C76.6697 6.74007 76.7324 6.93066 76.8579 7.08313C76.9879 7.23562 77.1582 7.3657 77.3689 7.47334C77.5795 7.58097 77.8193 7.67742 78.0882 7.76263C78.3572 7.84784 78.6328 7.93972 78.9152 8.03839C79.1976 8.13257 79.4732 8.24474 79.7421 8.3748C80.0111 8.50037 80.2509 8.6618 80.4615 8.85913C80.6722 9.05197 80.8403 9.28967 80.9658 9.57222C81.0958 9.85476 81.1608 10.1979 81.1608 10.6015C81.1608 11.041 81.0846 11.4536 80.9322 11.8393C80.7843 12.2205 80.5646 12.5546 80.2733 12.8416C79.9864 13.1242 79.6346 13.3485 79.2178 13.5144C78.8009 13.6759 78.3236 13.7566 77.7857 13.7566C77.4765 13.7566 77.1717 13.7252 76.8714 13.6624C76.5711 13.6041 76.2819 13.5189 76.004 13.4068C75.7306 13.2946 75.4729 13.1601 75.2309 13.0031C74.9889 12.8461 74.7737 12.6712 74.5855 12.4784L75.1166 11.6106C75.1614 11.5478 75.2197 11.4962 75.2914 11.4559C75.3631 11.411 75.4393 11.3886 75.52 11.3886C75.6321 11.3886 75.7531 11.4357 75.8831 11.5299C76.0131 11.6195 76.1677 11.7205 76.3469 11.8326C76.5262 11.9447 76.7347 12.0478 76.9722 12.142C77.2142 12.2317 77.5034 12.2766 77.8395 12.2766C78.355 12.2766 78.7539 12.1555 79.0362 11.9133C79.3186 11.6667 79.4598 11.3146 79.4598 10.8572C79.4598 10.6015 79.3948 10.393 79.2648 10.2315C79.1393 10.0701 78.9712 9.93548 78.7606 9.82784C78.5499 9.71572 78.3101 9.62153 78.0412 9.54529C77.7722 9.46905 77.4989 9.38608 77.221 9.29639C76.9431 9.2067 76.6696 9.09908 76.4007 8.97351C76.1318 8.84793 75.892 8.6842 75.6814 8.48238C75.4707 8.28057 75.3004 8.02945 75.1704 7.72897C75.0449 7.424 74.9821 7.04952 74.9821 6.60554C74.9821 6.25124 75.0516 5.90586 75.1906 5.5695C75.334 5.23314 75.5402 4.93489 75.8091 4.67477C76.078 4.41466 76.4097 4.2061 76.8041 4.04913C77.1985 3.89217 77.6512 3.8137 78.1622 3.8137Z" fill="white"/>
<path fill-rule="evenodd" clip-rule="evenodd" d="M85.087 6.61894C85.4904 6.61894 85.8512 6.68623 86.1694 6.82077C86.4876 6.95083 86.7566 7.13472 86.9762 7.37242C87.1958 7.60563 87.3617 7.88591 87.4737 8.21329C87.5903 8.54068 87.6485 8.89949 87.6485 9.28966V13.6489H86.8955C86.7386 13.6489 86.6176 13.6265 86.5325 13.5817C86.4473 13.5323 86.3801 13.4359 86.3307 13.2924L86.1828 12.7946C86.0081 12.9515 85.8378 13.0906 85.6719 13.2117C85.5061 13.3283 85.3335 13.427 85.1542 13.5077C84.9749 13.5884 84.7822 13.649 84.576 13.6893C84.3743 13.7342 84.1502 13.7566 83.9037 13.7566C83.6124 13.7566 83.3434 13.7184 83.0969 13.6422C82.8504 13.5615 82.6375 13.4426 82.4582 13.2856C82.2789 13.1287 82.14 12.9336 82.0414 12.7004C81.9428 12.4672 81.8935 12.1958 81.8935 11.8864C81.8935 11.7115 81.9226 11.5388 81.9809 11.3684C82.0392 11.1935 82.1333 11.0276 82.2633 10.8706C82.3977 10.7137 82.5703 10.5656 82.7809 10.4266C82.9916 10.2876 83.2493 10.1665 83.5541 10.0633C83.8634 9.96019 84.2219 9.87717 84.6298 9.81438C85.0377 9.74711 85.5039 9.70679 86.0283 9.69333V9.28966C86.0283 8.82775 85.9296 8.4869 85.7324 8.26715C85.5352 8.04291 85.2506 7.9308 84.8786 7.9308C84.6096 7.9308 84.3855 7.9622 84.2062 8.02499C84.0314 8.08777 83.8768 8.1595 83.7424 8.24022C83.6079 8.31646 83.4846 8.386 83.3726 8.44879C83.265 8.51157 83.144 8.54297 83.0095 8.54297C82.893 8.54297 82.7944 8.51382 82.7137 8.45552C82.633 8.39273 82.568 8.32095 82.5187 8.24022L82.2229 7.70877C83.0163 6.98224 83.9709 6.61894 85.087 6.61894ZM86.0283 10.7024C85.5487 10.7248 85.1452 10.7674 84.8181 10.8302C84.4909 10.8885 84.2287 10.9647 84.0315 11.0589C83.8343 11.1531 83.6931 11.263 83.6079 11.3886C83.5227 11.5142 83.4802 11.6509 83.4802 11.7989C83.4802 12.0905 83.5653 12.299 83.7356 12.4246C83.9104 12.5501 84.1368 12.6129 84.4146 12.6129C84.7553 12.6129 85.0489 12.5524 85.2954 12.4313C85.5464 12.3057 85.7907 12.1173 86.0283 11.8662V10.7024Z" fill="white"/>
<path fill-rule="evenodd" clip-rule="evenodd" d="M91.9152 6.61894C92.3186 6.61894 92.6794 6.68623 92.9977 6.82077C93.3159 6.95083 93.5848 7.13473 93.8044 7.37242C94.024 7.60563 94.1899 7.88591 94.3019 8.21329C94.4185 8.54068 94.4768 8.89949 94.4768 9.28966V13.6489H93.7237C93.5669 13.6489 93.4459 13.6265 93.3607 13.5817C93.2756 13.5323 93.2083 13.4359 93.159 13.2924L93.0111 12.7946C92.8363 12.9516 92.666 13.0906 92.5001 13.2117C92.3343 13.3283 92.1617 13.427 91.9824 13.5077C91.8032 13.5884 91.6104 13.649 91.4043 13.6893C91.2026 13.7342 90.9785 13.7566 90.7319 13.7566C90.4406 13.7566 90.1716 13.7184 89.9251 13.6422C89.6786 13.5615 89.4658 13.4426 89.2865 13.2856C89.1072 13.1287 88.9682 12.9336 88.8696 12.7004C88.771 12.4672 88.7217 12.1958 88.7217 11.8864C88.7217 11.7115 88.7508 11.5388 88.8091 11.3684C88.8674 11.1935 88.9615 11.0276 89.0915 10.8706C89.226 10.7136 89.3985 10.5656 89.6092 10.4266C89.8198 10.2876 90.0776 10.1665 90.3823 10.0633C90.6916 9.96019 91.0502 9.87717 91.4581 9.81438C91.8659 9.74711 92.3321 9.70679 92.8565 9.69333V9.28966C92.8565 8.82774 92.7579 8.4869 92.5607 8.26715C92.3634 8.04291 92.0788 7.93081 91.7068 7.9308C91.4379 7.9308 91.2138 7.9622 91.0345 8.02499C90.8597 8.08777 90.705 8.15949 90.5706 8.24022C90.4361 8.31646 90.3128 8.386 90.2008 8.44879C90.0932 8.51156 89.9722 8.54297 89.8378 8.54297C89.7213 8.54297 89.6226 8.51381 89.542 8.45552C89.4613 8.39273 89.3963 8.32095 89.347 8.24022L89.0511 7.70877C89.8445 6.98224 90.7992 6.61894 91.9152 6.61894ZM92.8565 10.7024C92.3769 10.7248 91.9735 10.7674 91.6463 10.8302C91.3191 10.8885 91.0569 10.9647 90.8597 11.0589C90.6625 11.1531 90.5213 11.263 90.4361 11.3886C90.351 11.5142 90.3084 11.651 90.3084 11.7989C90.3084 12.0905 90.3935 12.299 90.5639 12.4246C90.7387 12.5502 90.965 12.6129 91.2429 12.6129C91.5835 12.6129 91.8771 12.5524 92.1236 12.4313C92.3746 12.3057 92.6189 12.1173 92.8565 11.8662V10.7024Z" fill="white"/>
<path d="M99.0015 3.8137C99.5752 3.8137 100.104 3.9034 100.588 4.08279C101.072 4.26218 101.485 4.51332 101.825 4.83621L101.375 5.69061C101.321 5.78478 101.263 5.85433 101.2 5.89918C101.142 5.93954 101.068 5.9597 100.978 5.9597C100.884 5.9597 100.781 5.92605 100.669 5.85879C100.561 5.78703 100.431 5.70856 100.279 5.62336C100.126 5.53814 99.9472 5.46186 99.741 5.39459C99.5393 5.32284 99.2995 5.28694 99.0217 5.28694C98.7707 5.28694 98.551 5.31834 98.3628 5.38113C98.1745 5.43943 98.0154 5.52245 97.8854 5.63009C97.7599 5.73772 97.6658 5.86775 97.603 6.02023C97.5403 6.16823 97.5089 6.33196 97.5089 6.51135C97.5089 6.74006 97.5717 6.93066 97.6971 7.08313C97.8271 7.23562 97.9975 7.3657 98.2081 7.47334C98.4188 7.58097 98.6586 7.67742 98.9275 7.76263C99.1964 7.84783 99.4721 7.93973 99.7544 8.03839C100.037 8.13257 100.312 8.24474 100.581 8.3748C100.85 8.50037 101.09 8.66181 101.301 8.85913C101.511 9.05197 101.68 9.28968 101.805 9.57222C101.935 9.85476 102 10.1979 102 10.6015C102 11.041 101.924 11.4536 101.771 11.8393C101.623 12.2205 101.404 12.5546 101.113 12.8416C100.826 13.1242 100.474 13.3485 100.057 13.5144C99.6402 13.6759 99.1628 13.7566 98.625 13.7566C98.3157 13.7566 98.0109 13.7252 97.7106 13.6624C97.4103 13.6041 97.1212 13.5189 96.8433 13.4068C96.5699 13.2946 96.3122 13.1601 96.0701 13.0031C95.8281 12.8461 95.613 12.6712 95.4248 12.4784L95.9558 11.6106C96.0007 11.5478 96.0589 11.4962 96.1306 11.4559C96.2024 11.411 96.2786 11.3886 96.3592 11.3886C96.4713 11.3886 96.5923 11.4357 96.7223 11.5299C96.8523 11.6195 97.007 11.7205 97.1862 11.8326C97.3655 11.9447 97.5739 12.0478 97.8114 12.142C98.0535 12.2317 98.3426 12.2766 98.6788 12.2766C99.1942 12.2766 99.5931 12.1555 99.8755 11.9133C100.158 11.6667 100.299 11.3146 100.299 10.8572C100.299 10.6015 100.234 10.393 100.104 10.2315C99.9786 10.0701 99.8105 9.93548 99.5998 9.82784C99.3892 9.71573 99.1494 9.62153 98.8805 9.54529C98.6115 9.46905 98.3381 9.38609 98.0602 9.29639C97.7823 9.2067 97.5089 9.09908 97.24 8.97351C96.9711 8.84793 96.7313 8.6842 96.5206 8.48238C96.31 8.28057 96.1396 8.02944 96.0096 7.72897C95.8841 7.424 95.8214 7.04952 95.8214 6.60554C95.8214 6.25124 95.8909 5.90586 96.0298 5.5695C96.1732 5.23314 96.3794 4.93489 96.6484 4.67477C96.9173 4.41466 97.2489 4.2061 97.6434 4.04913C98.0378 3.89216 98.4905 3.8137 99.0015 3.8137Z" fill="white"/>
<path fill-rule="evenodd" clip-rule="evenodd" d="M45.1278 3.92135C45.7867 3.92135 46.3515 3.99082 46.8221 4.12985C47.2972 4.2644 47.6849 4.45504 47.9852 4.7017C48.2899 4.94836 48.5141 5.24436 48.6575 5.58969C48.8009 5.93054 48.8727 6.30726 48.8727 6.71986C48.8727 7.04725 48.8233 7.35673 48.7247 7.64824C48.6306 7.93976 48.4917 8.20436 48.3079 8.44206C48.1286 8.67975 47.9045 8.8883 47.6355 9.06769C47.3711 9.24708 47.0686 9.38835 46.7279 9.4915C46.8445 9.55877 46.9521 9.63948 47.0507 9.73366C47.1493 9.82336 47.2389 9.93103 47.3196 10.0566L49.7534 13.6489H48.1196C47.8104 13.6489 47.5863 13.5278 47.4474 13.2856L45.4035 10.1709C45.3273 10.0543 45.2421 9.97136 45.148 9.92203C45.0584 9.8727 44.9239 9.84804 44.7446 9.84804H43.9714V13.6489H42.1629V3.92135H45.1278ZM43.9714 8.54971H45.1009C45.4416 8.54971 45.7374 8.50707 45.9884 8.42186C46.2439 8.33665 46.4523 8.22005 46.6136 8.07205C46.7795 7.91956 46.9028 7.74017 46.9834 7.53386C47.0641 7.32757 47.1045 7.10109 47.1045 6.85443C47.1045 6.36111 46.9408 5.98215 46.6136 5.71754C46.2909 5.45294 45.7957 5.3206 45.1278 5.3206H43.9714V8.54971Z" fill="white"/>
<path d="M61.879 3.92135C62.0359 3.92135 62.1659 3.95944 62.269 4.03567C62.3766 4.10742 62.4483 4.20612 62.4841 4.33169L64.138 10.1508C64.1739 10.2943 64.2075 10.4512 64.2389 10.6217C64.2747 10.7876 64.3106 10.9625 64.3465 11.1464C64.3823 10.958 64.4204 10.7809 64.4608 10.6149C64.5056 10.449 64.5527 10.2943 64.602 10.1508L66.5113 4.33169C66.5472 4.22854 66.6167 4.13434 66.7198 4.04913C66.8273 3.96393 66.9573 3.92135 67.1097 3.92135H67.6408C67.7977 3.92135 67.9254 3.95944 68.024 4.03567C68.1227 4.11191 68.1966 4.2106 68.2459 4.33169L70.1486 10.1508C70.2427 10.4288 70.3279 10.7495 70.4041 11.1128C70.4623 10.7585 70.5273 10.4378 70.5991 10.1508L72.253 4.33169C72.2798 4.21957 72.3471 4.12312 72.4547 4.0424C72.5667 3.96168 72.699 3.92135 72.8513 3.92135H74.2699L71.2512 13.6489H69.6174L67.493 7.00241C67.4347 6.84096 67.3809 6.64364 67.3316 6.41043C67.3047 6.52255 67.2778 6.62793 67.2509 6.72659C67.224 6.82525 67.1949 6.9172 67.1635 7.00241L65.0188 13.6489H63.3784L60.3663 3.92135H61.879Z" fill="white"/>
</svg>
