<svg width="99" height="24" viewBox="0 0 99 24" fill="none" xmlns="http://www.w3.org/2000/svg">
<path d="M23.0632 10.0518L13.8701 0.80698C12.8002 -0.268994 11.0655 -0.268993 9.99551 0.806981L0.802463 10.0518C-0.267488 11.1278 -0.267487 12.8723 0.802464 13.9482L9.99551 23.193C11.0655 24.269 12.8002 24.269 13.8701 23.193L23.0632 13.9482C24.1332 12.8722 24.1331 11.1277 23.0632 10.0518Z" fill="#1A2735"/>
<path d="M13.4842 11.9055H11.3804C10.924 11.9055 10.677 12.4519 10.9729 12.8071L13.786 16.1836C13.8877 16.3057 14.0367 16.376 14.1935 16.376H16.2973C16.7537 16.376 17.0007 15.8296 16.7048 15.4744L13.8917 12.0979C13.79 11.9758 13.6411 11.9055 13.4842 11.9055Z" fill="#FFBF14"/>
<path d="M16.3736 8.09387C15.9692 7.62153 15.385 7.35059 14.7709 7.35059H8.12582C7.4663 7.35059 6.93165 7.89701 6.93165 8.57105C6.93165 9.24508 7.4663 9.7915 8.12582 9.7915H13.4415C13.8878 9.7915 14.3151 9.97666 14.6254 10.3046L14.8298 10.5206C15.3669 11.0882 16.2578 11.0868 16.7931 10.5174C17.2833 9.99608 17.302 9.17826 16.8361 8.63415L16.3736 8.09387Z" fill="#C4C7CA"/>
<path d="M6.89931 13.2307C6.89931 12.551 7.43846 12 8.10353 12C8.76859 12 9.30774 12.551 9.30774 13.2307V15.4187C9.30774 16.0984 8.76859 16.6494 8.10353 16.6494C7.43846 16.6494 6.89931 16.0984 6.89931 15.4187V13.2307Z" fill="#00A5AA"/>
<path d="M31.0254 17.0909C30.9193 17.0909 30.8325 17.057 30.765 16.9891C30.6975 16.9212 30.6638 16.8339 30.6638 16.7273V7.27273C30.6638 7.16606 30.6975 7.07879 30.765 7.01091C30.8325 6.94303 30.9193 6.90909 31.0254 6.90909H34.9596C36.2035 6.90909 37.1822 7.2 37.8958 7.78182C38.619 8.35394 38.9806 9.16848 38.9806 10.2255C38.9806 10.9139 38.8118 11.4958 38.4743 11.9709C38.1465 12.4461 37.7126 12.8048 37.1726 13.0473L39.1686 16.6255C39.1975 16.6836 39.212 16.737 39.212 16.7855C39.212 16.863 39.1783 16.9358 39.1108 17.0036C39.0529 17.0618 38.9806 17.0909 38.8938 17.0909H36.9845C36.8013 17.0909 36.6663 17.0473 36.5795 16.96C36.4928 16.863 36.4301 16.7758 36.3915 16.6982L34.7426 13.4982H33.2528V16.7273C33.2528 16.8339 33.2191 16.9212 33.1516 16.9891C33.0841 17.057 32.9973 17.0909 32.8912 17.0909H31.0254ZM33.2528 11.4473H34.9306C35.3839 11.4473 35.7213 11.3358 35.9431 11.1127C36.1746 10.8897 36.2903 10.5842 36.2903 10.1964C36.2903 9.81818 36.1794 9.51273 35.9576 9.28C35.7455 9.04727 35.4031 8.93091 34.9306 8.93091H33.2528V11.4473Z" fill="white"/>
<path d="M43.8632 17.2364C43.1496 17.2364 42.5181 17.1055 41.9684 16.8436C41.4188 16.5818 40.98 16.2036 40.6522 15.7091C40.334 15.2048 40.1604 14.6036 40.1315 13.9055C40.1218 13.7503 40.117 13.5564 40.117 13.3236C40.117 13.0812 40.1218 12.8824 40.1315 12.7273C40.1604 12.0194 40.334 11.4182 40.6522 10.9236C40.9704 10.4194 41.4043 10.0364 41.954 9.77454C42.5132 9.51273 43.1496 9.38182 43.8632 9.38182C44.5285 9.38182 45.0975 9.47879 45.57 9.67273C46.0425 9.85697 46.4282 10.0897 46.7271 10.3709C47.026 10.6521 47.2478 10.943 47.3924 11.2436C47.5467 11.5345 47.6287 11.7915 47.6383 12.0145C47.648 12.1115 47.6142 12.1988 47.5371 12.2764C47.4599 12.3442 47.3731 12.3782 47.2767 12.3782H45.4398C45.3337 12.3782 45.2518 12.3539 45.1939 12.3055C45.136 12.257 45.083 12.1842 45.0348 12.0873C44.9191 11.7867 44.7696 11.5733 44.5864 11.4473C44.4128 11.3212 44.1862 11.2582 43.9066 11.2582C43.5209 11.2582 43.222 11.3842 43.0098 11.6364C42.8073 11.8885 42.6964 12.2764 42.6772 12.8C42.6675 13.1879 42.6675 13.5321 42.6772 13.8327C42.6964 14.3661 42.8073 14.7539 43.0098 14.9964C43.222 15.2388 43.5209 15.36 43.9066 15.36C44.2055 15.36 44.4418 15.297 44.6153 15.1709C44.7889 15.0448 44.9287 14.8315 45.0348 14.5309C45.083 14.4339 45.136 14.3612 45.1939 14.3127C45.2518 14.2642 45.3337 14.24 45.4398 14.24H47.2767C47.3731 14.24 47.4599 14.2788 47.5371 14.3564C47.6142 14.4242 47.648 14.5067 47.6383 14.6036C47.6287 14.7685 47.5805 14.9624 47.4937 15.1855C47.4069 15.3988 47.2719 15.6267 47.0887 15.8691C46.9055 16.1115 46.6644 16.3394 46.3655 16.5527C46.0762 16.7564 45.7242 16.9212 45.3096 17.0473C44.895 17.1733 44.4128 17.2364 43.8632 17.2364Z" fill="white"/>
<path d="M52.496 17.2364C51.686 17.2364 51.0014 17.1055 50.4421 16.8436C49.8925 16.5818 49.4682 16.2085 49.1692 15.7236C48.88 15.2291 48.716 14.6424 48.6775 13.9636C48.6678 13.7697 48.663 13.5515 48.663 13.3091C48.663 13.057 48.6678 12.8388 48.6775 12.6545C48.716 11.9661 48.8896 11.3794 49.1982 10.8945C49.5067 10.4097 49.9358 10.0364 50.4855 9.77454C51.0448 9.51273 51.7149 9.38182 52.496 9.38182C53.2867 9.38182 53.9568 9.51273 54.5065 9.77454C55.0658 10.0364 55.4997 10.4097 55.8082 10.8945C56.1168 11.3794 56.2904 11.9661 56.3289 12.6545C56.3386 12.8388 56.3434 13.057 56.3434 13.3091C56.3434 13.5515 56.3386 13.7697 56.3289 13.9636C56.2904 14.6424 56.1216 15.2291 55.8227 15.7236C55.5334 16.2085 55.1091 16.5818 54.5499 16.8436C54.0002 17.1055 53.3156 17.2364 52.496 17.2364ZM52.496 15.4618C52.9299 15.4618 53.2433 15.3309 53.4361 15.0691C53.6386 14.8073 53.7543 14.4145 53.7833 13.8909C53.7929 13.7455 53.7977 13.5515 53.7977 13.3091C53.7977 13.0667 53.7929 12.8727 53.7833 12.7273C53.7543 12.2133 53.6386 11.8255 53.4361 11.5636C53.2433 11.2921 52.9299 11.1564 52.496 11.1564C52.0717 11.1564 51.7583 11.2921 51.5558 11.5636C51.3533 11.8255 51.2424 12.2133 51.2231 12.7273C51.2135 12.8727 51.2087 13.0667 51.2087 13.3091C51.2087 13.5515 51.2135 13.7455 51.2231 13.8909C51.2424 14.4145 51.3533 14.8073 51.5558 15.0691C51.7583 15.3309 52.0717 15.4618 52.496 15.4618Z" fill="white"/>
<path d="M58.1276 17.0909C58.0215 17.0909 57.9347 17.057 57.8672 16.9891C57.7997 16.9212 57.766 16.8339 57.766 16.7273V9.89091C57.766 9.78424 57.7997 9.69697 57.8672 9.62909C57.9347 9.56121 58.0215 9.52727 58.1276 9.52727H59.7909C59.897 9.52727 59.9838 9.56121 60.0513 9.62909C60.1188 9.69697 60.1525 9.78424 60.1525 9.89091V10.4436C60.4032 10.143 60.7311 9.89091 61.1361 9.68727C61.5411 9.48364 62.0184 9.38182 62.568 9.38182C63.1273 9.38182 63.6191 9.50788 64.0434 9.76C64.4773 10.0121 64.8148 10.3855 65.0558 10.88C65.3066 11.3648 65.4319 11.9612 65.4319 12.6691V16.7273C65.4319 16.8339 65.3933 16.9212 65.3162 16.9891C65.2487 17.057 65.1667 17.0909 65.0703 17.0909H63.2478C63.1514 17.0909 63.0646 17.057 62.9875 16.9891C62.92 16.9212 62.8862 16.8339 62.8862 16.7273V12.7564C62.8862 12.3006 62.7754 11.9515 62.5536 11.7091C62.3414 11.457 62.0232 11.3309 61.5989 11.3309C61.2036 11.3309 60.8854 11.457 60.6443 11.7091C60.4129 11.9515 60.2972 12.3006 60.2972 12.7564V16.7273C60.2972 16.8339 60.2586 16.9212 60.1815 16.9891C60.114 17.057 60.032 17.0909 59.9356 17.0909H58.1276Z" fill="white"/>
<path d="M67.4077 17.0909C67.3017 17.0909 67.2149 17.057 67.1474 16.9891C67.0799 16.9212 67.0461 16.8339 67.0461 16.7273V9.89091C67.0461 9.78424 67.0799 9.69697 67.1474 9.62909C67.2149 9.56121 67.3017 9.52727 67.4077 9.52727H69.0711C69.1772 9.52727 69.2639 9.56121 69.3314 9.62909C69.3989 9.69697 69.4327 9.78424 69.4327 9.89091V10.4436C69.6834 10.143 70.0113 9.89091 70.4162 9.68727C70.8212 9.48364 71.2985 9.38182 71.8482 9.38182C72.4075 9.38182 72.8992 9.50788 73.3235 9.76C73.7574 10.0121 74.0949 10.3855 74.336 10.88C74.5867 11.3648 74.7121 11.9612 74.7121 12.6691V16.7273C74.7121 16.8339 74.6735 16.9212 74.5964 16.9891C74.5288 17.057 74.4469 17.0909 74.3505 17.0909H72.528C72.4316 17.0909 72.3448 17.057 72.2676 16.9891C72.2001 16.9212 72.1664 16.8339 72.1664 16.7273V12.7564C72.1664 12.3006 72.0555 11.9515 71.8337 11.7091C71.6216 11.457 71.3034 11.3309 70.8791 11.3309C70.4837 11.3309 70.1655 11.457 69.9245 11.7091C69.693 11.9515 69.5773 12.3006 69.5773 12.7564V16.7273C69.5773 16.8339 69.5387 16.9212 69.4616 16.9891C69.3941 17.057 69.3121 17.0909 69.2157 17.0909H67.4077Z" fill="white"/>
<path d="M79.7976 17.2364C78.6598 17.2364 77.7534 16.9261 77.0784 16.3055C76.4034 15.6848 76.0515 14.7636 76.0225 13.5418C76.0225 13.4739 76.0225 13.3867 76.0225 13.28C76.0225 13.1733 76.0225 13.0909 76.0225 13.0327C76.0515 12.2667 76.2202 11.6121 76.5288 11.0691C76.847 10.5164 77.2809 10.0994 77.8305 9.81818C78.3898 9.52727 79.0407 9.38182 79.7832 9.38182C80.6317 9.38182 81.3308 9.55151 81.8805 9.89091C82.4397 10.2303 82.8592 10.6909 83.1388 11.2727C83.4185 11.8545 83.5583 12.5188 83.5583 13.2655V13.6145C83.5583 13.7212 83.5197 13.8085 83.4426 13.8764C83.3751 13.9442 83.2931 13.9782 83.1967 13.9782H78.5682C78.5682 13.9879 78.5682 14.0024 78.5682 14.0218C78.5682 14.0412 78.5682 14.0606 78.5682 14.08C78.5778 14.3612 78.6261 14.6182 78.7128 14.8509C78.7996 15.0836 78.9346 15.2679 79.1178 15.4036C79.301 15.5394 79.5228 15.6073 79.7832 15.6073C79.976 15.6073 80.1351 15.5782 80.2605 15.52C80.3955 15.4521 80.5064 15.3794 80.5932 15.3018C80.6799 15.2145 80.7474 15.1418 80.7957 15.0836C80.8824 14.9867 80.9499 14.9285 80.9981 14.9091C81.056 14.88 81.1428 14.8655 81.2585 14.8655H83.052C83.1485 14.8655 83.2256 14.8945 83.2835 14.9527C83.351 15.0012 83.3799 15.0739 83.3702 15.1709C83.3606 15.3358 83.2786 15.5345 83.1244 15.7673C82.9701 16 82.7435 16.2327 82.4445 16.4655C82.1553 16.6885 81.7889 16.8727 81.3453 17.0182C80.9017 17.1636 80.3858 17.2364 79.7976 17.2364ZM78.5682 12.5382H81.0126V12.5091C81.0126 12.1988 80.9644 11.9273 80.868 11.6945C80.7812 11.4618 80.6414 11.2824 80.4485 11.1564C80.2653 11.0303 80.0435 10.9673 79.7832 10.9673C79.5228 10.9673 79.301 11.0303 79.1178 11.1564C78.9443 11.2824 78.8093 11.4618 78.7128 11.6945C78.6164 11.9273 78.5682 12.1988 78.5682 12.5091V12.5382Z" fill="white"/>
<path d="M88.3712 17.2364C87.6576 17.2364 87.026 17.1055 86.4764 16.8436C85.9268 16.5818 85.488 16.2036 85.1602 15.7091C84.842 15.2048 84.6684 14.6036 84.6395 13.9055C84.6298 13.7503 84.625 13.5564 84.625 13.3236C84.625 13.0812 84.6298 12.8824 84.6395 12.7273C84.6684 12.0194 84.842 11.4182 85.1602 10.9236C85.4784 10.4194 85.9123 10.0364 86.4619 9.77454C87.0212 9.51273 87.6576 9.38182 88.3712 9.38182C89.0365 9.38182 89.6055 9.47879 90.078 9.67273C90.5504 9.85697 90.9361 10.0897 91.2351 10.3709C91.534 10.6521 91.7558 10.943 91.9004 11.2436C92.0547 11.5345 92.1367 11.7915 92.1463 12.0145C92.156 12.1115 92.1222 12.1988 92.0451 12.2764C91.9679 12.3442 91.8811 12.3782 91.7847 12.3782H89.9478C89.8417 12.3782 89.7597 12.3539 89.7019 12.3055C89.644 12.257 89.591 12.1842 89.5428 12.0873C89.4271 11.7867 89.2776 11.5733 89.0944 11.4473C88.9208 11.3212 88.6942 11.2582 88.4146 11.2582C88.0289 11.2582 87.73 11.3842 87.5178 11.6364C87.3153 11.8885 87.2044 12.2764 87.1851 12.8C87.1755 13.1879 87.1755 13.5321 87.1851 13.8327C87.2044 14.3661 87.3153 14.7539 87.5178 14.9964C87.73 15.2388 88.0289 15.36 88.4146 15.36C88.7135 15.36 88.9498 15.297 89.1233 15.1709C89.2969 15.0448 89.4367 14.8315 89.5428 14.5309C89.591 14.4339 89.644 14.3612 89.7019 14.3127C89.7597 14.2642 89.8417 14.24 89.9478 14.24H91.7847C91.8811 14.24 91.9679 14.2788 92.0451 14.3564C92.1222 14.4242 92.156 14.5067 92.1463 14.6036C92.1367 14.7685 92.0885 14.9624 92.0017 15.1855C91.9149 15.3988 91.7799 15.6267 91.5967 15.8691C91.4135 16.1115 91.1724 16.3394 90.8735 16.5527C90.5842 16.7564 90.2322 16.9212 89.8176 17.0473C89.403 17.1733 88.9208 17.2364 88.3712 17.2364Z" fill="white"/>
<path d="M97.2932 17.0909C96.6761 17.0909 96.1409 16.9939 95.6877 16.8C95.2442 16.5964 94.9019 16.2861 94.6608 15.8691C94.4197 15.4424 94.2992 14.8945 94.2992 14.2255V11.4327H93.171C93.0649 11.4327 92.9733 11.3988 92.8962 11.3309C92.8287 11.263 92.7949 11.1758 92.7949 11.0691V9.89091C92.7949 9.78424 92.8287 9.69697 92.8962 9.62909C92.9733 9.56121 93.0649 9.52727 93.171 9.52727H94.2992V7.12727C94.2992 7.02061 94.3329 6.93333 94.4004 6.86545C94.4776 6.79757 94.5644 6.76364 94.6608 6.76364H96.3386C96.4447 6.76364 96.5315 6.79757 96.599 6.86545C96.6665 6.93333 96.7002 7.02061 96.7002 7.12727V9.52727H98.5082C98.6143 9.52727 98.7011 9.56121 98.7686 9.62909C98.8361 9.69697 98.8698 9.78424 98.8698 9.89091V11.0691C98.8698 11.1758 98.8361 11.263 98.7686 11.3309C98.7011 11.3988 98.6143 11.4327 98.5082 11.4327H96.7002V14.0218C96.7002 14.3515 96.7629 14.6133 96.8883 14.8073C97.0136 15.0012 97.2258 15.0982 97.5247 15.0982H98.6384C98.7445 15.0982 98.8313 15.1321 98.8988 15.2C98.9663 15.2679 99 15.3552 99 15.4618V16.7273C99 16.8339 98.9663 16.9212 98.8988 16.9891C98.8313 17.057 98.7445 17.0909 98.6384 17.0909H97.2932Z" fill="white"/>
</svg>
