<svg width="2909" height="2909" viewBox="0 0 2909 2909" fill="none" xmlns="http://www.w3.org/2000/svg">
<path d="M2801 794.8L2891.5 560.5L2887.6 546L1992.5 781.8C2087.9 643.7 2055.1 533 2055.1 533C2055.1 533 1769.3 715.6 1553.1 710.7C1336.9 705.9 1267.3 648.2 935.8 753.9C604.3 859.6 510.7 1183.9 414.6 1253.6C318.5 1323.3 17 1550.3 17 1550.3L17.7 1554.4L289.5 1467.9C289.5 1467.9 215 1538.2 56.6 1751.6C56.6 1751.6 53.8 1749.1 49.2 1744.7L49.4 1746.2C49.4 1746.2 176.7 1940.8 301.6 1904.7C314.1 1901.1 328.3 1895.1 343.8 1887.2C394.1 1915.2 459.7 1942.8 532.2 1950.3C532.2 1950.3 483.1 1893.3 442.2 1828.4C453.3 1821.3 464.6 1813.9 476.1 1806.4L470.8 1810.2L574.3 1848.2L562.9 1750.9C563.2 1750.7 563.6 1750.5 563.9 1750.3L665.6 1787.6L652.9 1699.1C665.8 1692.4 678.7 1686 691.5 1680L797.5 1278.9L1235.9 979.8L1201.1 1067.5C1112.4 1286 945.4 1337.7 945.4 1337.7L875.7 1364.1C823.9 1425.3 802.1 1440.4 784.3 1646C826.1 1635.5 866 1633 902.1 1642.7C1089.5 1693.1 1154.3 1918.9 1103.9 1981.4C1091.3 1997 1061.2 2023.8 1023.2 2055.1H947.2L946.2 2116.7C943.6 2118.7 941 2120.8 938.4 2122.8H861.1L860.1 2182.9C853.2 2188.1 846.5 2193.2 839.8 2198.2C767.1 2199.7 675.1 2136.3 675.1 2136.3C675.1 2193.9 723.1 2282.8 723.1 2282.8C723.1 2282.8 726.2 2281.3 731.6 2278.7C726.9 2282.1 724.3 2284 724.3 2284C724.3 2284 918.9 2413.7 1041.4 2365.7C1150.3 2323 1432.3 2100.6 1675.7 1995.4L2412.3 1801.3L2509.4 1549.7L1948.1 1697.6V1471.6L2606.7 1298.1L2703.8 1046.5L1948.2 1245.6V1019.6L2801 794.8ZM1464.1 1273.9L1638.9 1227.8L1641.2 1236.5L1586.7 1377.8L1405.5 1425.5L1464.1 1273.9ZM1524.5 1576.2L1343.3 1623.9L1401.9 1472.2L1576.7 1426.1L1579 1434.8L1524.5 1576.2ZM1760.5 1525.5L1579.3 1573.2L1637.9 1421.5L1812.7 1375.4L1815 1384.1L1760.5 1525.5Z" fill="white"/>
</svg>
