<svg width="387" height="129" viewBox="0 0 387 129" fill="none" xmlns="http://www.w3.org/2000/svg">
<path d="M0 25.6941C0 11.5036 11.5036 0 25.6941 0H102.776C116.967 0 128.471 11.5036 128.471 25.6941V102.776C128.471 116.967 116.967 128.471 102.776 128.471H25.6941C11.5036 128.471 0 116.967 0 102.776V25.6941Z" fill="#000000"/>
<path  fillRule="evenodd"  clipRule="evenodd" d="M28.7101 14.2437H99.7647C107.741 14.2437 114.207 20.6752 114.207 28.609V99.8606C114.207 107.794 107.741 114.226 99.7647 114.226H28.7101C20.734 114.226 14.2681 107.794 14.2681 99.8606V28.609C14.2681 20.6752 20.734 14.2437 28.7101 14.2437ZM28.7101 18.266C22.9673 18.266 18.3118 22.8967 18.3118 28.609V99.8606C18.3118 105.573 22.9673 110.204 28.7101 110.204H99.7647C105.508 110.204 110.163 105.573 110.163 99.8606V28.609C110.163 22.8967 105.508 18.266 99.7647 18.266H28.7101Z" fill="#FFFFFF"/>
<path  fillRule="evenodd"  clipRule="evenodd" d="M28.7101 12.8465H99.7647C108.538 12.8465 115.626 19.917 115.626 28.609V99.8606C115.626 108.553 108.538 115.623 99.7647 115.623H28.7101C19.9368 115.623 12.8492 108.553 12.8492 99.8606V28.609C12.8492 19.917 19.9368 12.8465 28.7101 12.8465ZM28.7101 19.6631C23.7644 19.6631 19.7307 23.655 19.7307 28.609V99.8606C19.7307 104.815 23.7644 108.806 28.7101 108.806H99.7647C104.71 108.806 108.744 104.815 108.744 99.8606V28.609C108.744 23.655 104.71 19.6631 99.7647 19.6631H28.7101ZM99.7647 14.2437H28.7101C20.734 14.2437 14.2681 20.6752 14.2681 28.609V99.8606C14.2681 107.794 20.734 114.226 28.7101 114.226H99.7647C107.741 114.226 114.207 107.794 114.207 99.8606V28.609C114.207 20.6752 107.741 14.2437 99.7647 14.2437ZM18.3118 28.609C18.3118 22.8967 22.9673 18.266 28.7101 18.266H99.7647C105.508 18.266 110.163 22.8967 110.163 28.609V99.8606C110.163 105.573 105.508 110.204 99.7647 110.204H28.7101C22.9673 110.204 18.3118 105.573 18.3118 99.8606V28.609Z" fill="#FFFFFF"/>
<path d="M63.6669 96.3246C64.6094 94.4417 65.0807 92.0944 65.0807 89.2827V39.7634C65.0807 37.8554 65.3864 36.2487 65.9978 34.9432C66.6091 33.6127 67.5007 32.5959 68.6725 31.893C69.8443 31.1901 71.2581 30.8386 72.9139 30.8386C73.8055 30.8386 74.557 30.8763 75.1684 30.9516C76.1127 31.0679 77.0662 30.4905 77.2234 29.5513L77.2704 29.2709C77.4226 28.3613 76.8715 27.4697 75.9654 27.3024C75.6233 27.2393 75.2812 27.1879 74.9391 27.1482C74.073 27.0227 73.2069 26.9599 72.3408 26.9599C69.8953 26.9599 67.7809 27.4494 65.9978 28.4285C64.2401 29.4076 62.8772 30.8512 61.9092 32.7591C60.9667 34.642 60.4954 36.9767 60.4954 39.7634V89.2827C60.4954 91.2408 60.2024 92.8726 59.6166 94.1781C59.0307 95.5087 58.19 96.5003 57.0946 97.153C56.0247 97.8308 54.7001 98.1698 53.1207 98.1698C52.5603 98.1698 51.9489 98.107 51.2866 97.9815C50.4537 97.8236 49.5949 98.3598 49.4562 99.1969L49.3662 99.7403C49.2176 100.637 49.7369 101.525 50.6217 101.73C50.8329 101.779 51.0418 101.822 51.2484 101.86C51.9362 101.986 52.6749 102.048 53.4646 102.048C55.9101 102.048 57.9862 101.571 59.693 100.617C61.4252 99.6635 62.7498 98.2325 63.6669 96.3246Z" fill="#15D465"/>
<path  fillRule="evenodd"  clipRule="evenodd" d="M19.7307 28.609C19.7307 23.655 23.7644 19.6631 28.7101 19.6631H99.7647C104.71 19.6631 108.744 23.655 108.744 28.609V99.8606C108.744 104.815 104.71 108.806 99.7647 108.806H28.7101C23.7644 108.806 19.7307 104.815 19.7307 99.8606V28.609ZM65.0807 89.2827C65.0807 92.0944 64.6094 94.4417 63.6669 96.3246C62.7498 98.2325 61.4252 99.6635 59.693 100.617C57.9862 101.571 55.9101 102.048 53.4646 102.048C52.6749 102.048 51.9362 101.986 51.2484 101.86C51.0418 101.822 50.8329 101.779 50.6217 101.73C49.7369 101.525 49.2176 100.637 49.3662 99.7403L49.4562 99.1969C49.5949 98.3598 50.4537 97.8236 51.2866 97.9815C51.9489 98.107 52.5603 98.1698 53.1207 98.1698C54.7001 98.1698 56.0247 97.8308 57.0946 97.153C58.19 96.5003 59.0307 95.5087 59.6166 94.1781C60.2024 92.8726 60.4954 91.2408 60.4954 89.2827V39.7634C60.4954 36.9767 60.9667 34.642 61.9092 32.7591C62.8772 30.8512 64.2401 29.4076 65.9978 28.4285C67.7809 27.4494 69.8953 26.9599 72.3408 26.9599C73.2069 26.9599 74.073 27.0227 74.9391 27.1482C75.2812 27.1879 75.6233 27.2393 75.9654 27.3024C76.8715 27.4697 77.4226 28.3613 77.2704 29.2709L77.2234 29.5513C77.0662 30.4905 76.1127 31.0679 75.1684 30.9516C74.557 30.8763 73.8055 30.8386 72.9139 30.8386C71.2581 30.8386 69.8443 31.1901 68.6725 31.893C67.5007 32.5959 66.6091 33.6127 65.9978 34.9432C65.3864 36.2487 65.0807 37.8554 65.0807 39.7634V89.2827Z" fill="current"/>
<path  fillRule="evenodd"  clipRule="evenodd" d="M199.897 40.0623C201.457 40.0623 202.722 41.2648 202.722 42.7482V61.5494H222.498C224.059 61.5494 225.324 62.7519 225.324 64.2353C225.324 65.7187 224.059 66.9212 222.498 66.9212H202.722V85.7224C202.722 87.2058 201.457 88.4083 199.897 88.4083C198.337 88.4083 197.072 87.2058 197.072 85.7224V66.9212H177.296C175.735 66.9212 174.471 65.7187 174.471 64.2353C174.471 62.7519 175.735 61.5494 177.296 61.5494H197.072V42.7482C197.072 41.2648 198.337 40.0623 199.897 40.0623Z" fill="white"/>
<g  clipPath="url(#clip0_1200_14262)">
<mask id="mask0_1200_14262" style="mask-type:luminance" maskUnits="userSpaceOnUse" x="263" y="0" width="124" height="129">
<path d="M386.882 0H263V128.47H386.882V0Z" fill="white"/>
</mask>
<g mask="url(#mask0_1200_14262)">
<path d="M384.922 43.7446C388.597 32.23 386.389 9.23222 379.259 0.74685C378.328 -0.363385 376.577 -0.20478 375.804 1.01648L367.018 14.8786C364.841 17.6542 360.929 18.2886 357.995 16.3536C348.467 10.0887 337.078 6.44076 324.837 6.44076C312.596 6.44076 301.207 10.0887 291.679 16.3536C288.745 18.2886 284.833 17.6383 282.656 14.8786L273.87 1.01648C273.097 -0.20478 271.346 -0.363385 270.415 0.74685C263.285 9.23222 261.077 32.23 264.752 43.7446C265.967 47.567 266.314 51.6114 265.588 55.5608C264.879 59.4624 264.153 64.1887 264.153 67.456C264.153 101.144 291.332 128.471 324.837 128.471C358.358 128.471 385.521 101.16 385.521 67.456C385.521 64.173 384.812 59.4624 384.086 55.5608C383.36 51.6114 383.707 47.567 384.922 43.7446ZM324.837 114.831C298.936 114.831 277.861 93.6417 277.861 67.5989C277.861 66.7424 277.893 65.9017 277.924 65.0611C278.87 47.3133 289.581 32.1347 304.756 24.9023C310.845 21.9841 317.66 20.3663 324.837 20.3663C332.015 20.3663 338.829 22 344.934 24.9182C360.109 32.1506 370.82 47.329 371.766 65.0611C371.813 65.9017 371.829 66.7424 371.829 67.5989C371.813 93.6417 350.739 114.831 324.837 114.831Z" fill="white"/>
<path d="M345.186 85.7749L333.182 64.8549L322.881 47.4082C322.645 46.9959 322.203 46.7422 321.714 46.7422H311.871C311.382 46.7422 310.94 47.0118 310.703 47.4241C310.467 47.8524 310.467 48.3757 310.719 48.7882L320.562 65.4418L307.344 85.7114C307.075 86.1237 307.044 86.663 307.281 87.1072C307.517 87.5513 307.975 87.8209 308.464 87.8209H318.37C318.827 87.8209 319.253 87.583 319.506 87.2023L326.651 75.9731L333.056 87.1388C333.292 87.567 333.75 87.8209 334.223 87.8209H343.988C344.477 87.8209 344.918 87.567 345.155 87.1388C345.439 86.7106 345.439 86.2031 345.186 85.7749Z" fill="white"/>
</g>
</g>
<defs>
<clipPath id="clip0_1200_14262">
<rect width="123.882" height="128.47" fill="white" transform="translate(263)"/>
</clipPath>
</defs>
</svg>
