<svg width="423" height="129" viewBox="0 0 423 129" fill="none" xmlns="http://www.w3.org/2000/svg">
<path d="M0 25.6941C0 11.5036 11.5036 0 25.6941 0H102.776C116.967 0 128.471 11.5036 128.471 25.6941V102.776C128.471 116.967 116.967 128.471 102.776 128.471H25.6941C11.5036 128.471 0 116.967 0 102.776V25.6941Z" fill="#000000"/>
<path  fillRule="evenodd"  clipRule="evenodd" d="M28.7101 14.2437H99.7647C107.741 14.2437 114.207 20.6752 114.207 28.609V99.8606C114.207 107.794 107.741 114.226 99.7647 114.226H28.7101C20.734 114.226 14.2681 107.794 14.2681 99.8606V28.609C14.2681 20.6752 20.734 14.2437 28.7101 14.2437ZM28.7101 18.266C22.9673 18.266 18.3118 22.8967 18.3118 28.609V99.8606C18.3118 105.573 22.9673 110.204 28.7101 110.204H99.7647C105.508 110.204 110.163 105.573 110.163 99.8606V28.609C110.163 22.8967 105.508 18.266 99.7647 18.266H28.7101Z" fill="#FFFFFF"/>
<path  fillRule="evenodd"  clipRule="evenodd" d="M28.7101 12.8465H99.7647C108.538 12.8465 115.626 19.917 115.626 28.609V99.8606C115.626 108.553 108.538 115.623 99.7647 115.623H28.7101C19.9368 115.623 12.8492 108.553 12.8492 99.8606V28.609C12.8492 19.917 19.9368 12.8465 28.7101 12.8465ZM28.7101 19.6631C23.7644 19.6631 19.7307 23.655 19.7307 28.609V99.8606C19.7307 104.815 23.7644 108.806 28.7101 108.806H99.7647C104.71 108.806 108.744 104.815 108.744 99.8606V28.609C108.744 23.655 104.71 19.6631 99.7647 19.6631H28.7101ZM99.7647 14.2437H28.7101C20.734 14.2437 14.2681 20.6752 14.2681 28.609V99.8606C14.2681 107.794 20.734 114.226 28.7101 114.226H99.7647C107.741 114.226 114.207 107.794 114.207 99.8606V28.609C114.207 20.6752 107.741 14.2437 99.7647 14.2437ZM18.3118 28.609C18.3118 22.8967 22.9673 18.266 28.7101 18.266H99.7647C105.508 18.266 110.163 22.8967 110.163 28.609V99.8606C110.163 105.573 105.508 110.204 99.7647 110.204H28.7101C22.9673 110.204 18.3118 105.573 18.3118 99.8606V28.609Z" fill="#FFFFFF"/>
<path d="M63.6669 96.3246C64.6094 94.4417 65.0807 92.0944 65.0807 89.2827V39.7634C65.0807 37.8554 65.3864 36.2487 65.9978 34.9432C66.6091 33.6127 67.5007 32.5959 68.6725 31.893C69.8443 31.1901 71.2581 30.8386 72.9139 30.8386C73.8055 30.8386 74.557 30.8763 75.1684 30.9516C76.1127 31.0679 77.0662 30.4905 77.2234 29.5513L77.2704 29.2709C77.4226 28.3613 76.8715 27.4697 75.9654 27.3024C75.6233 27.2393 75.2812 27.1879 74.9391 27.1482C74.073 27.0227 73.2069 26.9599 72.3408 26.9599C69.8953 26.9599 67.7809 27.4494 65.9978 28.4285C64.2401 29.4076 62.8772 30.8512 61.9092 32.7591C60.9667 34.642 60.4954 36.9767 60.4954 39.7634V89.2827C60.4954 91.2408 60.2024 92.8726 59.6166 94.1781C59.0307 95.5087 58.19 96.5003 57.0946 97.153C56.0247 97.8308 54.7001 98.1698 53.1207 98.1698C52.5603 98.1698 51.9489 98.107 51.2866 97.9815C50.4537 97.8236 49.5949 98.3598 49.4562 99.1969L49.3662 99.7403C49.2176 100.637 49.7369 101.525 50.6217 101.73C50.8329 101.779 51.0418 101.822 51.2484 101.86C51.9362 101.986 52.6749 102.048 53.4646 102.048C55.9101 102.048 57.9862 101.571 59.693 100.617C61.4252 99.6635 62.7498 98.2325 63.6669 96.3246Z" fill="#15D465"/>
<path  fillRule="evenodd"  clipRule="evenodd" d="M19.7307 28.609C19.7307 23.655 23.7644 19.6631 28.7101 19.6631H99.7647C104.71 19.6631 108.744 23.655 108.744 28.609V99.8606C108.744 104.815 104.71 108.806 99.7647 108.806H28.7101C23.7644 108.806 19.7307 104.815 19.7307 99.8606V28.609ZM65.0807 89.2827C65.0807 92.0944 64.6094 94.4417 63.6669 96.3246C62.7498 98.2325 61.4252 99.6635 59.693 100.617C57.9862 101.571 55.9101 102.048 53.4646 102.048C52.6749 102.048 51.9362 101.986 51.2484 101.86C51.0418 101.822 50.8329 101.779 50.6217 101.73C49.7369 101.525 49.2176 100.637 49.3662 99.7403L49.4562 99.1969C49.5949 98.3598 50.4537 97.8236 51.2866 97.9815C51.9489 98.107 52.5603 98.1698 53.1207 98.1698C54.7001 98.1698 56.0247 97.8308 57.0946 97.153C58.19 96.5003 59.0307 95.5087 59.6166 94.1781C60.2024 92.8726 60.4954 91.2408 60.4954 89.2827V39.7634C60.4954 36.9767 60.9667 34.642 61.9092 32.7591C62.8772 30.8512 64.2401 29.4076 65.9978 28.4285C67.7809 27.4494 69.8953 26.9599 72.3408 26.9599C73.2069 26.9599 74.073 27.0227 74.9391 27.1482C75.2812 27.1879 75.6233 27.2393 75.9654 27.3024C76.8715 27.4697 77.4226 28.3613 77.2704 29.2709L77.2234 29.5513C77.0662 30.4905 76.1127 31.0679 75.1684 30.9516C74.557 30.8763 73.8055 30.8386 72.9139 30.8386C71.2581 30.8386 69.8443 31.1901 68.6725 31.893C67.5007 32.5959 66.6091 33.6127 65.9978 34.9432C65.3864 36.2487 65.0807 37.8554 65.0807 39.7634V89.2827Z" fill="current"/>
<path  fillRule="evenodd"  clipRule="evenodd" d="M199.897 40.0623C201.457 40.0623 202.722 41.2648 202.722 42.7482V61.5494H222.498C224.059 61.5494 225.324 62.7519 225.324 64.2353C225.324 65.7187 224.059 66.9212 222.498 66.9212H202.722V85.7224C202.722 87.2058 201.457 88.4083 199.897 88.4083C198.337 88.4083 197.072 87.2058 197.072 85.7224V66.9212H177.296C175.735 66.9212 174.471 65.7187 174.471 64.2353C174.471 62.7519 175.735 61.5494 177.296 61.5494H197.072V42.7482C197.072 41.2648 198.337 40.0623 199.897 40.0623Z" fill="white"/>
<path d="M295.709 40.6417H304.734L304.767 73.016C304.745 75.2406 304.317 77.2727 303.482 79.1123C302.668 80.9305 301.544 82.5027 300.109 83.8289C298.675 85.1551 296.983 86.1818 295.034 86.9091C293.107 87.6364 291.03 88 288.803 88C286.448 88 284.306 87.7005 282.379 87.1016C280.452 86.5027 278.792 85.615 277.4 84.4385C276.03 83.2406 274.959 81.7433 274.188 79.9465C273.418 78.1497 273.021 76.0428 273 73.6257H282.058C282.079 76.1283 282.636 77.9465 283.728 79.0802C284.82 80.1925 286.512 80.7487 288.803 80.7487C289.831 80.7487 290.773 80.5561 291.63 80.1711C292.486 79.7647 293.214 79.2192 293.814 78.5348C294.413 77.8503 294.874 77.0374 295.195 76.0963C295.537 75.1337 295.709 74.107 295.709 73.016V40.6417Z" fill="white"/>
<path d="M337.433 75.1658C337.433 74.3316 337.283 73.5508 336.983 72.8235C336.704 72.0963 336.212 71.4225 335.505 70.8021C334.82 70.1604 333.91 69.5829 332.775 69.0695C331.662 68.5348 330.27 68.0428 328.6 67.5936C326.565 67.0374 324.617 66.3422 322.754 65.508C320.912 64.6738 319.285 63.6684 317.872 62.492C316.458 61.3155 315.323 59.9465 314.467 58.385C313.632 56.8235 313.214 55.0267 313.214 52.9947C313.214 51.0267 313.632 49.2406 314.467 47.6364C315.302 46.0321 316.458 44.6631 317.936 43.5294C319.413 42.3957 321.158 41.5294 323.171 40.9305C325.184 40.3102 327.368 40 329.724 40C332.165 40 334.392 40.3529 336.405 41.0588C338.439 41.7647 340.184 42.7594 341.64 44.0428C343.096 45.3048 344.231 46.8128 345.045 48.5668C345.859 50.3209 346.266 52.246 346.266 54.3422H337.465C337.422 53.2941 337.229 52.3316 336.887 51.4545C336.565 50.5775 336.073 49.8289 335.409 49.2086C334.767 48.5668 333.953 48.0749 332.968 47.7326C332.004 47.369 330.869 47.1872 329.563 47.1872C328.364 47.1872 327.293 47.3369 326.351 47.6364C325.43 47.9144 324.649 48.3209 324.006 48.8556C323.364 49.369 322.872 49.9893 322.529 50.7166C322.208 51.4225 322.047 52.1925 322.047 53.0267C322.047 53.9037 322.261 54.6952 322.69 55.4011C323.139 56.107 323.782 56.7487 324.617 57.3262C325.452 57.8824 326.458 58.3957 327.636 58.8663C328.835 59.3369 330.184 59.7754 331.683 60.1818C333.824 60.8021 335.794 61.5615 337.593 62.4599C339.392 63.3583 340.934 64.4278 342.218 65.6684C343.525 66.8877 344.531 68.2888 345.238 69.8717C345.966 71.4332 346.33 73.1765 346.33 75.1016C346.33 77.1551 345.912 78.984 345.077 80.5882C344.263 82.1711 343.128 83.5187 341.672 84.631C340.216 85.7219 338.482 86.5561 336.469 87.1337C334.456 87.6898 332.261 87.9679 329.884 87.9679C328.407 87.9679 326.929 87.8289 325.452 87.5508C323.996 87.2941 322.593 86.8877 321.244 86.3315C319.916 85.7754 318.675 85.0802 317.518 84.246C316.362 83.4118 315.355 82.4385 314.499 81.3262C313.664 80.2139 313 78.9519 312.507 77.5401C312.036 76.1283 311.801 74.5668 311.801 72.8556H320.666C320.709 74.2674 320.955 75.4759 321.405 76.4813C321.854 77.4866 322.475 78.3102 323.268 78.9519C324.081 79.5936 325.045 80.0642 326.158 80.3636C327.293 80.6631 328.535 80.8128 329.884 80.8128C331.084 80.8128 332.143 80.6738 333.064 80.3957C334.006 80.1176 334.799 79.7326 335.441 79.2406C336.084 78.7487 336.576 78.1604 336.919 77.4759C337.261 76.7701 337.433 76 337.433 75.1658Z" fill="white"/>
<path d="M385.291 67.4332C385.291 70.4278 384.895 73.1872 384.103 75.7112C383.31 78.2353 382.165 80.4064 380.666 82.2246C379.167 84.0428 377.336 85.4652 375.173 86.492C373.032 87.4973 370.612 88 367.914 88C365.216 88 362.818 87.4973 360.719 86.492C358.621 85.4652 356.854 84.0428 355.42 82.2246C353.985 80.385 352.893 78.2139 352.143 75.7112C351.394 73.1872 351.019 70.4278 351.019 67.4332V60.631C351.019 57.6364 351.394 54.877 352.143 52.3529C352.893 49.8289 353.985 47.6578 355.42 45.8396C356.854 44 358.61 42.5668 360.687 41.5401C362.786 40.5134 365.184 40 367.882 40C370.602 40 373.032 40.5134 375.173 41.5401C377.336 42.5668 379.167 44 380.666 45.8396C382.165 47.6578 383.31 49.8289 384.103 52.3529C384.895 54.877 385.291 57.6364 385.291 60.631V67.4332ZM376.137 60.5668C376.137 58.6631 375.976 56.9091 375.655 55.3048C375.355 53.7005 374.874 52.3209 374.21 51.1658C373.546 50.0107 372.689 49.1123 371.64 48.4706C370.612 47.8075 369.36 47.4759 367.882 47.4759C366.426 47.4759 365.206 47.8075 364.221 48.4706C363.236 49.1123 362.443 50.0107 361.844 51.1658C361.244 52.3209 360.816 53.7005 360.559 55.3048C360.302 56.9091 360.173 58.6631 360.173 60.5668V67.4332C360.173 69.3155 360.302 71.0588 360.559 72.6631C360.816 74.2674 361.244 75.6578 361.844 76.8342C362.443 78.0107 363.236 78.9305 364.221 79.5936C365.206 80.2567 366.437 80.5882 367.914 80.5882C369.37 80.5882 370.612 80.2567 371.64 79.5936C372.689 78.9305 373.535 78.0214 374.178 76.8663C374.842 75.6898 375.334 74.2995 375.655 72.6952C375.976 71.0909 376.137 69.3369 376.137 67.4332V60.5668Z" fill="white"/>
<path d="M423 87.3583H414.006L400.998 57.2299V87.3583H391.908V40.6417H400.998L413.91 70.6417L413.942 40.6417H423V87.3583Z" fill="white"/>
</svg>
