<svg width="500" height="510" viewBox="0 0 500 510" fill="none" xmlns="http://www.w3.org/2000/svg">
<path d="M100 54.5455C100 24.4208 124.421 0 154.545 0H345.455C375.579 0 400 24.4208 400 54.5455V245.455C400 275.579 375.579 300 345.455 300H154.545C124.421 300 100 275.579 100 245.455V54.5455Z" fill="#171A17"/>
<path fillRule="evenodd" clipRule="evenodd" d="M333.455 46.3636H166.545C155.399 46.3636 146.364 55.3993 146.364 66.5454V233.455C146.364 244.601 155.399 253.636 166.545 253.636H333.455C344.601 253.636 353.636 244.601 353.636 233.455V66.5455C353.636 55.3993 344.601 46.3636 333.455 46.3636ZM166.545 30C146.362 30 130 46.3619 130 66.5454V233.455C130 253.638 146.362 270 166.545 270H333.455C353.638 270 370 253.638 370 233.455V66.5455C370 46.362 353.638 30 333.455 30H166.545Z" fill="#FCFBFC"/>
<path d="M258.334 205.093C258.334 210.315 257.639 214.957 256.25 219.019C254.861 223.08 252.865 226.504 250.26 229.289C247.656 232.074 244.473 234.192 240.711 235.642C237.007 237.093 232.783 237.818 228.037 237.818C226.012 237.818 224.16 237.702 222.481 237.47C220.861 237.296 219.125 236.919 217.273 236.339L218.314 219.889C218.835 220.063 219.472 220.208 220.224 220.324C221.034 220.498 221.845 220.614 222.655 220.672C223.523 220.788 224.362 220.875 225.172 220.933C225.983 220.991 226.648 221.02 227.169 221.02C230.526 221.02 233.101 219.599 234.895 216.756C236.689 213.971 237.586 210.083 237.586 205.093V94.6458C237.586 89.4237 238.31 84.7819 239.756 80.7202C241.261 76.6586 243.374 73.2643 246.094 70.5372C248.871 67.8101 252.228 65.7502 256.163 64.3577C260.157 62.9071 264.642 62.1818 269.619 62.1818C271.818 62.1818 273.988 62.3559 276.13 62.704C278.329 63.0522 280.528 63.4873 282.727 64.0096L280.644 79.8499C279.544 79.5598 278.358 79.3567 277.085 79.2407C275.811 79.0666 274.336 78.9795 272.657 78.9795C267.97 78.9795 264.41 80.3721 261.98 83.1572C259.549 85.8843 258.334 89.7138 258.334 94.6458V205.093Z" fill="#22C55E"/>
<path d="M24.9755 392.515C28.2098 387.929 32.133 384.329 36.7452 381.717C41.4166 379.104 46.6278 377.798 52.3777 377.798C57.4683 377.798 62.1408 378.552 66.3932 380.062C70.6456 381.514 74.2989 383.807 77.3533 386.942C80.4086 390.077 82.774 394.112 84.4514 399.047C86.1882 403.925 87.0571 409.818 87.0571 416.727V473.771H62.0805V416.553C62.0805 413.185 61.6317 410.282 60.7332 407.844C59.894 405.405 58.6664 403.431 57.0492 401.921C55.4321 400.412 53.4858 399.309 51.2094 398.611C48.9339 397.857 46.358 397.48 43.4836 397.48C39.2905 397.48 35.6371 398.205 32.5224 399.657C29.4681 401.109 26.9524 403.141 24.9755 405.753V473.771H0V340H24.9755V392.515ZM165.137 460.534C161.843 465.236 157.859 468.922 153.188 471.594C148.575 474.264 143.514 475.6 138.005 475.6C132.973 475.6 128.361 474.845 124.168 473.336C119.976 471.826 116.382 469.446 113.388 466.194C110.393 462.885 108.057 458.704 106.38 453.653C104.763 448.544 103.954 442.418 103.954 435.277V379.539H128.931V435.451C128.931 439.283 129.199 442.505 129.739 445.118C130.338 447.731 131.266 449.85 132.524 451.476C133.782 453.043 135.429 454.176 137.465 454.873C139.501 455.569 141.987 455.917 144.922 455.917C149.893 455.917 153.937 455.017 157.05 453.218C160.165 451.36 162.531 448.834 164.149 445.64V379.539H189.214V473.771H166.574L165.137 460.534ZM293.888 427.613C293.888 434.638 293.079 441.083 291.462 446.947C289.904 452.811 287.539 457.862 284.364 462.101C281.19 466.339 277.237 469.649 272.505 472.029C267.774 474.352 262.263 475.513 255.974 475.513C250.285 475.513 245.343 474.496 241.15 472.465C237.018 470.374 233.454 467.472 230.459 463.756L229.292 473.771H206.831V340H231.806V388.074C234.682 384.822 238.065 382.297 241.959 380.497C245.912 378.697 250.524 377.798 255.794 377.798C262.143 377.798 267.684 378.988 272.415 381.368C277.207 383.748 281.19 387.058 284.364 391.297C287.539 395.535 289.904 400.615 291.462 406.537C293.079 412.401 293.888 418.817 293.888 425.784V427.613ZM268.911 425.784C268.911 421.952 268.612 418.323 268.013 414.898C267.414 411.472 266.366 408.482 264.868 405.927C263.431 403.314 261.454 401.253 258.939 399.744C256.423 398.235 253.279 397.48 249.506 397.48C244.954 397.48 241.24 398.408 238.365 400.266C235.551 402.124 233.364 404.679 231.806 407.931V445.467C233.364 448.718 235.551 451.273 238.365 453.131C241.24 454.988 245.013 455.917 249.686 455.917C253.459 455.917 256.573 455.22 259.029 453.827C261.485 452.375 263.431 450.402 264.868 447.905C266.366 445.35 267.414 442.36 268.013 438.935C268.612 435.451 268.911 431.678 268.911 427.613V425.784ZM306.922 425.871C306.922 418.73 307.76 412.198 309.438 406.276C311.115 400.353 313.57 395.303 316.805 391.122C320.099 386.883 324.111 383.603 328.843 381.281C333.635 378.958 339.115 377.798 345.284 377.798C350.795 377.798 355.586 378.785 359.66 380.759C363.792 382.732 367.356 385.52 370.351 389.119L371.878 379.539H393.889V510H368.824V465.759C365.889 468.894 362.475 471.304 358.581 472.987C354.688 474.671 350.196 475.513 345.105 475.513C338.996 475.513 333.575 474.323 328.843 471.942C324.111 469.503 320.129 466.165 316.895 461.927C313.66 457.63 311.174 452.579 309.438 446.773C307.76 440.909 306.922 434.551 306.922 427.7V425.871ZM331.898 427.7C331.898 431.59 332.257 435.248 332.976 438.673C333.694 442.099 334.833 445.118 336.39 447.731C337.948 450.286 339.954 452.318 342.41 453.827C344.925 455.336 347.95 456.091 351.484 456.091C355.856 456.091 359.419 455.25 362.175 453.566C364.99 451.882 367.207 449.559 368.824 446.599V406.537C367.207 403.634 364.99 401.399 362.175 399.831C359.419 398.205 355.916 397.393 351.664 397.393C348.13 397.393 345.105 398.148 342.59 399.657C340.133 401.109 338.097 403.111 336.48 405.667C334.923 408.221 333.755 411.24 332.976 414.723C332.257 418.149 331.898 421.865 331.898 425.871V427.7ZM417.794 340H472.149V454.089H500V473.771H417.794V454.089H446.904V359.769H417.794V340Z" fill="#171A17"/>
</svg>
