<svg width="1120" height="300" viewBox="0 0 1120 300" fill="none" xmlns="http://www.w3.org/2000/svg">
<path d="M0 54.5455C0 24.4208 24.4208 0 54.5455 0H245.455C275.579 0 300 24.4208 300 54.5455V245.455C300 275.579 275.579 300 245.455 300H54.5455C24.4208 300 0 275.579 0 245.455V54.5455Z" fill="#000000"/>
<path  fillRule="evenodd"  clipRule="evenodd" d="M233.455 46.3636H66.5455C55.3993 46.3636 46.3636 55.3993 46.3636 66.5454V233.455C46.3636 244.601 55.3993 253.636 66.5454 253.636H233.455C244.601 253.636 253.636 244.601 253.636 233.455V66.5455C253.636 55.3993 244.601 46.3636 233.455 46.3636ZM66.5455 30C46.362 30 30 46.3619 30 66.5454V233.455C30 253.638 46.362 270 66.5454 270H233.455C253.638 270 270 253.638 270 233.455V66.5455C270 46.362 253.638 30 233.455 30H66.5455Z" fill="#FFFFFF"/>
<path d="M158.334 205.093C158.334 210.315 157.639 214.957 156.25 219.019C154.861 223.08 152.865 226.504 150.26 229.289C147.656 232.074 144.473 234.192 140.711 235.642C137.007 237.093 132.783 237.818 128.037 237.818C126.012 237.818 124.16 237.702 122.481 237.47C120.861 237.296 119.125 236.919 117.273 236.339L118.314 219.889C118.835 220.063 119.472 220.208 120.224 220.324C121.034 220.498 121.845 220.614 122.655 220.672C123.523 220.788 124.362 220.875 125.172 220.933C125.983 220.991 126.648 221.02 127.169 221.02C130.526 221.02 133.101 219.599 134.895 216.756C136.689 213.971 137.586 210.083 137.586 205.093V94.6458C137.586 89.4237 138.31 84.7819 139.756 80.7202C141.261 76.6586 143.374 73.2643 146.094 70.5372C148.871 67.8101 152.228 65.7502 156.163 64.3577C160.157 62.9071 164.642 62.1818 169.619 62.1818C171.818 62.1818 173.988 62.3559 176.13 62.704C178.329 63.0522 180.528 63.4873 182.727 64.0096L180.644 79.8499C179.544 79.5598 178.358 79.3567 177.085 79.2407C175.811 79.0666 174.336 78.9795 172.657 78.9795C167.97 78.9795 164.41 80.3721 161.98 83.1572C159.549 85.8843 158.334 89.7138 158.334 94.6458V205.093Z" fill="#22C55E"/>
<path d="M409.363 99.9356C414.202 92.8665 420.071 87.3183 426.971 83.2928C433.959 79.2657 441.755 77.2529 450.357 77.2529C457.973 77.2529 464.963 78.4151 471.324 80.7425C477.686 82.9797 483.151 86.5135 487.72 91.3454C492.291 96.1773 495.83 102.396 498.339 110.003C500.937 117.519 502.237 126.601 502.237 137.25V225.165H464.872V136.981C464.872 131.79 464.201 127.317 462.857 123.559C461.601 119.801 459.765 116.759 457.346 114.431C454.926 112.105 452.015 110.406 448.609 109.331C445.205 108.168 441.352 107.587 437.051 107.587C430.779 107.587 425.313 108.704 420.654 110.942C416.084 113.179 412.321 116.311 409.363 120.337V225.165H372V19H409.363V99.9356ZM619.045 204.763C614.116 212.011 608.157 217.692 601.169 221.809C594.269 225.925 586.698 227.984 578.455 227.984C570.928 227.984 564.028 226.82 557.756 224.494C551.484 222.167 546.107 218.499 541.628 213.488C537.148 208.387 533.654 201.944 531.144 194.159C528.725 186.285 527.515 176.844 527.515 165.838V79.9361H564.88V166.107C564.88 172.012 565.282 176.979 566.09 181.006C566.986 185.033 568.374 188.298 570.255 190.804C572.138 193.22 574.601 194.965 577.648 196.039C580.694 197.112 584.413 197.648 588.803 197.648C596.24 197.648 602.289 196.262 606.947 193.488C611.607 190.625 615.147 186.732 617.566 181.81V79.9361H655.064V225.165H621.195L619.045 204.763ZM811.656 154.027C811.656 164.855 810.447 174.787 808.027 183.825C805.697 192.862 802.158 200.646 797.408 207.179C792.66 213.711 786.747 218.812 779.668 222.48C772.589 226.059 764.345 227.849 754.938 227.849C746.426 227.849 739.034 226.282 732.761 223.152C726.578 219.93 721.247 215.456 716.767 209.73L715.02 225.165H681.419V19H718.782V93.091C723.084 88.0789 728.146 84.1877 733.97 81.4129C739.884 78.6396 746.784 77.2529 754.668 77.2529C764.166 77.2529 772.455 79.087 779.533 82.7552C786.702 86.4234 792.66 91.5241 797.408 98.0572C802.158 104.589 805.697 112.418 808.027 121.545C810.447 130.582 811.656 140.471 811.656 151.208V154.027ZM774.291 151.208C774.291 145.302 773.843 139.71 772.947 134.431C772.051 129.151 770.484 124.542 768.243 120.606C766.093 116.578 763.136 113.402 759.372 111.076C755.609 108.75 750.905 107.587 745.261 107.587C738.451 107.587 732.895 109.018 728.594 111.881C724.384 114.744 721.113 118.681 718.782 123.693V181.543C721.113 186.554 724.384 190.491 728.594 193.354C732.895 196.218 738.54 197.648 745.53 197.648C751.174 197.648 755.834 196.575 759.507 194.428C763.181 192.19 766.093 189.148 768.243 185.3C770.484 181.363 772.051 176.756 772.947 171.476C773.843 166.107 774.291 160.291 774.291 154.027V151.208ZM831.155 151.342C831.155 140.336 832.409 130.269 834.919 121.143C837.428 112.015 841.101 104.231 845.94 97.7884C850.868 91.2553 856.871 86.2005 863.949 82.6209C871.118 79.0412 879.316 77.2529 888.545 77.2529C896.789 77.2529 903.957 78.774 910.051 81.816C916.233 84.8581 921.564 89.154 926.045 94.7006L928.329 79.9361H961.258V281H923.76V212.816C919.37 217.648 914.262 221.362 908.437 223.957C902.614 226.551 895.893 227.849 888.278 227.849C879.137 227.849 871.028 226.015 863.949 222.345C856.871 218.587 850.913 213.442 846.074 206.911C841.236 200.289 837.517 192.503 834.919 183.556C832.409 174.518 831.155 164.72 831.155 154.161V151.342ZM868.52 154.161C868.52 160.157 869.057 165.794 870.132 171.073C871.207 176.352 872.91 181.006 875.239 185.033C877.57 188.97 880.572 192.102 884.245 194.428C888.009 196.754 892.533 197.917 897.82 197.917C904.36 197.917 909.691 196.621 913.814 194.025C918.025 191.43 921.341 187.85 923.76 183.287V121.545C921.341 117.072 918.025 113.626 913.814 111.211C909.691 108.704 904.451 107.452 898.089 107.452C892.802 107.452 888.278 108.616 884.514 110.942C880.839 113.179 877.793 116.265 875.374 120.204C873.045 124.141 871.297 128.794 870.132 134.162C869.057 139.441 868.52 145.168 868.52 151.342V154.161ZM997.02 19H1078.33V194.831H1120V225.165H997.02V194.831H1040.57V49.4681H997.02V19Z" fill="#FFFFFF"/>
</svg>