<svg width="56" height="26" viewBox="0 0 56 26" fill="none" xmlns="http://www.w3.org/2000/svg">
<path d="M44.9574 11.3585C44.7697 11.3585 44.5846 11.3652 44.3994 11.371C44.3694 11.3726 44.3399 11.3794 44.3124 11.391C44.2633 11.4073 44.2193 11.4353 44.1841 11.4724C44.1489 11.5095 44.1238 11.5546 44.111 11.6035L43.3174 14.3112C42.9752 15.4754 43.1024 16.5505 43.6775 17.3397C44.2048 18.0697 45.082 18.4981 46.1469 18.5481L50.4518 18.8031C50.5798 18.8098 50.6908 18.8698 50.7582 18.9689C50.7935 19.0219 50.8157 19.0821 50.8233 19.1448C50.8308 19.2075 50.8234 19.2711 50.8017 19.3306C50.767 19.4273 50.7046 19.5123 50.6218 19.5752C50.539 19.6382 50.4394 19.6765 50.3349 19.6856L45.8619 19.9407C43.4317 20.0507 40.8172 21.9874 39.8999 24.3492L39.5774 25.1826C39.5635 25.2172 39.5583 25.2545 39.5621 25.2914C39.5659 25.3283 39.5787 25.3638 39.5994 25.3949C39.6201 25.4261 39.6481 25.4519 39.6811 25.4704C39.7141 25.4888 39.7511 25.4993 39.789 25.501H55.1945C55.284 25.5013 55.3713 25.473 55.4428 25.4203C55.5143 25.3676 55.5661 25.2935 55.5904 25.2093C55.864 24.2487 56.0018 23.2562 56 22.2591C56 16.2421 51.0602 11.3652 44.9643 11.3652" fill="#FBAD41"/>
<path d="M38.2337 25.1507L38.5187 24.1715C38.8618 23.0072 38.7346 21.9322 38.1604 21.143C37.6313 20.4129 36.755 19.9846 35.6892 19.9346L15.4959 19.6795C15.4331 19.6784 15.3714 19.6628 15.316 19.634C15.2605 19.6052 15.2128 19.564 15.1768 19.5137C15.1413 19.4608 15.1189 19.4007 15.1112 19.3379C15.1035 19.2752 15.1108 19.2116 15.1324 19.152C15.1674 19.0547 15.2305 18.9694 15.3141 18.9064C15.3977 18.8434 15.4982 18.8054 15.6034 18.797L35.9853 18.542C38.4053 18.4328 41.0198 16.4952 41.9371 14.1334L43.0993 11.1332C43.1466 11.006 43.1584 10.8688 43.1334 10.7357C41.8091 4.88372 36.5118 0.500977 30.1786 0.500977C24.3403 0.500977 19.3869 4.21952 17.6095 9.38897C16.4129 8.50019 14.9141 8.09067 13.419 8.24391C10.6202 8.51893 8.36744 10.7457 8.08927 13.5092C8.01724 14.1994 8.06922 14.8966 8.24286 15.5693C3.66918 15.7027 0 19.4012 0 23.9465C0 24.3573 0.0298654 24.7623 0.0904496 25.1574C0.102507 25.25 0.148782 25.3352 0.220585 25.3969C0.292387 25.4585 0.384778 25.4925 0.480407 25.4924H37.773C37.878 25.4907 37.9796 25.4558 38.0627 25.393C38.1457 25.3303 38.2057 25.2429 38.2337 25.144" fill="#F6821F"/>
</svg>
