<svg width="37" height="56" viewBox="0 0 37 56" fill="none" xmlns="http://www.w3.org/2000/svg">
<g clip-path="url(#clip0_1653_2)">
<path d="M9.25206 55.9997C14.357 55.9997 18.5002 51.8183 18.5002 46.6663V37.333H9.25206C4.14708 37.333 0.00390625 41.5143 0.00390625 46.6663C0.00390625 51.8183 4.14708 55.9997 9.25206 55.9997Z" fill="#0ACF83"/>
<path d="M0.00390625 28.0003C0.00390625 22.8483 4.14708 18.667 9.25206 18.667H18.5002V37.3337H9.25206C4.14708 37.3337 0.00390625 33.1523 0.00390625 28.0003Z" fill="#A259FF"/>
<path d="M0.00390625 9.33333C0.00390625 4.18133 4.14708 0 9.25206 0H18.5002V18.6667H9.25206C4.14708 18.6667 0.00390625 14.4853 0.00390625 9.33333Z" fill="#F24E1E"/>
<path d="M18.5 0H27.7482C32.8531 0 36.9963 4.18133 36.9963 9.33333C36.9963 14.4853 32.8531 18.6667 27.7482 18.6667H18.5V0Z" fill="#FF7262"/>
<path d="M36.9963 28.0003C36.9963 33.1523 32.8531 37.3337 27.7482 37.3337C22.6432 37.3337 18.5 33.1523 18.5 28.0003C18.5 22.8483 22.6432 18.667 27.7482 18.667C32.8531 18.667 36.9963 22.8483 36.9963 28.0003Z" fill="#1ABCFE"/>
</g>
<defs>
<clipPath id="clip0_1653_2">
<rect width="37" height="56" fill="white"/>
</clipPath>
</defs>
</svg>
