<svg width="56" height="49" viewBox="0 0 56 49" fill="none" xmlns="http://www.w3.org/2000/svg">
<g clip-path="url(#clip0_1653_27)">
<mask id="mask0_1653_27" style="mask-type:luminance" maskUnits="userSpaceOnUse" x="0" y="0" width="56" height="49">
<path d="M56 0H0V48.8417H56V0Z" fill="white"/>
</mask>
<g mask="url(#mask0_1653_27)">
<path d="M15.1345 40.7829H14.6057L11.9663 38.1669V37.6428L16.0013 33.6436H18.7968L19.1695 34.013V36.7837L15.1345 40.7829Z" fill="#05BDBA"/>
<path d="M11.9663 11.1949V10.6708L14.6057 8.05469H15.1345L19.1695 12.054V14.8247L18.7968 15.1941H16.0013L11.9663 11.1949Z" fill="#05BDBA"/>
<path d="M15.6805 26.6456H0.320718L0 26.3277V22.5132L0.320718 22.1953H15.6805L16.0013 22.5132V26.3277L15.6805 26.6456Z" fill="#05BDBA"/>
<path d="M55.6835 26.6456H40.3237L40.0029 26.3277V22.5132L40.3237 22.1953H55.6835L56.0042 22.5132V26.3277L55.6835 26.6456Z" fill="#05BDBA"/>
<path d="M25.7876 11.7358V0.31788L26.1083 0H29.9569L30.2777 0.31788V11.7358L29.9569 12.0537H26.1083L25.7876 11.7358Z" fill="#05BDBA"/>
<path d="M25.7876 48.5238V37.106L26.1083 36.7881H29.9569L30.2777 37.106V48.5238L29.9569 48.8417H26.1083L25.7876 48.5238Z" fill="#05BDBA"/>
<path d="M35.2012 32.3508H31.3613L31.0406 32.033V23.1237C31.0406 21.5386 30.4121 20.31 28.4835 20.2671C27.491 20.2413 26.3555 20.2671 25.142 20.3143L24.9599 20.4991V32.0287L24.6392 32.3465H20.7992L20.4785 32.0287V16.8091L20.7992 16.4912H29.4413C32.8002 16.4912 35.522 19.1889 35.522 22.518V32.033L35.2012 32.3508Z" fill="white"/>
</g>
</g>
<defs>
<clipPath id="clip0_1653_27">
<rect width="56" height="49" fill="white"/>
</clipPath>
</defs>
</svg>
