<svg width="56" height="56" viewBox="0 0 56 56" fill="none" xmlns="http://www.w3.org/2000/svg">
<g clip-path="url(#clip0_1653_9)">
<mask id="mask0_1653_9" style="mask-type:luminance" maskUnits="userSpaceOnUse" x="0" y="0" width="56" height="56">
<path d="M0 0H56V56H0V0Z" fill="white"/>
</mask>
<g mask="url(#mask0_1653_9)">
<path d="M26.1662 0.0150502C26.0457 0.0260402 25.6626 0.0643302 25.3177 0.0917002C17.3639 0.80871 9.91361 5.09978 5.19491 11.695C2.56732 15.3622 0.8869 19.5219 0.25179 23.9279C0.02737 25.4659 0 25.9202 0 28.0055C0 30.0908 0.02737 30.5451 0.25179 32.0831C1.77359 42.5973 9.25673 51.4312 19.4057 54.7042C21.2231 55.2899 23.139 55.6894 25.3177 55.9302C26.1662 56.0232 29.8338 56.0232 30.6823 55.9302C34.443 55.5143 37.6289 54.5838 40.7711 52.9801C41.2528 52.7338 41.3458 52.6681 41.2802 52.6134C41.2364 52.5806 39.1836 49.8275 36.7203 46.4997L32.2424 40.4517L26.6315 32.1488C23.5441 27.5841 21.0041 23.8512 20.9822 23.8512C20.9603 23.8458 20.9384 27.5348 20.9275 32.0393C20.911 39.9263 20.9056 40.2438 20.807 40.4298C20.6647 40.6981 20.5552 40.8075 20.3253 40.928C20.1501 41.0155 19.9969 41.0319 19.1703 41.0319H18.2232L17.9714 40.8732C17.8155 40.7754 17.6888 40.6374 17.6047 40.4737L17.4897 40.2273L17.5007 29.2534L17.5171 18.274L17.6868 18.0605C17.7744 17.9455 17.9605 17.7978 18.0919 17.7267C18.3163 17.6172 18.4039 17.6063 19.3509 17.6063C20.4676 17.6063 20.6538 17.65 20.9439 17.9675C21.026 18.055 24.0641 22.6307 27.6989 28.1423C31.379 33.7211 35.0612 39.2984 38.7456 44.8742L43.1796 51.5899L43.4041 51.4421C45.3912 50.1505 47.4932 48.3114 49.1574 46.3957C52.6991 42.3291 54.9819 37.3703 55.7482 32.0831C55.9726 30.5451 56 30.0908 56 28.0055C56 25.9202 55.9726 25.4659 55.7482 23.9279C54.2264 13.4137 46.7433 4.57982 36.5943 1.30676C34.8043 0.7266 32.8993 0.32704 30.7644 0.0862402C30.2389 0.0315002 26.6205 -0.0286998 26.1662 0.0150502ZM37.6289 16.9494C37.8917 17.0808 38.1052 17.3326 38.1819 17.5953C38.2256 17.7376 38.2366 20.7808 38.2256 27.6388L38.2092 37.4797L36.4739 34.8197L34.7332 32.1597V25.0061C34.7332 20.3812 34.755 17.7814 34.7879 17.6555C34.8755 17.349 35.0671 17.1081 35.3298 16.9658C35.5543 16.8509 35.6364 16.84 36.4958 16.84C37.3059 16.84 37.4483 16.8509 37.6289 16.9494Z" fill="white"/>
</g>
</g>
<defs>
<clipPath id="clip0_1653_9">
<rect width="56" height="56" fill="white"/>
</clipPath>
</defs>
</svg>
