<svg width="56" height="50" viewBox="0 0 56 50" fill="none" xmlns="http://www.w3.org/2000/svg">
<g clip-path="url(#clip0_1653_15)">
<path d="M28 30.0099C30.7566 30.0099 32.9913 27.7672 32.9913 25.0008C32.9913 22.2344 30.7566 19.9918 28 19.9918C25.2434 19.9918 23.0087 22.2344 23.0087 25.0008C23.0087 27.7672 25.2434 30.0099 28 30.0099Z" fill="#61DAFB"/>
<path fillRule="evenodd" clipRule="evenodd" d="M4.13785 21.9131C2.93308 23.0045 2.43478 24.05 2.43478 25.0008C2.43478 25.9516 2.93308 26.9971 4.13785 28.0886C5.34249 29.1799 7.154 30.2187 9.49608 31.1161C14.1719 32.9077 20.7137 34.0415 28 34.0415C35.2863 34.0415 41.8281 32.9077 46.5039 31.1161C48.846 30.2187 50.6575 29.1799 51.8621 28.0886C53.0669 26.9971 53.5652 25.9516 53.5652 25.0008C53.5652 24.05 53.0669 23.0045 51.8621 21.9131C50.6575 20.8218 48.846 19.783 46.5039 18.8855C41.8281 17.0939 35.2863 15.9601 28 15.9601C20.7137 15.9601 14.1719 17.0939 9.49608 18.8855C7.154 19.783 5.34249 20.8218 4.13785 21.9131ZM8.62759 16.6028C13.6452 14.6802 20.4947 13.5167 28 13.5167C35.5053 13.5167 42.3548 14.6802 47.3724 16.6028C49.877 17.5625 51.9877 18.7351 53.4936 20.0994C54.9994 21.4635 56 23.1177 56 25.0008C56 26.8839 54.9994 28.5382 53.4936 29.9023C51.9877 31.2665 49.877 32.4391 47.3724 33.3988C42.3548 35.3214 35.5053 36.485 28 36.485C20.4947 36.485 13.6452 35.3214 8.62759 33.3988C6.12298 32.4391 4.01226 31.2665 2.50635 29.9023C1.00058 28.5382 0 26.8839 0 25.0008C0 23.1177 1.00058 21.4635 2.50635 20.0994C4.01226 18.7351 6.12298 17.5625 8.62759 16.6028Z" fill="#61DAFB"/>
<path fillRule="evenodd" clipRule="evenodd" d="M18.7335 2.71829C17.1893 2.21694 16.0379 2.30661 15.2174 2.78202C14.3969 3.25743 13.7438 4.21324 13.4043 5.80603C13.0649 7.39864 13.0742 9.49243 13.4708 11.9767C14.2626 16.9362 16.5551 23.1886 20.1982 29.5212C23.8414 35.8538 28.0907 40.9723 31.9747 44.1403C33.9202 45.7271 35.7224 46.782 37.2665 47.2833C38.8107 47.7847 39.9621 47.695 40.7826 47.2196C41.6031 46.7442 42.2562 45.7884 42.5957 44.1956C42.9351 42.603 42.9258 40.5092 42.5292 38.025C41.7374 33.0654 39.4449 26.813 35.8018 20.4805C32.1586 14.1479 27.9093 9.0293 24.0253 5.86137C22.0798 4.27458 20.2776 3.21959 18.7335 2.71829ZM25.5609 3.96522C29.7288 7.36472 34.1577 12.7359 37.9103 19.2588C41.663 25.7816 44.0837 32.3163 44.9333 37.6384C45.3574 40.2951 45.4009 42.7158 44.9766 44.7067C44.5523 46.6974 43.625 48.3942 42 49.3357C40.375 50.2772 38.4471 50.2348 36.5171 49.6082C34.5868 48.9815 32.5196 47.7333 30.4391 46.0364C26.2712 42.6369 21.8423 37.2658 18.0897 30.7429C14.337 24.22 11.9163 17.6853 11.0667 12.3632C10.6426 9.70658 10.5991 7.28586 11.0234 5.29495C11.4477 3.30422 12.375 1.60748 14 0.665943C15.625 -0.275596 17.5529 -0.233123 19.4829 0.393488C21.4132 1.02015 23.4804 2.2683 25.5609 3.96522Z" fill="#61DAFB"/>
<path fillRule="evenodd" clipRule="evenodd" d="M42.5957 5.80602C42.2562 4.21323 41.6031 3.25742 40.7826 2.78202C39.9621 2.30661 38.8107 2.21694 37.2665 2.71829C35.7224 3.21959 33.9202 4.27457 31.9747 5.86137C28.0907 9.0293 23.8414 14.1479 20.1982 20.4805C16.5551 26.813 14.2626 33.0654 13.4708 38.025C13.0742 40.5092 13.0649 42.603 13.4043 44.1956C13.7438 45.7884 14.3969 46.7442 15.2174 47.2196C16.0379 47.695 17.1893 47.7847 18.7335 47.2833C20.2776 46.782 22.0798 45.7271 24.0253 44.1403C27.9093 40.9723 32.1586 35.8538 35.8018 29.5212C39.4449 23.1886 41.7374 16.9362 42.5292 11.9767C42.9258 9.49243 42.9351 7.39864 42.5957 5.80602ZM44.9333 12.3632C44.0837 17.6853 41.663 24.22 37.9103 30.7429C34.1577 37.2658 29.7288 42.6369 25.5609 46.0364C23.4804 47.7333 21.4132 48.9815 19.4829 49.6082C17.5529 50.2348 15.625 50.2772 14 49.3357C12.375 48.3942 11.4477 46.6974 11.0234 44.7067C10.5991 42.7158 10.6426 40.2951 11.0667 37.6384C11.9163 32.3163 14.337 25.7816 18.0897 19.2587C21.8423 12.7359 26.2711 7.36471 30.4391 3.96522C32.5196 2.2683 34.5868 1.02015 36.5171 0.393487C38.4471 -0.233124 40.375 -0.275596 42 0.665943C43.625 1.60748 44.5523 3.30422 44.9766 5.29495C45.4009 7.28586 45.3574 9.70658 44.9333 12.3632Z" fill="#61DAFB"/>
</g>
<defs>
<clipPath id="clip0_1653_15">
<rect width="56" height="50" fill="white"/>
</clipPath>
</defs>
</svg>
