<svg width="56" height="23" viewBox="0 0 56 23" fill="none" xmlns="http://www.w3.org/2000/svg">
<g clip-path="url(#clip0_1653_45)">
<path fill-rule="evenodd" clip-rule="evenodd" d="M55.9969 11.8807C55.9969 7.95115 54.0681 4.85051 50.3816 4.85051C46.6796 4.85051 44.4398 7.95115 44.4398 11.85C44.4398 16.4702 47.0841 18.8034 50.8794 18.8034C52.7304 18.8034 54.1303 18.3889 55.188 17.8057V14.7357C54.1303 15.2576 52.9171 15.58 51.3771 15.58C49.8683 15.58 48.5306 15.0581 48.3595 13.2468H55.9658C55.9658 13.0473 55.9969 12.2491 55.9969 11.8807ZM48.3129 10.4225C48.3129 8.68793 49.3861 7.9665 50.3661 7.9665C51.3149 7.9665 52.326 8.68793 52.326 10.4225H48.3129ZM38.4356 4.85051C36.9113 4.85051 35.9313 5.55659 35.3869 6.04778L35.1847 5.0961H31.7627V22.9939L35.6514 22.1803L35.6669 17.8364C36.2269 18.2355 37.0513 18.8034 38.4201 18.8034C41.2044 18.8034 43.7398 16.593 43.7398 11.7272C43.7242 7.27576 41.1577 4.85051 38.4356 4.85051ZM37.5024 15.4265C36.5846 15.4265 36.0402 15.1041 35.6669 14.705L35.6514 9.01028C36.0558 8.56514 36.6157 8.25814 37.5024 8.25814C38.9178 8.25814 39.8978 9.82381 39.8978 11.8346C39.8978 13.8915 38.9334 15.4265 37.5024 15.4265ZM26.4119 3.94487L30.3161 3.11599V0L26.4119 0.813534V3.94487ZM26.4119 5.11145H30.3161V18.5424H26.4119V5.11145ZM22.2277 6.24733L21.9788 5.11145H18.619V18.5424H22.5076V9.44007C23.4254 8.25814 24.9808 8.47304 25.463 8.64189V5.11145C24.9653 4.92726 23.1454 4.58956 22.2277 6.24733ZM14.4503 1.78057L10.655 2.57875L10.6394 14.8739C10.6394 17.1456 12.366 18.8187 14.6681 18.8187C15.9436 18.8187 16.8768 18.5885 17.3901 18.3122V15.1962C16.8924 15.3958 14.4348 16.1018 14.4348 13.8301V8.38094H17.3901V5.11145H14.4348L14.4503 1.78057ZM3.93534 9.01028C3.93534 8.41164 4.43309 8.18139 5.25749 8.18139C6.43964 8.18139 7.93289 8.53444 9.11505 9.16377V5.55659C7.82401 5.05005 6.54853 4.85051 5.25749 4.85051C2.09988 4.85051 0 6.47758 0 9.19447C0 13.431 5.91078 12.7556 5.91078 14.5822C5.91078 15.2883 5.2886 15.5186 4.41753 15.5186C3.12649 15.5186 1.4777 14.9967 0.171101 14.2906V17.9438C1.61769 18.5578 3.07983 18.8187 4.41753 18.8187C7.65291 18.8187 9.87723 17.2377 9.87723 14.4901C9.86167 9.91591 3.93534 10.7294 3.93534 9.01028Z" fill="#635BFF"/>
</g>
<defs>
<clipPath id="clip0_1653_45">
<rect width="56" height="23" fill="white"/>
</clipPath>
</defs>
</svg>
