<svg width="82" height="30" viewBox="0 0 82 30" fill="none" xmlns="http://www.w3.org/2000/svg">
<g clip-path="url(#clip0_114_7351)">
<path d="M41.5943 8.65C41.5896 8.7922 41.5298 8.927 41.4276 9.02591C41.3253 9.12482 41.1886 9.18008 41.0463 9.18H35.4003C35.0303 9.18 34.7213 8.88 34.7213 8.515C34.7213 6.868 34.1513 6.066 32.9853 6.066C31.8193 6.066 31.0673 6.782 31.0453 8.033C31.0203 9.428 31.8093 10.696 34.0553 12.874C37.0123 15.648 38.1973 18.105 38.1403 21.353C38.0473 26.605 34.4763 30 29.0423 30C26.2673 30 24.1473 29.258 22.7373 27.794C21.3063 26.307 20.6503 24.125 20.7873 21.309C20.792 21.1666 20.8519 21.0317 20.9544 20.9327C21.0569 20.8338 21.1938 20.7787 21.3363 20.779H27.1763C27.2576 20.7803 27.3377 20.7996 27.4107 20.8356C27.4836 20.8716 27.5477 20.9233 27.5983 20.987C27.6424 21.0397 27.6747 21.1012 27.693 21.1675C27.7113 21.2337 27.7151 21.3031 27.7043 21.371C27.6393 22.387 27.8163 23.146 28.2163 23.566C28.4723 23.838 28.8293 23.976 29.2743 23.976C30.3533 23.976 30.9853 23.214 31.0093 21.886C31.0293 20.738 30.6663 19.732 28.6883 17.697C26.1333 15.201 23.8423 12.622 23.9133 8.567C23.9553 6.215 24.8893 4.064 26.5443 2.51C28.2943 0.868 30.6873 0 33.4653 0C36.2483 0.02 38.3573 0.814 39.7343 2.36C41.0383 3.825 41.6653 5.941 41.5963 8.65H41.5943Z" fill="#FFFCE1"/>
<path d="M59.096 29.0119L59.133 1.07891C59.1341 1.00896 59.1211 0.939502 59.095 0.874615C59.0688 0.809728 59.03 0.750724 58.9807 0.701068C58.9314 0.651413 58.8727 0.612108 58.808 0.585464C58.7433 0.55882 58.6739 0.545373 58.604 0.545914H49.866C49.572 0.545914 49.443 0.798914 49.359 0.965914L36.707 28.8409V28.8459L36.702 28.8529C36.562 29.1959 36.828 29.5629 37.199 29.5629H43.307C43.637 29.5629 43.856 29.4629 43.963 29.2549L45.176 26.3399C45.325 25.9509 45.353 25.9149 45.777 25.9149H51.613C52.019 25.9149 52.027 25.9229 52.021 26.3199L51.89 29.0299C51.8889 29.0998 51.9018 29.1692 51.9279 29.234C51.954 29.2988 51.9928 29.3578 52.0419 29.4074C52.0911 29.457 52.1497 29.4964 52.2143 29.5231C52.2789 29.5498 52.3481 29.5633 52.418 29.5629H58.589C58.6654 29.5639 58.741 29.548 58.8107 29.5166C58.8803 29.4852 58.9422 29.4388 58.992 29.3809C59.035 29.3306 59.0665 29.2715 59.0844 29.2078C59.1024 29.1441 59.1063 29.0773 59.096 29.0119ZM48.286 19.6859C48.2399 19.6862 48.1939 19.6845 48.148 19.6809C48.1266 19.6791 48.1058 19.6727 48.0872 19.662C48.0685 19.6514 48.0525 19.6368 48.0401 19.6192C48.0277 19.6017 48.0193 19.5817 48.0155 19.5605C48.0116 19.5394 48.0125 19.5177 48.018 19.4969C48.03 19.4569 48.047 19.4019 48.072 19.3349L52.448 8.50691C52.4873 8.40008 52.5327 8.29557 52.584 8.19391C52.655 8.04791 52.741 8.03791 52.768 8.14591C52.791 8.23591 52.266 19.2639 52.266 19.2639C52.225 19.6769 52.206 19.6939 51.799 19.7279L48.29 19.6879H48.282L48.286 19.6859Z" fill="#FFFCE1"/>
<path d="M71.5446 0.545969H66.9056C66.6606 0.545969 66.3856 0.675969 66.3216 0.967969L59.8656 28.998C59.8515 29.0612 59.8521 29.1268 59.8674 29.1897C59.8826 29.2526 59.9121 29.3112 59.9536 29.361C60.0074 29.4243 60.0744 29.4752 60.1499 29.5101C60.2253 29.545 60.3075 29.563 60.3906 29.563H66.1886C66.5006 29.563 66.7136 29.41 66.7716 29.145L67.4756 25.968C67.5256 25.72 67.4396 25.528 67.2176 25.412C67.1134 25.3583 67.0094 25.3043 66.9056 25.25L65.9006 24.727L64.9006 24.205L64.5136 24.004C64.4821 23.9883 64.4557 23.964 64.4375 23.9339C64.4193 23.9038 64.4099 23.8691 64.4106 23.834C64.4119 23.7819 64.4336 23.7324 64.471 23.6961C64.5084 23.6599 64.5585 23.6397 64.6106 23.64L67.7876 23.654C68.7376 23.659 69.6886 23.592 70.6236 23.42C77.2036 22.205 81.5736 16.935 81.6996 9.76397C81.8076 3.64397 78.3916 0.542969 71.5496 0.542969L71.5446 0.545969ZM69.9656 17.226H69.8416C69.5626 17.226 69.5136 17.196 69.5056 17.186C69.5006 17.179 71.3376 9.11297 71.3386 9.10197C71.3856 8.86897 71.3836 8.73497 71.2396 8.65597C71.0556 8.55397 68.3736 7.13997 68.3736 7.13997C68.3424 7.12357 68.3164 7.09877 68.2986 7.06838C68.2807 7.03798 68.2717 7.0032 68.2726 6.96797C68.2739 6.91659 68.2952 6.86776 68.332 6.83189C68.3689 6.79602 68.4182 6.77595 68.4696 6.77597H72.7106C74.0306 6.81597 74.7666 7.99697 74.7316 10.014C74.6706 13.505 73.0106 17.103 69.9656 17.226Z" fill="#FFFCE1"/>
<path d="M23.8104 14.0119V14.0249L22.7354 18.6909C22.6774 18.9549 22.4134 19.1479 22.1094 19.1479H20.8104C20.7635 19.1481 20.718 19.1634 20.6805 19.1915C20.6431 19.2196 20.6157 19.259 20.6024 19.3039C19.4044 23.3679 17.7824 26.1609 15.6404 27.8379C13.8184 29.2659 11.5724 29.9319 8.57135 29.9319C5.87535 29.9319 4.05735 29.0649 2.51535 27.3529C0.47735 25.0909 -0.36465 21.3869 0.14535 16.9249C1.06535 8.54793 5.41035 0.0949323 13.7764 0.0949323C16.3214 0.0729323 18.3194 0.857932 19.7094 2.42493C21.1794 4.08293 21.9254 6.57893 21.9294 9.84693C21.9257 9.99019 21.8663 10.1264 21.7638 10.2265C21.6612 10.3266 21.5237 10.3827 21.3804 10.3829H15.2503C15.1429 10.3796 15.0409 10.3353 14.9652 10.259C14.8895 10.1828 14.8459 10.0804 14.8434 9.97293C14.7934 7.71293 14.1234 6.61293 12.7914 6.61293C10.4414 6.61293 9.05535 9.80293 8.32035 11.5709C7.29335 14.0409 6.77035 16.7239 6.87335 19.3959C6.92235 20.6399 7.12235 22.3889 8.30335 23.1139C9.35035 23.7559 10.8443 23.3299 11.7493 22.6189C12.6533 21.9069 13.3814 20.6759 13.6874 19.5529C13.7304 19.3969 13.7334 19.2759 13.6924 19.2219C13.6494 19.1659 13.5304 19.1529 13.4394 19.1529H11.8653C11.782 19.1532 11.6997 19.1353 11.624 19.1004C11.5484 19.0655 11.4812 19.0145 11.4274 18.9509C11.386 18.9013 11.3566 18.8429 11.3415 18.7801C11.3265 18.7173 11.326 18.6519 11.3404 18.5889L12.4164 13.9149C12.4694 13.6759 12.6864 13.4949 12.9534 13.4629V13.4509H23.2834C23.3074 13.4509 23.3324 13.4509 23.3554 13.4559C23.6234 13.4909 23.8124 13.7399 23.8074 14.0119H23.8104Z" fill="#FFFCE1"/>
</g>
<defs>
<clipPath id="clip0_114_7351">
<rect width="82" height="30" fill="white"/>
</clipPath>
</defs>
</svg>
