<svg width="71" height="80" viewBox="0 0 71 80" fill="none" xmlns="http://www.w3.org/2000/svg">
<path d="M35.6249 79.5C34.5439 79.5 33.5349 79.212 32.5969 78.708L23.0069 73.022C21.5649 72.23 22.2859 71.942 22.7179 71.798C24.6649 71.15 25.0259 71.006 27.0449 69.854C27.2609 69.71 27.5489 69.782 27.7649 69.926L35.1208 74.317C35.4088 74.461 35.7699 74.461 35.9859 74.317L64.7558 57.689C65.0448 57.545 65.1889 57.258 65.1889 56.898V23.714C65.1889 23.354 65.0449 23.066 64.7569 22.922L35.9859 6.36597C35.6979 6.22197 35.3358 6.22197 35.1208 6.36597L6.34985 22.922C6.05985 23.066 5.91585 23.426 5.91585 23.714V56.898C5.91585 57.185 6.06085 57.545 6.34885 57.689L14.2089 62.224C18.4629 64.384 21.1309 61.864 21.1309 59.345V26.593C21.1309 26.161 21.4909 25.729 21.9959 25.729H25.6739C26.1059 25.729 26.5389 26.089 26.5389 26.593V59.345C26.5389 65.032 23.4389 68.343 18.0299 68.343C16.3719 68.343 15.0739 68.343 11.3969 66.543L3.82485 62.224C2.9042 61.6902 2.13996 60.9239 1.60871 60.0018C1.07745 59.0797 0.79783 58.0342 0.797852 56.97V23.786C0.797756 22.7215 1.07745 21.6757 1.60889 20.7534C2.14033 19.8311 2.90486 19.0647 3.82585 18.531L32.5959 1.90297C34.3999 0.894973 36.8509 0.894973 38.6539 1.90297L67.4239 18.531C68.345 19.0646 69.1098 19.8309 69.6414 20.7532C70.173 21.6756 70.4529 22.7214 70.4529 23.786V56.97C70.4527 58.0344 70.1728 59.08 69.6411 60.0021C69.1095 60.9243 68.3449 61.6905 67.4239 62.224L38.6539 78.852C37.7889 79.212 36.7069 79.5 35.6249 79.5Z" fill="#5FA04E"/>
<path d="M44.5671 56.6819C31.9471 56.6819 29.3521 50.9229 29.3521 46.0279C29.3521 45.5959 29.7121 45.1639 30.2171 45.1639H33.9671C34.4001 45.1639 34.76 45.4519 34.76 45.8839C35.337 49.6989 36.9951 51.5709 44.6391 51.5709C50.6961 51.5709 53.2911 50.2029 53.2911 46.9639C53.2911 45.0929 52.5711 43.7239 43.1241 42.7889C35.2641 41.9969 30.3621 40.2689 30.3621 34.0069C30.3621 28.1769 35.2651 24.7219 43.4851 24.7219C52.7151 24.7219 57.2571 27.8889 57.8351 34.7989C57.8351 35.0149 57.7621 35.2309 57.6181 35.4469C57.4741 35.5909 57.2581 35.7349 57.0411 35.7349H53.2191C53.0341 35.7288 52.8563 35.662 52.713 35.5449C52.5698 35.4279 52.4689 35.2669 52.4261 35.0869C51.5611 31.1269 49.326 29.8319 43.413 29.8319C36.779 29.8319 35.9861 32.1359 35.9861 33.8629C35.9861 35.9509 36.9231 36.5989 45.8651 37.7499C54.7341 38.9019 58.9151 40.5579 58.9151 46.7479C58.9151 53.0829 53.6521 56.6819 44.5671 56.6819Z" fill="#5FA04E"/>
</svg>
