<svg width="40" height="40" viewBox="0 0 40 40" fill="none" xmlns="http://www.w3.org/2000/svg">
<path d="M15 2C16.6569 2 18 3.34315 18 5V7.17383C17.6869 7.06306 17.351 7 17 7C16.649 7 16.3131 7.06306 16 7.17383V5C16 4.4477 15.5523 4 15 4H5C4.44771 4 4 4.44771 4 5V15C4 15.5523 4.4477 16 5 16H15C15.5523 16 16 15.5523 16 15V12.8252C16.3131 12.936 16.6489 13 17 13C17.3511 13 17.6869 12.936 18 12.8252V15C18 16.6569 16.6569 18 15 18H5C3.34315 18 2 16.6569 2 15V5C2 3.34315 3.34315 2 5 2H15Z" fill="white"/>
<path d="M24 15C24 15.5523 24.4477 16 25 16H27.1738C27.0631 16.3131 27 16.649 27 17C27 17.351 27.0631 17.6869 27.1738 18H25C23.3431 18 22 16.6569 22 15V12.8252C22.3131 12.936 22.6489 13 23 13C23.3511 13 23.6869 12.936 24 12.8252V15ZM35 2C36.6569 2 38 3.34315 38 5V15C38 16.6569 36.6569 18 35 18H32.8262C32.9369 17.6869 33 17.351 33 17C33 16.649 32.9369 16.3131 32.8262 16H35C35.5523 16 36 15.5523 36 15V5C36 4.4477 35.5523 4 35 4H25C24.4477 4 24 4.4477 24 5V7.17383C23.6869 7.06306 23.351 7 23 7C22.649 7 22.3131 7.06306 22 7.17383V5C22 3.34315 23.3431 2 25 2H35Z" fill="#FF0073"/>
<path d="M15 22C16.6569 22 18 23.3431 18 25V27.1738C17.6869 27.0631 17.351 27 17 27C16.649 27 16.3131 27.0631 16 27.1738V25C16 24.4477 15.5523 24 15 24H5C4.4477 24 4 24.4477 4 25V35C4 35.5523 4.4477 36 5 36H15C15.5523 36 16 35.5523 16 35V32.8252C16.3131 32.936 16.6489 33 17 33C17.3511 33 17.6869 32.936 18 32.8252V35C18 36.6569 16.6569 38 15 38H5C3.34315 38 2 36.6569 2 35V25C2 23.3431 3.34315 22 5 22H15Z" fill="white"/>
<path d="M35 22C36.6569 22 38 23.3431 38 25V35C38 36.6569 36.6569 38 35 38H25C23.3431 38 22 36.6569 22 35V32.8252C22.3131 32.936 22.6489 33 23 33C23.3511 33 23.6869 32.936 24 32.8252V35C24 35.5523 24.4477 36 25 36H35C35.5523 36 36 35.5523 36 35V25C36 24.4477 35.5523 24 35 24H32.8262C32.9369 23.6869 33 23.351 33 23C33 22.649 32.9369 22.3131 32.8262 22H35ZM27.1738 22C27.0631 22.3131 27 22.649 27 23C27 23.351 27.0631 23.6869 27.1738 24H25C24.4477 24 24 24.4477 24 25V27.1738C23.6869 27.0631 23.351 27 23 27C22.649 27 22.3131 27.0631 22 27.1738V25C22 23.3431 23.3431 22 25 22H27.1738Z" fill="white"/>
<path d="M30 25C31.1046 25 32 24.1046 32 23C32 21.8954 31.1046 21 30 21C28.8954 21 28 21.8954 28 23C28 24.1046 28.8954 25 30 25Z" fill="white"/>
<path d="M17 32C18.1046 32 19 31.1046 19 30C19 28.8954 18.1046 28 17 28C15.8954 28 15 28.8954 15 30C15 31.1046 15.8954 32 17 32Z" fill="white"/>
<path d="M23 32C24.1046 32 25 31.1046 25 30C25 28.8954 24.1046 28 23 28C21.8954 28 21 28.8954 21 30C21 31.1046 21.8954 32 23 32Z" fill="white"/>
<path opacity="0.35" d="M22 9.5H18V10.5H22V9.5Z" fill="white"/>
<path opacity="0.35" d="M29.5 17.5V21.5H30.5V17.5H29.5Z" fill="white"/>
<path opacity="0.35" d="M22 29.5H18V30.5H22V29.5Z" fill="white"/>
<path d="M17 12C18.1046 12 19 11.1046 19 10C19 8.89543 18.1046 8 17 8C15.8954 8 15 8.89543 15 10C15 11.1046 15.8954 12 17 12Z" fill="white"/>
<path d="M23 12C24.1046 12 25 11.1046 25 10C25 8.89543 24.1046 8 23 8C21.8954 8 21 8.89543 21 10C21 11.1046 21.8954 12 23 12Z" fill="#FF4775"/>
<path d="M30 19C31.1046 19 32 18.1046 32 17C32 15.8954 31.1046 15 30 15C28.8954 15 28 15.8954 28 17C28 18.1046 28.8954 19 30 19Z" fill="#FF4775"/>
</svg>
