<svg width="100" height="100" viewBox="0 0 100 100" fill="none" xmlns="http://www.w3.org/2000/svg">
<g clip-path="url(#clip0_12_1994)">
<path d="M50 95C74.8528 95 95 74.8528 95 50C95 25.1472 74.8528 5 50 5C25.1472 5 5 25.1472 5 50C5 74.8528 25.1472 95 50 95Z" stroke="#3C790A" stroke-width="10"/>
<path d="M66.2302 62.2371H74.2352V43.0191L65.2182 34.0021L59.5572 39.6611L66.2302 46.3341V62.2371ZM74.2542 66.2491H62.5972H46.3362L39.6622 59.5771L42.4922 56.7461L48.0052 62.2591H59.3452L48.1732 51.0661L51.0242 48.2151L62.1962 59.3871V48.0461L56.7062 42.5561L59.5142 39.7471L45.6392 25.8081H31.9542H17.7632L25.7462 33.7911V33.8121H25.7882H42.3042L48.1532 39.6611L39.5992 48.2151L33.7512 42.3651V37.8251H25.7462V45.6801L39.5992 59.5351L33.9612 65.1741L42.9782 74.1921H56.6622H82.2382L74.2542 66.2491Z" fill="#3C790A"/>
</g>
<defs>
<clipPath id="clip0_12_1994">
<rect width="100" height="100" fill="white"/>
</clipPath>
</defs>
</svg>
