<svg width="121" height="40" viewBox="0 0 121 40" fill="none" xmlns="http://www.w3.org/2000/svg">
<path fillRule="evenodd" clipRule="evenodd" d="M9.1979 33.7156L4.91251 35.9378V38.2599L11.6019 34.7911V8.1244L15.8873 5.90218V3.58008L9.1979 7.04891V33.7156ZM17.1415 6.66667L12.8562 8.88889V35.5556L4.28539 40L0 37.7778V33.3333L4.28539 31.1111V4.44444L12.8562 0L17.1415 2.22222V6.66667ZM15.0952 2.57595L8.57077 5.95922L6.33177 4.79817L12.8562 1.4149L15.0952 2.57595ZM5.53964 5.8023V31.0541L7.94364 32.3007V7.04891L5.53964 5.8023ZM7.20651 33.3333L4.96751 32.1723L2.04639 33.6871L4.28539 34.8481L7.20651 33.3333ZM3.65826 35.9378L1.25426 34.6912V37.0133L3.65826 38.2599V35.9378Z" fill="#16A34A"/>
<path d="M116.58 28.672C115.769 28.672 115.033 28.4693 114.372 28.064C113.711 27.6587 113.177 27.1253 112.772 26.464C112.367 25.8027 112.164 25.0667 112.164 24.256V4H116.388V24.096C116.388 24.2027 116.42 24.2987 116.484 24.384C116.569 24.448 116.665 24.48 116.772 24.48H120.324V28.672H116.58Z" fill="white"/>
<path d="M104.578 36.0318V28.6718H94.3061C93.4741 28.6718 92.7275 28.4692 92.0661 28.0638C91.4048 27.6585 90.8715 27.1252 90.4661 26.4638C90.0821 25.8025 89.8901 25.0665 89.8901 24.2558V14.5278C89.8901 13.7172 90.0821 12.9812 90.4661 12.3198C90.8715 11.6585 91.4048 11.1251 92.0661 10.7198C92.7275 10.3145 93.4741 10.1118 94.3061 10.1118H108.77V36.0318H104.578ZM94.4981 24.4798H104.194C104.301 24.4798 104.386 24.4478 104.45 24.3838C104.535 24.2985 104.578 24.2025 104.578 24.0958V14.6878C104.578 14.5811 104.535 14.4958 104.45 14.4318C104.386 14.3465 104.301 14.3038 104.194 14.3038H94.4981C94.3915 14.3038 94.2955 14.3465 94.2101 14.4318C94.1461 14.4958 94.1141 14.5811 94.1141 14.6878V24.0958C94.1141 24.2025 94.1461 24.2985 94.2101 24.3838C94.2955 24.4478 94.3915 24.4798 94.4981 24.4798Z" fill="white"/>
<path d="M69.6343 28.6717V4.03174H73.8263V10.1117H84.0663C84.8769 10.1117 85.6129 10.3144 86.2743 10.7197C86.9569 11.1251 87.4903 11.6584 87.8743 12.3197C88.2796 12.9811 88.4823 13.7171 88.4823 14.5277V24.2557C88.4823 25.0664 88.2796 25.8024 87.8743 26.4637C87.4903 27.1251 86.9569 27.6584 86.2743 28.0637C85.6129 28.4691 84.8769 28.6717 84.0663 28.6717H69.6343ZM74.2103 24.4797H83.9063C84.0129 24.4797 84.0983 24.4477 84.1623 24.3837C84.2476 24.2984 84.2903 24.2024 84.2903 24.0957V14.6877C84.2903 14.5811 84.2476 14.4957 84.1623 14.4317C84.0983 14.3464 84.0129 14.3037 83.9063 14.3037H74.2103C74.1036 14.3037 74.0076 14.3464 73.9223 14.4317C73.8583 14.4957 73.8263 14.5811 73.8263 14.6877V24.0957C73.8263 24.2024 73.8583 24.2984 73.9223 24.3837C74.0076 24.4477 74.1036 24.4797 74.2103 24.4797Z" fill="white"/>
<path d="M52.4868 28.6718C51.6761 28.6718 50.9295 28.4692 50.2468 28.0638C49.5855 27.6585 49.0521 27.1252 48.6468 26.4638C48.2628 25.8025 48.0708 25.0665 48.0708 24.2558V10.1118H52.2628V24.0958C52.2628 24.2025 52.2948 24.2985 52.3588 24.3838C52.4441 24.4478 52.5401 24.4798 52.6468 24.4798H62.3428C62.4495 24.4798 62.5348 24.4478 62.5988 24.3838C62.6841 24.2985 62.7268 24.2025 62.7268 24.0958V10.1118H66.9188V24.2558C66.9188 25.0665 66.7161 25.8025 66.3108 26.4638C65.9268 27.1252 65.4041 27.6585 64.7428 28.0638C64.0815 28.4692 63.3348 28.6718 62.5028 28.6718H52.4868Z" fill="white"/>
<path d="M26.728 28.6717V4.03174H30.92V10.1117H41.16C41.9707 10.1117 42.7067 10.3144 43.368 10.7197C44.0294 11.1251 44.5627 11.6584 44.968 12.3197C45.3734 12.9811 45.576 13.7171 45.576 14.5277V28.6717H41.384V14.6877C41.384 14.5811 41.3414 14.4957 41.256 14.4317C41.192 14.3464 41.1067 14.3037 41 14.3037H31.304C31.1974 14.3037 31.1014 14.3464 31.016 14.4317C30.952 14.4957 30.92 14.5811 30.92 14.6877V28.6717H26.728Z" fill="white"/>
</svg>
