<svg width="512" height="401" viewBox="0 0 512 401" fill="none" xmlns="http://www.w3.org/2000/svg">
<g  clipPath="url(#clip0_1213_25442)">
<mask id="mask0_1213_25442" style="mask-type:luminance" maskUnits="userSpaceOnUse" x="1" y="1" width="510" height="399">
<path d="M495 1H17C8.16344 1 1 8.16344 1 17V384C1 392.837 8.16344 400 17 400H495C503.837 400 511 392.837 511 384V17C511 8.16344 503.837 1 495 1Z" fill="white"/>
</mask>
<g mask="url(#mask0_1213_25442)">
<path d="M495 1.5H17C8.43959 1.5 1.5 8.43959 1.5 17V384C1.5 392.56 8.43959 399.5 17 399.5H495C503.56 399.5 510.5 392.56 510.5 384V17C510.5 8.43959 503.56 1.5 495 1.5Z" fill="#18181B" stroke="#242424"/>
<path d="M511 1H310V400H511V1Z" fill="#27272A"/>
<path d="M321.451 49.366L319 46.1829L321.451 43" stroke="#D4D4D8" stroke-width="1.5" stroke-linecap="round" stroke-linejoin="round"/>
<path d="M310 1H309V400H310V1Z" fill="#343434"/>
<path d="M1 1H511V31H1V1Z" fill="#18181B"/>
<mask id="mask1_1213_25442" style="mask-type:luminance" maskUnits="userSpaceOnUse" x="1" y="1" width="510" height="30">
<path d="M1 1H511V31H1V1Z" fill="#18181B"/>
</mask>
<g mask="url(#mask1_1213_25442)">
<path d="M511 30H1V32H511V30Z" fill="#343434"/>
</g>
<path  fillRule="evenodd"  clipRule="evenodd" d="M18.4671 9.21875H29.5287C30.7704 9.21875 31.777 10.22 31.777 11.4551V22.5473C31.777 23.7824 30.7704 24.7837 29.5287 24.7837H18.4671C17.2254 24.7837 16.2188 23.7824 16.2188 22.5473V11.4551C16.2188 10.22 17.2254 9.21875 18.4671 9.21875ZM18.4671 9.84493C17.5731 9.84493 16.8483 10.5658 16.8483 11.4551V22.5473C16.8483 23.4366 17.5731 24.1575 18.4671 24.1575H29.5287C30.4227 24.1575 31.1474 23.4366 31.1474 22.5473V11.4551C31.1474 10.5658 30.4227 9.84493 29.5287 9.84493H18.4671Z" fill="#FCFBFC"/>
<path  fillRule="evenodd"  clipRule="evenodd" d="M18.4692 9H29.5308C30.8966 9 32 10.1007 32 11.4539V22.5461C32 23.8993 30.8966 25 29.5308 25H18.4692C17.1034 25 16 23.8993 16 22.5461V11.4539C16 10.1007 17.1034 9 18.4692 9ZM18.4692 10.0612C17.6993 10.0612 17.0713 10.6826 17.0713 11.4539V22.5461C17.0713 23.3174 17.6993 23.9388 18.4692 23.9388H29.5308C30.3007 23.9388 30.9287 23.3174 30.9287 22.5461V11.4539C30.9287 10.6826 30.3007 10.0612 29.5308 10.0612H18.4692ZM29.5308 9.21751H18.4692C17.2275 9.21751 16.2209 10.2188 16.2209 11.4539V22.5461C16.2209 23.7812 17.2275 24.7825 18.4692 24.7825H29.5308C30.7725 24.7825 31.7791 23.7812 31.7791 22.5461V11.4539C31.7791 10.2188 30.7725 9.21751 29.5308 9.21751ZM16.8504 11.4539C16.8504 10.5646 17.5752 9.84369 18.4692 9.84369H29.5308C30.4248 9.84369 31.1496 10.5646 31.1496 11.4539V22.5461C31.1496 23.4354 30.4248 24.1563 29.5308 24.1563H18.4692C17.5752 24.1563 16.8504 23.4354 16.8504 22.5461V11.4539Z" fill="#FCFBFC"/>
<path d="M23.9099 21.9939C24.0566 21.7007 24.13 21.3353 24.13 20.8976V13.1886C24.13 12.8915 24.1776 12.6414 24.2728 12.4382C24.3679 12.231 24.5067 12.0727 24.6891 11.9633C24.8716 11.8539 25.0917 11.7992 25.3494 11.7992C25.4882 11.7992 25.6052 11.805 25.7004 11.8167C25.8474 11.8349 25.9959 11.745 26.0203 11.5988L26.0276 11.5551C26.0513 11.4135 25.9655 11.2747 25.8245 11.2487C25.7712 11.2388 25.718 11.2308 25.6647 11.2246C25.5299 11.2051 25.395 11.1953 25.2602 11.1953C24.8795 11.1953 24.5504 11.2715 24.2728 11.424C23.9991 11.5764 23.787 11.8011 23.6363 12.0981C23.4895 12.3913 23.4162 12.7547 23.4162 13.1886V20.8976C23.4162 21.2024 23.3706 21.4565 23.2793 21.6597C23.1881 21.8668 23.0573 22.0212 22.8867 22.1228C22.7202 22.2284 22.514 22.2811 22.2681 22.2811C22.1808 22.2811 22.0857 22.2713 21.9826 22.2518C21.8529 22.2272 21.7192 22.3107 21.6976 22.441L21.6836 22.5256C21.6605 22.6652 21.7413 22.8034 21.879 22.8354C21.9119 22.843 21.9444 22.8498 21.9766 22.8556C22.0837 22.8752 22.1987 22.8849 22.3216 22.8849C22.7023 22.8849 23.0255 22.8107 23.2912 22.6622C23.5609 22.5137 23.7671 22.2909 23.9099 21.9939Z" fill="#15D465"/>
<path  fillRule="evenodd"  clipRule="evenodd" d="M17.0703 11.4552C17.0703 10.6839 17.6983 10.0625 18.4682 10.0625H29.5298C30.2997 10.0625 30.9277 10.6839 30.9277 11.4552V22.5474C30.9277 23.3187 30.2997 23.9401 29.5298 23.9401H18.4682C17.6983 23.9401 17.0703 23.3187 17.0703 22.5474V11.4552ZM24.1303 20.9007C24.1303 21.3384 24.0569 21.7038 23.9102 21.997C23.7674 22.294 23.5612 22.5168 23.2915 22.6653C23.0258 22.8138 22.7026 22.888 22.3219 22.888C22.199 22.888 22.084 22.8783 21.9769 22.8587C21.9447 22.8529 21.9122 22.8461 21.8793 22.8385C21.7416 22.8065 21.6608 22.6683 21.6839 22.5287L21.6979 22.4441C21.7195 22.3138 21.8532 22.2303 21.9829 22.2549C22.086 22.2744 22.1811 22.2842 22.2684 22.2842C22.5143 22.2842 22.7205 22.2315 22.887 22.1259C23.0576 22.0243 23.1884 21.8699 23.2796 21.6628C23.3709 21.4596 23.4165 21.2055 23.4165 20.9007V13.1917C23.4165 12.7578 23.4898 12.3944 23.6366 12.1012C23.7873 11.8042 23.9994 11.5795 24.2731 11.4271C24.5507 11.2746 24.8798 11.1984 25.2605 11.1984C25.3953 11.1984 25.5302 11.2082 25.665 11.2277C25.7183 11.2339 25.7715 11.2419 25.8248 11.2518C25.9658 11.2778 26.0516 11.4166 26.0279 11.5582L26.0206 11.6019C25.9962 11.7481 25.8477 11.838 25.7007 11.8198C25.6055 11.8081 25.4885 11.8023 25.3497 11.8023C25.092 11.8023 24.8719 11.857 24.6894 11.9664C24.507 12.0758 24.3682 12.2341 24.2731 12.4413C24.1779 12.6445 24.1303 12.8946 24.1303 13.1917V20.9007Z" fill="#171A17"/>
<mask id="mask2_1213_25442" style="mask-type:luminance" maskUnits="userSpaceOnUse" x="386" y="8" width="16" height="16">
<path d="M402 16C402 11.5817 398.418 8 394 8C389.582 8 386 11.5817 386 16C386 20.4183 389.582 24 394 24C398.418 24 402 20.4183 402 16Z" fill="white"/>
</mask>
<g mask="url(#mask2_1213_25442)">
<mask id="mask3_1213_25442" style="mask-type:luminance" maskUnits="userSpaceOnUse" x="386" y="8" width="18" height="18">
<path d="M404 17C404 12.0294 399.971 8 395 8C390.029 8 386 12.0294 386 17C386 21.9706 390.029 26 395 26C399.971 26 404 21.9706 404 17Z" fill="white"/>
</mask>
<g mask="url(#mask3_1213_25442)">
<path d="M404 17C404 12.0294 399.971 8 395 8C390.029 8 386 12.0294 386 17C386 21.9706 390.029 26 395 26C399.971 26 404 21.9706 404 17Z" fill="#9CDCFE"/>
<path d="M392.22 20.1979L393.277 18.7695L398.373 19.003C398.602 19.4791 399.354 20.7336 400.53 21.9423C401.999 23.4532 403.395 23.8139 403.528 23.9664C403.861 24.3461 404.176 24.6585 404.312 24.877C404.39 25.0023 404.854 25.6839 405.213 26.2826H384.817C384.725 26.0811 384.811 25.2717 385.888 23.6455C386.965 22.0192 390.558 20.6696 392.22 20.1979Z" fill="#114139"/>
<path d="M393.266 18.7754V17.5454L398.275 17.3672C398.316 18.0504 398.431 19.5062 398.56 19.8627C398.688 20.2192 398.613 23.3149 398.56 24.8181C397.932 24.4473 394.769 20.6351 393.266 18.7754Z" fill="#E8684F"/>
<path d="M398.562 13.3039C398.562 15.0661 399.278 17.6546 395.633 17.5793C393.03 17.5256 392.703 15.0661 392.703 13.3039C392.703 11.5418 394.015 10.1133 395.633 10.1133C397.251 10.1133 398.562 11.5418 398.562 13.3039Z" fill="#E8684F"/>
<path d="M398.804 16.8138C398.804 18.1305 398.211 19.1979 396.42 19.1979C394.629 19.1979 392.992 18.1305 392.992 16.8138C392.992 15.4971 395.103 14.4297 396.42 14.4297C397.737 14.4297 398.804 15.4971 398.804 16.8138Z" fill="#E8684F"/>
<path d="M393.597 15.7352C393.597 16.4972 393.271 17.8212 392.973 16.9787C392.808 16.5144 392.219 16.8874 391.977 15.5665C391.977 14.8045 392.47 14.3555 392.871 14.3555C393.272 14.3555 393.597 14.9732 393.597 15.7352Z" fill="#E8684F"/>
<path d="M399.29 15.7718C399.29 16.1184 398.589 17.0271 398.469 17.1139C398.016 17.1139 397.648 16.513 397.648 15.7718C397.648 15.0306 398.016 14.4297 398.469 14.4297C398.922 14.4297 399.465 14.4297 399.29 15.7718Z" fill="#E8684F"/>
<path  fillRule="evenodd"  clipRule="evenodd" d="M393.322 17.7201C393.365 17.6766 393.435 17.6766 393.479 17.7201C393.716 17.9576 394.143 18.3128 394.645 18.5997C395.15 18.8877 395.715 19.0986 396.236 19.0672C397.298 19.0032 398.056 18.3339 398.298 18.0143C398.334 17.9653 398.404 17.9555 398.453 17.9925C398.502 18.0294 398.512 18.0991 398.475 18.1481C398.206 18.5043 397.394 19.2201 396.249 19.289C395.665 19.3242 395.054 19.0891 394.535 18.7926C394.014 18.4949 393.572 18.1272 393.322 17.8771C393.278 17.8338 393.278 17.7634 393.322 17.7201Z" fill="#171A17"/>
<path  fillRule="evenodd"  clipRule="evenodd" d="M396.723 14.9431C396.723 14.8818 396.772 14.832 396.834 14.832C397.127 14.832 397.37 14.9409 397.48 15.1801C397.585 15.4096 397.55 15.7217 397.386 16.0868C397.236 16.4212 396.872 16.4963 396.564 16.4654C396.405 16.4495 396.248 16.4055 396.115 16.3444C395.985 16.2846 395.867 16.2028 395.8 16.1035C395.766 16.0526 395.779 15.9835 395.83 15.9492C395.881 15.915 395.95 15.9284 395.984 15.9793C396.019 16.0303 396.095 16.0906 396.208 16.1426C396.318 16.1933 396.452 16.2308 396.586 16.2442C396.862 16.2719 397.093 16.1966 397.183 15.996C397.337 15.6526 397.344 15.4156 397.278 15.273C397.217 15.1402 397.075 15.0543 396.834 15.0543C396.772 15.0543 396.723 15.0045 396.723 14.9431Z" fill="#171A17"/>
<path d="M395.065 14.4694C395.065 14.6251 394.984 14.7513 394.884 14.7513C394.784 14.7513 394.703 14.6251 394.703 14.4694C394.703 14.3137 394.784 14.1875 394.884 14.1875C394.984 14.1875 395.065 14.3137 395.065 14.4694Z" fill="#D9D9D9"/>
<path d="M398.018 14.4694C398.018 14.6251 397.937 14.7513 397.837 14.7513C397.737 14.7513 397.656 14.6251 397.656 14.4694C397.656 14.3137 397.737 14.1875 397.837 14.1875C397.937 14.1875 398.018 14.3137 398.018 14.4694Z" fill="#18181B"/>
<path d="M395.065 14.4694C395.065 14.6251 394.984 14.7513 394.884 14.7513C394.784 14.7513 394.703 14.6251 394.703 14.4694C394.703 14.3137 394.784 14.1875 394.884 14.1875C394.984 14.1875 395.065 14.3137 395.065 14.4694Z" fill="#171A17"/>
<path d="M398.018 14.4694C398.018 14.6251 397.937 14.7513 397.837 14.7513C397.737 14.7513 397.656 14.6251 397.656 14.4694C397.656 14.3137 397.737 14.1875 397.837 14.1875C397.937 14.1875 398.018 14.3137 398.018 14.4694Z" fill="#171A17"/>
<path  fillRule="evenodd"  clipRule="evenodd" d="M394.722 13.8526C394.506 13.9357 394.337 14.0619 394.254 14.1447C394.168 14.2315 394.027 14.2315 393.94 14.1447C393.853 14.058 393.853 13.9172 393.94 13.8304C394.064 13.706 394.285 13.5444 394.562 13.4378C394.842 13.3302 395.192 13.274 395.563 13.3837C395.681 13.4184 395.748 13.542 395.714 13.6597C395.679 13.7775 395.555 13.8447 395.438 13.8099C395.183 13.7348 394.936 13.7704 394.722 13.8526Z" fill="#171A17"/>
<path  fillRule="evenodd"  clipRule="evenodd" d="M397.921 13.6226C397.763 13.6691 397.631 13.7439 397.565 13.7929C397.467 13.866 397.328 13.8453 397.255 13.7467C397.181 13.6481 397.202 13.5089 397.301 13.4358C397.406 13.3575 397.584 13.2582 397.795 13.1962C398.006 13.1341 398.27 13.1039 398.532 13.19C398.649 13.2282 398.713 13.3537 398.674 13.4703C398.636 13.587 398.511 13.6506 398.394 13.6124C398.245 13.5634 398.079 13.5762 397.921 13.6226Z" fill="#171A17"/>
<path  fillRule="evenodd"  clipRule="evenodd" d="M395.636 16.9237C395.692 16.8987 395.758 16.924 395.783 16.98C395.804 17.0279 395.852 17.1038 395.92 17.1643C395.987 17.224 396.067 17.2623 396.158 17.2569C396.413 17.2418 396.962 17.2499 397.224 17.2562C397.267 17.2383 397.324 17.2112 397.37 17.1808C397.397 17.163 397.416 17.147 397.427 17.1344C397.43 17.1318 397.431 17.1297 397.432 17.1282C397.438 17.0721 397.485 17.0283 397.543 17.0283C397.604 17.0283 397.654 17.0781 397.654 17.1394C397.654 17.2023 397.621 17.2512 397.593 17.2822C397.564 17.3151 397.527 17.3433 397.492 17.3665C397.421 17.4131 397.339 17.4507 397.284 17.4716L397.263 17.4794L397.241 17.479C396.987 17.4726 396.422 17.4638 396.171 17.4788C396.004 17.4886 395.869 17.4159 395.773 17.3306C395.677 17.2461 395.612 17.143 395.58 17.0704C395.555 17.0143 395.58 16.9486 395.636 16.9237Z" fill="#171A17"/>
<path  fillRule="evenodd"  clipRule="evenodd" d="M392.434 15.1356C392.461 15.0807 392.528 15.0585 392.583 15.086C392.656 15.1229 392.793 15.2447 392.755 15.444C392.744 15.5031 392.717 15.5608 392.689 15.61C392.664 15.6554 392.634 15.7009 392.608 15.7408C392.605 15.7449 392.603 15.749 392.6 15.7529C392.571 15.7982 392.548 15.8333 392.535 15.861C392.532 15.8677 392.53 15.8727 392.529 15.8763C392.539 15.9261 392.514 15.9783 392.466 16.0003C392.41 16.0257 392.344 16.0011 392.319 15.9452C392.301 15.9061 392.303 15.8677 392.308 15.8405C392.314 15.8131 392.324 15.7872 392.335 15.7653C392.355 15.7219 392.386 15.6742 392.414 15.6316C392.416 15.6277 392.419 15.6239 392.421 15.6201C392.448 15.579 392.474 15.5399 392.495 15.5017C392.519 15.4591 392.532 15.4262 392.537 15.4026C392.544 15.3672 392.535 15.3422 392.523 15.3234C392.509 15.3018 392.491 15.2885 392.483 15.2847C392.428 15.2572 392.406 15.1904 392.434 15.1356Z" fill="#171A17"/>
<path  fillRule="evenodd"  clipRule="evenodd" d="M398.853 14.9688C398.915 14.9688 398.964 15.0185 398.964 15.0799V15.3381C398.964 15.3381 398.967 15.346 398.973 15.3588C398.981 15.3768 398.994 15.399 399.011 15.4235C399.044 15.4725 399.084 15.5221 399.11 15.5521C399.151 15.598 399.147 15.6682 399.101 15.7089C399.055 15.7496 398.985 15.7453 398.944 15.6993C398.912 15.6638 398.866 15.6064 398.826 15.5473C398.806 15.5178 398.787 15.4857 398.772 15.4542C398.758 15.4258 398.742 15.3849 398.742 15.3419V15.0799C398.742 15.0185 398.792 14.9688 398.853 14.9688Z" fill="#171A17"/>
<path  fillRule="evenodd"  clipRule="evenodd" d="M395.06 21.1521C395.078 21.0935 395.14 21.061 395.199 21.0793C395.502 21.1744 395.969 21.3286 396.386 21.4825C396.594 21.5593 396.791 21.6367 396.95 21.7068C397.029 21.7419 397.1 21.7758 397.159 21.8074C397.215 21.838 397.267 21.8702 397.303 21.903C397.348 21.9445 397.351 22.0148 397.31 22.06C397.268 22.1053 397.198 22.1083 397.153 22.0668C397.138 22.0533 397.106 22.0317 397.053 22.0029C397.002 21.9751 396.937 21.9439 396.86 21.9101C396.708 21.8426 396.515 21.7671 396.309 21.691C395.896 21.5387 395.433 21.3857 395.132 21.2914C395.074 21.273 395.041 21.2106 395.06 21.1521Z" fill="#171A17"/>
<path  fillRule="evenodd"  clipRule="evenodd" d="M398.726 21.4876C398.744 21.5461 398.712 21.6086 398.653 21.6272C398.58 21.6505 398.462 21.6941 398.348 21.7475C398.23 21.8034 398.135 21.8618 398.093 21.9102C398.053 21.9563 397.982 21.961 397.936 21.9205C397.89 21.8802 397.885 21.8099 397.926 21.7638C398.001 21.6775 398.135 21.6027 398.253 21.5465C398.377 21.4882 398.505 21.4412 398.586 21.4154C398.645 21.3968 398.707 21.4292 398.726 21.4876Z" fill="#171A17"/>
<path  fillRule="evenodd"  clipRule="evenodd" d="M392.533 20.4609C392.594 20.4609 392.644 20.5107 392.644 20.5721V22.8164C392.644 22.9174 392.771 22.9696 392.843 22.8937C393.187 22.5278 393.61 22.0944 393.995 21.7311C394.188 21.5496 394.373 21.3846 394.534 21.2539C394.693 21.1254 394.839 21.0231 394.951 20.975C395.007 20.9507 395.073 20.9769 395.097 21.0333C395.121 21.0897 395.095 21.1551 395.039 21.1792C394.957 21.2142 394.832 21.2989 394.674 21.4267C394.518 21.5525 394.338 21.7133 394.148 21.8929C393.767 22.2519 393.347 22.6818 393.004 23.0461C392.797 23.2661 392.422 23.1219 392.422 22.8164V20.5721C392.422 20.5107 392.472 20.4609 392.533 20.4609Z" fill="#5E9D92"/>
<path  fillRule="evenodd"  clipRule="evenodd" d="M398.55 20.9992C398.595 20.957 398.665 20.9589 398.707 21.0035L400.559 22.9604C400.601 23.005 400.599 23.0753 400.555 23.1175C400.51 23.1596 400.44 23.1577 400.398 23.1132L398.546 21.1563C398.504 21.1116 398.506 21.0413 398.55 20.9992Z" fill="#5E9D92"/>
<path  fillRule="evenodd"  clipRule="evenodd" d="M386.329 23.431C386.314 23.4416 386.299 23.452 386.285 23.4622C386.235 23.4977 386.165 23.4858 386.13 23.4357C386.094 23.3856 386.106 23.3163 386.156 23.2808C386.176 23.2671 386.195 23.2531 386.216 23.2388C386.763 22.8496 387.662 22.2103 388.744 22.5796C389.699 22.9058 390.253 23.7037 390.502 24.4113C390.703 24.9848 390.683 25.7396 390.645 26.2407C390.641 26.3019 390.588 26.3478 390.526 26.3433C390.465 26.3387 390.419 26.2855 390.424 26.2243C390.461 25.723 390.477 25.0104 390.292 24.4849C390.058 23.8189 389.543 23.0872 388.672 22.7899C387.7 22.4582 386.888 23.0341 386.329 23.431Z" fill="#5E9D92"/>
</g>
<path d="M403.5 17C403.5 12.3056 399.694 8.5 395 8.5C390.306 8.5 386.5 12.3056 386.5 17C386.5 21.6944 390.306 25.5 395 25.5C399.694 25.5 403.5 21.6944 403.5 17Z" stroke="#15D465"/>
</g>
<path d="M401.5 16C401.5 11.8579 398.142 8.5 394 8.5C389.858 8.5 386.5 11.8579 386.5 16C386.5 20.1421 389.858 23.5 394 23.5C398.142 23.5 401.5 20.1421 401.5 16Z" stroke="#15D465"/>
<mask id="mask4_1213_25442" style="mask-type:luminance" maskUnits="userSpaceOnUse" x="398" y="8" width="17" height="16">
<path d="M414.227 16C414.227 11.5817 410.645 8 406.227 8C401.808 8 398.227 11.5817 398.227 16C398.227 20.4183 401.808 24 406.227 24C410.645 24 414.227 20.4183 414.227 16Z" fill="white"/>
</mask>
<g mask="url(#mask4_1213_25442)">
<mask id="mask5_1213_25442" style="mask-type:luminance" maskUnits="userSpaceOnUse" x="398" y="8" width="17" height="16">
<path d="M414.227 16C414.227 11.5817 410.645 8 406.227 8C401.808 8 398.227 11.5817 398.227 16C398.227 20.4183 401.808 24 406.227 24C410.645 24 414.227 20.4183 414.227 16Z" fill="white"/>
</mask>
<g mask="url(#mask5_1213_25442)">
<path d="M414.227 16C414.227 11.5817 410.645 8 406.227 8C401.808 8 398.227 11.5817 398.227 16C398.227 20.4183 401.808 24 406.227 24C410.645 24 414.227 20.4183 414.227 16Z" fill="#7E7E7E"/>
<path d="M411.546 20.7502C411.184 20.5011 409.638 19.0603 408.911 18.3711L404.595 19.6461C403.338 20.7332 401.117 22.0055 400.164 22.5057L401.049 27.3423H407.534C409.011 24.8036 411.908 20.9994 411.546 20.7502Z" fill="#F6C0B4"/>
<path d="M408.921 18.3793L408.502 17.668L405.921 18.0209L405.05 19.3224L404.625 19.6312L405.221 22.2066L408.921 18.3793Z" fill="#EFEFEF"/>
<path d="M405.336 21.353L406.234 18.3511L408.511 17.6745V16.0977L403.625 17.9194L405.053 18.4987V19.3231L405.336 21.353Z" fill="#E8684F"/>
<path  fillRule="evenodd"  clipRule="evenodd" d="M408.513 15.1968C409.01 14.6704 409.312 13.9738 409.312 13.2098C409.312 11.5687 407.917 10.2383 406.195 10.2383C404.473 10.2383 403.078 11.5687 403.078 13.2098C403.078 13.4915 403.119 13.7639 403.196 14.0221C403.159 14.136 403.064 14.43 402.98 14.6457C402.962 14.6911 402.951 14.7331 402.94 14.7725C402.906 14.8934 402.879 14.9899 402.707 15.0853C402.501 15.1998 402.564 15.468 402.605 15.6441C402.608 15.6589 402.611 15.6731 402.614 15.6865C402.645 15.8238 402.804 15.8867 403 15.9098V17.229C403 17.6902 403.453 18.0295 403.9 17.9035L407.845 16.791H408.513V15.1968Z" fill="#E8684F"/>
<path  fillRule="evenodd"  clipRule="evenodd" d="M409.252 11.9858C409.253 11.9664 409.254 11.9464 409.254 11.9255C409.254 11.3192 408.696 10.3932 408.042 10.3932C407.767 10.3332 407.486 10.3108 407.263 10.3624C407.056 10.0724 406.68 9.87832 406.249 9.87832C406.031 9.87832 405.908 9.92093 405.841 9.99812C405.633 9.84599 405.362 9.75391 405.066 9.75391C404.439 9.75391 403.925 10.1653 403.885 10.6855C403.508 10.8173 403.155 11.0954 403.123 11.405C403.123 11.4997 403.121 11.5795 403.119 11.647C403.112 11.9701 403.111 12.0106 403.354 12.0361C403.353 12.0436 403.351 12.0511 403.35 12.0586L403.689 11.8242C403.788 11.7561 403.907 11.7194 404.029 11.7194H406.129C406.229 11.7194 406.299 11.8134 406.266 11.9033L406.077 12.4169C406.01 12.5979 406.047 12.7991 406.173 12.9481L406.257 13.0461C406.383 13.1938 406.451 13.3781 406.451 13.5683V14.1877C406.451 14.2639 406.516 14.3257 406.596 14.3257H406.873C406.906 14.2687 406.943 14.2121 406.983 14.1562C407.436 13.5237 408.012 13.0385 408.567 13.348C408.995 13.587 409.079 14.3468 408.251 15.1626C408.152 15.2597 408.213 15.4252 408.213 15.4252L408.501 15.4379V15.4532C409.079 14.8021 409.439 13.8903 409.439 12.8811C409.439 12.5355 409.372 12.2393 409.252 11.9858Z" fill="#171A17"/>
<path  fillRule="evenodd"  clipRule="evenodd" d="M408.792 19.4471C408.766 19.4196 408.722 19.4186 408.694 19.445C408.088 20.0266 407.229 20.8934 406.491 21.645C406.255 21.8849 406.031 22.1127 405.832 22.316C405.487 22.6681 405.215 22.9461 405.077 23.0835C404.936 22.7145 404.743 22.2023 404.578 21.7556C404.488 21.5116 404.406 21.2873 404.346 21.1167C404.316 21.0313 404.292 20.9598 404.274 20.906C404.266 20.879 404.259 20.857 404.254 20.8402C404.252 20.8318 404.25 20.825 404.249 20.8198C404.248 20.8172 404.247 20.8138 404.247 20.8138V20.8118C404.242 20.7739 404.208 20.7471 404.17 20.7519C404.132 20.7566 404.105 20.7912 404.11 20.829C404.113 20.8521 404.126 20.8963 404.143 20.9484C404.161 21.0039 404.186 21.0767 404.216 21.1626C404.276 21.3342 404.358 21.5593 404.448 21.8035C404.629 22.292 404.843 22.8585 404.985 23.231L405.022 23.3275L405.097 23.2567C405.188 23.1713 405.507 22.845 405.936 22.4072C406.134 22.205 406.356 21.979 406.589 21.7419C407.328 20.9899 408.185 20.1246 408.79 19.5447C408.818 19.5183 408.818 19.4746 408.792 19.4471Z" fill="#5C5C5C"/>
<path d="M400.087 22.5032C400.792 22.2431 403.598 20.3798 404.987 19.3594C403.437 20.8588 402.658 25.3211 402.422 27.3482H399.94C399.88 26.7807 399.976 23.85 400.087 22.5032Z" fill="#CC6761"/>
<path d="M415.353 23.3279C412.104 21.695 410.31 19.496 408.939 18.3711C408.622 18.9543 407.523 25.6813 407.523 27.3474H415.687C415.387 26.3144 415.34 24.2373 415.353 23.3279Z" fill="#CC6761"/>
<path  fillRule="evenodd"  clipRule="evenodd" d="M409.727 19.023C409.693 19.0403 409.679 19.0817 409.696 19.1158C409.924 19.5668 410.264 20.2563 410.544 20.8591C410.685 21.1607 410.81 21.4398 410.899 21.6563C410.943 21.7645 410.978 21.8563 411.001 21.9267C411.008 21.9469 411.013 21.965 411.018 21.981L408.541 21.7958L408.508 21.9278L410.668 22.8801L408.212 27.3944C408.193 27.4279 408.206 27.4699 408.239 27.4881C408.273 27.5063 408.315 27.494 408.333 27.4604L410.861 22.8143L408.931 21.9635L411.163 22.1303L411.169 22.0626C411.171 22.0381 411.167 22.0097 411.161 21.9831C411.154 21.9547 411.144 21.9212 411.132 21.8836C411.108 21.8086 411.071 21.7134 411.026 21.6038C410.936 21.3844 410.81 21.103 410.67 20.8008C410.388 20.1962 410.048 19.5053 409.82 19.0536C409.802 19.0196 409.761 19.0059 409.727 19.023Z" fill="#501717"/>
<path  fillRule="evenodd"  clipRule="evenodd" d="M404.562 19.6162C404.538 19.5863 404.495 19.581 404.465 19.6046C404.227 19.7913 403.911 20.0503 403.597 20.3075C403.467 20.4142 403.337 20.5206 403.213 20.6213C403.002 20.7935 402.808 20.9493 402.661 21.0632C402.587 21.1202 402.525 21.1662 402.479 21.1982C402.456 21.2142 402.437 21.2262 402.423 21.2342C402.419 21.2365 402.416 21.2382 402.414 21.2395L402.413 21.2398C402.408 21.2409 402.404 21.2419 402.401 21.2427C402.399 21.2431 402.396 21.2442 402.396 21.2442C402.396 21.2442 402.39 21.2458 402.384 21.2484C402.384 21.2484 402.379 21.2511 402.374 21.2544C402.372 21.2562 402.366 21.2609 402.363 21.2641C402.359 21.2691 402.35 21.2838 402.347 21.2936C402.345 21.3079 402.35 21.3366 402.357 21.3498C402.364 21.3585 402.378 21.37 402.384 21.3734C402.395 21.3785 402.405 21.3795 402.407 21.3797C402.413 21.3804 402.419 21.3799 402.419 21.3799L402.423 21.3796C402.427 21.3792 402.431 21.3785 402.434 21.378C402.443 21.3766 402.451 21.374 402.459 21.3708C402.476 21.3667 402.502 21.361 402.534 21.3538C402.604 21.3384 402.704 21.3166 402.82 21.2914C402.845 21.2859 402.871 21.2803 402.897 21.2745C403.069 21.2369 403.268 21.1935 403.455 21.1518L401.992 22.1154L402.26 27.3495C402.262 27.3876 402.294 27.4169 402.332 27.415C402.371 27.413 402.4 27.3805 402.398 27.3425L402.134 22.1872L403.849 21.0578L403.795 20.9328C403.54 20.9926 403.165 21.0747 402.867 21.1396C402.841 21.1454 402.815 21.151 402.79 21.1564C402.779 21.1589 402.768 21.1614 402.757 21.1638C402.904 21.0495 403.094 20.8963 403.3 20.7284C403.425 20.627 403.555 20.5201 403.686 20.4133C403.999 20.1564 404.314 19.899 404.55 19.7132C404.58 19.6896 404.585 19.6462 404.562 19.6162Z" fill="#501717"/>
<path  fillRule="evenodd"  clipRule="evenodd" d="M415.338 23.298C415.375 23.2912 415.411 23.3163 415.418 23.3538C415.424 23.3913 415.399 23.4272 415.362 23.4339C414.85 23.5253 413.626 23.9293 412.838 24.8051C412.201 25.513 411.643 26.4477 411.282 27.3461H411.133C411.501 26.4153 412.076 25.4448 412.735 24.7127C413.552 23.8056 414.809 23.3923 415.338 23.298Z" fill="#501717"/>
<path  fillRule="evenodd"  clipRule="evenodd" d="M407.853 13.7176C407.944 13.6458 408.052 13.6063 408.125 13.5913C408.162 13.5836 408.199 13.6076 408.206 13.645C408.214 13.6823 408.19 13.7188 408.153 13.7265C408.096 13.7382 408.009 13.7702 407.938 13.8262C407.868 13.8812 407.818 13.955 407.818 14.0539C407.818 14.092 407.787 14.1228 407.749 14.1227C407.71 14.1226 407.68 14.0915 407.68 14.0534C407.68 13.9006 407.76 13.7904 407.853 13.7176Z" fill="#171A17"/>
<path  fillRule="evenodd"  clipRule="evenodd" d="M408.523 13.9863C408.56 13.9951 408.583 14.0323 408.574 14.0694C408.56 14.1295 408.527 14.2208 408.472 14.3063C408.417 14.3913 408.336 14.4782 408.224 14.5157C408.188 14.5278 408.148 14.5082 408.136 14.4721C408.124 14.4359 408.144 14.3968 408.18 14.3847C408.251 14.3612 408.31 14.3032 408.356 14.2317C408.401 14.1608 408.429 14.0842 408.44 14.0375C408.449 14.0004 408.486 13.9774 408.523 13.9863Z" fill="#171A17"/>
<path d="M407.886 14.8178C407.886 14.8941 407.824 14.9559 407.748 14.9559C407.671 14.9559 407.609 14.8941 407.609 14.8178C407.609 14.7415 407.671 14.6797 407.748 14.6797C407.824 14.6797 407.886 14.7415 407.886 14.8178Z" fill="#171A17"/>
<path  fillRule="evenodd"  clipRule="evenodd" d="M403.864 13.7794C403.809 13.8009 403.784 13.82 403.778 13.8263C403.699 13.9088 403.568 13.9113 403.485 13.832C403.403 13.7526 403.401 13.6215 403.48 13.5391C403.544 13.4723 403.63 13.426 403.713 13.3935C403.799 13.3599 403.897 13.3353 404 13.3199C404.203 13.2893 404.442 13.2926 404.662 13.3505C404.773 13.3797 404.839 13.493 404.81 13.6036C404.781 13.7142 404.667 13.7803 404.557 13.7512C404.4 13.7099 404.219 13.706 404.061 13.7296C403.983 13.7413 403.916 13.7591 403.864 13.7794Z" fill="#171A17"/>
<path d="M404.277 14.3751C404.277 14.4809 404.23 14.5667 404.171 14.5667C404.112 14.5667 404.062 14.4809 404.062 14.3751C404.062 14.2694 404.112 14.1836 404.171 14.1836C404.23 14.1836 404.277 14.2694 404.277 14.3751Z" fill="#18181B"/>
<path  fillRule="evenodd"  clipRule="evenodd" d="M406.686 16.9736C406.724 16.9799 406.749 17.0155 406.743 17.0531C406.736 17.0907 406.715 17.1218 406.691 17.1463C406.667 17.1713 406.636 17.1944 406.6 17.2158C406.53 17.2588 406.433 17.3012 406.32 17.3427C406.093 17.4259 405.786 17.5096 405.452 17.5884C404.782 17.7462 403.993 17.8866 403.486 17.9654C403.448 17.9712 403.413 17.9454 403.407 17.9077C403.401 17.87 403.427 17.8347 403.465 17.8289C403.969 17.7504 404.755 17.6107 405.42 17.454C405.753 17.3755 406.053 17.2934 406.272 17.213C406.382 17.1727 406.469 17.1339 406.529 17.0978C406.558 17.0797 406.579 17.0637 406.592 17.0502C406.605 17.037 406.606 17.0303 406.606 17.0303C406.613 16.9927 406.648 16.9673 406.686 16.9736Z" fill="#171A17"/>
<path  fillRule="evenodd"  clipRule="evenodd" d="M403.076 13.3906C403.152 13.3906 403.214 13.4525 403.214 13.5288C403.214 13.5297 403.214 13.5338 403.214 13.5415C403.215 13.5501 403.216 13.5613 403.217 13.5745C403.22 13.601 403.223 13.6341 403.227 13.6683C403.237 13.7431 403.247 13.804 403.255 13.8244C403.28 13.8964 403.241 13.9752 403.169 14.0005C403.097 14.0258 403.018 13.988 402.993 13.916C402.974 13.8625 402.962 13.7708 402.953 13.7023C402.944 13.6315 402.938 13.5565 402.938 13.5287C402.938 13.4524 402.999 13.3906 403.076 13.3906Z" fill="#171A17"/>
<path  fillRule="evenodd"  clipRule="evenodd" d="M403.366 15.2427C403.398 15.221 403.441 15.229 403.463 15.2604C403.543 15.378 403.592 15.4733 403.606 15.5532C403.613 15.5947 403.611 15.6344 403.598 15.6712C403.584 15.7082 403.561 15.7372 403.533 15.7602C403.48 15.8036 403.404 15.8303 403.328 15.8537C403.304 15.8611 403.28 15.8684 403.255 15.8758C403.196 15.8931 403.135 15.9112 403.069 15.9349C403.033 15.9479 402.994 15.9294 402.981 15.8935C402.968 15.8577 402.986 15.8181 403.022 15.8051C403.092 15.7799 403.16 15.7598 403.22 15.7421C403.244 15.7349 403.267 15.7282 403.288 15.7217C403.365 15.6976 403.416 15.6773 403.445 15.6534C403.458 15.6427 403.465 15.633 403.468 15.6236C403.472 15.614 403.474 15.5996 403.47 15.5766C403.461 15.5277 403.428 15.4531 403.349 15.3387C403.327 15.3073 403.335 15.2643 403.366 15.2427Z" fill="#171A17"/>
<path  fillRule="evenodd"  clipRule="evenodd" d="M404.172 16.0505C404.198 16.079 404.195 16.1227 404.167 16.148C404.123 16.1866 404.047 16.2216 403.964 16.2528C403.877 16.2853 403.773 16.3175 403.664 16.3477C403.445 16.408 403.206 16.4612 403.051 16.4918C403.014 16.4991 402.978 16.4749 402.97 16.4374C402.963 16.4 402.987 16.3637 403.024 16.3563C403.177 16.3262 403.413 16.2738 403.627 16.2146C403.734 16.185 403.834 16.154 403.915 16.1236C403.999 16.0919 404.053 16.0644 404.075 16.0448C404.103 16.0195 404.147 16.022 404.172 16.0505Z" fill="#171A17"/>
</g>
</g>
<path d="M413.727 16C413.727 11.8579 410.369 8.5 406.227 8.5C402.084 8.5 398.727 11.8579 398.727 16C398.727 20.1421 402.084 23.5 406.227 23.5C410.369 23.5 413.727 20.1421 413.727 16Z" stroke="#FF0000"/>
<path d="M494 326H329C324.582 326 321 329.582 321 334V382C321 386.418 324.582 390 329 390H494C498.418 390 502 386.418 502 382V334C502 329.582 498.418 326 494 326Z" fill="#18181B"/>
<path d="M493.126 369H484.941C482.855 369 481.164 370.719 481.164 372.84V381.16C481.164 383.281 482.855 385 484.941 385H493.126C495.212 385 496.903 383.281 496.903 381.16V372.84C496.903 370.719 495.212 369 493.126 369Z" fill="#098643"/>
<path d="M487.226 373.803C487.188 373.79 487.144 373.79 487.1 373.801C487.056 373.813 487.018 373.836 486.986 373.868C486.955 373.9 486.93 373.94 486.924 373.984C486.911 374.027 486.911 374.073 486.924 374.116L487.723 376.752H490.512C490.581 376.752 490.644 376.778 490.688 376.825C490.732 376.871 490.758 376.935 490.758 377.001C490.758 377.068 490.732 377.131 490.688 377.178C490.644 377.225 490.581 377.251 490.512 377.251H487.723L486.924 379.886C486.911 379.929 486.911 379.975 486.924 380.019C486.93 380.063 486.955 380.103 486.986 380.135C487.018 380.167 487.056 380.19 487.1 380.201C487.144 380.213 487.188 380.212 487.226 380.2C489.398 379.559 491.444 378.545 493.276 377.204C493.307 377.181 493.332 377.151 493.351 377.115C493.37 377.08 493.377 377.041 493.377 377.001C493.377 376.961 493.37 376.922 493.351 376.887C493.332 376.852 493.307 376.821 493.276 376.798C491.444 375.457 489.398 374.444 487.226 373.803Z" fill="#FAFAFA"/>
<path d="M390.798 336H330.891C329.234 336 327.891 337.343 327.891 339C327.891 340.657 329.234 342 330.891 342H390.798C392.455 342 393.798 340.657 393.798 339C393.798 337.343 392.455 336 390.798 336Z" fill="#515151"/>
<mask id="mask6_1213_25442" style="mask-type:luminance" maskUnits="userSpaceOnUse" x="318" y="139" width="21" height="21">
<path d="M338.017 149.008C338.017 143.481 333.536 139 328.008 139C322.481 139 318 143.481 318 149.008V149.02C318 154.547 322.481 159.028 328.008 159.028C333.536 159.028 338.017 154.547 338.017 149.02V149.008Z" fill="white"/>
</mask>
<g mask="url(#mask6_1213_25442)">
<mask id="mask7_1213_25442" style="mask-type:luminance" maskUnits="userSpaceOnUse" x="318" y="139" width="21" height="21">
<path d="M338.017 149.014C338.017 143.484 333.536 139 328.008 139C322.481 139 318 143.484 318 149.014C318 154.545 322.481 159.028 328.008 159.028C333.536 159.028 338.017 154.545 338.017 149.014Z" fill="white"/>
</mask>
<g mask="url(#mask7_1213_25442)">
<path d="M338.017 149.014C338.017 143.483 333.536 139 328.008 139C322.48 139 318 143.483 318 149.014C318 154.545 322.48 159.028 328.008 159.028C333.536 159.028 338.017 154.545 338.017 149.014Z" fill="#3A3A3A"/>
<path  fillRule="evenodd"  clipRule="evenodd" d="M327.29 151.913C329.151 151.549 330.564 149.623 330.564 147.3C330.564 144.718 328.815 142.625 326.655 142.625C324.494 142.625 322.74 144.718 322.74 147.3C322.74 147.679 322.781 148.047 322.851 148.399L321.909 149.672C321.804 149.815 321.909 150.018 322.086 150.018H322.822L323.193 151.819C323.316 152.433 323.935 152.814 324.535 152.652L327.29 151.913Z" fill="#E8684F"/>
<path  fillRule="evenodd"  clipRule="evenodd" d="M323.437 151.01C323.49 151.034 323.514 151.099 323.49 151.153C323.467 151.2 323.426 151.25 323.384 151.291C323.337 151.334 323.284 151.38 323.225 151.414C323.178 151.445 323.108 151.429 323.078 151.378C323.049 151.327 323.06 151.259 323.113 151.228C323.155 151.204 323.196 151.17 323.231 151.135C323.249 151.118 323.267 151.102 323.272 151.088C323.278 151.081 323.284 151.076 323.29 151.071C323.29 151.066 323.29 151.064 323.29 151.064C323.314 151.009 323.378 150.985 323.437 151.01Z" fill="#8C0101"/>
<path d="M323.392 147.842C323.392 148.081 323.345 148.276 323.286 148.276C323.227 148.276 323.18 148.081 323.18 147.842C323.18 147.601 323.227 147.406 323.286 147.406C323.345 147.406 323.392 147.601 323.392 147.842Z" fill="#322B2B"/>
<path  fillRule="evenodd"  clipRule="evenodd" d="M323.006 146.969C322.906 147.048 322.859 147.154 322.847 147.224C322.835 147.282 322.776 147.321 322.717 147.309C322.659 147.297 322.623 147.24 322.635 147.181C322.653 147.069 322.729 146.914 322.871 146.799C323.018 146.681 323.23 146.612 323.518 146.66C323.577 146.67 323.618 146.726 323.606 146.785C323.601 146.844 323.542 146.884 323.483 146.875C323.247 146.836 323.1 146.893 323.006 146.969Z" fill="#322B2B"/>
<path  fillRule="evenodd"  clipRule="evenodd" d="M327.644 147.951C327.703 147.963 327.739 148.02 327.727 148.079C327.674 148.361 327.533 148.788 327.291 149.158C327.056 149.527 326.702 149.858 326.22 149.905C326.161 149.912 326.108 149.868 326.102 149.808C326.096 149.749 326.137 149.695 326.202 149.689C326.585 149.65 326.891 149.383 327.109 149.04C327.332 148.698 327.462 148.298 327.515 148.036C327.527 147.978 327.586 147.94 327.644 147.951Z" fill="#322B2B"/>
<path d="M326.647 148.713C326.647 148.834 326.552 148.931 326.429 148.931C326.311 148.931 326.211 148.834 326.211 148.713C326.211 148.593 326.311 148.496 326.429 148.496C326.552 148.496 326.647 148.593 326.647 148.713Z" fill="#322B2B"/>
<path  fillRule="evenodd"  clipRule="evenodd" d="M326.885 147.329C326.774 147.381 326.615 147.49 326.403 147.702C326.362 147.744 326.291 147.744 326.25 147.702C326.208 147.659 326.208 147.59 326.25 147.548C326.473 147.325 326.656 147.198 326.797 147.132C326.868 147.099 326.927 147.08 326.986 147.073C327.039 147.067 327.092 147.07 327.133 147.093C327.186 147.12 327.209 147.185 327.18 147.239C327.156 147.291 327.092 147.313 327.039 147.289C327.039 147.289 327.027 147.287 327.009 147.289C326.986 147.293 326.944 147.304 326.885 147.329Z" fill="#322B2B"/>
<path d="M322.616 153.593C323.134 153.419 324.512 153.424 325.13 153.497C328.28 153.715 329.84 154.502 330.129 154.693C330.452 154.911 333.043 156.358 333.59 156.638C334.473 157.085 334.897 158.196 335.327 158.921H320.88C320.803 158.232 320.703 156.638 320.88 155.768C321.092 154.68 321.963 153.811 322.616 153.593Z" fill="#FFB600"/>
<path  fillRule="evenodd"  clipRule="evenodd" d="M333.944 156.943C333.962 157 333.926 157.061 333.873 157.079C326.891 159.342 322.211 158.229 320.727 157.368C320.674 157.338 320.657 157.271 320.686 157.219C320.721 157.168 320.786 157.15 320.839 157.18C322.252 158.001 326.862 159.123 333.803 156.872C333.862 156.854 333.926 156.885 333.944 156.943Z" fill="#F47F6E"/>
<path  fillRule="evenodd"  clipRule="evenodd" d="M334.667 157.558C334.685 157.615 334.655 157.676 334.596 157.693C327.226 159.956 322.292 158.842 320.726 157.982C320.679 157.954 320.655 157.888 320.685 157.835C320.714 157.782 320.779 157.763 320.832 157.792C322.333 158.615 327.202 159.737 334.532 157.485C334.591 157.468 334.649 157.5 334.667 157.558Z" fill="#F47F6E"/>
<path d="M328.5 152.519C328.412 152.171 328.465 151.432 328.5 151.105L325.998 151.214C325.998 151.432 326.022 151.997 326.11 152.519C326.193 153.041 325.492 153.389 325.133 153.498V155.455C325.133 155.998 325.675 158.934 327.523 158.934C329.366 158.934 330.125 157.75 330.237 157.303C330.349 156.868 330.272 155.455 330.131 154.694C329.148 154.259 328.606 152.954 328.5 152.519Z" fill="#E8684F"/>
<path  fillRule="evenodd"  clipRule="evenodd" d="M334.448 142.864C334.407 141.763 333.5 140.883 332.387 140.883C331.245 140.883 330.321 141.808 330.321 142.949C330.321 143.048 330.333 143.146 330.344 143.242C329.873 142.998 329.344 142.855 328.784 142.841C328.213 142.303 327.419 141.97 326.547 141.97C324.869 141.97 323.504 143.185 323.398 144.719C323.521 144.588 323.668 144.494 323.833 144.446C324.581 144.23 325.476 145.035 325.823 146.245C325.994 146.84 326 147.423 325.876 147.886C326.323 147.158 326.948 146.747 327.354 146.946C327.813 147.173 327.819 148.099 327.371 149.015C327.324 149.109 327.265 149.184 327.207 149.258C327.171 149.302 327.136 149.345 327.106 149.393L327.819 150.979C327.872 151.101 328.025 151.146 328.137 151.073L330.545 149.502C330.939 149.262 331.286 148.948 331.563 148.578C331.805 148.695 332.069 148.76 332.352 148.76C333.335 148.76 334.136 147.963 334.136 146.979V146.976C334.507 146.623 334.772 146.151 334.854 145.621C335.154 145.303 335.337 144.875 335.337 144.405C335.337 143.747 334.978 143.174 334.448 142.864Z" fill="#1A1415"/>
</g>
</g>
<path d="M337.517 149.008C337.517 143.757 333.26 139.5 328.008 139.5C322.757 139.5 318.5 143.757 318.5 149.008V149.02C318.5 154.271 322.757 158.528 328.008 158.528C333.26 158.528 337.517 154.271 337.517 149.02V149.008Z" stroke="#9A9A9A"/>
<path d="M500.333 139H493.667C492.194 139 491 140.194 491 141.667V148.333C491 149.806 492.194 151 493.667 151H500.333C501.806 151 503 149.806 503 148.333V141.667C503 140.194 501.806 139 500.333 139Z" fill="#52525B"/>
<path  fillRule="evenodd"  clipRule="evenodd" d="M498.684 142.211V142.283C499.097 142.321 499.504 142.375 499.917 142.445C499.944 142.451 499.977 142.462 500.004 142.479C500.024 142.495 500.05 142.517 500.07 142.543C500.084 142.568 500.097 142.597 500.104 142.628C500.11 142.658 500.11 142.69 500.11 142.721C500.103 142.751 500.09 142.781 500.077 142.807C500.057 142.833 500.037 142.857 500.01 142.875C499.984 142.893 499.957 142.905 499.924 142.912C499.897 142.919 499.864 142.92 499.83 142.915L499.764 142.903L499.45 147.053C499.43 147.292 499.324 147.515 499.144 147.679C498.97 147.841 498.737 147.932 498.497 147.932H496.01C495.77 147.932 495.537 147.841 495.363 147.679C495.19 147.515 495.077 147.292 495.064 147.053L494.744 142.903L494.677 142.915C494.644 142.92 494.61 142.919 494.584 142.912C494.55 142.905 494.524 142.893 494.497 142.875C494.444 142.838 494.41 142.783 494.404 142.721C494.39 142.659 494.403 142.595 494.443 142.543C494.477 142.491 494.53 142.456 494.597 142.445C495.004 142.375 495.41 142.321 495.824 142.283V142.211C495.824 141.714 496.21 141.29 496.717 141.274C497.077 141.263 497.43 141.263 497.79 141.274C498.297 141.29 498.684 141.714 498.684 142.211ZM496.737 141.75C497.084 141.739 497.43 141.739 497.777 141.75C498.01 141.757 498.204 141.959 498.204 142.211V142.247C497.57 142.208 496.937 142.208 496.304 142.247V142.211C496.304 141.959 496.497 141.757 496.737 141.75ZM496.624 143.637C496.624 143.606 496.61 143.575 496.604 143.547C496.59 143.518 496.57 143.493 496.544 143.471C496.524 143.45 496.497 143.433 496.464 143.423C496.437 143.412 496.404 143.407 496.377 143.408C496.344 143.409 496.31 143.417 496.284 143.43C496.257 143.443 496.23 143.461 496.21 143.485C496.19 143.507 496.17 143.534 496.164 143.563C496.15 143.593 496.144 143.624 496.144 143.655L496.257 146.513C496.257 146.576 496.284 146.635 496.33 146.678C496.357 146.699 496.384 146.716 496.41 146.727C496.444 146.737 496.47 146.743 496.504 146.741C496.537 146.74 496.564 146.733 496.59 146.72C496.624 146.707 496.65 146.688 496.67 146.665C496.69 146.642 496.704 146.615 496.717 146.586C496.73 146.557 496.73 146.525 496.73 146.494L496.624 143.637ZM498.363 143.655C498.363 143.623 498.357 143.591 498.35 143.561C498.337 143.531 498.324 143.503 498.304 143.479C498.284 143.455 498.257 143.436 498.224 143.423C498.197 143.409 498.164 143.401 498.13 143.4C498.104 143.399 498.07 143.404 498.037 143.415C498.01 143.427 497.984 143.444 497.957 143.466C497.937 143.488 497.917 143.515 497.904 143.544C497.89 143.573 497.884 143.605 497.884 143.637L497.777 146.494C497.77 146.557 497.797 146.619 497.837 146.665C497.884 146.711 497.944 146.739 498.004 146.741C498.07 146.744 498.13 146.721 498.177 146.678C498.224 146.635 498.25 146.576 498.25 146.513L498.363 143.655Z" fill="#A1A1AA"/>
<path d="M451 163H349C347.343 163 346 164.343 346 166C346 167.657 347.343 169 349 169H451C452.657 169 454 167.657 454 166C454 164.343 452.657 163 451 163Z" fill="#8C8C8C"/>
<path d="M371 139H349C347.343 139 346 140.343 346 142C346 143.657 347.343 145 349 145H371C372.657 145 374 143.657 374 142C374 140.343 372.657 139 371 139Z" fill="#8C8C8C"/>
<path d="M417.5 150H348.5C347.119 150 346 151.119 346 152.5C346 153.881 347.119 155 348.5 155H417.5C418.881 155 420 153.881 420 152.5C420 151.119 418.881 150 417.5 150Z" fill="#454545"/>
<path d="M443 86H376C374.343 86 373 87.3431 373 89C373 90.6569 374.343 92 376 92H443C444.657 92 446 90.6569 446 89C446 87.3431 444.657 86 443 86Z" fill="#8C8C8C"/>
<path d="M367 86H349C347.343 86 346 87.3431 346 89C346 90.6569 347.343 92 349 92H367C368.657 92 370 90.6569 370 89C370 87.3431 368.657 86 367 86Z" fill="#098643"/>
<path d="M371 64H349C347.343 64 346 65.3431 346 67C346 68.6569 347.343 70 349 70H371C372.657 70 374 68.6569 374 67C374 65.3431 372.657 64 371 64Z" fill="#8C8C8C"/>
<path d="M427 43H332C330.343 43 329 44.3431 329 46C329 47.6569 330.343 49 332 49H427C428.657 49 430 47.6569 430 46C430 44.3431 428.657 43 427 43Z" fill="#8C8C8C"/>
<path d="M418 73H348C346.895 73 346 73.8954 346 75C346 76.1046 346.895 77 348 77H418C419.105 77 420 76.1046 420 75C420 73.8954 419.105 73 418 73Z" fill="#454545"/>
<path d="M405 97H349C347.343 97 346 98.3431 346 100C346 101.657 347.343 103 349 103H405C406.657 103 408 101.657 408 100C408 98.3431 406.657 97 405 97Z" fill="#8C8C8C"/>
<mask id="mask8_1213_25442" style="mask-type:luminance" maskUnits="userSpaceOnUse" x="318" y="64" width="19" height="19">
<path d="M336.839 73.4196C336.839 68.2173 332.622 64 327.42 64C322.217 64 318 68.2173 318 73.4196V73.4307C318 78.633 322.217 82.8503 327.42 82.8503C332.622 82.8503 336.839 78.633 336.839 73.4307V73.4196Z" fill="white"/>
</mask>
<g mask="url(#mask8_1213_25442)">
<mask id="mask9_1213_25442" style="mask-type:luminance" maskUnits="userSpaceOnUse" x="318" y="64" width="19" height="19">
<path d="M336.839 73.4251C336.839 68.2195 332.624 64 327.42 64C322.215 64 318 68.2195 318 73.4251C318 78.6308 322.215 82.8503 327.42 82.8503C332.624 82.8503 336.839 78.6308 336.839 73.4251Z" fill="white"/>
</mask>
<g mask="url(#mask9_1213_25442)">
<path d="M336.839 73.4251C336.839 68.2195 332.618 64 327.42 64C322.215 64 318 68.2195 318 73.4251C318 78.6308 322.215 82.8503 327.42 82.8503C332.618 82.8503 336.839 78.6308 336.839 73.4251Z" fill="#9CDCFE"/>
<path d="M324.51 76.777L325.617 75.2812L330.951 75.5258C331.192 76.0242 331.975 77.3378 333.206 78.6037C334.748 80.186 336.208 80.5636 336.344 80.7238C336.697 81.1214 337.021 81.4483 337.168 81.6769C337.25 81.8083 337.733 82.5222 338.11 83.149H316.763C316.668 82.9381 316.757 82.0904 317.881 80.3874C319.012 78.6844 322.774 77.2706 324.51 76.777Z" fill="#114139"/>
<path d="M325.602 75.2836V73.9953L330.841 73.8086C330.889 74.5243 331.006 76.0488 331.142 76.4223C331.277 76.7952 331.201 80.0374 331.142 81.6114C330.482 81.2232 327.174 77.2311 325.602 75.2836Z" fill="#E8684F"/>
<path d="M331.151 69.5561C331.151 71.4016 331.905 74.1119 328.09 74.033C325.364 73.977 325.023 71.4016 325.023 69.5561C325.023 67.7105 326.394 66.2148 328.09 66.2148C329.779 66.2148 331.151 67.7105 331.151 69.5561Z" fill="#E8684F"/>
<path d="M331.395 73.2308C331.395 74.6099 330.776 75.7279 328.904 75.7279C327.026 75.7279 325.312 74.6099 325.312 73.2308C325.312 71.8518 327.526 70.7344 328.904 70.7344C330.281 70.7344 331.395 71.8518 331.395 73.2308Z" fill="#E8684F"/>
<path d="M325.946 72.1012C325.946 72.8994 325.604 74.2856 325.292 73.4038C325.121 72.9172 324.503 73.3078 324.25 71.9246C324.25 71.1264 324.768 70.6562 325.186 70.6562C325.604 70.6562 325.946 71.3031 325.946 72.1012Z" fill="#E8684F"/>
<path d="M331.914 72.1399C331.914 72.5028 331.178 73.4541 331.054 73.5454C330.577 73.5454 330.195 72.9157 330.195 72.1399C330.195 71.3635 330.577 70.7344 331.054 70.7344C331.525 70.7344 332.096 70.7344 331.914 72.1399Z" fill="#E8684F"/>
<path  fillRule="evenodd"  clipRule="evenodd" d="M325.668 74.1786C325.715 74.1332 325.786 74.1332 325.833 74.1786C326.08 74.4271 326.528 74.7988 327.052 75.0999C327.582 75.4015 328.17 75.6218 328.718 75.5894C329.83 75.5222 330.625 74.8212 330.878 74.4866C330.914 74.4354 330.984 74.4248 331.037 74.4637C331.09 74.5025 331.102 74.5756 331.061 74.6268C330.778 74.9997 329.931 75.7496 328.73 75.8215C328.123 75.8586 327.482 75.6124 326.94 75.3013C326.392 74.9897 325.927 74.605 325.668 74.3429C325.621 74.2975 325.621 74.2239 325.668 74.1786Z" fill="#121212"/>
<path  fillRule="evenodd"  clipRule="evenodd" d="M329.226 71.269C329.226 71.2048 329.279 71.1523 329.344 71.1523C329.65 71.1523 329.909 71.2666 330.021 71.517C330.133 71.7573 330.092 72.0842 329.921 72.4666C329.768 72.8165 329.385 72.8954 329.061 72.863C328.896 72.8465 328.732 72.8 328.59 72.7364C328.455 72.6739 328.331 72.5879 328.261 72.4837C328.225 72.4306 328.243 72.3582 328.296 72.3222C328.349 72.2863 328.42 72.3004 328.455 72.3541C328.49 72.4071 328.573 72.4701 328.69 72.5249C328.808 72.5779 328.944 72.6174 329.085 72.6315C329.373 72.6604 329.615 72.5814 329.709 72.3711C329.874 72.0118 329.88 71.7638 329.809 71.6142C329.744 71.4752 329.597 71.385 329.344 71.385C329.279 71.385 329.226 71.3332 329.226 71.269Z" fill="#121212"/>
<path d="M327.491 70.7756C327.491 70.9388 327.403 71.0707 327.303 71.0707C327.197 71.0707 327.109 70.9388 327.109 70.7756C327.109 70.6124 327.197 70.4805 327.303 70.4805C327.403 70.4805 327.491 70.6124 327.491 70.7756Z" fill="#D9D9D9"/>
<path d="M330.586 70.7756C330.586 70.9388 330.498 71.0707 330.392 71.0707C330.292 71.0707 330.203 70.9388 330.203 70.7756C330.203 70.6124 330.292 70.4805 330.392 70.4805C330.498 70.4805 330.586 70.6124 330.586 70.7756Z" fill="#18181B"/>
<path d="M327.491 70.7756C327.491 70.9388 327.403 71.0707 327.303 71.0707C327.197 71.0707 327.109 70.9388 327.109 70.7756C327.109 70.6124 327.197 70.4805 327.303 70.4805C327.403 70.4805 327.491 70.6124 327.491 70.7756Z" fill="#121212"/>
<path d="M330.586 70.7756C330.586 70.9388 330.498 71.0707 330.392 71.0707C330.292 71.0707 330.203 70.9388 330.203 70.7756C330.203 70.6124 330.292 70.4805 330.392 70.4805C330.498 70.4805 330.586 70.6124 330.586 70.7756Z" fill="#121212"/>
<path  fillRule="evenodd"  clipRule="evenodd" d="M327.119 70.1278C326.895 70.2149 326.719 70.3469 326.63 70.4335C326.542 70.5248 326.395 70.5248 326.301 70.4335C326.212 70.3428 326.212 70.1955 326.301 70.1048C326.436 69.974 326.666 69.8049 326.954 69.693C327.248 69.5805 327.613 69.5216 328.002 69.6365C328.126 69.673 328.196 69.8026 328.161 69.9257C328.126 70.0488 327.996 70.1195 327.873 70.083C327.602 70.0047 327.343 70.0418 327.119 70.1278Z" fill="#121212"/>
<path  fillRule="evenodd"  clipRule="evenodd" d="M330.476 69.8876C330.311 69.9365 330.176 70.0149 330.105 70.0661C329.999 70.1427 329.858 70.1209 329.781 70.0178C329.705 69.9147 329.723 69.7686 329.828 69.6921C329.94 69.6102 330.123 69.5065 330.347 69.4411C330.564 69.3763 330.841 69.3445 331.118 69.4346C331.241 69.4747 331.306 69.6061 331.265 69.7286C331.224 69.8505 331.094 69.9171 330.971 69.877C330.818 69.8258 330.641 69.8393 330.476 69.8876Z" fill="#121212"/>
<path  fillRule="evenodd"  clipRule="evenodd" d="M328.091 73.3459C328.15 73.32 328.221 73.3465 328.244 73.4048C328.268 73.4549 328.321 73.5344 328.392 73.598C328.462 73.6605 328.545 73.7005 328.639 73.6946C328.904 73.6793 329.481 73.6875 329.757 73.694C329.799 73.6752 329.858 73.6469 329.905 73.6151C329.934 73.5962 329.958 73.5797 329.969 73.5668C329.969 73.5638 329.969 73.5615 329.975 73.5603C329.981 73.5014 330.028 73.4555 330.087 73.4555C330.152 73.4555 330.205 73.5073 330.205 73.5721C330.205 73.6375 330.17 73.6887 330.14 73.7211C330.111 73.7559 330.07 73.7853 330.034 73.8095C329.964 73.8584 329.875 73.8978 329.816 73.9196L329.799 73.9279L329.775 73.9273C329.51 73.9208 328.916 73.9114 328.651 73.9273C328.48 73.9373 328.339 73.8613 328.239 73.7718C328.139 73.6834 328.068 73.5756 328.033 73.4996C328.009 73.4407 328.033 73.3718 328.091 73.3459Z" fill="#121212"/>
<path  fillRule="evenodd"  clipRule="evenodd" d="M324.736 71.4745C324.766 71.4167 324.836 71.3937 324.895 71.4226C324.972 71.4609 325.113 71.5887 325.072 71.7972C325.06 71.8591 325.031 71.9198 325.001 71.971C324.978 72.0187 324.948 72.0665 324.919 72.1083C324.919 72.1124 324.913 72.1165 324.913 72.1207C324.878 72.1684 324.854 72.2049 324.842 72.2338C324.842 72.2408 324.836 72.2461 324.836 72.2497C324.848 72.3021 324.819 72.3569 324.772 72.3798C324.713 72.4064 324.642 72.3804 324.619 72.3221C324.595 72.2815 324.601 72.2408 324.607 72.2126C324.613 72.1837 324.625 72.1566 324.63 72.1336C324.654 72.0883 324.689 72.0382 324.719 71.9934C324.719 71.9899 324.719 71.9858 324.725 71.9816C324.754 71.9386 324.778 71.898 324.801 71.8579C324.825 71.8132 324.842 71.7784 324.842 71.7537C324.854 71.7166 324.842 71.6906 324.831 71.6712C324.819 71.6482 324.795 71.6347 324.789 71.6305C324.73 71.6017 324.707 71.5316 324.736 71.4745Z" fill="#121212"/>
<path  fillRule="evenodd"  clipRule="evenodd" d="M331.454 71.2969C331.518 71.2969 331.566 71.3493 331.566 71.4135V71.6839C331.566 71.6839 331.571 71.6921 331.577 71.7051C331.583 71.7245 331.601 71.7475 331.619 71.7734C331.648 71.8247 331.695 71.8765 331.719 71.9077C331.766 71.956 331.76 72.0297 331.713 72.0721C331.66 72.1145 331.589 72.1104 331.548 72.0621C331.513 72.025 331.465 71.9649 331.424 71.903C331.401 71.8718 331.383 71.8382 331.365 71.8052C331.354 71.7758 331.336 71.7328 331.336 71.6874V71.4135C331.336 71.3493 331.389 71.2969 331.454 71.2969Z" fill="#121212"/>
<path  fillRule="evenodd"  clipRule="evenodd" d="M327.484 77.7729C327.502 77.7116 327.566 77.6774 327.625 77.6969C327.943 77.7964 328.432 77.9578 328.867 78.1192C329.085 78.1993 329.297 78.2806 329.462 78.3537C329.544 78.3908 329.615 78.4261 329.68 78.4591C329.739 78.4915 329.792 78.5251 329.827 78.5593C329.88 78.6029 329.88 78.6765 329.839 78.7236C329.792 78.7713 329.721 78.7743 329.674 78.7307C329.656 78.7165 329.627 78.6942 329.568 78.6641C329.515 78.6347 329.444 78.6023 329.368 78.5669C329.209 78.4962 329.003 78.4173 328.791 78.3372C328.355 78.1781 327.872 78.0179 327.56 77.919C327.496 77.8995 327.46 77.8341 327.484 77.7729Z" fill="#121212"/>
<path  fillRule="evenodd"  clipRule="evenodd" d="M331.319 78.1239C331.336 78.1851 331.301 78.2505 331.242 78.27C331.166 78.2947 331.042 78.3401 330.924 78.396C330.801 78.4549 330.701 78.5162 330.653 78.5663C330.612 78.6146 330.542 78.6199 330.494 78.5775C330.441 78.5351 330.441 78.4614 330.483 78.4131C330.559 78.323 330.701 78.2446 330.824 78.1857C330.954 78.1245 331.089 78.0756 331.172 78.0485C331.236 78.029 331.301 78.0626 331.319 78.1239Z" fill="#121212"/>
<path  fillRule="evenodd"  clipRule="evenodd" d="M324.844 77.0508C324.903 77.0508 324.956 77.1026 324.956 77.1674V79.5178C324.956 79.6232 325.092 79.678 325.168 79.5985C325.527 79.215 325.969 78.7614 326.375 78.3809C326.575 78.1906 326.77 78.018 326.934 77.8814C327.105 77.7465 327.252 77.6393 327.37 77.5892C327.429 77.5639 327.5 77.591 327.523 77.6505C327.553 77.7094 327.523 77.7777 327.464 77.803C327.376 77.8396 327.246 77.9285 327.082 78.0622C326.923 78.1942 326.734 78.3626 326.534 78.5506C326.134 78.9264 325.692 79.3764 325.333 79.7582C325.121 79.9885 324.727 79.8377 324.727 79.5178V77.1674C324.727 77.1026 324.78 77.0508 324.844 77.0508Z" fill="#5E9D92"/>
<path  fillRule="evenodd"  clipRule="evenodd" d="M331.138 77.614C331.185 77.5698 331.256 77.5715 331.303 77.6187L333.24 79.668C333.287 79.7146 333.281 79.7882 333.234 79.8324C333.187 79.8766 333.116 79.8742 333.069 79.8277L331.132 77.7783C331.091 77.7318 331.091 77.6581 331.138 77.614Z" fill="#5E9D92"/>
<path  fillRule="evenodd"  clipRule="evenodd" d="M318.346 80.1602C318.329 80.1708 318.317 80.182 318.299 80.1926C318.246 80.2297 318.176 80.2173 318.14 80.1649C318.099 80.1125 318.117 80.04 318.164 80.0029C318.187 79.9882 318.205 79.9735 318.229 79.9587C318.8 79.5511 319.742 78.8819 320.872 79.2683C321.873 79.61 322.456 80.4453 322.715 81.1863C322.927 81.7872 322.903 82.5777 322.868 83.1026C322.862 83.1662 322.803 83.2145 322.738 83.2098C322.679 83.2051 322.626 83.1491 322.632 83.0849C322.674 82.5601 322.691 81.8137 322.497 81.2635C322.25 80.5661 321.708 79.7997 320.801 79.4886C319.783 79.1411 318.935 79.7443 318.346 80.1602Z" fill="#5E9D92"/>
</g>
</g>
<path d="M336.339 73.4196C336.339 68.4934 332.346 64.5 327.42 64.5C322.493 64.5 318.5 68.4934 318.5 73.4196V73.4307C318.5 78.3568 322.493 82.3503 327.42 82.3503C332.346 82.3503 336.339 78.3568 336.339 73.4307V73.4196Z" stroke="#15D465"/>
<path d="M500.56 64H493.893C492.421 64 491.227 65.1939 491.227 66.6667V73.3333C491.227 74.8061 492.421 76 493.893 76H500.56C502.033 76 503.227 74.8061 503.227 73.3333V66.6667C503.227 65.1939 502.033 64 500.56 64Z" fill="#52525B"/>
<path  fillRule="evenodd"  clipRule="evenodd" d="M498.848 67.617V67.689C499.261 67.727 499.668 67.781 500.081 67.8517C500.108 67.857 500.141 67.8684 500.168 67.885C500.188 67.9017 500.214 67.9237 500.234 67.949C500.248 67.9744 500.261 68.0037 500.268 68.0344C500.274 68.0644 500.274 68.0964 500.274 68.1271C500.268 68.1577 500.254 68.187 500.241 68.2137C500.221 68.2397 500.201 68.263 500.174 68.281C500.148 68.299 500.121 68.3117 500.088 68.3184C500.061 68.3257 500.028 68.3264 499.994 68.321L499.928 68.3097L499.614 72.459C499.594 72.6984 499.488 72.9217 499.308 73.085C499.134 73.2477 498.901 73.3384 498.661 73.3384H496.174C495.934 73.3384 495.701 73.2477 495.528 73.085C495.354 72.9217 495.241 72.6984 495.228 72.459L494.908 68.3097L494.841 68.321C494.808 68.3264 494.774 68.3257 494.748 68.3184C494.714 68.3117 494.688 68.299 494.661 68.281C494.608 68.2444 494.574 68.1891 494.568 68.1271C494.554 68.0651 494.568 68.001 494.608 67.949C494.641 67.8977 494.694 67.8624 494.761 67.8517C495.168 67.781 495.574 67.727 495.988 67.689V67.617C495.988 67.1204 496.374 66.6964 496.881 66.6804C497.241 66.669 497.594 66.669 497.954 66.6804C498.461 66.6964 498.848 67.1204 498.848 67.617ZM496.901 67.1564C497.248 67.145 497.594 67.145 497.941 67.1564C498.174 67.1637 498.368 67.365 498.368 67.617V67.653C497.734 67.6144 497.101 67.6144 496.468 67.653V67.617C496.468 67.365 496.661 67.1637 496.901 67.1564ZM496.788 69.0437C496.788 69.0124 496.774 68.9817 496.768 68.953C496.754 68.9244 496.734 68.899 496.708 68.8777C496.688 68.8564 496.661 68.8397 496.628 68.829C496.601 68.8184 496.568 68.813 496.541 68.8144C496.508 68.8157 496.474 68.823 496.448 68.8364C496.421 68.849 496.394 68.8677 496.374 68.891C496.354 68.9137 496.334 68.9404 496.328 68.9697C496.314 68.9997 496.308 69.0304 496.308 69.0617L496.421 71.919C496.421 71.9824 496.448 72.0417 496.494 72.0844C496.521 72.1057 496.548 72.1224 496.574 72.133C496.608 72.1437 496.634 72.149 496.668 72.1477C496.701 72.1464 496.728 72.139 496.754 72.1264C496.788 72.113 496.814 72.0944 496.834 72.0717C496.854 72.0484 496.868 72.0217 496.881 71.9924C496.894 71.963 496.894 71.9317 496.894 71.9004L496.788 69.0437ZM498.528 69.0617C498.528 69.0297 498.521 68.9977 498.514 68.9677C498.501 68.9377 498.488 68.9097 498.468 68.8857C498.448 68.8617 498.421 68.8424 498.388 68.829C498.361 68.8157 498.328 68.8077 498.294 68.8064C498.268 68.805 498.234 68.8104 498.201 68.8217C498.174 68.833 498.148 68.8504 498.121 68.8724C498.101 68.8944 498.081 68.921 498.068 68.9504C498.054 68.9797 498.048 69.0117 498.048 69.0437L497.941 71.9004C497.934 71.9637 497.961 72.025 498.001 72.0717C498.048 72.1177 498.108 72.1457 498.168 72.1477C498.234 72.1504 498.294 72.1277 498.341 72.0844C498.388 72.0417 498.414 71.9824 498.414 71.919L498.528 69.0617Z" fill="#A1A1AA"/>
<path d="M493 8H483C481.343 8 480 9.34315 480 11V21C480 22.6569 481.343 24 483 24H493C494.657 24 496 22.6569 496 21V11C496 9.34315 494.657 8 493 8Z" fill="#454545"/>
<path d="M473 8H463C461.343 8 460 9.34315 460 11V21C460 22.6569 461.343 24 463 24H473C474.657 24 476 22.6569 476 21V11C476 9.34315 474.657 8 473 8Z" fill="#454545"/>
<path d="M453 8H443C441.343 8 440 9.34315 440 11V21C440 22.6569 441.343 24 443 24H453C454.657 24 456 22.6569 456 21V11C456 9.34315 454.657 8 453 8Z" fill="#454545"/>
<path d="M433 8H423C421.343 8 420 9.34315 420 11V21C420 22.6569 421.343 24 423 24H433C434.657 24 436 22.6569 436 21V11C436 9.34315 434.657 8 433 8Z" fill="#454545"/>
<path d="M82 14H46C44.3431 14 43 15.3431 43 17C43 18.6569 44.3431 20 46 20H82C83.6569 20 85 18.6569 85 17C85 15.3431 83.6569 14 82 14Z" fill="#454545"/>
<mask id="mask10_1213_25442" style="mask-type:luminance" maskUnits="userSpaceOnUse" x="144" y="235" width="131" height="92">
<path d="M263.206 235.871H155.72C149.472 235.871 144.406 242.087 144.406 249.756V312.236C144.406 319.904 149.472 326.12 155.72 326.12H263.206C269.454 326.12 274.52 319.904 274.52 312.236V249.756C274.52 242.087 269.454 235.871 263.206 235.871Z" fill="white"/>
</mask>
<g mask="url(#mask10_1213_25442)">
<path d="M263.206 235.871H155.72C149.472 235.871 144.406 242.087 144.406 249.756V312.236C144.406 319.904 149.472 326.12 155.72 326.12H263.206C269.454 326.12 274.52 319.904 274.52 312.236V249.756C274.52 242.087 269.454 235.871 263.206 235.871Z" fill="#27272A"/>
<path d="M274.52 254.957H144.406V326.115H274.52V254.957Z" fill="#27272A"/>
<path d="M162.79 309.633H156.426C155.255 309.633 154.305 310.798 154.305 312.236C154.305 313.674 155.255 314.84 156.426 314.84H162.79C163.962 314.84 164.912 313.674 164.912 312.236C164.912 310.798 163.962 309.633 162.79 309.633Z" fill="#9CDCFE"/>
<path d="M188.251 309.633H181.887C180.715 309.633 179.766 310.798 179.766 312.236C179.766 313.674 180.715 314.84 181.887 314.84H188.251C189.423 314.84 190.373 313.674 190.373 312.236C190.373 310.798 189.423 309.633 188.251 309.633Z" fill="#3DC9B0"/>
<path d="M193.201 298.355H181.887C180.715 298.355 179.766 299.521 179.766 300.959C179.766 302.397 180.715 303.562 181.887 303.562H193.201C194.373 303.562 195.323 302.397 195.323 300.959C195.323 299.521 194.373 298.355 193.201 298.355Z" fill="#569CD6"/>
<path d="M162.79 298.355H156.426C155.255 298.355 154.305 299.521 154.305 300.959C154.305 302.397 155.255 303.562 156.426 303.562H162.79C163.962 303.562 164.912 302.397 164.912 300.959C164.912 299.521 163.962 298.355 162.79 298.355Z" fill="#9CDCFE"/>
<path d="M185.423 264.512H181.887C180.715 264.512 179.766 265.677 179.766 267.115C179.766 268.553 180.715 269.718 181.887 269.718H185.423C186.594 269.718 187.544 268.553 187.544 267.115C187.544 265.677 186.594 264.512 185.423 264.512Z" fill="#569CD6"/>
<path d="M208.762 264.512H204.519C203.347 264.512 202.398 265.677 202.398 267.115C202.398 268.553 203.347 269.718 204.519 269.718H208.762C209.933 269.718 210.883 268.553 210.883 267.115C210.883 265.677 209.933 264.512 208.762 264.512Z" fill="#CC6566"/>
<path d="M232.101 264.512H215.129C213.958 264.512 213.008 265.677 213.008 267.115C213.008 268.553 213.958 269.718 215.129 269.718H232.101C233.272 269.718 234.222 268.553 234.222 267.115C234.222 265.677 233.272 264.512 232.101 264.512Z" fill="#CC6566"/>
<path d="M263.207 264.512H238.457C237.286 264.512 236.336 265.677 236.336 267.115C236.336 268.553 237.286 269.718 238.457 269.718H263.207C264.379 269.718 265.329 268.553 265.329 267.115C265.329 265.677 264.379 264.512 263.207 264.512Z" fill="#9CDCFE"/>
<path d="M158.548 264.512H156.426C155.255 264.512 154.305 265.677 154.305 267.115C154.305 268.553 155.255 269.718 156.426 269.718H158.548C159.719 269.718 160.669 268.553 160.669 267.115C160.669 265.677 159.719 264.512 158.548 264.512Z" fill="#9CDCFE"/>
<path d="M222.197 275.793H204.519C203.347 275.793 202.398 276.959 202.398 278.396C202.398 279.834 203.347 281 204.519 281H222.197C223.369 281 224.319 279.834 224.319 278.396C224.319 276.959 223.369 275.793 222.197 275.793Z" fill="#CC6566"/>
<path d="M232.091 275.793H227.848C226.676 275.793 225.727 276.959 225.727 278.396C225.727 279.834 226.676 281 227.848 281H232.091C233.262 281 234.212 279.834 234.212 278.396C234.212 276.959 233.262 275.793 232.091 275.793Z" fill="#9CDCFE"/>
<path d="M198.151 275.793H181.887C180.715 275.793 179.766 276.959 179.766 278.396C179.766 279.834 180.715 281 181.887 281H198.151C199.323 281 200.273 279.834 200.273 278.396C200.273 276.959 199.323 275.793 198.151 275.793Z" fill="#569CD6"/>
<path d="M175.519 275.793H156.426C155.255 275.793 154.305 276.959 154.305 278.396C154.305 279.834 155.255 281 156.426 281H175.519C176.691 281 177.64 279.834 177.64 278.396C177.64 276.959 176.691 275.793 175.519 275.793Z" fill="#9CDCFE"/>
<path d="M218.662 287.074H204.519C203.347 287.074 202.398 288.24 202.398 289.678C202.398 291.115 203.347 292.281 204.519 292.281H218.662C219.833 292.281 220.783 291.115 220.783 289.678C220.783 288.24 219.833 287.074 218.662 287.074Z" fill="#CC6566"/>
<path d="M193.201 287.074H181.887C180.715 287.074 179.766 288.24 179.766 289.678C179.766 291.115 180.715 292.281 181.887 292.281H193.201C194.373 292.281 195.323 291.115 195.323 289.678C195.323 288.24 194.373 287.074 193.201 287.074Z" fill="#569CD6"/>
<path d="M164.912 287.074H156.426C155.255 287.074 154.305 288.24 154.305 289.678C154.305 291.115 155.255 292.281 156.426 292.281H164.912C166.083 292.281 167.033 291.115 167.033 289.678C167.033 288.24 166.083 287.074 164.912 287.074Z" fill="#9CDCFE"/>
<path d="M274.52 235.871H144.406V254.962H274.52V235.871Z" fill="#18181B"/>
<path d="M216.537 242.809H202.394C201.222 242.809 200.273 243.974 200.273 245.412C200.273 246.85 201.222 248.015 202.394 248.015H216.537C217.708 248.015 218.658 246.85 218.658 245.412C218.658 243.974 217.708 242.809 216.537 242.809Z" fill="#575757"/>
</g>
<mask id="mask11_1213_25442" style="mask-type:luminance" maskUnits="userSpaceOnUse" x="281" y="305" width="12" height="12">
<path d="M293 311C293 307.686 290.314 305 287 305C283.686 305 281 307.686 281 311C281 314.314 283.686 317 287 317C290.314 317 293 314.314 293 311Z" fill="white"/>
</mask>
<g mask="url(#mask11_1213_25442)">
<mask id="mask12_1213_25442" style="mask-type:luminance" maskUnits="userSpaceOnUse" x="281" y="305" width="12" height="12">
<path d="M293 311C293 307.686 290.314 305 287 305C283.686 305 281 307.686 281 311C281 314.314 283.686 317 287 317C290.314 317 293 314.314 293 311Z" fill="white"/>
</mask>
<g mask="url(#mask12_1213_25442)">
<path d="M293 311C293 307.686 290.314 305 287 305C283.686 305 281 307.686 281 311C281 314.314 283.686 317 287 317C290.314 317 293 314.314 293 311Z" fill="#7E7E7E"/>
<path d="M290.99 314.562C290.718 314.375 289.559 313.294 289.013 312.777L285.776 313.734C284.834 314.549 283.168 315.503 282.453 315.878L283.117 319.506H287.98C289.088 317.602 291.261 314.749 290.99 314.562Z" fill="#F6C0B4"/>
<path d="M289.027 312.784L288.712 312.25L286.777 312.515L286.123 313.491L285.805 313.722L286.251 315.654L289.027 312.784Z" fill="#EFEFEF"/>
<path d="M286.338 315.012L287.012 312.76L288.72 312.253V311.07L285.055 312.437L286.126 312.871V313.489L286.338 315.012Z" fill="#E8684F"/>
<path  fillRule="evenodd"  clipRule="evenodd" d="M288.721 310.399C289.094 310.004 289.32 309.481 289.32 308.908C289.32 307.677 288.274 306.68 286.982 306.68C285.691 306.68 284.644 307.677 284.644 308.908C284.644 309.12 284.675 309.324 284.733 309.518C284.706 309.603 284.634 309.823 284.571 309.985C284.558 310.019 284.549 310.051 284.541 310.08C284.515 310.171 284.495 310.243 284.366 310.315C284.212 310.401 284.259 310.602 284.289 310.734C284.292 310.745 284.295 310.756 284.297 310.766C284.32 310.869 284.439 310.916 284.586 310.933V311.923C284.586 312.269 284.926 312.523 285.261 312.429L288.22 311.594H288.721V310.399Z" fill="#E8684F"/>
<path  fillRule="evenodd"  clipRule="evenodd" d="M289.273 307.99C289.274 307.976 289.274 307.961 289.274 307.945C289.274 307.49 288.856 306.796 288.366 306.796C288.159 306.751 287.949 306.734 287.781 306.773C287.626 306.555 287.344 306.41 287.021 306.41C286.858 306.41 286.765 306.442 286.715 306.5C286.559 306.385 286.356 306.316 286.133 306.316C285.663 306.316 285.278 306.625 285.248 307.015C284.965 307.114 284.7 307.323 284.676 307.555C284.676 307.626 284.675 307.686 284.674 307.736C284.668 307.979 284.667 308.009 284.85 308.028C284.849 308.034 284.847 308.039 284.846 308.045L285.101 307.869C285.175 307.818 285.264 307.791 285.356 307.791H286.931C287.006 307.791 287.058 307.861 287.033 307.928L286.891 308.314C286.841 308.449 286.869 308.6 286.964 308.712L287.027 308.786C287.121 308.896 287.172 309.035 287.172 309.177V309.642C287.172 309.699 287.221 309.745 287.281 309.745H287.488C287.513 309.703 287.541 309.66 287.571 309.618C287.911 309.144 288.343 308.78 288.759 309.012C289.08 309.191 289.143 309.761 288.522 310.373C288.448 310.446 288.494 310.57 288.494 310.57L288.71 310.579V310.591C289.143 310.103 289.413 309.419 289.413 308.662C289.413 308.403 289.363 308.18 289.273 307.99Z" fill="#171A17"/>
<path  fillRule="evenodd"  clipRule="evenodd" d="M288.926 313.586C288.906 313.566 288.874 313.565 288.853 313.585C288.398 314.021 287.754 314.671 287.2 315.235C287.023 315.415 286.856 315.586 286.706 315.738C286.447 316.002 286.243 316.211 286.14 316.314C286.034 316.037 285.889 315.653 285.766 315.318C285.698 315.135 285.637 314.966 285.592 314.839C285.569 314.774 285.551 314.721 285.538 314.68C285.531 314.66 285.526 314.644 285.523 314.631C285.521 314.625 285.52 314.62 285.519 314.616C285.518 314.614 285.518 314.611 285.518 314.611L285.517 314.61C285.514 314.581 285.488 314.561 285.46 314.565C285.431 314.568 285.411 314.594 285.415 314.623C285.417 314.64 285.427 314.673 285.439 314.712C285.453 314.754 285.471 314.809 285.494 314.873C285.539 315.002 285.601 315.17 285.668 315.354C285.804 315.72 285.964 316.145 286.071 316.424L286.098 316.497L286.155 316.443C286.223 316.379 286.462 316.135 286.784 315.806C286.933 315.655 287.099 315.485 287.274 315.307C287.828 314.743 288.471 314.094 288.925 313.659C288.945 313.64 288.946 313.607 288.926 313.586Z" fill="#5C5C5C"/>
<path d="M282.398 315.877C282.926 315.682 285.031 314.285 286.072 313.52C284.91 314.644 284.325 317.991 284.148 319.511H282.287C282.242 319.085 282.314 316.888 282.398 315.877Z" fill="#CC6761"/>
<path d="M293.85 316.495C291.413 315.27 290.067 313.621 289.039 312.777C288.801 313.215 287.977 318.26 287.977 319.51H294.1C293.875 318.735 293.839 317.177 293.85 316.495Z" fill="#CC6761"/>
<path  fillRule="evenodd"  clipRule="evenodd" d="M289.627 313.267C289.602 313.28 289.591 313.311 289.604 313.337C289.775 313.675 290.03 314.192 290.24 314.644C290.346 314.871 290.439 315.08 290.506 315.242C290.539 315.323 290.565 315.392 290.583 315.445C290.588 315.46 290.592 315.474 290.595 315.486L288.738 315.347L288.713 315.446L290.333 316.16L288.491 319.546C288.477 319.571 288.486 319.602 288.511 319.616C288.537 319.63 288.568 319.62 288.582 319.595L290.478 316.111L289.03 315.473L290.704 315.598L290.709 315.547C290.71 315.529 290.707 315.507 290.702 315.487C290.698 315.466 290.69 315.441 290.681 315.413C290.663 315.356 290.636 315.285 290.602 315.203C290.534 315.038 290.44 314.827 290.334 314.601C290.123 314.147 289.868 313.629 289.697 313.29C289.684 313.265 289.653 313.254 289.627 313.267Z" fill="#501717"/>
<path  fillRule="evenodd"  clipRule="evenodd" d="M285.755 313.715C285.738 313.693 285.705 313.689 285.683 313.706C285.504 313.846 285.267 314.041 285.032 314.234C284.934 314.314 284.837 314.393 284.744 314.469C284.585 314.598 284.44 314.715 284.33 314.8C284.274 314.843 284.228 314.878 284.193 314.902C284.176 314.914 284.162 314.923 284.152 314.929C284.149 314.93 284.146 314.932 284.144 314.933H284.143C284.14 314.934 284.137 314.934 284.135 314.935C284.133 314.935 284.131 314.936 284.131 314.936C284.131 314.936 284.127 314.937 284.122 314.939C284.122 314.939 284.118 314.941 284.115 314.944C284.113 314.945 284.109 314.949 284.106 314.951C284.103 314.955 284.097 314.966 284.094 314.973C284.093 314.984 284.096 315.005 284.102 315.015C284.107 315.022 284.117 315.03 284.122 315.033C284.13 315.037 284.137 315.038 284.139 315.038C284.144 315.038 284.148 315.038 284.148 315.038H284.151C284.154 315.037 284.157 315.037 284.16 315.036C284.166 315.035 284.172 315.033 284.178 315.031C284.191 315.028 284.21 315.024 284.235 315.018C284.287 315.007 284.362 314.99 284.449 314.971C284.468 314.967 284.487 314.963 284.507 314.959C284.636 314.931 284.785 314.898 284.925 314.867L283.828 315.589L284.029 319.515C284.03 319.544 284.055 319.566 284.083 319.564C284.112 319.563 284.134 319.538 284.132 319.51L283.935 315.643L285.221 314.796L285.18 314.703C284.989 314.747 284.708 314.809 284.485 314.858C284.465 314.862 284.446 314.866 284.427 314.87C284.418 314.872 284.41 314.874 284.401 314.876C284.512 314.79 284.655 314.675 284.809 314.549C284.903 314.473 285.001 314.393 285.098 314.313C285.334 314.12 285.569 313.927 285.747 313.788C285.769 313.77 285.773 313.738 285.755 313.715Z" fill="#501717"/>
<path  fillRule="evenodd"  clipRule="evenodd" d="M293.841 316.473C293.869 316.468 293.896 316.487 293.901 316.515C293.906 316.544 293.888 316.57 293.859 316.575C293.476 316.644 292.558 316.947 291.966 317.604C291.489 318.135 291.071 318.836 290.799 319.51H290.688C290.963 318.811 291.394 318.084 291.889 317.535C292.501 316.854 293.445 316.544 293.841 316.473Z" fill="#501717"/>
<path  fillRule="evenodd"  clipRule="evenodd" d="M288.224 309.287C288.292 309.233 288.373 309.204 288.428 309.192C288.456 309.187 288.483 309.205 288.489 309.233C288.495 309.261 288.477 309.288 288.449 309.294C288.406 309.303 288.341 309.327 288.288 309.369C288.235 309.41 288.198 309.465 288.197 309.539C288.197 309.568 288.174 309.591 288.145 309.591C288.117 309.591 288.094 309.568 288.094 309.539C288.094 309.424 288.154 309.342 288.224 309.287Z" fill="#171A17"/>
<path  fillRule="evenodd"  clipRule="evenodd" d="M288.722 309.49C288.75 309.496 288.767 309.524 288.761 309.552C288.75 309.597 288.725 309.666 288.684 309.73C288.643 309.793 288.582 309.859 288.498 309.887C288.471 309.896 288.441 309.881 288.432 309.854C288.423 309.827 288.438 309.798 288.465 309.789C288.518 309.771 288.562 309.727 288.597 309.674C288.631 309.621 288.652 309.563 288.66 309.528C288.667 309.5 288.694 309.483 288.722 309.49Z" fill="#171A17"/>
<path d="M288.238 310.111C288.238 310.169 288.192 310.215 288.135 310.215C288.077 310.215 288.031 310.169 288.031 310.111C288.031 310.054 288.077 310.008 288.135 310.008C288.192 310.008 288.238 310.054 288.238 310.111Z" fill="#171A17"/>
<path  fillRule="evenodd"  clipRule="evenodd" d="M285.222 309.336C285.181 309.352 285.162 309.366 285.158 309.371C285.098 309.433 285 309.434 284.938 309.375C284.876 309.315 284.874 309.217 284.934 309.155C284.982 309.105 285.047 309.07 285.109 309.046C285.173 309.021 285.247 309.002 285.324 308.991C285.476 308.968 285.656 308.97 285.821 309.014C285.904 309.036 285.953 309.121 285.931 309.204C285.91 309.287 285.825 309.336 285.742 309.314C285.624 309.283 285.488 309.28 285.37 309.298C285.312 309.307 285.261 309.32 285.222 309.336Z" fill="#171A17"/>
<path d="M285.544 309.784C285.544 309.864 285.508 309.928 285.463 309.928C285.419 309.928 285.383 309.864 285.383 309.784C285.383 309.705 285.419 309.641 285.463 309.641C285.508 309.641 285.544 309.705 285.544 309.784Z" fill="#18181B"/>
<path  fillRule="evenodd"  clipRule="evenodd" d="M287.35 311.731C287.379 311.736 287.398 311.763 287.393 311.791C287.388 311.819 287.372 311.842 287.354 311.861C287.336 311.879 287.313 311.897 287.286 311.913C287.233 311.945 287.161 311.977 287.076 312.008C286.906 312.07 286.676 312.133 286.425 312.192C285.923 312.311 285.33 312.416 284.95 312.475C284.922 312.479 284.896 312.46 284.891 312.432C284.887 312.403 284.906 312.377 284.934 312.373C285.313 312.314 285.902 312.209 286.401 312.091C286.651 312.033 286.876 311.971 287.04 311.911C287.123 311.88 287.188 311.851 287.232 311.824C287.255 311.811 287.27 311.799 287.28 311.789C287.29 311.779 287.291 311.774 287.291 311.774C287.296 311.746 287.322 311.726 287.35 311.731Z" fill="#171A17"/>
<path  fillRule="evenodd"  clipRule="evenodd" d="M284.635 309.043C284.692 309.043 284.738 309.089 284.738 309.147C284.738 309.147 284.739 309.15 284.739 309.156C284.739 309.163 284.74 309.171 284.741 309.181C284.743 309.201 284.745 309.226 284.749 309.251C284.755 309.307 284.764 309.353 284.769 309.368C284.788 309.422 284.76 309.481 284.706 309.5C284.652 309.519 284.592 309.491 284.574 309.437C284.559 309.397 284.549 309.328 284.543 309.277C284.536 309.224 284.531 309.167 284.531 309.147C284.531 309.089 284.578 309.043 284.635 309.043Z" fill="#171A17"/>
<path  fillRule="evenodd"  clipRule="evenodd" d="M284.863 310.431C284.886 310.415 284.919 310.421 284.935 310.444C284.996 310.532 285.032 310.604 285.042 310.664C285.048 310.695 285.046 310.725 285.036 310.752C285.026 310.78 285.008 310.802 284.987 310.819C284.948 310.852 284.891 310.872 284.834 310.889C284.816 310.895 284.798 310.9 284.779 310.906C284.735 310.919 284.689 310.932 284.64 310.95C284.613 310.96 284.583 310.946 284.574 310.919C284.564 310.892 284.578 310.863 284.605 310.853C284.657 310.834 284.708 310.819 284.753 310.806C284.771 310.8 284.788 310.795 284.804 310.79C284.862 310.772 284.9 310.757 284.922 310.739C284.932 310.731 284.936 310.724 284.939 310.717C284.942 310.71 284.943 310.699 284.94 310.681C284.934 310.645 284.909 310.589 284.85 310.503C284.833 310.479 284.839 310.447 284.863 310.431Z" fill="#171A17"/>
<path  fillRule="evenodd"  clipRule="evenodd" d="M285.457 311.037C285.476 311.058 285.474 311.091 285.453 311.11C285.42 311.139 285.363 311.165 285.301 311.189C285.236 311.213 285.157 311.237 285.076 311.26C284.912 311.305 284.732 311.345 284.617 311.368C284.588 311.373 284.561 311.355 284.556 311.327C284.55 311.299 284.568 311.272 284.596 311.266C284.71 311.244 284.888 311.204 285.048 311.16C285.128 311.138 285.204 311.114 285.264 311.092C285.328 311.068 285.368 311.047 285.384 311.033C285.406 311.014 285.438 311.016 285.457 311.037Z" fill="#171A17"/>
</g>
</g>
<path d="M292.5 311C292.5 307.962 290.038 305.5 287 305.5C283.962 305.5 281.5 307.962 281.5 311C281.5 314.038 283.962 316.5 287 316.5C290.038 316.5 292.5 314.038 292.5 311Z" stroke="#FF0000"/>
<mask id="mask13_1213_25442" style="mask-type:luminance" maskUnits="userSpaceOnUse" x="32" y="88" width="131" height="99">
<path d="M150.799 88H43.3142C37.0655 88 32 94.2163 32 101.885V173.043C32 180.711 37.0655 186.927 43.3142 186.927H150.799C157.048 186.927 162.113 180.711 162.113 173.043V101.885C162.113 94.2163 157.048 88 150.799 88Z" fill="white"/>
</mask>
<g mask="url(#mask13_1213_25442)">
<path d="M150.799 88H43.3142C37.0655 88 32 94.2163 32 101.885V173.043C32 180.711 37.0655 186.927 43.3142 186.927H150.799C157.048 186.927 162.113 180.711 162.113 173.043V101.885C162.113 94.2163 157.048 88 150.799 88Z" fill="#27272A"/>
<path d="M162.113 88H32V107.091H162.113V88Z" fill="#18181B"/>
<path d="M104.131 94.9375H89.9886C88.817 94.9375 87.8672 96.1031 87.8672 97.5408C87.8672 98.9786 88.817 100.144 89.9886 100.144H104.131C105.303 100.144 106.253 98.9786 106.253 97.5408C106.253 96.1031 105.303 94.9375 104.131 94.9375Z" fill="#575757"/>
<path d="M162.113 107.086H32V186.922H162.113V107.086Z" fill="#27272A"/>
<path d="M75.845 173.043H69.4808C68.3092 173.043 67.3594 174.209 67.3594 175.646C67.3594 177.084 68.3092 178.25 69.4808 178.25H75.845C77.0167 178.25 77.9665 177.084 77.9665 175.646C77.9665 174.209 77.0167 173.043 75.845 173.043Z" fill="#569CD6"/>
<path d="M52.4977 173.043H44.012C42.8404 173.043 41.8906 174.209 41.8906 175.646C41.8906 177.084 42.8404 178.25 44.012 178.25H52.4977C53.6693 178.25 54.6191 177.084 54.6191 175.646C54.6191 174.209 53.6693 173.043 52.4977 173.043Z" fill="#9CDCFE"/>
<path d="M109.792 161.762H92.1136C90.942 161.762 89.9922 162.927 89.9922 164.365C89.9922 165.803 90.942 166.968 92.1136 166.968H109.792C110.964 166.968 111.914 165.803 111.914 164.365C111.914 162.927 110.964 161.762 109.792 161.762Z" fill="#CC6566"/>
<path d="M75.845 161.762H69.4808C68.3092 161.762 67.3594 162.927 67.3594 164.365C67.3594 165.803 68.3092 166.968 69.4808 166.968H75.845C77.0167 166.968 77.9665 165.803 77.9665 164.365C77.9665 162.927 77.0167 161.762 75.845 161.762Z" fill="#569CD6"/>
<path d="M50.3763 161.762H44.012C42.8404 161.762 41.8906 162.927 41.8906 164.365C41.8906 165.803 42.8404 166.968 44.012 166.968H50.3763C51.5479 166.968 52.4977 165.803 52.4977 164.365C52.4977 162.927 51.5479 161.762 50.3763 161.762Z" fill="#9CDCFE"/>
<path d="M121.806 161.762H115.442C114.27 161.762 113.32 162.927 113.32 164.365C113.32 165.803 114.27 166.968 115.442 166.968H121.806C122.978 166.968 123.927 165.803 123.927 164.365C123.927 162.927 122.978 161.762 121.806 161.762Z" fill="#3DC9B0"/>
<path d="M80.795 150.484H69.4808C68.3092 150.484 67.3594 151.65 67.3594 153.088C67.3594 154.526 68.3092 155.691 69.4808 155.691H80.795C81.9666 155.691 82.9164 154.526 82.9164 153.088C82.9164 151.65 81.9666 150.484 80.795 150.484Z" fill="#569CD6"/>
<path d="M50.3763 150.484H44.012C42.8404 150.484 41.8906 151.65 41.8906 153.088C41.8906 154.526 42.8404 155.691 44.012 155.691H50.3763C51.5479 155.691 52.4977 154.526 52.4977 153.088C52.4977 151.65 51.5479 150.484 50.3763 150.484Z" fill="#9CDCFE"/>
<path d="M73.0165 116.641H69.4808C68.3092 116.641 67.3594 117.806 67.3594 119.244C67.3594 120.682 68.3092 121.847 69.4808 121.847H73.0165C74.1881 121.847 75.1379 120.682 75.1379 119.244C75.1379 117.806 74.1881 116.641 73.0165 116.641Z" fill="#569CD6"/>
<path d="M96.3564 116.641H92.1136C90.942 116.641 89.9922 117.806 89.9922 119.244C89.9922 120.682 90.942 121.847 92.1136 121.847H96.3564C97.5281 121.847 98.4778 120.682 98.4778 119.244C98.4778 117.806 97.5281 116.641 96.3564 116.641Z" fill="#CC6566"/>
<path d="M119.686 116.641H102.715C101.544 116.641 100.594 117.806 100.594 119.244C100.594 120.682 101.544 121.847 102.715 121.847H119.686C120.858 121.847 121.808 120.682 121.808 119.244C121.808 117.806 120.858 116.641 119.686 116.641Z" fill="#CC6566"/>
<path d="M150.801 116.641H126.051C124.88 116.641 123.93 117.806 123.93 119.244C123.93 120.682 124.88 121.847 126.051 121.847H150.801C151.973 121.847 152.922 120.682 152.922 119.244C152.922 117.806 151.973 116.641 150.801 116.641Z" fill="#9CDCFE"/>
<path d="M46.1335 116.641H44.012C42.8404 116.641 41.8906 117.806 41.8906 119.244C41.8906 120.682 42.8404 121.847 44.012 121.847H46.1335C47.3051 121.847 48.2549 120.682 48.2549 119.244C48.2549 117.806 47.3051 116.641 46.1335 116.641Z" fill="#9CDCFE"/>
<path d="M109.792 127.922H92.1136C90.942 127.922 89.9922 129.087 89.9922 130.525C89.9922 131.963 90.942 133.129 92.1136 133.129H109.792C110.964 133.129 111.914 131.963 111.914 130.525C111.914 129.087 110.964 127.922 109.792 127.922Z" fill="#CC6566"/>
<path d="M119.685 127.922H115.442C114.27 127.922 113.32 129.087 113.32 130.525C113.32 131.963 114.27 133.129 115.442 133.129H119.685C120.856 133.129 121.806 131.963 121.806 130.525C121.806 129.087 120.856 127.922 119.685 127.922Z" fill="#9CDCFE"/>
<path d="M85.745 127.922H69.4808C68.3092 127.922 67.3594 129.087 67.3594 130.525C67.3594 131.963 68.3092 133.129 69.4808 133.129H85.745C86.9166 133.129 87.8664 131.963 87.8664 130.525C87.8664 129.087 86.9166 127.922 85.745 127.922Z" fill="#569CD6"/>
<path d="M63.1048 127.922H44.012C42.8404 127.922 41.8906 129.087 41.8906 130.525C41.8906 131.963 42.8404 133.129 44.012 133.129H63.1048C64.2764 133.129 65.2262 131.963 65.2262 130.525C65.2262 129.087 64.2764 127.922 63.1048 127.922Z" fill="#9CDCFE"/>
<path d="M106.256 139.203H92.1136C90.942 139.203 89.9922 140.369 89.9922 141.806C89.9922 143.244 90.942 144.41 92.1136 144.41H106.256C107.428 144.41 108.378 143.244 108.378 141.806C108.378 140.369 107.428 139.203 106.256 139.203Z" fill="#CC6566"/>
<path d="M80.795 139.203H69.4808C68.3092 139.203 67.3594 140.369 67.3594 141.806C67.3594 143.244 68.3092 144.41 69.4808 144.41H80.795C81.9666 144.41 82.9164 143.244 82.9164 141.806C82.9164 140.369 81.9666 139.203 80.795 139.203Z" fill="#569CD6"/>
<path d="M52.4977 139.203H44.012C42.8404 139.203 41.8906 140.369 41.8906 141.806C41.8906 143.244 42.8404 144.41 44.012 144.41H52.4977C53.6693 144.41 54.6191 143.244 54.6191 141.806C54.6191 140.369 53.6693 139.203 52.4977 139.203Z" fill="#9CDCFE"/>
</g>
<mask id="mask14_1213_25442" style="mask-type:luminance" maskUnits="userSpaceOnUse" x="168" y="125" width="12" height="12">
<path d="M180 131C180 127.686 177.314 125 174 125C170.686 125 168 127.686 168 131C168 134.314 170.686 137 174 137C177.314 137 180 134.314 180 131Z" fill="white"/>
</mask>
<g mask="url(#mask14_1213_25442)">
<mask id="mask15_1213_25442" style="mask-type:luminance" maskUnits="userSpaceOnUse" x="168" y="125" width="12" height="12">
<path d="M180 131C180 127.686 177.315 125 174 125C170.685 125 168 127.686 168 131C168 134.314 170.685 137 174 137C177.315 137 180 134.314 180 131Z" fill="white"/>
</mask>
<g mask="url(#mask15_1213_25442)">
<path d="M179.992 131C179.992 127.686 177.303 125 173.992 125C170.677 125 167.992 127.686 167.992 131C167.992 134.314 170.677 137 173.992 137C177.303 137 179.992 134.314 179.992 131Z" fill="#9CDCFE"/>
<path d="M172.14 133.132L172.845 132.18L176.243 132.335C176.397 132.653 176.895 133.489 177.679 134.295C178.662 135.302 179.592 135.542 179.678 135.644C179.903 135.897 180.109 136.106 180.203 136.251C180.255 136.335 180.563 136.789 180.803 137.188H167.205C167.145 137.054 167.202 136.514 167.918 135.43C168.638 134.346 171.034 133.446 172.14 133.132Z" fill="#114139"/>
<path d="M172.836 132.185V131.365L176.173 131.246C176.203 131.702 176.278 132.672 176.365 132.91C176.451 133.147 176.402 135.211 176.365 136.213C175.945 135.966 173.837 133.425 172.836 132.185Z" fill="#E8684F"/>
<path d="M176.372 128.537C176.372 129.712 176.852 131.437 174.422 131.387C172.686 131.352 172.469 129.712 172.469 128.537C172.469 127.362 173.342 126.41 174.422 126.41C175.499 126.41 176.372 127.362 176.372 128.537Z" fill="#E8684F"/>
<path d="M176.53 130.878C176.53 131.756 176.136 132.468 174.944 132.468C173.747 132.468 172.656 131.756 172.656 130.878C172.656 130 174.066 129.289 174.944 129.289C175.821 129.289 176.53 130 176.53 130.878Z" fill="#E8684F"/>
<path d="M173.057 130.158C173.057 130.666 172.84 131.549 172.641 130.987C172.532 130.678 172.139 130.926 171.977 130.046C171.977 129.538 172.307 129.238 172.574 129.238C172.84 129.238 173.057 129.65 173.057 130.158Z" fill="#E8684F"/>
<path d="M176.853 130.184C176.853 130.415 176.384 131.02 176.305 131.079C176.001 131.079 175.758 130.678 175.758 130.184C175.758 129.69 176.001 129.289 176.305 129.289C176.605 129.289 176.969 129.289 176.853 130.184Z" fill="#E8684F"/>
<path  fillRule="evenodd"  clipRule="evenodd" d="M172.882 131.479C172.912 131.45 172.957 131.45 172.987 131.479C173.144 131.637 173.429 131.874 173.763 132.065C174.101 132.257 174.476 132.397 174.824 132.377C175.533 132.334 176.039 131.888 176.201 131.675C176.223 131.642 176.268 131.635 176.302 131.66C176.336 131.685 176.343 131.731 176.317 131.764C176.137 132.001 175.597 132.479 174.832 132.525C174.446 132.548 174.037 132.391 173.692 132.193C173.343 131.995 173.047 131.75 172.882 131.583C172.852 131.554 172.852 131.508 172.882 131.479Z" fill="#121212"/>
<path  fillRule="evenodd"  clipRule="evenodd" d="M175.142 129.629C175.142 129.588 175.176 129.555 175.217 129.555C175.412 129.555 175.577 129.627 175.648 129.787C175.72 129.94 175.693 130.148 175.585 130.391C175.487 130.614 175.243 130.664 175.037 130.644C174.932 130.633 174.827 130.604 174.737 130.563C174.651 130.523 174.572 130.469 174.527 130.402C174.505 130.368 174.516 130.322 174.55 130.299C174.583 130.277 174.628 130.286 174.651 130.32C174.673 130.353 174.726 130.394 174.801 130.428C174.876 130.462 174.962 130.487 175.052 130.496C175.236 130.515 175.39 130.464 175.45 130.331C175.555 130.102 175.558 129.944 175.513 129.849C175.472 129.76 175.378 129.703 175.217 129.703C175.176 129.703 175.142 129.67 175.142 129.629Z" fill="#121212"/>
<path d="M174.041 129.313C174.041 129.417 173.984 129.501 173.921 129.501C173.853 129.501 173.797 129.417 173.797 129.313C173.797 129.209 173.853 129.125 173.921 129.125C173.984 129.125 174.041 129.209 174.041 129.313Z" fill="#D9D9D9"/>
<path d="M176.009 129.313C176.009 129.417 175.953 129.501 175.886 129.501C175.822 129.501 175.766 129.417 175.766 129.313C175.766 129.209 175.822 129.125 175.886 129.125C175.953 129.125 176.009 129.209 176.009 129.313Z" fill="#18181B"/>
<path d="M174.041 129.313C174.041 129.417 173.984 129.501 173.921 129.501C173.853 129.501 173.797 129.417 173.797 129.313C173.797 129.209 173.853 129.125 173.921 129.125C173.984 129.125 174.041 129.209 174.041 129.313Z" fill="#121212"/>
<path d="M176.009 129.313C176.009 129.417 175.953 129.501 175.886 129.501C175.822 129.501 175.766 129.417 175.766 129.313C175.766 129.209 175.822 129.125 175.886 129.125C175.953 129.125 176.009 129.209 176.009 129.313Z" fill="#121212"/>
<path  fillRule="evenodd"  clipRule="evenodd" d="M173.806 128.903C173.663 128.959 173.551 129.043 173.494 129.098C173.438 129.156 173.344 129.156 173.284 129.098C173.228 129.04 173.228 128.946 173.284 128.889C173.371 128.805 173.517 128.698 173.701 128.626C173.888 128.555 174.121 128.517 174.368 128.59C174.447 128.614 174.492 128.696 174.469 128.775C174.447 128.853 174.364 128.898 174.286 128.875C174.113 128.825 173.948 128.848 173.806 128.903Z" fill="#121212"/>
<path  fillRule="evenodd"  clipRule="evenodd" d="M175.941 128.75C175.836 128.781 175.75 128.831 175.705 128.863C175.637 128.912 175.547 128.898 175.499 128.833C175.45 128.767 175.461 128.674 175.529 128.625C175.6 128.573 175.716 128.507 175.859 128.465C175.997 128.424 176.174 128.404 176.35 128.461C176.429 128.487 176.47 128.57 176.444 128.648C176.417 128.726 176.335 128.768 176.256 128.743C176.159 128.71 176.046 128.719 175.941 128.75Z" fill="#121212"/>
<path  fillRule="evenodd"  clipRule="evenodd" d="M174.426 130.948C174.464 130.931 174.509 130.948 174.524 130.985C174.539 131.017 174.572 131.068 174.617 131.108C174.662 131.148 174.715 131.173 174.775 131.17C174.944 131.16 175.311 131.165 175.487 131.169C175.514 131.157 175.551 131.139 175.581 131.119C175.6 131.107 175.615 131.097 175.622 131.088C175.622 131.086 175.622 131.085 175.626 131.084C175.63 131.047 175.66 131.017 175.697 131.017C175.739 131.017 175.772 131.05 175.772 131.092C175.772 131.133 175.75 131.166 175.731 131.187C175.712 131.209 175.686 131.227 175.664 131.243C175.619 131.274 175.562 131.299 175.525 131.313L175.514 131.318H175.499C175.33 131.314 174.951 131.308 174.782 131.318C174.674 131.324 174.584 131.276 174.52 131.219C174.456 131.163 174.411 131.094 174.389 131.046C174.374 131.008 174.389 130.964 174.426 130.948Z" fill="#121212"/>
<path  fillRule="evenodd"  clipRule="evenodd" d="M172.289 129.756C172.308 129.719 172.353 129.704 172.39 129.723C172.439 129.747 172.529 129.829 172.503 129.961C172.495 130.001 172.476 130.039 172.458 130.072C172.443 130.102 172.424 130.133 172.405 130.159C172.405 130.162 172.401 130.165 172.401 130.167C172.379 130.198 172.364 130.221 172.356 130.239C172.356 130.244 172.353 130.247 172.353 130.249C172.36 130.283 172.341 130.318 172.311 130.332C172.274 130.349 172.229 130.333 172.214 130.295C172.199 130.27 172.203 130.244 172.206 130.226C172.21 130.207 172.218 130.19 172.221 130.175C172.236 130.147 172.259 130.115 172.278 130.086C172.278 130.084 172.278 130.081 172.282 130.079C172.3 130.051 172.315 130.025 172.33 130C172.345 129.971 172.356 129.949 172.356 129.934C172.364 129.91 172.356 129.893 172.349 129.881C172.341 129.866 172.326 129.858 172.323 129.855C172.285 129.837 172.27 129.792 172.289 129.756Z" fill="#121212"/>
<path  fillRule="evenodd"  clipRule="evenodd" d="M176.567 129.645C176.608 129.645 176.638 129.678 176.638 129.719V129.891C176.638 129.891 176.642 129.896 176.646 129.904C176.65 129.917 176.661 129.931 176.672 129.948C176.691 129.981 176.721 130.014 176.736 130.033C176.766 130.064 176.762 130.111 176.732 130.138C176.698 130.165 176.653 130.162 176.627 130.132C176.605 130.108 176.575 130.07 176.548 130.03C176.533 130.011 176.522 129.989 176.511 129.968C176.503 129.949 176.492 129.922 176.492 129.893V129.719C176.492 129.678 176.526 129.645 176.567 129.645Z" fill="#121212"/>
<path  fillRule="evenodd"  clipRule="evenodd" d="M174.044 133.767C174.055 133.728 174.096 133.706 174.134 133.718C174.336 133.782 174.647 133.884 174.925 133.987C175.064 134.038 175.199 134.09 175.304 134.136C175.356 134.16 175.401 134.183 175.442 134.204C175.48 134.224 175.514 134.246 175.536 134.267C175.57 134.295 175.57 134.342 175.544 134.372C175.514 134.402 175.469 134.404 175.439 134.376C175.427 134.367 175.409 134.353 175.371 134.334C175.337 134.315 175.293 134.295 175.244 134.272C175.143 134.227 175.011 134.177 174.876 134.126C174.599 134.025 174.291 133.923 174.092 133.86C174.051 133.847 174.029 133.806 174.044 133.767Z" fill="#121212"/>
<path  fillRule="evenodd"  clipRule="evenodd" d="M176.481 133.993C176.492 134.032 176.47 134.074 176.432 134.086C176.383 134.102 176.305 134.131 176.23 134.166C176.151 134.204 176.087 134.243 176.057 134.275C176.031 134.305 175.986 134.309 175.956 134.282C175.922 134.255 175.922 134.208 175.948 134.177C175.997 134.12 176.087 134.07 176.166 134.032C176.248 133.993 176.335 133.962 176.387 133.945C176.428 133.933 176.47 133.954 176.481 133.993Z" fill="#121212"/>
<path  fillRule="evenodd"  clipRule="evenodd" d="M172.356 133.309C172.394 133.309 172.428 133.342 172.428 133.383V134.879C172.428 134.946 172.514 134.981 172.562 134.93C172.791 134.686 173.072 134.398 173.331 134.155C173.459 134.034 173.582 133.924 173.688 133.837C173.796 133.751 173.89 133.683 173.965 133.651C174.002 133.635 174.048 133.652 174.062 133.69C174.081 133.728 174.062 133.771 174.025 133.787C173.969 133.811 173.886 133.867 173.781 133.952C173.68 134.036 173.56 134.144 173.432 134.263C173.177 134.503 172.896 134.789 172.667 135.032C172.532 135.179 172.281 135.083 172.281 134.879V133.383C172.281 133.342 172.315 133.309 172.356 133.309Z" fill="#5E9D92"/>
<path  fillRule="evenodd"  clipRule="evenodd" d="M176.359 133.665C176.389 133.637 176.434 133.638 176.464 133.668L177.698 134.972C177.728 135.002 177.724 135.049 177.694 135.077C177.664 135.105 177.619 135.104 177.589 135.074L176.355 133.769C176.329 133.74 176.329 133.693 176.359 133.665Z" fill="#5E9D92"/>
<path  fillRule="evenodd"  clipRule="evenodd" d="M168.216 135.286C168.205 135.293 168.198 135.3 168.186 135.307C168.153 135.33 168.108 135.322 168.085 135.289C168.059 135.256 168.07 135.21 168.1 135.186C168.115 135.177 168.126 135.167 168.141 135.158C168.505 134.898 169.105 134.472 169.825 134.718C170.463 134.936 170.834 135.468 170.999 135.939C171.134 136.322 171.119 136.825 171.096 137.159C171.093 137.2 171.055 137.23 171.014 137.227C170.976 137.224 170.943 137.189 170.946 137.148C170.973 136.814 170.984 136.339 170.86 135.988C170.703 135.544 170.358 135.057 169.78 134.859C169.131 134.637 168.591 135.021 168.216 135.286Z" fill="#5E9D92"/>
</g>
</g>
<path d="M179.5 131C179.5 127.962 177.038 125.5 174 125.5C170.962 125.5 168.5 127.962 168.5 131C168.5 134.038 170.962 136.5 174 136.5C177.038 136.5 179.5 134.038 179.5 131Z" stroke="#15D465"/>
<mask id="mask16_1213_25442" style="mask-type:luminance" maskUnits="userSpaceOnUse" x="176" y="125" width="12" height="12">
<path d="M188 131C188 127.686 185.314 125 182 125C178.686 125 176 127.686 176 131C176 134.314 178.686 137 182 137C185.314 137 188 134.314 188 131Z" fill="white"/>
</mask>
<g mask="url(#mask16_1213_25442)">
<mask id="mask17_1213_25442" style="mask-type:luminance" maskUnits="userSpaceOnUse" x="176" y="125" width="12" height="12">
<path d="M188 131C188 127.686 185.314 125 182 125C178.686 125 176 127.686 176 131C176 134.314 178.686 137 182 137C185.314 137 188 134.314 188 131Z" fill="white"/>
</mask>
<g mask="url(#mask17_1213_25442)">
<path d="M188 131C188 127.686 185.314 125 182 125C178.686 125 176 127.686 176 131C176 134.314 178.686 137 182 137C185.314 137 188 134.314 188 131Z" fill="#3A3A3A"/>
<path  fillRule="evenodd"  clipRule="evenodd" d="M181.572 132.737C182.687 132.519 183.534 131.364 183.534 129.973C183.534 128.426 182.486 127.172 181.19 127.172C179.895 127.172 178.843 128.426 178.843 129.973C178.843 130.2 178.868 130.42 178.91 130.631L178.346 131.394C178.282 131.48 178.346 131.602 178.452 131.602H178.893L179.115 132.681C179.189 133.048 179.56 133.277 179.92 133.18L181.572 132.737Z" fill="#E8684F"/>
<path  fillRule="evenodd"  clipRule="evenodd" d="M179.264 132.197C179.296 132.212 179.31 132.251 179.296 132.283C179.282 132.311 179.257 132.341 179.232 132.366C179.204 132.392 179.172 132.419 179.137 132.439C179.109 132.458 179.066 132.449 179.049 132.418C179.031 132.387 179.038 132.347 179.07 132.328C179.094 132.314 179.119 132.293 179.14 132.272C179.151 132.262 179.162 132.252 179.165 132.244C179.169 132.24 179.172 132.237 179.176 132.234C179.176 132.231 179.176 132.23 179.176 132.23C179.19 132.197 179.229 132.182 179.264 132.197Z" fill="#8C0101"/>
<path d="M179.229 130.3C179.229 130.444 179.2 130.56 179.165 130.56C179.13 130.56 179.102 130.444 179.102 130.3C179.102 130.156 179.13 130.039 179.165 130.039C179.2 130.039 179.229 130.156 179.229 130.3Z" fill="#322B2B"/>
<path  fillRule="evenodd"  clipRule="evenodd" d="M179.005 129.776C178.945 129.824 178.917 129.887 178.91 129.929C178.903 129.964 178.867 129.987 178.832 129.98C178.797 129.973 178.776 129.939 178.783 129.904C178.793 129.836 178.839 129.744 178.924 129.675C179.012 129.604 179.139 129.563 179.312 129.591C179.347 129.597 179.372 129.631 179.365 129.666C179.362 129.702 179.326 129.726 179.291 129.72C179.15 129.697 179.062 129.731 179.005 129.776Z" fill="#322B2B"/>
<path  fillRule="evenodd"  clipRule="evenodd" d="M181.784 130.365C181.82 130.372 181.841 130.406 181.834 130.441C181.802 130.61 181.717 130.866 181.573 131.087C181.431 131.309 181.22 131.507 180.93 131.535C180.895 131.539 180.863 131.513 180.86 131.477C180.856 131.441 180.881 131.409 180.92 131.406C181.149 131.382 181.333 131.222 181.463 131.017C181.597 130.812 181.675 130.572 181.707 130.415C181.714 130.38 181.749 130.357 181.784 130.365Z" fill="#322B2B"/>
<path d="M181.183 130.817C181.183 130.889 181.127 130.947 181.052 130.947C180.982 130.947 180.922 130.889 180.922 130.817C180.922 130.745 180.982 130.688 181.052 130.688C181.127 130.688 181.183 130.745 181.183 130.817Z" fill="#322B2B"/>
<path  fillRule="evenodd"  clipRule="evenodd" d="M181.329 129.991C181.262 130.022 181.167 130.087 181.04 130.214C181.015 130.24 180.973 130.24 180.948 130.214C180.924 130.189 180.924 130.148 180.948 130.122C181.082 129.988 181.192 129.912 181.277 129.873C181.319 129.853 181.354 129.842 181.389 129.838C181.421 129.834 181.453 129.836 181.478 129.849C181.509 129.866 181.524 129.904 181.506 129.937C181.492 129.968 181.453 129.981 181.421 129.967C181.421 129.967 181.414 129.966 181.404 129.967C181.39 129.969 181.365 129.976 181.329 129.991Z" fill="#322B2B"/>
<path d="M178.764 133.743C179.075 133.638 179.901 133.641 180.271 133.685C182.159 133.815 183.095 134.287 183.268 134.402C183.462 134.532 185.015 135.399 185.343 135.567C185.872 135.834 186.126 136.5 186.384 136.935H177.723C177.677 136.522 177.617 135.567 177.723 135.045C177.85 134.394 178.372 133.873 178.764 133.743Z" fill="#FFB600"/>
<path  fillRule="evenodd"  clipRule="evenodd" d="M185.558 135.748C185.569 135.782 185.548 135.819 185.516 135.83C181.33 137.186 178.524 136.519 177.635 136.003C177.603 135.985 177.592 135.945 177.61 135.914C177.631 135.883 177.67 135.872 177.702 135.89C178.549 136.382 181.312 137.054 185.474 135.706C185.509 135.695 185.548 135.714 185.558 135.748Z" fill="#F47F6E"/>
<path  fillRule="evenodd"  clipRule="evenodd" d="M185.992 136.121C186.002 136.155 185.985 136.191 185.949 136.202C181.53 137.557 178.573 136.89 177.634 136.375C177.606 136.358 177.592 136.318 177.609 136.287C177.627 136.255 177.666 136.244 177.698 136.261C178.598 136.754 181.516 137.426 185.91 136.077C185.946 136.067 185.981 136.086 185.992 136.121Z" fill="#F47F6E"/>
<path d="M182.292 133.101C182.239 132.892 182.271 132.449 182.292 132.254L180.792 132.319C180.792 132.449 180.806 132.788 180.859 133.101C180.909 133.413 180.489 133.622 180.273 133.687V134.86C180.273 135.185 180.598 136.944 181.706 136.944C182.811 136.944 183.266 136.235 183.333 135.967C183.401 135.706 183.355 134.86 183.27 134.404C182.68 134.143 182.356 133.361 182.292 133.101Z" fill="#E8684F"/>
<path  fillRule="evenodd"  clipRule="evenodd" d="M185.859 127.316C185.834 126.656 185.291 126.129 184.624 126.129C183.939 126.129 183.385 126.683 183.385 127.367C183.385 127.426 183.392 127.485 183.399 127.542C183.117 127.396 182.799 127.311 182.464 127.302C182.121 126.98 181.645 126.78 181.123 126.78C180.117 126.78 179.298 127.508 179.234 128.427C179.308 128.349 179.397 128.293 179.496 128.264C179.944 128.134 180.48 128.617 180.688 129.342C180.791 129.698 180.794 130.047 180.72 130.325C180.988 129.889 181.363 129.642 181.606 129.762C181.881 129.898 181.885 130.452 181.617 131.001C181.588 131.058 181.553 131.103 181.518 131.147C181.497 131.173 181.476 131.199 181.458 131.228L181.885 132.178C181.917 132.251 182.008 132.278 182.076 132.234L183.519 131.293C183.756 131.149 183.964 130.961 184.13 130.739C184.274 130.81 184.433 130.849 184.603 130.849C185.192 130.849 185.672 130.371 185.672 129.781V129.779C185.894 129.568 186.053 129.286 186.103 128.968C186.283 128.777 186.392 128.521 186.392 128.239C186.392 127.845 186.177 127.501 185.859 127.316Z" fill="#1A1415"/>
</g>
</g>
<path d="M187.5 131C187.5 127.962 185.038 125.5 182 125.5C178.962 125.5 176.5 127.962 176.5 131C176.5 134.038 178.962 136.5 182 136.5C185.038 136.5 187.5 134.038 187.5 131Z" stroke="#9A9A9A"/>
<path d="M161.131 165H168C171.314 165 174 167.686 174 171V209.683C174 212.997 171.314 215.683 168 215.683H131C127.686 215.683 125 218.37 125 221.683V261C125 264.314 127.686 267 131 267H144.303" stroke="#545454" stroke-width="2"/>
<path d="M167.5 159C167.5 158.448 167.052 158 166.5 158C165.948 158 165.5 158.448 165.5 159V170C165.5 170.552 165.948 171 166.5 171C167.052 171 167.5 170.552 167.5 170V159Z" fill="#545454"/>
<path d="M140.29 262.856C140.632 262.514 140.632 261.96 140.29 261.619C139.949 261.277 139.395 261.277 139.053 261.619L134.123 266.549C133.782 266.89 133.782 267.444 134.123 267.786C134.465 268.127 135.019 268.127 135.36 267.786L140.29 262.856Z" fill="#545454"/>
<path d="M135.356 266.62C135.014 266.278 134.46 266.278 134.119 266.62C133.777 266.961 133.777 267.515 134.119 267.857L139.049 272.787C139.39 273.129 139.944 273.129 140.286 272.787C140.627 272.445 140.627 271.891 140.286 271.55L135.356 266.62Z" fill="#545454"/>
<path d="M130 14H94C92.3431 14 91 15.3431 91 17C91 18.6569 92.3431 20 94 20H130C131.657 20 133 18.6569 133 17C133 15.3431 131.657 14 130 14Z" fill="#454545"/>
<path d="M209 14H142C140.343 14 139 15.3431 139 17C139 18.6569 140.343 20 142 20H209C210.657 20 212 18.6569 212 17C212 15.3431 210.657 14 209 14Z" fill="#454545"/>
<path d="M89 14L87 20" stroke="#545454"/>
<path d="M137 14L135 20" stroke="#545454"/>
</g>
<path d="M495 1H17C8.16344 1 1 8.16344 1 17V384C1 392.837 8.16344 400 17 400H495C503.837 400 511 392.837 511 384V17C511 8.16344 503.837 1 495 1Z" stroke="#4B4B4B"/>
<path d="M1.5 30H510.999V31H1.5V30Z" fill="#343434"/>
</g>
<defs>
<clipPath id="clip0_1213_25442">
<rect width="512" height="401" fill="white"/>
</clipPath>
</defs>
</svg>
