<svg width="573" height="224" viewBox="0 0 573 224" fill="none" xmlns="http://www.w3.org/2000/svg">
<g  clipPath="url(#clip0_1212_24488)">
<rect width="573" height="224" fill="#18181B"/>
<g  clipPath="url(#clip1_1212_24488)">
<mask id="mask0_1212_24488" style="mask-type:luminance" maskUnits="userSpaceOnUse" x="109" y="30" width="287" height="204">
<path d="M390.691 30H113.618C111.067 30 109 32.0633 109 34.6085V229.318C109 231.864 111.067 233.927 113.618 233.927H390.691C393.241 233.927 395.309 231.864 395.309 229.318V34.6085C395.309 32.0633 393.241 30 390.691 30Z" fill="white"/>
</mask>
<g mask="url(#mask0_1212_24488)">
<path d="M395.309 30H109V233.351H395.309V30Z" fill="#18181B"/>
<path d="M184.622 38.6406H164.418C163.143 38.6406 162.109 39.6723 162.109 40.9449C162.109 42.2175 163.143 43.2491 164.418 43.2491H184.622C185.897 43.2491 186.931 42.2175 186.931 40.9449C186.931 39.6723 185.897 38.6406 184.622 38.6406Z" fill="#575757"/>
<path d="M147.409 63.9883H137.534C136.225 63.9883 135.164 65.0472 135.164 66.3535C135.164 67.6598 136.225 68.7188 137.534 68.7188H147.409C148.718 68.7188 149.779 67.6598 149.779 66.3535C149.779 65.0472 148.718 63.9883 147.409 63.9883Z" fill="#569CD6"/>
<path d="M147.409 137.707H137.534C136.225 137.707 135.164 138.766 135.164 140.072C135.164 141.379 136.225 142.438 137.534 142.438H147.409C148.718 142.438 149.779 141.379 149.779 140.072C149.779 138.766 148.718 137.707 147.409 137.707Z" fill="#569CD6"/>
<path d="M144.249 218.91H137.534C136.225 218.91 135.164 219.969 135.164 221.275C135.164 222.582 136.225 223.641 137.534 223.641H144.249C145.558 223.641 146.619 222.582 146.619 221.275C146.619 219.969 145.558 218.91 144.249 218.91Z" fill="#569CD6"/>
<path d="M179.798 72.2656H175.058C173.749 72.2656 172.688 73.3246 172.688 74.6309C172.688 75.9372 173.749 76.9961 175.058 76.9961H179.798C181.107 76.9961 182.168 75.9372 182.168 74.6309C182.168 73.3246 181.107 72.2656 179.798 72.2656Z" fill="#569CD6"/>
<path d="M179.798 145.195H175.058C173.749 145.195 172.688 146.254 172.688 147.561C172.688 148.867 173.749 149.926 175.058 149.926H179.798C181.107 149.926 182.168 148.867 182.168 147.561C182.168 146.254 181.107 145.195 179.798 145.195Z" fill="#569CD6"/>
<path d="M206.259 72.2656H201.518C200.21 72.2656 199.148 73.3246 199.148 74.6309C199.148 75.9372 200.21 76.9961 201.518 76.9961H206.259C207.568 76.9961 208.629 75.9372 208.629 74.6309C208.629 73.3246 207.568 72.2656 206.259 72.2656Z" fill="#CC6566"/>
<path d="M206.259 145.195H201.518C200.21 145.195 199.148 146.254 199.148 147.561C199.148 148.867 200.21 149.926 201.518 149.926H206.259C207.568 149.926 208.629 148.867 208.629 147.561C208.629 146.254 207.568 145.195 206.259 145.195Z" fill="#CC6566"/>
<path d="M232.73 72.2656H212.979C211.67 72.2656 210.609 73.3246 210.609 74.6309C210.609 75.9372 211.67 76.9961 212.979 76.9961H232.73C234.039 76.9961 235.1 75.9372 235.1 74.6309C235.1 73.3246 234.039 72.2656 232.73 72.2656Z" fill="#CC6566"/>
<path d="M232.73 145.195H212.979C211.67 145.195 210.609 146.254 210.609 147.561C210.609 148.867 211.67 149.926 212.979 149.926H232.73C234.039 149.926 235.1 148.867 235.1 147.561C235.1 146.254 234.039 145.195 232.73 145.195Z" fill="#CC6566"/>
<path d="M220.48 80.543H200.729C199.42 80.543 198.359 81.6019 198.359 82.9082C198.359 84.2145 199.42 85.2735 200.729 85.2735H220.48C221.789 85.2735 222.85 84.2145 222.85 82.9082C222.85 81.6019 221.789 80.543 220.48 80.543Z" fill="#CC6566"/>
<path d="M220.48 153.473H200.729C199.42 153.473 198.359 154.532 198.359 155.838C198.359 157.144 199.42 158.203 200.729 158.203H220.48C221.789 158.203 222.85 157.144 222.85 155.838C222.85 154.532 221.789 153.473 220.48 153.473Z" fill="#CC6566"/>
<path d="M220.48 105.379H200.729C199.42 105.379 198.359 106.438 198.359 107.744C198.359 109.05 199.42 110.109 200.729 110.109H220.48C221.789 110.109 222.85 109.05 222.85 107.744C222.85 106.438 221.789 105.379 220.48 105.379Z" fill="#CC6566"/>
<path d="M206.26 178.309H200.729C199.42 178.309 198.359 179.368 198.359 180.674C198.359 181.98 199.42 183.039 200.729 183.039H206.26C207.569 183.039 208.63 181.98 208.63 180.674C208.63 179.368 207.569 178.309 206.26 178.309Z" fill="#CC6566"/>
<path d="M216.925 88.8242H200.729C199.42 88.8242 198.359 89.8832 198.359 91.1895C198.359 92.4957 199.42 93.5547 200.729 93.5547H216.925C218.234 93.5547 219.295 92.4957 219.295 91.1895C219.295 89.8832 218.234 88.8242 216.925 88.8242Z" fill="#CC6566"/>
<path d="M220.48 170.031H200.729C199.42 170.031 198.359 171.09 198.359 172.396C198.359 173.703 199.42 174.762 200.729 174.762H220.48C221.789 174.762 222.85 173.703 222.85 172.396C222.85 171.09 221.789 170.031 220.48 170.031Z" fill="#CC6566"/>
<path d="M220.48 186.586H200.729C199.42 186.586 198.359 187.645 198.359 188.951C198.359 190.257 199.42 191.316 200.729 191.316H220.48C221.789 191.316 222.85 190.257 222.85 188.951C222.85 187.645 221.789 186.586 220.48 186.586Z" fill="#CC6566"/>
<path d="M224.035 161.75H200.729C199.42 161.75 198.359 162.809 198.359 164.115C198.359 165.422 199.42 166.48 200.729 166.48H224.035C225.344 166.48 226.405 165.422 226.405 164.115C226.405 162.809 225.344 161.75 224.035 161.75Z" fill="#CC6566"/>
<path d="M268.275 72.2656H240.229C238.92 72.2656 237.859 73.3246 237.859 74.6309C237.859 75.9372 238.92 76.9961 240.229 76.9961H268.275C269.584 76.9961 270.645 75.9372 270.645 74.6309C270.645 73.3246 269.584 72.2656 268.275 72.2656Z" fill="#9CDCFE"/>
<path d="M268.275 145.195H240.229C238.92 145.195 237.859 146.254 237.859 147.561C237.859 148.867 238.92 149.926 240.229 149.926H268.275C269.584 149.926 270.645 148.867 270.645 147.561C270.645 146.254 269.584 145.195 268.275 145.195Z" fill="#9CDCFE"/>
<path d="M244.973 186.586H230.753C229.444 186.586 228.383 187.645 228.383 188.951C228.383 190.257 229.444 191.316 230.753 191.316H244.973C246.282 191.316 247.343 190.257 247.343 188.951C247.343 187.645 246.282 186.586 244.973 186.586Z" fill="#9CDCFE"/>
<path d="M277.758 186.586H254.058C252.749 186.586 251.688 187.645 251.688 188.951C251.688 190.257 252.749 191.316 254.058 191.316H277.758C279.067 191.316 280.128 190.257 280.128 188.951C280.128 187.645 279.067 186.586 277.758 186.586Z" fill="#9CDCFE"/>
<path d="M311.727 186.586H288.026C286.717 186.586 285.656 187.645 285.656 188.951C285.656 190.257 286.717 191.316 288.026 191.316H311.727C313.036 191.316 314.097 190.257 314.097 188.951C314.097 187.645 313.036 186.586 311.727 186.586Z" fill="#9CDCFE"/>
<path d="M231.938 80.543H227.198C225.889 80.543 224.828 81.6019 224.828 82.9082C224.828 84.2145 225.889 85.2735 227.198 85.2735H231.938C233.247 85.2735 234.308 84.2145 234.308 82.9082C234.308 81.6019 233.247 80.543 231.938 80.543Z" fill="#9CDCFE"/>
<path d="M231.938 153.473H227.198C225.889 153.473 224.828 154.532 224.828 155.838C224.828 157.144 225.889 158.203 227.198 158.203H231.938C233.247 158.203 234.308 157.144 234.308 155.838C234.308 154.532 233.247 153.473 231.938 153.473Z" fill="#9CDCFE"/>
<path d="M193.228 80.543H175.058C173.749 80.543 172.688 81.6019 172.688 82.9082C172.688 84.2145 173.749 85.2735 175.058 85.2735H193.228C194.537 85.2735 195.598 84.2145 195.598 82.9082C195.598 81.6019 194.537 80.543 193.228 80.543Z" fill="#569CD6"/>
<path d="M193.228 153.473H175.058C173.749 153.473 172.688 154.532 172.688 155.838C172.688 157.144 173.749 158.203 175.058 158.203H193.228C194.537 158.203 195.598 157.144 195.598 155.838C195.598 154.532 194.537 153.473 193.228 153.473Z" fill="#569CD6"/>
<path d="M187.698 88.8242H175.058C173.749 88.8242 172.688 89.8832 172.688 91.1895C172.688 92.4957 173.749 93.5547 175.058 93.5547H187.698C189.007 93.5547 190.068 92.4957 190.068 91.1895C190.068 89.8832 189.007 88.8242 187.698 88.8242Z" fill="#569CD6"/>
<path d="M193.228 161.75H175.058C173.749 161.75 172.688 162.809 172.688 164.115C172.688 165.422 173.749 166.48 175.058 166.48H193.228C194.537 166.48 195.598 165.422 195.598 164.115C195.598 162.809 194.537 161.75 193.228 161.75Z" fill="#569CD6"/>
<path d="M187.698 97.1016H175.058C173.749 97.1016 172.688 98.1605 172.688 99.4668C172.688 100.773 173.749 101.832 175.058 101.832H187.698C189.007 101.832 190.068 100.773 190.068 99.4668C190.068 98.1605 189.007 97.1016 187.698 97.1016Z" fill="#569CD6"/>
<path d="M190.858 170.031H175.058C173.749 170.031 172.688 171.09 172.688 172.396C172.688 173.703 173.749 174.762 175.058 174.762H190.858C192.167 174.762 193.228 173.703 193.228 172.396C193.228 171.09 192.167 170.031 190.858 170.031Z" fill="#569CD6"/>
<path d="M237.074 170.031H226.409C225.1 170.031 224.039 171.09 224.039 172.396C224.039 173.703 225.1 174.762 226.409 174.762H237.074C238.383 174.762 239.444 173.703 239.444 172.396C239.444 171.09 238.383 170.031 237.074 170.031Z" fill="#569CD6"/>
<path d="M327.136 186.586H320.815C319.506 186.586 318.445 187.645 318.445 188.951C318.445 190.257 319.506 191.316 320.815 191.316H327.136C328.444 191.316 329.506 190.257 329.506 188.951C329.506 187.645 328.444 186.586 327.136 186.586Z" fill="#569CD6"/>
<path d="M182.168 105.379H175.058C173.749 105.379 172.688 106.438 172.688 107.744C172.688 109.05 173.749 110.109 175.058 110.109H182.168C183.477 110.109 184.538 109.05 184.538 107.744C184.538 106.438 183.477 105.379 182.168 105.379Z" fill="#569CD6"/>
<path d="M187.698 178.309H175.058C173.749 178.309 172.688 179.368 172.688 180.674C172.688 181.98 173.749 183.039 175.058 183.039H187.698C189.007 183.039 190.068 181.98 190.068 180.674C190.068 179.368 189.007 178.309 187.698 178.309Z" fill="#569CD6"/>
<path d="M182.168 113.656H175.058C173.749 113.656 172.688 114.715 172.688 116.021C172.688 117.328 173.749 118.387 175.058 118.387H182.168C183.477 118.387 184.538 117.328 184.538 116.021C184.538 114.715 183.477 113.656 182.168 113.656Z" fill="#569CD6"/>
<path d="M182.168 186.586H175.058C173.749 186.586 172.688 187.645 172.688 188.951C172.688 190.257 173.749 191.316 175.058 191.316H182.168C183.477 191.316 184.538 190.257 184.538 188.951C184.538 187.645 183.477 186.586 182.168 186.586Z" fill="#569CD6"/>
<path d="M178.613 194.863H175.058C173.749 194.863 172.688 195.922 172.688 197.229C172.688 198.535 173.749 199.594 175.058 199.594H178.613C179.922 199.594 180.983 198.535 180.983 197.229C180.983 195.922 179.922 194.863 178.613 194.863Z" fill="#569CD6"/>
<path d="M148.592 72.2656H146.222C144.913 72.2656 143.852 73.3246 143.852 74.6309C143.852 75.9372 144.913 76.9961 146.222 76.9961H148.592C149.901 76.9961 150.962 75.9372 150.962 74.6309C150.962 73.3246 149.901 72.2656 148.592 72.2656Z" fill="#9CDCFE"/>
<path d="M148.592 145.195H146.222C144.913 145.195 143.852 146.254 143.852 147.561C143.852 148.867 144.913 149.926 146.222 149.926H148.592C149.901 149.926 150.962 148.867 150.962 147.561C150.962 146.254 149.901 145.195 148.592 145.195Z" fill="#9CDCFE"/>
<path d="M167.552 80.543H146.222C144.913 80.543 143.852 81.6019 143.852 82.9082C143.852 84.2145 144.913 85.2735 146.222 85.2735H167.552C168.861 85.2735 169.922 84.2145 169.922 82.9082C169.922 81.6019 168.861 80.543 167.552 80.543Z" fill="#9CDCFE"/>
<path d="M167.552 153.473H146.222C144.913 153.473 143.852 154.532 143.852 155.838C143.852 157.144 144.913 158.203 146.222 158.203H167.552C168.861 158.203 169.922 157.144 169.922 155.838C169.922 154.532 168.861 153.473 167.552 153.473Z" fill="#9CDCFE"/>
<path d="M156.097 88.8242H146.222C144.913 88.8242 143.852 89.8832 143.852 91.1895C143.852 92.4957 144.913 93.5547 146.222 93.5547H156.097C157.406 93.5547 158.467 92.4957 158.467 91.1895C158.467 89.8832 157.406 88.8242 156.097 88.8242Z" fill="#9CDCFE"/>
<path d="M167.552 161.75H146.222C144.913 161.75 143.852 162.809 143.852 164.115C143.852 165.422 144.913 166.48 146.222 166.48H167.552C168.861 166.48 169.922 165.422 169.922 164.115C169.922 162.809 168.861 161.75 167.552 161.75Z" fill="#9CDCFE"/>
<path d="M153.332 97.1016H146.222C144.913 97.1016 143.852 98.1605 143.852 99.4668C143.852 100.773 144.913 101.832 146.222 101.832H153.332C154.641 101.832 155.702 100.773 155.702 99.4668C155.702 98.1605 154.641 97.1016 153.332 97.1016Z" fill="#9CDCFE"/>
<path d="M167.552 170.031H146.222C144.913 170.031 143.852 171.09 143.852 172.396C143.852 173.703 144.913 174.762 146.222 174.762H167.552C168.861 174.762 169.922 173.703 169.922 172.396C169.922 171.09 168.861 170.031 167.552 170.031Z" fill="#9CDCFE"/>
<path d="M153.332 105.379H146.222C144.913 105.379 143.852 106.438 143.852 107.744C143.852 109.05 144.913 110.109 146.222 110.109H153.332C154.641 110.109 155.702 109.05 155.702 107.744C155.702 106.438 154.641 105.379 153.332 105.379Z" fill="#9CDCFE"/>
<path d="M156.097 178.309H146.222C144.913 178.309 143.852 179.368 143.852 180.674C143.852 181.98 144.913 183.039 146.222 183.039H156.097C157.406 183.039 158.467 181.98 158.467 180.674C158.467 179.368 157.406 178.309 156.097 178.309Z" fill="#9CDCFE"/>
<path d="M156.097 113.656H146.222C144.913 113.656 143.852 114.715 143.852 116.021C143.852 117.328 144.913 118.387 146.222 118.387H156.097C157.406 118.387 158.467 117.328 158.467 116.021C158.467 114.715 157.406 113.656 156.097 113.656Z" fill="#9CDCFE"/>
<path d="M158.072 186.586H146.222C144.913 186.586 143.852 187.645 143.852 188.951C143.852 190.257 144.913 191.316 146.222 191.316H158.072C159.381 191.316 160.442 190.257 160.442 188.951C160.442 187.645 159.381 186.586 158.072 186.586Z" fill="#9CDCFE"/>
<path d="M164.787 194.863H146.222C144.913 194.863 143.852 195.922 143.852 197.229C143.852 198.535 144.913 199.594 146.222 199.594H164.787C166.096 199.594 167.157 198.535 167.157 197.229C167.157 195.922 166.096 194.863 164.787 194.863Z" fill="#9CDCFE"/>
<path d="M161.629 63.9883H154.518C153.21 63.9883 152.148 65.0472 152.148 66.3535C152.148 67.6598 153.21 68.7188 154.518 68.7188H161.629C162.938 68.7188 163.999 67.6598 163.999 66.3535C163.999 65.0472 162.938 63.9883 161.629 63.9883Z" fill="#3DC9B0"/>
<path d="M161.629 137.707H154.518C153.21 137.707 152.148 138.766 152.148 140.072C152.148 141.379 153.21 142.438 154.518 142.438H161.629C162.938 142.438 163.999 141.379 163.999 140.072C163.999 138.766 162.938 137.707 161.629 137.707Z" fill="#3DC9B0"/>
<path d="M159.254 218.91H152.143C150.835 218.91 149.773 219.969 149.773 221.275C149.773 222.582 150.835 223.641 152.143 223.641H159.254C160.563 223.641 161.624 222.582 161.624 221.275C161.624 219.969 160.563 218.91 159.254 218.91Z" fill="#3DC9B0"/>
<path d="M234.308 105.379H227.198C225.889 105.379 224.828 106.438 224.828 107.744C224.828 109.05 225.889 110.109 227.198 110.109H234.308C235.617 110.109 236.678 109.05 236.678 107.744C236.678 106.438 235.617 105.379 234.308 105.379Z" fill="#3DC9B0"/>
<path d="M227.195 178.309H213.37C212.061 178.309 211 179.368 211 180.674C211 181.98 212.061 183.039 213.37 183.039H227.195C228.504 183.039 229.565 181.98 229.565 180.674C229.565 179.368 228.504 178.309 227.195 178.309Z" fill="#3DC9B0"/>
<path d="M169.526 65.1709C169.526 64.5178 168.996 63.9883 168.341 63.9883C167.687 63.9883 167.156 64.5178 167.156 65.1709V67.5361C167.156 68.1893 167.687 68.7188 168.341 68.7188C168.996 68.7188 169.526 68.1893 169.526 67.5361V65.1709Z" fill="#5F5F5F"/>
<path d="M169.526 138.89C169.526 138.237 168.996 137.707 168.341 137.707C167.687 137.707 167.156 138.237 167.156 138.89V141.255C167.156 141.908 167.687 142.438 168.341 142.438C168.996 142.438 169.526 141.908 169.526 141.255V138.89Z" fill="#5F5F5F"/>
<path d="M167.159 220.882C167.159 220.229 166.629 219.699 165.974 219.699C165.32 219.699 164.789 220.229 164.789 220.882V223.247C164.789 223.9 165.32 224.43 165.974 224.43C166.629 224.43 167.159 223.9 167.159 223.247V220.882Z" fill="#5F5F5F"/>
<path d="M137.534 203.144C137.534 202.49 137.004 201.961 136.349 201.961C135.695 201.961 135.164 202.49 135.164 203.144V205.509C135.164 206.162 135.695 206.691 136.349 206.691C137.004 206.691 137.534 206.162 137.534 205.509V203.144Z" fill="#5F5F5F"/>
<path d="M125.287 123.119C125.287 121.813 124.226 120.754 122.917 120.754C121.608 120.754 120.547 121.813 120.547 123.119C120.547 124.425 121.608 125.484 122.917 125.484C124.226 125.484 125.287 124.425 125.287 123.119Z" fill="#5F5F5F"/>
<path d="M125.287 131.396C125.287 130.09 124.226 129.031 122.917 129.031C121.608 129.031 120.547 130.09 120.547 131.396C120.547 132.703 121.608 133.762 122.917 133.762C124.226 133.762 125.287 132.703 125.287 131.396Z" fill="#5F5F5F"/>
<path d="M125.287 139.674C125.287 138.368 124.226 137.309 122.917 137.309C121.608 137.309 120.547 138.368 120.547 139.674C120.547 140.98 121.608 142.039 122.917 142.039C124.226 142.039 125.287 140.98 125.287 139.674Z" fill="#5F5F5F"/>
<path d="M125.287 147.955C125.287 146.649 124.226 145.59 122.917 145.59C121.608 145.59 120.547 146.649 120.547 147.955C120.547 149.261 121.608 150.32 122.917 150.32C124.226 150.32 125.287 149.261 125.287 147.955Z" fill="#5F5F5F"/>
<path d="M125.287 156.232C125.287 154.926 124.226 153.867 122.917 153.867C121.608 153.867 120.547 154.926 120.547 156.232C120.547 157.539 121.608 158.598 122.917 158.598C124.226 158.598 125.287 157.539 125.287 156.232Z" fill="#5F5F5F"/>
<path d="M125.287 164.51C125.287 163.203 124.226 162.145 122.917 162.145C121.608 162.145 120.547 163.203 120.547 164.51C120.547 165.816 121.608 166.875 122.917 166.875C124.226 166.875 125.287 165.816 125.287 164.51Z" fill="#5F5F5F"/>
<path d="M125.287 172.791C125.287 171.485 124.226 170.426 122.917 170.426C121.608 170.426 120.547 171.485 120.547 172.791C120.547 174.097 121.608 175.156 122.917 175.156C124.226 175.156 125.287 174.097 125.287 172.791Z" fill="#5F5F5F"/>
<path d="M125.287 181.068C125.287 179.762 124.226 178.703 122.917 178.703C121.608 178.703 120.547 179.762 120.547 181.068C120.547 182.375 121.608 183.434 122.917 183.434C124.226 183.434 125.287 182.375 125.287 181.068Z" fill="#5F5F5F"/>
<path d="M125.287 189.346C125.287 188.039 124.226 186.98 122.917 186.98C121.608 186.98 120.547 188.039 120.547 189.346C120.547 190.652 121.608 191.711 122.917 191.711C124.226 191.711 125.287 190.652 125.287 189.346Z" fill="#5F5F5F"/>
<path d="M125.287 197.623C125.287 196.317 124.226 195.258 122.917 195.258C121.608 195.258 120.547 196.317 120.547 197.623C120.547 198.929 121.608 199.988 122.917 199.988C124.226 199.988 125.287 198.929 125.287 197.623Z" fill="#5F5F5F"/>
<path d="M125.287 205.904C125.287 204.598 124.226 203.539 122.917 203.539C121.608 203.539 120.547 204.598 120.547 205.904C120.547 207.211 121.608 208.27 122.917 208.27C124.226 208.27 125.287 207.211 125.287 205.904Z" fill="#5F5F5F"/>
<path d="M125.287 214.182C125.287 212.875 124.226 211.816 122.917 211.816C121.608 211.816 120.547 212.875 120.547 214.182C120.547 215.488 121.608 216.547 122.917 216.547C124.226 216.547 125.287 215.488 125.287 214.182Z" fill="#5F5F5F"/>
<path d="M125.287 222.459C125.287 221.153 124.226 220.094 122.917 220.094C121.608 220.094 120.547 221.153 120.547 222.459C120.547 223.765 121.608 224.824 122.917 224.824C124.226 224.824 125.287 223.765 125.287 222.459Z" fill="#5F5F5F"/>
<path d="M125.287 116.021C125.287 114.715 124.226 113.656 122.917 113.656C121.608 113.656 120.547 114.715 120.547 116.021C120.547 117.328 121.608 118.387 122.917 118.387C124.226 118.387 125.287 117.328 125.287 116.021Z" fill="#5F5F5F"/>
<path d="M125.287 107.744C125.287 106.438 124.226 105.379 122.917 105.379C121.608 105.379 120.547 106.438 120.547 107.744C120.547 109.05 121.608 110.109 122.917 110.109C124.226 110.109 125.287 109.05 125.287 107.744Z" fill="#EDEDED"/>
<path d="M125.287 99.4668C125.287 98.1605 124.226 97.1016 122.917 97.1016C121.608 97.1016 120.547 98.1605 120.547 99.4668C120.547 100.773 121.608 101.832 122.917 101.832C124.226 101.832 125.287 100.773 125.287 99.4668Z" fill="#5F5F5F"/>
<path d="M125.287 91.1895C125.287 89.8832 124.226 88.8242 122.917 88.8242C121.608 88.8242 120.547 89.8832 120.547 91.1895C120.547 92.4957 121.608 93.5547 122.917 93.5547C124.226 93.5547 125.287 92.4957 125.287 91.1895Z" fill="#5F5F5F"/>
<path d="M125.678 82.9082C125.678 81.6019 124.616 80.543 123.308 80.543C121.999 80.543 120.938 81.6019 120.938 82.9082C120.938 84.2145 121.999 85.2735 123.308 85.2735C124.616 85.2735 125.678 84.2145 125.678 82.9082Z" fill="#5F5F5F"/>
<path d="M125.678 74.6309C125.678 73.3246 124.616 72.2656 123.308 72.2656C121.999 72.2656 120.938 73.3246 120.938 74.6309C120.938 75.9372 121.999 76.9961 123.308 76.9961C124.616 76.9961 125.678 75.9372 125.678 74.6309Z" fill="#5F5F5F"/>
<path d="M125.678 68.7168C125.678 67.4105 124.616 66.3516 123.308 66.3516C121.999 66.3516 120.938 67.4105 120.938 68.7168C120.938 70.0231 121.999 71.082 123.308 71.082C124.616 71.082 125.678 70.0231 125.678 68.7168Z" fill="#5F5F5F"/>
<path d="M237.862 81.7256C237.862 81.0724 237.332 80.543 236.677 80.543C236.023 80.543 235.492 81.0724 235.492 81.7256V84.0908C235.492 84.744 236.023 85.2735 236.677 85.2735C237.332 85.2735 237.862 84.744 237.862 84.0908V81.7256Z" fill="#5F5F5F"/>
<path d="M237.862 154.655C237.862 154.002 237.332 153.473 236.677 153.473C236.023 153.473 235.492 154.002 235.492 154.655V157.021C235.492 157.674 236.023 158.203 236.677 158.203C237.332 158.203 237.862 157.674 237.862 157.021V154.655Z" fill="#5F5F5F"/>
<path d="M242.604 171.214C242.604 170.561 242.074 170.031 241.419 170.031C240.765 170.031 240.234 170.561 240.234 171.214V173.579C240.234 174.232 240.765 174.762 241.419 174.762C242.074 174.762 242.604 174.232 242.604 173.579V171.214Z" fill="#5F5F5F"/>
<path d="M233.518 179.491C233.518 178.838 232.988 178.309 232.333 178.309C231.679 178.309 231.148 178.838 231.148 179.491V181.856C231.148 182.51 231.679 183.039 232.333 183.039C232.988 183.039 233.518 182.51 233.518 181.856V179.491Z" fill="#5F5F5F"/>
<path d="M240.229 106.562C240.229 105.908 239.699 105.379 239.044 105.379C238.39 105.379 237.859 105.908 237.859 106.562V108.927C237.859 109.58 238.39 110.109 239.044 110.109C239.699 110.109 240.229 109.58 240.229 108.927V106.562Z" fill="#5F5F5F"/>
<path d="M274.206 73.4482C274.206 72.7951 273.675 72.2656 273.021 72.2656C272.367 72.2656 271.836 72.7951 271.836 73.4482V75.8135C271.836 76.4666 272.367 76.9961 273.021 76.9961C273.675 76.9961 274.206 76.4666 274.206 75.8135V73.4482Z" fill="#5F5F5F"/>
<path d="M274.206 146.378C274.206 145.725 273.675 145.195 273.021 145.195C272.367 145.195 271.836 145.725 271.836 146.378V148.743C271.836 149.396 272.367 149.926 273.021 149.926C273.675 149.926 274.206 149.396 274.206 148.743V146.378Z" fill="#5F5F5F"/>
<path d="M193.229 98.2842C193.229 97.631 192.699 97.1016 192.044 97.1016C191.39 97.1016 190.859 97.631 190.859 98.2842V100.649C190.859 101.303 191.39 101.832 192.044 101.832C192.699 101.832 193.229 101.303 193.229 100.649V98.2842Z" fill="#5F5F5F"/>
<path d="M187.3 114.839C187.3 114.186 186.769 113.656 186.115 113.656C185.46 113.656 184.93 114.186 184.93 114.839V117.204C184.93 117.857 185.46 118.387 186.115 118.387C186.769 118.387 187.3 117.857 187.3 117.204V114.839Z" fill="#5F5F5F"/>
<path d="M137.534 121.937C137.534 121.283 137.004 120.754 136.349 120.754C135.695 120.754 135.164 121.283 135.164 121.937V124.302C135.164 124.955 135.695 125.484 136.349 125.484C137.004 125.484 137.534 124.955 137.534 124.302V121.937Z" fill="#5F5F5F"/>
<path d="M187.3 187.769C187.3 187.115 186.769 186.586 186.115 186.586C185.46 186.586 184.93 187.115 184.93 187.769V190.134C184.93 190.787 185.46 191.316 186.115 191.316C186.769 191.316 187.3 190.787 187.3 190.134V187.769Z" fill="#5F5F5F"/>
<path d="M184.534 196.046C184.534 195.393 184.004 194.863 183.349 194.863C182.695 194.863 182.164 195.393 182.164 196.046V198.411C182.164 199.064 182.695 199.594 183.349 199.594C184.004 199.594 184.534 199.064 184.534 198.411V196.046Z" fill="#5F5F5F"/>
<path d="M109.578 48.4327H152.484C155.035 48.4327 157.102 46.3694 157.102 43.8241V37.4874C157.102 34.9422 159.17 32.8789 161.72 32.8789H201.768C204.319 32.8789 206.386 34.9422 206.386 37.4874V43.8241C206.386 46.3694 208.454 48.4327 211.004 48.4327H395.31" stroke="#818181"/>
<path d="M120.542 42.6747C122.136 42.6747 123.429 41.3851 123.429 39.7944C123.429 38.2036 122.136 36.9141 120.542 36.9141C118.948 36.9141 117.656 38.2036 117.656 39.7944C117.656 41.3851 118.948 42.6747 120.542 42.6747Z" fill="#333232"/>
<path d="M131.511 42.6747C133.105 42.6747 134.397 41.3851 134.397 39.7944C134.397 38.2036 133.105 36.9141 131.511 36.9141C129.917 36.9141 128.625 38.2036 128.625 39.7944C128.625 41.3851 129.917 42.6747 131.511 42.6747Z" fill="#333232"/>
<path d="M142.48 42.6747C144.074 42.6747 145.366 41.3851 145.366 39.7944C145.366 38.2036 144.074 36.9141 142.48 36.9141C140.886 36.9141 139.594 38.2036 139.594 39.7944C139.594 41.3851 140.886 42.6747 142.48 42.6747Z" fill="#333232"/>
</g>
<path d="M390.691 30.2891H113.618C111.227 30.2891 109.289 32.2234 109.289 34.6095V229.319C109.289 231.706 111.227 233.64 113.618 233.64H390.691C393.082 233.64 395.021 231.706 395.021 229.319V34.6095C395.021 32.2234 393.082 30.2891 390.691 30.2891Z" stroke="#818181"/>
<mask id="mask1_1212_24488" style="mask-type:luminance" maskUnits="userSpaceOnUse" x="177" y="110" width="287" height="204">
<path d="M459.379 110.074H182.305C179.755 110.074 177.688 112.138 177.688 114.683V309.393C177.688 311.938 179.755 314.001 182.305 314.001H459.379C461.929 314.001 463.996 311.938 463.996 309.393V114.683C463.996 112.138 461.929 110.074 459.379 110.074Z" fill="white"/>
</mask>
<g mask="url(#mask1_1212_24488)">
<path d="M463.996 110.074H177.688V314.001H463.996V110.074Z" fill="#18181B"/>
<path d="M177.688 133.691H463.996" stroke="#818181"/>
<path d="M314.492 262.347H340.849C341.596 262.347 342.2 261.094 342.2 259.547V193.371C342.2 191.824 342.2 190.57 343.643 190.57H381.74" stroke="#575757"/>
<path d="M372.865 186.667C372.762 186.808 372.778 187.02 372.9 187.139L376.174 190.331L372.9 193.523C372.778 193.643 372.762 193.854 372.865 193.996C372.967 194.138 373.149 194.157 373.271 194.037L376.794 190.602C376.812 190.586 376.829 190.568 376.844 190.548C376.885 190.491 376.907 190.424 376.911 190.356C376.917 190.272 376.895 190.185 376.845 190.115C376.829 190.094 376.812 190.075 376.793 190.06L373.271 186.625C373.149 186.506 372.967 186.525 372.865 186.667Z" fill="#575757"/>
<path d="M192.121 125.628C193.715 125.628 195.007 124.338 195.007 122.748C195.007 121.157 193.715 119.867 192.121 119.867C190.527 119.867 189.234 121.157 189.234 122.748C189.234 124.338 190.527 125.628 192.121 125.628Z" fill="#333232"/>
<path d="M203.089 125.628C204.683 125.628 205.975 124.338 205.975 122.748C205.975 121.157 204.683 119.867 203.089 119.867C201.495 119.867 200.203 121.157 200.203 122.748C200.203 124.338 201.495 125.628 203.089 125.628Z" fill="#333232"/>
<path d="M214.05 125.628C215.644 125.628 216.936 124.338 216.936 122.748C216.936 121.157 215.644 119.867 214.05 119.867C212.456 119.867 211.164 121.157 211.164 122.748C211.164 124.338 212.456 125.628 214.05 125.628Z" fill="#333232"/>
<mask id="mask2_1212_24488" style="mask-type:luminance" maskUnits="userSpaceOnUse" x="208" y="172" width="107" height="66">
<path d="M305.257 172H217.517C212.416 172 208.281 176.127 208.281 181.217V228.454C208.281 233.545 212.416 237.671 217.517 237.671H305.257C310.358 237.671 314.493 233.545 314.493 228.454V181.217C314.493 176.127 310.358 172 305.257 172Z" fill="white"/>
</mask>
<g mask="url(#mask2_1212_24488)">
<path d="M305.257 172H217.517C212.416 172 208.281 176.127 208.281 181.217V228.454C208.281 233.545 212.416 237.671 217.517 237.671H305.257C310.358 237.671 314.493 233.545 314.493 228.454V181.217C314.493 176.127 310.358 172 305.257 172Z" fill="#27272A"/>
<path d="M314.493 172H208.281V184.673H314.493V172Z" fill="#18181B"/>
<path d="M267.159 176.609H255.615C254.658 176.609 253.883 177.383 253.883 178.338C253.883 179.292 254.658 180.066 255.615 180.066H267.159C268.116 180.066 268.891 179.292 268.891 178.338C268.891 177.383 268.116 176.609 267.159 176.609Z" fill="#575757"/>
<path d="M314.493 184.672H208.281V237.67H314.493V184.672Z" fill="#27272A"/>
<path d="M271.78 220.965H257.349C256.392 220.965 255.617 221.739 255.617 222.693C255.617 223.647 256.392 224.421 257.349 224.421H271.78C272.736 224.421 273.511 223.647 273.511 222.693C273.511 221.739 272.736 220.965 271.78 220.965Z" fill="#CC6566"/>
<path d="M244.067 220.965H238.872C237.916 220.965 237.141 221.739 237.141 222.693C237.141 223.647 237.916 224.421 238.872 224.421H244.067C245.024 224.421 245.799 223.647 245.799 222.693C245.799 221.739 245.024 220.965 244.067 220.965Z" fill="#569CD6"/>
<path d="M223.286 220.965H218.091C217.135 220.965 216.359 221.739 216.359 222.693C216.359 223.647 217.135 224.421 218.091 224.421H223.286C224.243 224.421 225.018 223.647 225.018 222.693C225.018 221.739 224.243 220.965 223.286 220.965Z" fill="#9CDCFE"/>
<path d="M281.591 220.965H276.396C275.439 220.965 274.664 221.739 274.664 222.693C274.664 223.647 275.439 224.421 276.396 224.421H281.591C282.547 224.421 283.323 223.647 283.323 222.693C283.323 221.739 282.547 220.965 281.591 220.965Z" fill="#3DC9B0"/>
<path d="M248.108 213.477H238.872C237.916 213.477 237.141 214.25 237.141 215.205C237.141 216.159 237.916 216.933 238.872 216.933H248.108C249.064 216.933 249.84 216.159 249.84 215.205C249.84 214.25 249.064 213.477 248.108 213.477Z" fill="#569CD6"/>
<path d="M223.286 213.477H218.091C217.135 213.477 216.359 214.25 216.359 215.205C216.359 216.159 217.135 216.933 218.091 216.933H223.286C224.243 216.933 225.018 216.159 225.018 215.205C225.018 214.25 224.243 213.477 223.286 213.477Z" fill="#9CDCFE"/>
<path d="M241.759 191.012H238.872C237.916 191.012 237.141 191.785 237.141 192.74C237.141 193.694 237.916 194.468 238.872 194.468H241.759C242.715 194.468 243.49 193.694 243.49 192.74C243.49 191.785 242.715 191.012 241.759 191.012Z" fill="#569CD6"/>
<path d="M260.812 191.012H257.349C256.392 191.012 255.617 191.785 255.617 192.74C255.617 193.694 256.392 194.468 257.349 194.468H260.812C261.769 194.468 262.544 193.694 262.544 192.74C262.544 191.785 261.769 191.012 260.812 191.012Z" fill="#CC6566"/>
<path d="M279.859 191.012H266.005C265.049 191.012 264.273 191.785 264.273 192.74C264.273 193.694 265.049 194.468 266.005 194.468H279.859C280.815 194.468 281.591 193.694 281.591 192.74C281.591 191.785 280.815 191.012 279.859 191.012Z" fill="#CC6566"/>
<path d="M305.255 191.012H285.052C284.096 191.012 283.32 191.785 283.32 192.74C283.32 193.694 284.096 194.468 285.052 194.468H305.255C306.212 194.468 306.987 193.694 306.987 192.74C306.987 191.785 306.212 191.012 305.255 191.012Z" fill="#9CDCFE"/>
<path d="M219.823 191.012H218.091C217.135 191.012 216.359 191.785 216.359 192.74C216.359 193.694 217.135 194.468 218.091 194.468H219.823C220.779 194.468 221.554 193.694 221.554 192.74C221.554 191.785 220.779 191.012 219.823 191.012Z" fill="#9CDCFE"/>
<path d="M271.78 198.5H257.349C256.392 198.5 255.617 199.274 255.617 200.228C255.617 201.183 256.392 201.956 257.349 201.956H271.78C272.736 201.956 273.511 201.183 273.511 200.228C273.511 199.274 272.736 198.5 271.78 198.5Z" fill="#CC6566"/>
<path d="M279.859 198.5H276.396C275.439 198.5 274.664 199.274 274.664 200.228C274.664 201.183 275.439 201.956 276.396 201.956H279.859C280.816 201.956 281.591 201.183 281.591 200.228C281.591 199.274 280.816 198.5 279.859 198.5Z" fill="#9CDCFE"/>
<path d="M252.149 198.5H238.872C237.916 198.5 237.141 199.274 237.141 200.228C237.141 201.183 237.916 201.956 238.872 201.956H252.149C253.105 201.956 253.88 201.183 253.88 200.228C253.88 199.274 253.105 198.5 252.149 198.5Z" fill="#569CD6"/>
<path d="M233.676 198.5H218.091C217.135 198.5 216.359 199.274 216.359 200.228C216.359 201.183 217.135 201.956 218.091 201.956H233.676C234.633 201.956 235.408 201.183 235.408 200.228C235.408 199.274 234.633 198.5 233.676 198.5Z" fill="#9CDCFE"/>
<path d="M268.894 205.988H257.349C256.392 205.988 255.617 206.762 255.617 207.716C255.617 208.671 256.392 209.445 257.349 209.445H268.894C269.85 209.445 270.625 208.671 270.625 207.716C270.625 206.762 269.85 205.988 268.894 205.988Z" fill="#CC6566"/>
<path d="M248.108 205.988H238.872C237.916 205.988 237.141 206.762 237.141 207.716C237.141 208.671 237.916 209.445 238.872 209.445H248.108C249.064 209.445 249.84 208.671 249.84 207.716C249.84 206.762 249.064 205.988 248.108 205.988Z" fill="#569CD6"/>
<path d="M225.018 205.988H218.091C217.135 205.988 216.359 206.762 216.359 207.716C216.359 208.671 217.135 209.445 218.091 209.445H225.018C225.974 209.445 226.75 208.671 226.75 207.716C226.75 206.762 225.974 205.988 225.018 205.988Z" fill="#9CDCFE"/>
</g>
<path d="M349.7 220.68H334.115C333.158 220.68 332.383 221.453 332.383 222.408C332.383 223.362 333.158 224.136 334.115 224.136H349.7C350.656 224.136 351.432 223.362 351.432 222.408C351.432 221.453 350.656 220.68 349.7 220.68Z" fill="#575757"/>
<mask id="mask3_1212_24488" style="mask-type:luminance" maskUnits="userSpaceOnUse" x="382" y="159" width="107" height="60">
<path d="M479.007 159.039H391.267C386.166 159.039 382.031 163.166 382.031 168.256V209.733C382.031 214.823 386.166 218.95 391.267 218.95H479.007C484.108 218.95 488.243 214.823 488.243 209.733V168.256C488.243 163.166 484.108 159.039 479.007 159.039Z" fill="white"/>
</mask>
<g mask="url(#mask3_1212_24488)">
<path d="M479.007 159.039H391.267C386.166 159.039 382.031 163.166 382.031 168.256V209.733C382.031 214.823 386.166 218.95 391.267 218.95H479.007C484.108 218.95 488.243 214.823 488.243 209.733V168.256C488.243 163.166 484.108 159.039 479.007 159.039Z" fill="#27272A"/>
<path d="M488.243 171.711H382.031V218.948H488.243V171.711Z" fill="#27272A"/>
<path d="M397.036 208.004H391.841C390.885 208.004 390.109 208.778 390.109 209.732C390.109 210.687 390.885 211.46 391.841 211.46H397.036C397.993 211.46 398.768 210.687 398.768 209.732C398.768 208.778 397.993 208.004 397.036 208.004Z" fill="#9CDCFE"/>
<path d="M417.817 208.004H412.622C411.666 208.004 410.891 208.778 410.891 209.732C410.891 210.687 411.666 211.46 412.622 211.46H417.817C418.774 211.46 419.549 210.687 419.549 209.732C419.549 208.778 418.774 208.004 417.817 208.004Z" fill="#3DC9B0"/>
<path d="M421.858 200.516H412.622C411.666 200.516 410.891 201.289 410.891 202.244C410.891 203.198 411.666 203.972 412.622 203.972H421.858C422.814 203.972 423.59 203.198 423.59 202.244C423.59 201.289 422.814 200.516 421.858 200.516Z" fill="#569CD6"/>
<path d="M397.036 200.516H391.841C390.885 200.516 390.109 201.289 390.109 202.244C390.109 203.198 390.885 203.972 391.841 203.972H397.036C397.993 203.972 398.768 203.198 398.768 202.244C398.768 201.289 397.993 200.516 397.036 200.516Z" fill="#9CDCFE"/>
<path d="M415.509 178.051H412.622C411.666 178.051 410.891 178.825 410.891 179.779C410.891 180.733 411.666 181.507 412.622 181.507H415.509C416.465 181.507 417.24 180.733 417.24 179.779C417.24 178.825 416.465 178.051 415.509 178.051Z" fill="#569CD6"/>
<path d="M434.562 178.051H431.099C430.142 178.051 429.367 178.825 429.367 179.779C429.367 180.733 430.142 181.507 431.099 181.507H434.562C435.519 181.507 436.294 180.733 436.294 179.779C436.294 178.825 435.519 178.051 434.562 178.051Z" fill="#CC6566"/>
<path d="M453.609 178.051H439.755C438.799 178.051 438.023 178.825 438.023 179.779C438.023 180.733 438.799 181.507 439.755 181.507H453.609C454.565 181.507 455.341 180.733 455.341 179.779C455.341 178.825 454.565 178.051 453.609 178.051Z" fill="#CC6566"/>
<path d="M479.005 178.051H458.802C457.846 178.051 457.07 178.825 457.07 179.779C457.07 180.733 457.846 181.507 458.802 181.507H479.005C479.962 181.507 480.737 180.733 480.737 179.779C480.737 178.825 479.962 178.051 479.005 178.051Z" fill="#9CDCFE"/>
<path d="M393.573 178.051H391.841C390.885 178.051 390.109 178.825 390.109 179.779C390.109 180.733 390.885 181.507 391.841 181.507H393.573C394.529 181.507 395.304 180.733 395.304 179.779C395.304 178.825 394.529 178.051 393.573 178.051Z" fill="#9CDCFE"/>
<path d="M445.53 185.539H431.099C430.142 185.539 429.367 186.313 429.367 187.267C429.367 188.222 430.142 188.995 431.099 188.995H445.53C446.486 188.995 447.261 188.222 447.261 187.267C447.261 186.313 446.486 185.539 445.53 185.539Z" fill="#CC6566"/>
<path d="M453.609 185.539H450.146C449.189 185.539 448.414 186.313 448.414 187.267C448.414 188.222 449.189 188.995 450.146 188.995H453.609C454.566 188.995 455.341 188.222 455.341 187.267C455.341 186.313 454.566 185.539 453.609 185.539Z" fill="#9CDCFE"/>
<path d="M425.899 185.539H412.622C411.666 185.539 410.891 186.313 410.891 187.267C410.891 188.222 411.666 188.995 412.622 188.995H425.899C426.855 188.995 427.63 188.222 427.63 187.267C427.63 186.313 426.855 185.539 425.899 185.539Z" fill="#569CD6"/>
<path d="M407.426 185.539H391.841C390.885 185.539 390.109 186.313 390.109 187.267C390.109 188.222 390.885 188.995 391.841 188.995H407.426C408.383 188.995 409.158 188.222 409.158 187.267C409.158 186.313 408.383 185.539 407.426 185.539Z" fill="#9CDCFE"/>
<path d="M442.644 193.027H431.099C430.142 193.027 429.367 193.801 429.367 194.756C429.367 195.71 430.142 196.484 431.099 196.484H442.644C443.6 196.484 444.375 195.71 444.375 194.756C444.375 193.801 443.6 193.027 442.644 193.027Z" fill="#CC6566"/>
<path d="M421.858 193.027H412.622C411.666 193.027 410.891 193.801 410.891 194.756C410.891 195.71 411.666 196.484 412.622 196.484H421.858C422.814 196.484 423.59 195.71 423.59 194.756C423.59 193.801 422.814 193.027 421.858 193.027Z" fill="#569CD6"/>
<path d="M398.768 193.027H391.841C390.885 193.027 390.109 193.801 390.109 194.756C390.109 195.71 390.885 196.484 391.841 196.484H398.768C399.724 196.484 400.5 195.71 400.5 194.756C400.5 193.801 399.724 193.027 398.768 193.027Z" fill="#9CDCFE"/>
<path d="M488.243 159.039H382.031V171.712H488.243V159.039Z" fill="#18181B"/>
<path d="M440.909 163.648H429.365C428.408 163.648 427.633 164.422 427.633 165.377C427.633 166.331 428.408 167.105 429.365 167.105H440.909C441.866 167.105 442.641 166.331 442.641 165.377C442.641 164.422 441.866 163.648 440.909 163.648Z" fill="#575757"/>
</g>
</g>
<path d="M459.379 110.359H182.306C179.915 110.359 177.977 112.294 177.977 114.68V309.39C177.977 311.776 179.915 313.71 182.306 313.71H459.379C461.77 313.71 463.708 311.776 463.708 309.39V114.68C463.708 112.294 461.77 110.359 459.379 110.359Z" stroke="#818181"/>
</g>
<rect width="573" height="224" fill="url(#paint0_linear_1212_24488)"/>
</g>
<defs>
<linearGradient id="paint0_linear_1212_24488" x1="286.5" y1="0" x2="286.5" y2="224" gradientUnits="userSpaceOnUse">
<stop offset="0.515625" stopColor="#18181B" stop-opacity="0"/>
<stop offset="0.681538" stop-opacity="0"/>
<stop offset="1" stopColor="#18181B"/>
</linearGradient>
<clipPath id="clip0_1212_24488">
<rect width="573" height="224" fill="white"/>
</clipPath>
<clipPath id="clip1_1212_24488">
<rect width="355" height="284" fill="white" transform="translate(109 30)"/>
</clipPath>
</defs>
</svg>
