<svg width="413" height="129" viewBox="0 0 413 129" fill="none" xmlns="http://www.w3.org/2000/svg">
<path d="M0 25.6941C0 11.5036 11.5036 0 25.6941 0H102.776C116.967 0 128.471 11.5036 128.471 25.6941V102.776C128.471 116.967 116.967 128.471 102.776 128.471H25.6941C11.5036 128.471 0 116.967 0 102.776V25.6941Z" fill="#171A17"/>
<path  fillRule="evenodd"  clipRule="evenodd" d="M28.7101 14.2437H99.7647C107.741 14.2437 114.207 20.6752 114.207 28.609V99.8606C114.207 107.794 107.741 114.226 99.7647 114.226H28.7101C20.734 114.226 14.2681 107.794 14.2681 99.8606V28.609C14.2681 20.6752 20.734 14.2437 28.7101 14.2437ZM28.7101 18.266C22.9673 18.266 18.3118 22.8967 18.3118 28.609V99.8606C18.3118 105.573 22.9673 110.204 28.7101 110.204H99.7647C105.508 110.204 110.163 105.573 110.163 99.8606V28.609C110.163 22.8967 105.508 18.266 99.7647 18.266H28.7101Z" fill="#FCFBFC"/>
<path  fillRule="evenodd"  clipRule="evenodd" d="M28.7101 12.8465H99.7647C108.538 12.8465 115.626 19.917 115.626 28.609V99.8606C115.626 108.553 108.538 115.623 99.7647 115.623H28.7101C19.9368 115.623 12.8492 108.553 12.8492 99.8606V28.609C12.8492 19.917 19.9368 12.8465 28.7101 12.8465ZM28.7101 19.6631C23.7644 19.6631 19.7307 23.655 19.7307 28.609V99.8606C19.7307 104.815 23.7644 108.806 28.7101 108.806H99.7647C104.71 108.806 108.744 104.815 108.744 99.8606V28.609C108.744 23.655 104.71 19.6631 99.7647 19.6631H28.7101ZM99.7647 14.2437H28.7101C20.734 14.2437 14.2681 20.6752 14.2681 28.609V99.8606C14.2681 107.794 20.734 114.226 28.7101 114.226H99.7647C107.741 114.226 114.207 107.794 114.207 99.8606V28.609C114.207 20.6752 107.741 14.2437 99.7647 14.2437ZM18.3118 28.609C18.3118 22.8967 22.9673 18.266 28.7101 18.266H99.7647C105.508 18.266 110.163 22.8967 110.163 28.609V99.8606C110.163 105.573 105.508 110.204 99.7647 110.204H28.7101C22.9673 110.204 18.3118 105.573 18.3118 99.8606V28.609Z" fill="#FCFBFC"/>
<path d="M63.6669 96.3246C64.6094 94.4417 65.0807 92.0944 65.0807 89.2827V39.7634C65.0807 37.8554 65.3864 36.2487 65.9978 34.9432C66.6091 33.6127 67.5007 32.5959 68.6725 31.893C69.8443 31.1901 71.2581 30.8386 72.9139 30.8386C73.8055 30.8386 74.557 30.8763 75.1684 30.9516C76.1127 31.0679 77.0662 30.4905 77.2234 29.5513L77.2704 29.2709C77.4226 28.3613 76.8715 27.4697 75.9654 27.3024C75.6233 27.2393 75.2812 27.1879 74.9391 27.1482C74.073 27.0227 73.2069 26.9599 72.3408 26.9599C69.8953 26.9599 67.7809 27.4494 65.9978 28.4285C64.2401 29.4076 62.8772 30.8512 61.9092 32.7591C60.9667 34.642 60.4954 36.9767 60.4954 39.7634V89.2827C60.4954 91.2408 60.2025 92.8726 59.6166 94.1781C59.0307 95.5087 58.19 96.5003 57.0946 97.153C56.0247 97.8308 54.7001 98.1698 53.1207 98.1698C52.5603 98.1698 51.9489 98.107 51.2866 97.9815C50.4537 97.8236 49.5949 98.3598 49.4562 99.1969L49.3662 99.7403C49.2176 100.637 49.7369 101.525 50.6217 101.73C50.8329 101.779 51.0418 101.822 51.2484 101.86C51.9362 101.986 52.6749 102.048 53.4646 102.048C55.9101 102.048 57.9862 101.571 59.693 100.617C61.4252 99.6635 62.7498 98.2325 63.6669 96.3246Z" fill="#15D465"/>
<path  fillRule="evenodd"  clipRule="evenodd" d="M19.7307 28.609C19.7307 23.655 23.7644 19.6631 28.7101 19.6631H99.7647C104.71 19.6631 108.744 23.655 108.744 28.609V99.8606C108.744 104.815 104.71 108.806 99.7647 108.806H28.7101C23.7644 108.806 19.7307 104.815 19.7307 99.8606V28.609ZM65.0807 89.2827C65.0807 92.0944 64.6094 94.4417 63.6669 96.3246C62.7498 98.2325 61.4252 99.6635 59.693 100.617C57.9862 101.571 55.9101 102.048 53.4646 102.048C52.6749 102.048 51.9362 101.986 51.2484 101.86C51.0418 101.822 50.8329 101.779 50.6217 101.73C49.7369 101.525 49.2176 100.637 49.3662 99.7403L49.4562 99.1969C49.5949 98.3598 50.4537 97.8236 51.2866 97.9815C51.9489 98.107 52.5603 98.1698 53.1207 98.1698C54.7001 98.1698 56.0247 97.8308 57.0946 97.153C58.19 96.5003 59.0307 95.5087 59.6166 94.1781C60.2025 92.8726 60.4954 91.2408 60.4954 89.2827V39.7634C60.4954 36.9767 60.9667 34.642 61.9092 32.7591C62.8772 30.8512 64.2401 29.4076 65.9978 28.4285C67.7809 27.4494 69.8953 26.9599 72.3408 26.9599C73.2069 26.9599 74.073 27.0227 74.9391 27.1482C75.2812 27.1879 75.6233 27.2393 75.9654 27.3024C76.8715 27.4697 77.4226 28.3613 77.2704 29.2709L77.2234 29.5513C77.0662 30.4905 76.1127 31.0679 75.1684 30.9516C74.557 30.8763 73.8055 30.8386 72.9139 30.8386C71.2581 30.8386 69.8443 31.1901 68.6725 31.893C67.5007 32.5959 66.6091 33.6127 65.9978 34.9432C65.3864 36.2487 65.0807 37.8554 65.0807 39.7634V89.2827Z" fill="#171A17"/>
<path  fillRule="evenodd"  clipRule="evenodd" d="M199.897 40.0623C201.457 40.0623 202.722 41.2648 202.722 42.7482V61.5494H222.498C224.059 61.5494 225.324 62.7519 225.324 64.2353C225.324 65.7187 224.059 66.9212 222.498 66.9212H202.722V85.7224C202.722 87.2058 201.457 88.4083 199.897 88.4083C198.337 88.4083 197.072 87.2058 197.072 85.7224V66.9212H177.296C175.735 66.9212 174.471 65.7187 174.471 64.2353C174.471 62.7519 175.735 61.5494 177.296 61.5494H197.072V42.7482C197.072 41.2648 198.337 40.0623 199.897 40.0623Z" fill="white"/>
<path d="M296.576 74.0646C296.576 72.9244 296.374 71.8573 295.97 70.8632C295.594 69.8692 294.93 68.9483 293.976 68.1004C293.052 67.2233 291.824 66.4339 290.294 65.7323C288.791 65.0013 286.914 64.3289 284.661 63.7149C281.917 62.9548 279.288 62.0046 276.775 60.8644C274.291 59.7242 272.096 58.3501 270.189 56.7421C268.283 55.1341 266.752 53.2629 265.596 51.1287C264.47 48.9944 263.906 46.5386 263.906 43.7611C263.906 41.0714 264.47 38.6301 265.596 36.4374C266.723 34.2447 268.283 32.3735 270.276 30.824C272.269 29.2745 274.623 28.0904 277.338 27.2718C280.054 26.4239 283 26 286.177 26C289.47 26 292.474 26.4824 295.19 27.4472C297.934 28.412 300.288 29.7715 302.252 31.5257C304.216 33.2506 305.747 35.3118 306.845 37.7092C307.943 40.1066 308.492 42.7378 308.492 45.603H296.62C296.562 44.1704 296.302 42.8548 295.84 41.6561C295.406 40.4574 294.742 39.4341 293.846 38.5863C292.98 37.7092 291.882 37.0367 290.554 36.569C289.254 36.0719 287.723 35.8234 285.961 35.8234C284.343 35.8234 282.899 36.0281 281.628 36.4374C280.386 36.8175 279.331 37.373 278.465 38.1039C277.598 38.8055 276.934 39.6534 276.472 40.6474C276.038 41.6122 275.822 42.6647 275.822 43.805C275.822 45.0037 276.111 46.0854 276.688 47.0502C277.295 48.015 278.162 48.8921 279.288 49.6815C280.415 50.4416 281.772 51.1433 283.361 51.7865C284.979 52.4297 286.798 53.029 288.82 53.5845C291.709 54.4324 294.366 55.4703 296.793 56.6982C299.219 57.9261 301.299 59.388 303.032 61.0837C304.794 62.7501 306.152 64.6651 307.105 66.8286C308.087 68.9629 308.578 71.3456 308.578 73.9769C308.578 76.7836 308.015 79.2833 306.888 81.4761C305.791 83.6395 304.26 85.4814 302.296 87.0017C300.331 88.4928 297.992 89.633 295.276 90.4224C292.561 91.1825 289.6 91.5626 286.394 91.5626C284.401 91.5626 282.408 91.3726 280.415 90.9925C278.45 90.6417 276.558 90.0862 274.739 89.326C272.948 88.5659 271.272 87.6157 269.712 86.4755C268.153 85.3353 266.795 84.005 265.64 82.4847C264.513 80.9644 263.618 79.2395 262.953 77.3099C262.318 75.3803 262 73.246 262 70.9071H273.959C274.016 72.8367 274.349 74.4886 274.955 75.8627C275.562 77.2368 276.4 78.3624 277.468 79.2395C278.566 80.1166 279.866 80.7598 281.368 81.1691C282.899 81.5784 284.574 81.783 286.394 81.783C288.012 81.783 289.441 81.593 290.683 81.2129C291.954 80.8329 293.023 80.3066 293.89 79.6342C294.756 78.9617 295.421 78.1577 295.883 77.2222C296.345 76.2574 296.576 75.2048 296.576 74.0646Z" fill="white"/>
<path d="M361.526 65.4253C361.497 69.3429 360.818 73.0414 359.489 76.5205C358.189 79.9704 356.268 82.9233 353.727 85.3791L364.169 94.9394L356.326 102L344.324 90.7732C343.313 91.0364 342.273 91.241 341.205 91.3872C340.165 91.5334 339.081 91.6065 337.955 91.6065C334.315 91.6065 331.08 90.9048 328.249 89.5014C325.419 88.0689 323.021 86.1539 321.057 83.7565C319.121 81.3299 317.648 78.5378 316.637 75.3803C315.626 72.2227 315.121 68.9044 315.121 65.4253V54.3739C315.121 50.2516 315.626 46.4655 316.637 43.0156C317.648 39.5364 319.121 36.5397 321.057 34.0254C323.021 31.5111 325.419 29.5522 328.249 28.1489C331.08 26.7163 334.315 26 337.955 26C341.623 26 344.916 26.7163 347.834 28.1489C350.751 29.5522 353.221 31.5111 355.243 34.0254C357.265 36.5397 358.81 39.5364 359.879 43.0156C360.977 46.4655 361.526 50.2516 361.526 54.3739V65.4253ZM349.177 54.2862C349.177 51.6549 348.96 49.2429 348.527 47.0502C348.123 44.8282 347.473 42.9133 346.577 41.3053C345.682 39.6972 344.526 38.4547 343.111 37.5776C341.696 36.6713 339.977 36.2181 337.955 36.2181C335.962 36.2181 334.286 36.6713 332.929 37.5776C331.6 38.4839 330.531 39.7411 329.723 41.3491C328.914 42.9279 328.336 44.8282 327.989 47.0502C327.643 49.2429 327.469 51.6549 327.469 54.2862V65.4253C327.469 67.4133 327.643 69.3722 327.989 71.3018C328.336 73.2022 328.914 74.9125 329.723 76.4328C330.531 77.9238 331.6 79.1371 332.929 80.0727C334.286 81.0083 335.962 81.4761 337.955 81.4761C339.977 81.4761 341.696 81.0229 343.111 80.1166C344.526 79.181 345.682 77.9531 346.577 76.4328C347.473 74.9125 348.123 73.2022 348.527 71.3018C348.96 69.3722 349.177 67.4133 349.177 65.4253V54.2862Z" fill="white"/>
<path d="M383.45 80.7744H413V90.7294H371.231V26.8771H383.45V80.7744Z" fill="white"/>
</svg>
