<svg width="550" height="129" viewBox="0 0 550 129" fill="none" xmlns="http://www.w3.org/2000/svg">
<path d="M0 25.6941C0 11.5036 11.5036 0 25.6941 0H102.776C116.967 0 128.471 11.5036 128.471 25.6941V102.776C128.471 116.967 116.967 128.471 102.776 128.471H25.6941C11.5036 128.471 0 116.967 0 102.776V25.6941Z" fill="#171A17"/>
<path  fillRule="evenodd"  clipRule="evenodd" d="M28.7101 14.2437H99.7647C107.741 14.2437 114.207 20.6752 114.207 28.609V99.8606C114.207 107.794 107.741 114.226 99.7647 114.226H28.7101C20.734 114.226 14.2681 107.794 14.2681 99.8606V28.609C14.2681 20.6752 20.734 14.2437 28.7101 14.2437ZM28.7101 18.266C22.9673 18.266 18.3118 22.8967 18.3118 28.609V99.8606C18.3118 105.573 22.9673 110.204 28.7101 110.204H99.7647C105.508 110.204 110.163 105.573 110.163 99.8606V28.609C110.163 22.8967 105.508 18.266 99.7647 18.266H28.7101Z" fill="#FCFBFC"/>
<path  fillRule="evenodd"  clipRule="evenodd" d="M28.7101 12.8465H99.7647C108.538 12.8465 115.626 19.917 115.626 28.609V99.8606C115.626 108.553 108.538 115.623 99.7647 115.623H28.7101C19.9368 115.623 12.8492 108.553 12.8492 99.8606V28.609C12.8492 19.917 19.9368 12.8465 28.7101 12.8465ZM28.7101 19.6631C23.7644 19.6631 19.7307 23.655 19.7307 28.609V99.8606C19.7307 104.815 23.7644 108.806 28.7101 108.806H99.7647C104.71 108.806 108.744 104.815 108.744 99.8606V28.609C108.744 23.655 104.71 19.6631 99.7647 19.6631H28.7101ZM99.7647 14.2437H28.7101C20.734 14.2437 14.2681 20.6752 14.2681 28.609V99.8606C14.2681 107.794 20.734 114.226 28.7101 114.226H99.7647C107.741 114.226 114.207 107.794 114.207 99.8606V28.609C114.207 20.6752 107.741 14.2437 99.7647 14.2437ZM18.3118 28.609C18.3118 22.8967 22.9673 18.266 28.7101 18.266H99.7647C105.508 18.266 110.163 22.8967 110.163 28.609V99.8606C110.163 105.573 105.508 110.204 99.7647 110.204H28.7101C22.9673 110.204 18.3118 105.573 18.3118 99.8606V28.609Z" fill="#FCFBFC"/>
<path d="M63.6669 96.3246C64.6094 94.4417 65.0807 92.0944 65.0807 89.2827V39.7634C65.0807 37.8554 65.3864 36.2487 65.9978 34.9432C66.6091 33.6127 67.5007 32.5959 68.6725 31.893C69.8443 31.1901 71.2581 30.8386 72.9139 30.8386C73.8055 30.8386 74.557 30.8763 75.1684 30.9516C76.1127 31.0679 77.0662 30.4905 77.2234 29.5513L77.2704 29.2709C77.4226 28.3613 76.8715 27.4697 75.9654 27.3024C75.6233 27.2393 75.2812 27.1879 74.9391 27.1482C74.073 27.0227 73.2069 26.9599 72.3408 26.9599C69.8953 26.9599 67.7809 27.4494 65.9978 28.4285C64.2401 29.4076 62.8772 30.8512 61.9092 32.7591C60.9667 34.642 60.4954 36.9767 60.4954 39.7634V89.2827C60.4954 91.2408 60.2025 92.8726 59.6166 94.1781C59.0307 95.5087 58.19 96.5003 57.0946 97.153C56.0247 97.8308 54.7001 98.1698 53.1207 98.1698C52.5603 98.1698 51.9489 98.107 51.2866 97.9815C50.4537 97.8236 49.5949 98.3598 49.4562 99.1969L49.3662 99.7403C49.2176 100.637 49.7369 101.525 50.6217 101.73C50.8329 101.779 51.0418 101.822 51.2484 101.86C51.9362 101.986 52.6749 102.048 53.4646 102.048C55.9101 102.048 57.9862 101.571 59.693 100.617C61.4252 99.6635 62.7498 98.2325 63.6669 96.3246Z" fill="#15D465"/>
<path  fillRule="evenodd"  clipRule="evenodd" d="M19.7307 28.609C19.7307 23.655 23.7644 19.6631 28.7101 19.6631H99.7647C104.71 19.6631 108.744 23.655 108.744 28.609V99.8606C108.744 104.815 104.71 108.806 99.7647 108.806H28.7101C23.7644 108.806 19.7307 104.815 19.7307 99.8606V28.609ZM65.0807 89.2827C65.0807 92.0944 64.6094 94.4417 63.6669 96.3246C62.7498 98.2325 61.4252 99.6635 59.693 100.617C57.9862 101.571 55.9101 102.048 53.4646 102.048C52.6749 102.048 51.9362 101.986 51.2484 101.86C51.0418 101.822 50.8329 101.779 50.6217 101.73C49.7369 101.525 49.2176 100.637 49.3662 99.7403L49.4562 99.1969C49.5949 98.3598 50.4537 97.8236 51.2866 97.9815C51.9489 98.107 52.5603 98.1698 53.1207 98.1698C54.7001 98.1698 56.0247 97.8308 57.0946 97.153C58.19 96.5003 59.0307 95.5087 59.6166 94.1781C60.2025 92.8726 60.4954 91.2408 60.4954 89.2827V39.7634C60.4954 36.9767 60.9667 34.642 61.9092 32.7591C62.8772 30.8512 64.2401 29.4076 65.9978 28.4285C67.7809 27.4494 69.8953 26.9599 72.3408 26.9599C73.2069 26.9599 74.073 27.0227 74.9391 27.1482C75.2812 27.1879 75.6233 27.2393 75.9654 27.3024C76.8715 27.4697 77.4226 28.3613 77.2704 29.2709L77.2234 29.5513C77.0662 30.4905 76.1127 31.0679 75.1684 30.9516C74.557 30.8763 73.8055 30.8386 72.9139 30.8386C71.2581 30.8386 69.8443 31.1901 68.6725 31.893C67.5007 32.5959 66.6091 33.6127 65.9978 34.9432C65.3864 36.2487 65.0807 37.8554 65.0807 39.7634V89.2827Z" fill="#171A17"/>
<path  fillRule="evenodd"  clipRule="evenodd" d="M199.897 40.0623C201.457 40.0623 202.722 41.2648 202.722 42.7482V61.5494H222.498C224.059 61.5494 225.324 62.7519 225.324 64.2353C225.324 65.7187 224.059 66.9212 222.498 66.9212H202.722V85.7224C202.722 87.2058 201.457 88.4083 199.897 88.4083C198.337 88.4083 197.072 87.2058 197.072 85.7224V66.9212H177.296C175.735 66.9212 174.471 65.7187 174.471 64.2353C174.471 62.7519 175.735 61.5494 177.296 61.5494H197.072V42.7482C197.072 41.2648 198.337 40.0623 199.897 40.0623Z" fill="white"/>
<path d="M285.967 70.0762V85.4251H278V43.5749H292.119C294.368 43.5749 296.4 43.9102 298.214 44.5809C300.029 45.2324 301.569 46.1522 302.836 47.3402C304.121 48.5091 305.104 49.9176 305.784 51.5655C306.483 53.2135 306.833 55.0434 306.833 57.0555C306.833 58.9334 306.483 60.6676 305.784 62.258C305.104 63.8485 304.121 65.2282 302.836 66.3971C301.569 67.5468 300.029 68.4474 298.214 69.0989C296.4 69.7504 294.368 70.0762 292.119 70.0762H285.967ZM285.967 63.5227H292.119C293.253 63.5227 294.236 63.3503 295.067 63.0053C295.899 62.6604 296.589 62.191 297.137 61.5969C297.704 61.0029 298.12 60.3226 298.384 59.5561C298.668 58.7705 298.81 57.9561 298.81 57.113C298.81 56.1357 298.668 55.2255 298.384 54.3824C298.12 53.5392 297.704 52.8015 297.137 52.1691C296.589 51.5368 295.899 51.0385 295.067 50.6745C294.236 50.3104 293.253 50.1283 292.119 50.1283H285.967V63.5227Z" fill="white"/>
<path d="M326.367 69.7888H320.328V85.4251H312.361V43.5749H326.197C328.484 43.5749 330.553 43.8527 332.406 44.4084C334.258 44.945 335.836 45.7402 337.14 46.7941C338.463 47.848 339.475 49.1607 340.174 50.732C340.892 52.3033 341.251 54.1237 341.251 56.1932C341.251 57.6878 341.072 59.0388 340.713 60.246C340.372 61.434 339.871 62.5071 339.21 63.4652C338.567 64.4042 337.783 65.2282 336.857 65.9372C335.95 66.6462 334.929 67.2594 333.795 67.7767L342.669 85.0515V85.4251H334.135L326.367 69.7888ZM320.328 63.2353H326.225C328.474 63.2353 330.204 62.6604 331.413 61.5107C332.642 60.3418 333.256 58.7513 333.256 56.7393C333.256 54.6506 332.661 53.0314 331.47 51.8817C330.279 50.7128 328.522 50.1283 326.197 50.1283H320.328V63.2353Z" fill="white"/>
<path d="M376.038 67.5755C376.038 70.2582 375.688 72.7302 374.989 74.9913C374.29 77.2524 373.278 79.1974 371.955 80.8262C370.632 82.455 369.016 83.7293 367.107 84.6491C365.217 85.5497 363.082 86 360.7 86C358.319 86 356.202 85.5497 354.349 84.6491C352.497 83.7293 350.938 82.455 349.671 80.8262C348.405 79.1783 347.441 77.2333 346.78 74.9913C346.118 72.7302 345.787 70.2582 345.787 67.5755V61.482C345.787 58.7992 346.118 56.3273 346.78 54.0662C347.441 51.805 348.405 49.8601 349.671 48.2313C350.938 46.5833 352.488 45.2995 354.321 44.3797C356.173 43.4599 358.29 43 360.672 43C363.072 43 365.217 43.4599 367.107 44.3797C369.016 45.2995 370.632 46.5833 371.955 48.2313C373.278 49.8601 374.29 51.805 374.989 54.0662C375.688 56.3273 376.038 58.7992 376.038 61.482V67.5755ZM367.958 61.4245C367.958 59.719 367.816 58.1477 367.533 56.7106C367.268 55.2734 366.843 54.0374 366.257 53.0027C365.671 51.9679 364.915 51.1631 363.989 50.5882C363.082 49.9942 361.976 49.6972 360.672 49.6972C359.386 49.6972 358.309 49.9942 357.44 50.5882C356.57 51.1631 355.871 51.9679 355.342 53.0027C354.812 54.0374 354.434 55.2734 354.208 56.7106C353.981 58.1477 353.867 59.719 353.867 61.4245V67.5755C353.867 69.2618 353.981 70.8235 354.208 72.2607C354.434 73.6979 354.812 74.9434 355.342 75.9973C355.871 77.0512 356.57 77.8752 357.44 78.4693C358.309 79.0633 359.396 79.3603 360.7 79.3603C361.985 79.3603 363.082 79.0633 363.989 78.4693C364.915 77.8752 365.661 77.0608 366.228 76.0261C366.814 74.9721 367.249 73.7266 367.533 72.2894C367.816 70.8523 367.958 69.281 367.958 67.5755V61.4245Z" fill="white"/>
<path d="M412.441 50.1571H399.711V85.4251H391.716V50.1571H379.157V43.5749H412.441V50.1571Z" fill="white"/>
<path d="M445.782 67.5755C445.782 70.2582 445.432 72.7302 444.733 74.9913C444.033 77.2524 443.022 79.1974 441.699 80.8262C440.376 82.455 438.76 83.7293 436.851 84.6491C434.961 85.5497 432.825 86 430.444 86C428.062 86 425.945 85.5497 424.093 84.6491C422.241 83.7293 420.681 82.455 419.415 80.8262C418.149 79.1783 417.185 77.2333 416.523 74.9913C415.862 72.7302 415.531 70.2582 415.531 67.5755V61.482C415.531 58.7992 415.862 56.3273 416.523 54.0662C417.185 51.805 418.149 49.8601 419.415 48.2313C420.681 46.5833 422.231 45.2995 424.065 44.3797C425.917 43.4599 428.034 43 430.415 43C432.816 43 434.961 43.4599 436.851 44.3797C438.76 45.2995 440.376 46.5833 441.699 48.2313C443.022 49.8601 444.033 51.805 444.733 54.0662C445.432 56.3273 445.782 58.7992 445.782 61.482V67.5755ZM437.701 61.4245C437.701 59.719 437.56 58.1477 437.276 56.7106C437.012 55.2734 436.586 54.0374 436 53.0027C435.414 51.9679 434.658 51.1631 433.732 50.5882C432.825 49.9942 431.719 49.6972 430.415 49.6972C429.13 49.6972 428.053 49.9942 427.183 50.5882C426.314 51.1631 425.614 51.9679 425.085 53.0027C424.556 54.0374 424.178 55.2734 423.951 56.7106C423.724 58.1477 423.611 59.719 423.611 61.4245V67.5755C423.611 69.2618 423.724 70.8235 423.951 72.2607C424.178 73.6979 424.556 74.9434 425.085 75.9973C425.614 77.0512 426.314 77.8752 427.183 78.4693C428.053 79.0633 429.139 79.3603 430.444 79.3603C431.729 79.3603 432.825 79.0633 433.732 78.4693C434.658 77.8752 435.405 77.0608 435.972 76.0261C436.558 74.9721 436.993 73.7266 437.276 72.2894C437.56 70.8523 437.701 69.281 437.701 67.5755V61.4245Z" fill="white"/>
<path d="M451.792 85.4251V43.5749H465.656C467.905 43.5749 469.946 43.8048 471.779 44.2647C473.632 44.7246 475.21 45.424 476.514 46.363C477.818 47.3019 478.82 48.49 479.519 49.9271C480.238 51.3643 480.597 53.0602 480.597 55.0147C480.578 56.9693 480.058 58.7226 479.037 60.2747C478.036 61.8269 476.552 63.0053 474.586 63.8102C475.777 64.1168 476.807 64.5766 477.676 65.1898C478.546 65.803 479.264 66.5312 479.831 67.3743C480.417 68.1983 480.842 69.1085 481.107 70.1049C481.39 71.0822 481.532 72.0978 481.532 73.1517C481.532 75.1638 481.192 76.9363 480.512 78.4693C479.831 80.0022 478.858 81.2861 477.591 82.3209C476.325 83.3556 474.785 84.1317 472.97 84.6491C471.156 85.1664 469.114 85.4251 466.846 85.4251H451.792ZM459.787 66.9719V78.9004H466.875C469.048 78.8812 470.702 78.3447 471.836 77.2908C472.989 76.2177 473.566 74.8188 473.566 73.0943C473.584 71.178 473.074 69.6834 472.035 68.6103C470.995 67.5372 469.389 66.9911 467.215 66.9719H459.787ZM459.787 61.137H465.712C467.924 61.1179 469.625 60.6484 470.816 59.7286C472.006 58.8088 472.611 57.4579 472.63 55.6758C472.63 53.7213 472.035 52.3224 470.844 51.4793C469.653 50.617 467.933 50.1762 465.684 50.1571H459.787V61.137Z" fill="white"/>
<path d="M514.221 43.5749L514.249 71.3122C514.249 73.65 513.928 75.7291 513.285 77.5495C512.662 79.3699 511.745 80.9124 510.535 82.1771C509.345 83.4227 507.88 84.3712 506.141 85.0227C504.421 85.6742 502.455 86 500.244 86C498.165 86 496.284 85.6742 494.602 85.0227C492.939 84.3712 491.512 83.4227 490.321 82.1771C489.13 80.9316 488.204 79.3986 487.543 77.5782C486.9 75.7386 486.579 73.65 486.579 71.3122L486.607 43.5749H494.574L494.602 71.3122C494.621 74.014 495.103 76.0548 496.048 77.4345C497.012 78.8142 498.411 79.504 500.244 79.504C502.191 79.504 503.674 78.8142 504.695 77.4345C505.735 76.0548 506.264 74.014 506.283 71.3122L506.311 43.5749H514.221Z" fill="white"/>
<path d="M547.789 68.0929H530.098V85.4251H522.103V43.5749H550V50.1571H530.098V61.5394H547.789V68.0929Z" fill="white"/>
</svg>
