<svg width="380" height="129" viewBox="0 0 380 129" fill="none" xmlns="http://www.w3.org/2000/svg">
<path d="M0 25.6941C0 11.5036 11.5036 0 25.6941 0H102.776C116.967 0 128.471 11.5036 128.471 25.6941V102.776C128.471 116.967 116.967 128.471 102.776 128.471H25.6941C11.5036 128.471 0 116.967 0 102.776V25.6941Z" fill="#171A17"/>
<path  fillRule="evenodd"  clipRule="evenodd" d="M28.7101 14.2437H99.7647C107.741 14.2437 114.207 20.6752 114.207 28.609V99.8606C114.207 107.794 107.741 114.226 99.7647 114.226H28.7101C20.734 114.226 14.2681 107.794 14.2681 99.8606V28.609C14.2681 20.6752 20.734 14.2437 28.7101 14.2437ZM28.7101 18.266C22.9673 18.266 18.3118 22.8967 18.3118 28.609V99.8606C18.3118 105.573 22.9673 110.204 28.7101 110.204H99.7647C105.508 110.204 110.163 105.573 110.163 99.8606V28.609C110.163 22.8967 105.508 18.266 99.7647 18.266H28.7101Z" fill="#FCFBFC"/>
<path  fillRule="evenodd"  clipRule="evenodd" d="M28.7101 12.8465H99.7647C108.538 12.8465 115.626 19.917 115.626 28.609V99.8606C115.626 108.553 108.538 115.623 99.7647 115.623H28.7101C19.9368 115.623 12.8492 108.553 12.8492 99.8606V28.609C12.8492 19.917 19.9368 12.8465 28.7101 12.8465ZM28.7101 19.6631C23.7644 19.6631 19.7307 23.655 19.7307 28.609V99.8606C19.7307 104.815 23.7644 108.806 28.7101 108.806H99.7647C104.71 108.806 108.744 104.815 108.744 99.8606V28.609C108.744 23.655 104.71 19.6631 99.7647 19.6631H28.7101ZM99.7647 14.2437H28.7101C20.734 14.2437 14.2681 20.6752 14.2681 28.609V99.8606C14.2681 107.794 20.734 114.226 28.7101 114.226H99.7647C107.741 114.226 114.207 107.794 114.207 99.8606V28.609C114.207 20.6752 107.741 14.2437 99.7647 14.2437ZM18.3118 28.609C18.3118 22.8967 22.9673 18.266 28.7101 18.266H99.7647C105.508 18.266 110.163 22.8967 110.163 28.609V99.8606C110.163 105.573 105.508 110.204 99.7647 110.204H28.7101C22.9673 110.204 18.3118 105.573 18.3118 99.8606V28.609Z" fill="#FCFBFC"/>
<path d="M63.6669 96.3246C64.6094 94.4417 65.0807 92.0944 65.0807 89.2827V39.7634C65.0807 37.8554 65.3864 36.2487 65.9978 34.9432C66.6091 33.6127 67.5007 32.5959 68.6725 31.893C69.8443 31.1901 71.2581 30.8386 72.9139 30.8386C73.8055 30.8386 74.557 30.8763 75.1684 30.9516C76.1127 31.0679 77.0662 30.4905 77.2234 29.5513L77.2704 29.2709C77.4226 28.3613 76.8715 27.4697 75.9654 27.3024C75.6233 27.2393 75.2812 27.1879 74.9391 27.1482C74.073 27.0227 73.2069 26.9599 72.3408 26.9599C69.8953 26.9599 67.7809 27.4494 65.9978 28.4285C64.2401 29.4076 62.8772 30.8512 61.9092 32.7591C60.9667 34.642 60.4954 36.9767 60.4954 39.7634V89.2827C60.4954 91.2408 60.2025 92.8726 59.6166 94.1781C59.0307 95.5087 58.19 96.5003 57.0946 97.153C56.0247 97.8308 54.7001 98.1698 53.1207 98.1698C52.5603 98.1698 51.9489 98.107 51.2866 97.9815C50.4537 97.8236 49.5949 98.3598 49.4562 99.1969L49.3662 99.7403C49.2176 100.637 49.7369 101.525 50.6217 101.73C50.8329 101.779 51.0418 101.822 51.2484 101.86C51.9362 101.986 52.6749 102.048 53.4646 102.048C55.9101 102.048 57.9862 101.571 59.693 100.617C61.4252 99.6635 62.7498 98.2325 63.6669 96.3246Z" fill="#15D465"/>
<path  fillRule="evenodd"  clipRule="evenodd" d="M19.7307 28.609C19.7307 23.655 23.7644 19.6631 28.7101 19.6631H99.7647C104.71 19.6631 108.744 23.655 108.744 28.609V99.8606C108.744 104.815 104.71 108.806 99.7647 108.806H28.7101C23.7644 108.806 19.7307 104.815 19.7307 99.8606V28.609ZM65.0807 89.2827C65.0807 92.0944 64.6094 94.4417 63.6669 96.3246C62.7498 98.2325 61.4252 99.6635 59.693 100.617C57.9862 101.571 55.9101 102.048 53.4646 102.048C52.6749 102.048 51.9362 101.986 51.2484 101.86C51.0418 101.822 50.8329 101.779 50.6217 101.73C49.7369 101.525 49.2176 100.637 49.3662 99.7403L49.4562 99.1969C49.5949 98.3598 50.4537 97.8236 51.2866 97.9815C51.9489 98.107 52.5603 98.1698 53.1207 98.1698C54.7001 98.1698 56.0247 97.8308 57.0946 97.153C58.19 96.5003 59.0307 95.5087 59.6166 94.1781C60.2025 92.8726 60.4954 91.2408 60.4954 89.2827V39.7634C60.4954 36.9767 60.9667 34.642 61.9092 32.7591C62.8772 30.8512 64.2401 29.4076 65.9978 28.4285C67.7809 27.4494 69.8953 26.9599 72.3408 26.9599C73.2069 26.9599 74.073 27.0227 74.9391 27.1482C75.2812 27.1879 75.6233 27.2393 75.9654 27.3024C76.8715 27.4697 77.4226 28.3613 77.2704 29.2709L77.2234 29.5513C77.0662 30.4905 76.1127 31.0679 75.1684 30.9516C74.557 30.8763 73.8055 30.8386 72.9139 30.8386C71.2581 30.8386 69.8443 31.1901 68.6725 31.893C67.5007 32.5959 66.6091 33.6127 65.9978 34.9432C65.3864 36.2487 65.0807 37.8554 65.0807 39.7634V89.2827Z" fill="#171A17"/>
<path  fillRule="evenodd"  clipRule="evenodd" d="M199.897 40.0623C201.457 40.0623 202.722 41.2648 202.722 42.7482V61.5494H222.498C224.059 61.5494 225.324 62.7519 225.324 64.2353C225.324 65.7187 224.059 66.9212 222.498 66.9212H202.722V85.7224C202.722 87.2058 201.457 88.4083 199.897 88.4083C198.337 88.4083 197.072 87.2058 197.072 85.7224V66.9212H177.296C175.735 66.9212 174.471 65.7187 174.471 64.2353C174.471 62.7519 175.735 61.5494 177.296 61.5494H197.072V42.7482C197.072 41.2648 198.337 40.0623 199.897 40.0623Z" fill="white"/>
<path  fillRule="evenodd"  clipRule="evenodd" d="M315.997 12.6191L359.427 37.5594V87.4401L315.997 112.38L272.566 87.4401V37.5594L315.997 12.6191ZM277.439 40.3578V76.9965L309.34 22.0385L277.439 40.3578ZM315.997 20.2644L279.223 83.6175H352.771L315.997 20.2644ZM347.898 88.4644H284.096L315.997 106.784L347.898 88.4644ZM354.554 76.9965L322.653 22.0385L354.554 40.3578V76.9965Z" fill="white"/>
<path d="M315.998 25.6257C321.666 25.6257 326.261 21.0552 326.261 15.4173C326.261 9.77941 321.666 5.20898 315.998 5.20898C310.329 5.20898 305.734 9.77941 305.734 15.4173C305.734 21.0552 310.329 25.6257 315.998 25.6257Z" fill="white"/>
<path d="M356.994 49.1667C362.662 49.1667 367.257 44.5962 367.257 38.9583C367.257 33.3204 362.662 28.75 356.994 28.75C351.325 28.75 346.73 33.3204 346.73 38.9583C346.73 44.5962 351.325 49.1667 356.994 49.1667Z" fill="white"/>
<path d="M356.994 96.2487C362.662 96.2487 367.257 91.6783 367.257 86.0404C367.257 80.4025 362.662 75.832 356.994 75.832C351.325 75.832 346.73 80.4025 346.73 86.0404C346.73 91.6783 351.325 96.2487 356.994 96.2487Z" fill="white"/>
<path d="M315.998 119.79C321.666 119.79 326.261 115.219 326.261 109.581C326.261 103.943 321.666 99.373 315.998 99.373C310.329 99.373 305.734 103.943 305.734 109.581C305.734 115.219 310.329 119.79 315.998 119.79Z" fill="white"/>
<path d="M274.998 96.2487C280.666 96.2487 285.261 91.6783 285.261 86.0404C285.261 80.4025 280.666 75.832 274.998 75.832C269.329 75.832 264.734 80.4025 264.734 86.0404C264.734 91.6783 269.329 96.2487 274.998 96.2487Z" fill="white"/>
<path d="M274.998 49.1667C280.666 49.1667 285.261 44.5962 285.261 38.9583C285.261 33.3204 280.666 28.75 274.998 28.75C269.329 28.75 264.734 33.3204 264.734 38.9583C264.734 44.5962 269.329 49.1667 274.998 49.1667Z" fill="white"/>
</svg>
