<svg width="528" height="296" viewBox="0 0 528 296" fill="none" xmlns="http://www.w3.org/2000/svg">
<g  clipPath="url(#clip0_1458_2729)">
<rect width="528" height="296" fill="#18181B"/>
<g  clipPath="url(#clip1_1458_2729)">
<mask id="mask0_1458_2729" style="mask-type:luminance" maskUnits="userSpaceOnUse" x="58" y="42" width="344" height="245">
<path d="M396.029 42H63.5415C60.481 42 58 44.4774 58 47.5335V281.322C58 284.379 60.481 286.856 63.5415 286.856H396.029C399.09 286.856 401.571 284.379 401.571 281.322V47.5335C401.571 44.4774 399.09 42 396.029 42Z" fill="white"/>
</mask>
<g mask="url(#mask0_1458_2729)">
<path d="M401.571 42H58V286.164H401.571V42Z" fill="#18181B"/>
<path d="M148.741 52.375H124.497C122.967 52.375 121.727 53.6137 121.727 55.1417C121.727 56.6698 122.967 57.9085 124.497 57.9085H148.741C150.271 57.9085 151.512 56.6698 151.512 55.1417C151.512 53.6137 150.271 52.375 148.741 52.375Z" fill="#575757"/>
<path d="M104.089 82.8086H92.2386C90.6679 82.8086 89.3945 84.0801 89.3945 85.6486C89.3945 87.217 90.6679 88.4885 92.2386 88.4885H104.089C105.66 88.4885 106.933 87.217 106.933 85.6486C106.933 84.0801 105.66 82.8086 104.089 82.8086Z" fill="#569CD6"/>
<path d="M104.089 171.322H92.2386C90.6679 171.322 89.3945 172.594 89.3945 174.162C89.3945 175.731 90.6679 177.002 92.2386 177.002H104.089C105.66 177.002 106.933 175.731 106.933 174.162C106.933 172.594 105.66 171.322 104.089 171.322Z" fill="#569CD6"/>
<path d="M100.297 268.826H92.2386C90.6679 268.826 89.3945 270.098 89.3945 271.666C89.3945 273.235 90.6679 274.506 92.2386 274.506H100.297C101.867 274.506 103.141 273.235 103.141 271.666C103.141 270.098 101.867 268.826 100.297 268.826Z" fill="#569CD6"/>
<path d="M142.954 92.75H137.266C135.695 92.75 134.422 94.0215 134.422 95.59C134.422 97.1584 135.695 98.4299 137.266 98.4299H142.954C144.525 98.4299 145.798 97.1584 145.798 95.59C145.798 94.0215 144.525 92.75 142.954 92.75Z" fill="#569CD6"/>
<path d="M142.954 180.314H137.266C135.695 180.314 134.422 181.586 134.422 183.154C134.422 184.723 135.695 185.994 137.266 185.994H142.954C144.525 185.994 145.798 184.723 145.798 183.154C145.798 181.586 144.525 180.314 142.954 180.314Z" fill="#569CD6"/>
<path d="M174.712 92.75H169.024C167.453 92.75 166.18 94.0215 166.18 95.59C166.18 97.1584 167.453 98.4299 169.024 98.4299H174.712C176.283 98.4299 177.556 97.1584 177.556 95.59C177.556 94.0215 176.283 92.75 174.712 92.75Z" fill="#CC6566"/>
<path d="M174.712 180.314H169.024C167.453 180.314 166.18 181.586 166.18 183.154C166.18 184.723 167.453 185.994 169.024 185.994H174.712C176.283 185.994 177.556 184.723 177.556 183.154C177.556 181.586 176.283 180.314 174.712 180.314Z" fill="#CC6566"/>
<path d="M206.474 92.75H182.774C181.203 92.75 179.93 94.0215 179.93 95.59C179.93 97.1584 181.203 98.4299 182.774 98.4299H206.474C208.045 98.4299 209.318 97.1584 209.318 95.59C209.318 94.0215 208.045 92.75 206.474 92.75Z" fill="#CC6566"/>
<path d="M206.474 180.314H182.774C181.203 180.314 179.93 181.586 179.93 183.154C179.93 184.723 181.203 185.994 182.774 185.994H206.474C208.045 185.994 209.318 184.723 209.318 183.154C209.318 181.586 208.045 180.314 206.474 180.314Z" fill="#CC6566"/>
<path d="M191.779 102.688H168.078C166.508 102.688 165.234 103.959 165.234 105.527C165.234 107.096 166.508 108.367 168.078 108.367H191.779C193.35 108.367 194.623 107.096 194.623 105.527C194.623 103.959 193.35 102.688 191.779 102.688Z" fill="#CC6566"/>
<path d="M191.779 190.254H168.078C166.508 190.254 165.234 191.525 165.234 193.094C165.234 194.662 166.508 195.934 168.078 195.934H191.779C193.35 195.934 194.623 194.662 194.623 193.094C194.623 191.525 193.35 190.254 191.779 190.254Z" fill="#CC6566"/>
<path d="M191.779 132.51H168.078C166.508 132.51 165.234 133.781 165.234 135.35C165.234 136.918 166.508 138.19 168.078 138.19H191.779C193.35 138.19 194.623 136.918 194.623 135.35C194.623 133.781 193.35 132.51 191.779 132.51Z" fill="#CC6566"/>
<path d="M174.715 220.072H168.078C166.508 220.072 165.234 221.344 165.234 222.912C165.234 224.481 166.508 225.752 168.078 225.752H174.715C176.285 225.752 177.559 224.481 177.559 222.912C177.559 221.344 176.285 220.072 174.715 220.072Z" fill="#CC6566"/>
<path d="M187.513 112.629H168.078C166.508 112.629 165.234 113.9 165.234 115.469C165.234 117.037 166.508 118.309 168.078 118.309H187.513C189.084 118.309 190.357 117.037 190.357 115.469C190.357 113.9 189.084 112.629 187.513 112.629Z" fill="#CC6566"/>
<path d="M191.779 210.135H168.078C166.508 210.135 165.234 211.406 165.234 212.975C165.234 214.543 166.508 215.815 168.078 215.815H191.779C193.35 215.815 194.623 214.543 194.623 212.975C194.623 211.406 193.35 210.135 191.779 210.135Z" fill="#CC6566"/>
<path d="M191.779 230.014H168.078C166.508 230.014 165.234 231.285 165.234 232.854C165.234 234.422 166.508 235.694 168.078 235.694H191.779C193.35 235.694 194.623 234.422 194.623 232.854C194.623 231.285 193.35 230.014 191.779 230.014Z" fill="#CC6566"/>
<path d="M196.045 200.193H168.078C166.508 200.193 165.234 201.465 165.234 203.033C165.234 204.602 166.508 205.873 168.078 205.873H196.045C197.616 205.873 198.889 204.602 198.889 203.033C198.889 201.465 197.616 200.193 196.045 200.193Z" fill="#CC6566"/>
<path d="M249.132 92.75H215.477C213.906 92.75 212.633 94.0215 212.633 95.59C212.633 97.1584 213.906 98.4299 215.477 98.4299H249.132C250.702 98.4299 251.976 97.1584 251.976 95.59C251.976 94.0215 250.702 92.75 249.132 92.75Z" fill="#9CDCFE"/>
<path d="M249.132 180.314H215.477C213.906 180.314 212.633 181.586 212.633 183.154C212.633 184.723 213.906 185.994 215.477 185.994H249.132C250.702 185.994 251.976 184.723 251.976 183.154C251.976 181.586 250.702 180.314 249.132 180.314Z" fill="#9CDCFE"/>
<path d="M221.166 230.014H204.102C202.531 230.014 201.258 231.285 201.258 232.854C201.258 234.422 202.531 235.694 204.102 235.694H221.166C222.737 235.694 224.01 234.422 224.01 232.854C224.01 231.285 222.737 230.014 221.166 230.014Z" fill="#9CDCFE"/>
<path d="M260.511 230.014H232.071C230.5 230.014 229.227 231.285 229.227 232.854C229.227 234.422 230.5 235.694 232.071 235.694H260.511C262.082 235.694 263.355 234.422 263.355 232.854C263.355 231.285 262.082 230.014 260.511 230.014Z" fill="#9CDCFE"/>
<path d="M301.277 230.014H272.836C271.266 230.014 269.992 231.285 269.992 232.854C269.992 234.422 271.266 235.694 272.836 235.694H301.277C302.848 235.694 304.121 234.422 304.121 232.854C304.121 231.285 302.848 230.014 301.277 230.014Z" fill="#9CDCFE"/>
<path d="M205.524 102.688H199.836C198.266 102.688 196.992 103.959 196.992 105.527C196.992 107.096 198.266 108.367 199.836 108.367H205.524C207.095 108.367 208.368 107.096 208.368 105.527C208.368 103.959 207.095 102.688 205.524 102.688Z" fill="#9CDCFE"/>
<path d="M205.524 190.254H199.836C198.266 190.254 196.992 191.525 196.992 193.094C196.992 194.662 198.266 195.934 199.836 195.934H205.524C207.095 195.934 208.368 194.662 208.368 193.094C208.368 191.525 207.095 190.254 205.524 190.254Z" fill="#9CDCFE"/>
<path d="M159.07 102.688H137.266C135.695 102.688 134.422 103.959 134.422 105.527C134.422 107.096 135.695 108.367 137.266 108.367H159.07C160.641 108.367 161.914 107.096 161.914 105.527C161.914 103.959 160.641 102.688 159.07 102.688Z" fill="#569CD6"/>
<path d="M159.07 190.254H137.266C135.695 190.254 134.422 191.525 134.422 193.094C134.422 194.662 135.695 195.934 137.266 195.934H159.07C160.641 195.934 161.914 194.662 161.914 193.094C161.914 191.525 160.641 190.254 159.07 190.254Z" fill="#569CD6"/>
<path d="M152.434 112.629H137.266C135.695 112.629 134.422 113.9 134.422 115.469C134.422 117.037 135.695 118.309 137.266 118.309H152.434C154.005 118.309 155.278 117.037 155.278 115.469C155.278 113.9 154.005 112.629 152.434 112.629Z" fill="#569CD6"/>
<path d="M159.07 200.193H137.266C135.695 200.193 134.422 201.465 134.422 203.033C134.422 204.602 135.695 205.873 137.266 205.873H159.07C160.641 205.873 161.914 204.602 161.914 203.033C161.914 201.465 160.641 200.193 159.07 200.193Z" fill="#569CD6"/>
<path d="M152.434 122.568H137.266C135.695 122.568 134.422 123.84 134.422 125.408C134.422 126.977 135.695 128.248 137.266 128.248H152.434C154.005 128.248 155.278 126.977 155.278 125.408C155.278 123.84 154.005 122.568 152.434 122.568Z" fill="#569CD6"/>
<path d="M156.226 210.135H137.266C135.695 210.135 134.422 211.406 134.422 212.975C134.422 214.543 135.695 215.815 137.266 215.815H156.226C157.797 215.815 159.07 214.543 159.07 212.975C159.07 211.406 157.797 210.135 156.226 210.135Z" fill="#569CD6"/>
<path d="M211.685 210.135H198.887C197.316 210.135 196.043 211.406 196.043 212.975C196.043 214.543 197.316 215.815 198.887 215.815H211.685C213.256 215.815 214.529 214.543 214.529 212.975C214.529 211.406 213.256 210.135 211.685 210.135Z" fill="#569CD6"/>
<path d="M319.76 230.014H312.176C310.605 230.014 309.332 231.285 309.332 232.854C309.332 234.422 310.605 235.694 312.176 235.694H319.76C321.331 235.694 322.604 234.422 322.604 232.854C322.604 231.285 321.331 230.014 319.76 230.014Z" fill="#569CD6"/>
<path d="M145.798 132.51H137.266C135.695 132.51 134.422 133.781 134.422 135.35C134.422 136.918 135.695 138.19 137.266 138.19H145.798C147.369 138.19 148.642 136.918 148.642 135.35C148.642 133.781 147.369 132.51 145.798 132.51Z" fill="#569CD6"/>
<path d="M152.434 220.072H137.266C135.695 220.072 134.422 221.344 134.422 222.912C134.422 224.481 135.695 225.752 137.266 225.752H152.434C154.005 225.752 155.278 224.481 155.278 222.912C155.278 221.344 154.005 220.072 152.434 220.072Z" fill="#569CD6"/>
<path d="M145.798 142.449H137.266C135.695 142.449 134.422 143.721 134.422 145.289C134.422 146.858 135.695 148.129 137.266 148.129H145.798C147.369 148.129 148.642 146.858 148.642 145.289C148.642 143.721 147.369 142.449 145.798 142.449Z" fill="#569CD6"/>
<path d="M145.798 230.014H137.266C135.695 230.014 134.422 231.285 134.422 232.854C134.422 234.422 135.695 235.694 137.266 235.694H145.798C147.369 235.694 148.642 234.422 148.642 232.854C148.642 231.285 147.369 230.014 145.798 230.014Z" fill="#569CD6"/>
<path d="M141.532 239.953H137.266C135.695 239.953 134.422 241.225 134.422 242.793C134.422 244.362 135.695 245.633 137.266 245.633H141.532C143.103 245.633 144.376 244.362 144.376 242.793C144.376 241.225 143.103 239.953 141.532 239.953Z" fill="#569CD6"/>
<path d="M105.508 92.75H102.664C101.094 92.75 99.8203 94.0215 99.8203 95.59C99.8203 97.1584 101.094 98.4299 102.664 98.4299H105.508C107.079 98.4299 108.353 97.1584 108.353 95.59C108.353 94.0215 107.079 92.75 105.508 92.75Z" fill="#9CDCFE"/>
<path d="M105.508 180.314H102.664C101.094 180.314 99.8203 181.586 99.8203 183.154C99.8203 184.723 101.094 185.994 102.664 185.994H105.508C107.079 185.994 108.353 184.723 108.353 183.154C108.353 181.586 107.079 180.314 105.508 180.314Z" fill="#9CDCFE"/>
<path d="M128.261 102.688H102.664C101.094 102.688 99.8203 103.959 99.8203 105.527C99.8203 107.096 101.094 108.367 102.664 108.367H128.261C129.832 108.367 131.105 107.096 131.105 105.527C131.105 103.959 129.832 102.688 128.261 102.688Z" fill="#9CDCFE"/>
<path d="M128.261 190.254H102.664C101.094 190.254 99.8203 191.525 99.8203 193.094C99.8203 194.662 101.094 195.934 102.664 195.934H128.261C129.832 195.934 131.105 194.662 131.105 193.094C131.105 191.525 129.832 190.254 128.261 190.254Z" fill="#9CDCFE"/>
<path d="M114.515 112.629H102.664C101.094 112.629 99.8203 113.9 99.8203 115.469C99.8203 117.037 101.094 118.309 102.664 118.309H114.515C116.085 118.309 117.359 117.037 117.359 115.469C117.359 113.9 116.085 112.629 114.515 112.629Z" fill="#9CDCFE"/>
<path d="M128.261 200.193H102.664C101.094 200.193 99.8203 201.465 99.8203 203.033C99.8203 204.602 101.094 205.873 102.664 205.873H128.261C129.832 205.873 131.105 204.602 131.105 203.033C131.105 201.465 129.832 200.193 128.261 200.193Z" fill="#9CDCFE"/>
<path d="M111.197 122.568H102.664C101.094 122.568 99.8203 123.84 99.8203 125.408C99.8203 126.977 101.094 128.248 102.664 128.248H111.197C112.767 128.248 114.041 126.977 114.041 125.408C114.041 123.84 112.767 122.568 111.197 122.568Z" fill="#9CDCFE"/>
<path d="M128.261 210.135H102.664C101.094 210.135 99.8203 211.406 99.8203 212.975C99.8203 214.543 101.094 215.815 102.664 215.815H128.261C129.832 215.815 131.105 214.543 131.105 212.975C131.105 211.406 129.832 210.135 128.261 210.135Z" fill="#9CDCFE"/>
<path d="M111.197 132.51H102.664C101.094 132.51 99.8203 133.781 99.8203 135.35C99.8203 136.918 101.094 138.19 102.664 138.19H111.197C112.767 138.19 114.041 136.918 114.041 135.35C114.041 133.781 112.767 132.51 111.197 132.51Z" fill="#9CDCFE"/>
<path d="M114.515 220.072H102.664C101.094 220.072 99.8203 221.344 99.8203 222.912C99.8203 224.481 101.094 225.752 102.664 225.752H114.515C116.085 225.752 117.359 224.481 117.359 222.912C117.359 221.344 116.085 220.072 114.515 220.072Z" fill="#9CDCFE"/>
<path d="M114.515 142.449H102.664C101.094 142.449 99.8203 143.721 99.8203 145.289C99.8203 146.858 101.094 148.129 102.664 148.129H114.515C116.085 148.129 117.359 146.858 117.359 145.289C117.359 143.721 116.085 142.449 114.515 142.449Z" fill="#9CDCFE"/>
<path d="M116.885 230.014H102.664C101.094 230.014 99.8203 231.285 99.8203 232.854C99.8203 234.422 101.094 235.694 102.664 235.694H116.885C118.455 235.694 119.729 234.422 119.729 232.854C119.729 231.285 118.455 230.014 116.885 230.014Z" fill="#9CDCFE"/>
<path d="M124.943 239.953H102.664C101.094 239.953 99.8203 241.225 99.8203 242.793C99.8203 244.362 101.094 245.633 102.664 245.633H124.943C126.514 245.633 127.787 244.362 127.787 242.793C127.787 241.225 126.514 239.953 124.943 239.953Z" fill="#9CDCFE"/>
<path d="M121.15 82.8086H112.617C111.047 82.8086 109.773 84.0801 109.773 85.6486C109.773 87.217 111.047 88.4885 112.617 88.4885H121.15C122.72 88.4885 123.994 87.217 123.994 85.6486C123.994 84.0801 122.72 82.8086 121.15 82.8086Z" fill="#3DC9B0"/>
<path d="M121.15 171.322H112.617C111.047 171.322 109.773 172.594 109.773 174.162C109.773 175.731 111.047 177.002 112.617 177.002H121.15C122.72 177.002 123.994 175.731 123.994 174.162C123.994 172.594 122.72 171.322 121.15 171.322Z" fill="#3DC9B0"/>
<path d="M118.306 268.826H109.774C108.203 268.826 106.93 270.098 106.93 271.666C106.93 273.235 108.203 274.506 109.774 274.506H118.306C119.877 274.506 121.15 273.235 121.15 271.666C121.15 270.098 119.877 268.826 118.306 268.826Z" fill="#3DC9B0"/>
<path d="M114.513 277.82H105.981C104.41 277.82 103.137 279.092 103.137 280.66C103.137 282.229 104.41 283.5 105.981 283.5H114.513C116.084 283.5 117.357 282.229 117.357 280.66C117.357 279.092 116.084 277.82 114.513 277.82Z" fill="#3DC9B0"/>
<path d="M118.306 286.812H105.508C103.937 286.812 102.664 288.084 102.664 289.652C102.664 291.221 103.937 292.492 105.508 292.492H118.306C119.877 292.492 121.15 291.221 121.15 289.652C121.15 288.084 119.877 286.812 118.306 286.812Z" fill="#3DC9B0"/>
<path d="M208.368 132.51H199.836C198.266 132.51 196.992 133.781 196.992 135.35C196.992 136.918 198.266 138.19 199.836 138.19H208.368C209.939 138.19 211.212 136.918 211.212 135.35C211.212 133.781 209.939 132.51 208.368 132.51Z" fill="#3DC9B0"/>
<path d="M199.837 220.072H183.246C181.676 220.072 180.402 221.344 180.402 222.912C180.402 224.481 181.676 225.752 183.246 225.752H199.837C201.407 225.752 202.681 224.481 202.681 222.912C202.681 221.344 201.407 220.072 199.837 220.072Z" fill="#3DC9B0"/>
<path d="M130.633 84.2286C130.633 83.4443 129.996 82.8086 129.211 82.8086C128.426 82.8086 127.789 83.4443 127.789 84.2286V87.0685C127.789 87.8528 128.426 88.4885 129.211 88.4885C129.996 88.4885 130.633 87.8528 130.633 87.0685V84.2286Z" fill="#5F5F5F"/>
<path d="M130.633 172.742C130.633 171.958 129.996 171.322 129.211 171.322C128.426 171.322 127.789 171.958 127.789 172.742V175.582C127.789 176.366 128.426 177.002 129.211 177.002C129.996 177.002 130.633 176.366 130.633 175.582V172.742Z" fill="#5F5F5F"/>
<path d="M127.789 271.191C127.789 270.407 127.153 269.771 126.367 269.771C125.582 269.771 124.945 270.407 124.945 271.191V274.031C124.945 274.816 125.582 275.451 126.367 275.451C127.153 275.451 127.789 274.816 127.789 274.031V271.191Z" fill="#5F5F5F"/>
<path d="M92.2386 249.893C92.2386 249.108 91.6019 248.473 90.8166 248.473C90.0312 248.473 89.3945 249.108 89.3945 249.893V252.733C89.3945 253.517 90.0312 254.153 90.8166 254.153C91.6019 254.153 92.2386 253.517 92.2386 252.733V249.893Z" fill="#5F5F5F"/>
<path d="M77.5436 153.809C77.5436 152.24 76.2703 150.969 74.6995 150.969C73.1288 150.969 71.8555 152.24 71.8555 153.809C71.8555 155.377 73.1288 156.649 74.6995 156.649C76.2703 156.649 77.5436 155.377 77.5436 153.809Z" fill="#5F5F5F"/>
<path d="M77.5436 163.748C77.5436 162.18 76.2703 160.908 74.6995 160.908C73.1288 160.908 71.8555 162.18 71.8555 163.748C71.8555 165.317 73.1288 166.588 74.6995 166.588C76.2703 166.588 77.5436 165.317 77.5436 163.748Z" fill="#5F5F5F"/>
<path d="M77.5436 173.688C77.5436 172.119 76.2703 170.848 74.6995 170.848C73.1288 170.848 71.8555 172.119 71.8555 173.688C71.8555 175.256 73.1288 176.528 74.6995 176.528C76.2703 176.528 77.5436 175.256 77.5436 173.688Z" fill="#5F5F5F"/>
<path d="M77.5436 183.627C77.5436 182.059 76.2703 180.787 74.6995 180.787C73.1288 180.787 71.8555 182.059 71.8555 183.627C71.8555 185.196 73.1288 186.467 74.6995 186.467C76.2703 186.467 77.5436 185.196 77.5436 183.627Z" fill="#5F5F5F"/>
<path d="M77.5436 193.568C77.5436 192 76.2703 190.729 74.6995 190.729C73.1288 190.729 71.8555 192 71.8555 193.568C71.8555 195.137 73.1288 196.408 74.6995 196.408C76.2703 196.408 77.5436 195.137 77.5436 193.568Z" fill="#5F5F5F"/>
<path d="M77.5436 203.508C77.5436 201.939 76.2703 200.668 74.6995 200.668C73.1288 200.668 71.8555 201.939 71.8555 203.508C71.8555 205.076 73.1288 206.348 74.6995 206.348C76.2703 206.348 77.5436 205.076 77.5436 203.508Z" fill="#5F5F5F"/>
<path d="M77.5436 213.447C77.5436 211.879 76.2703 210.607 74.6995 210.607C73.1288 210.607 71.8555 211.879 71.8555 213.447C71.8555 215.016 73.1288 216.287 74.6995 216.287C76.2703 216.287 77.5436 215.016 77.5436 213.447Z" fill="#5F5F5F"/>
<path d="M77.5436 223.387C77.5436 221.818 76.2703 220.547 74.6995 220.547C73.1288 220.547 71.8555 221.818 71.8555 223.387C71.8555 224.955 73.1288 226.227 74.6995 226.227C76.2703 226.227 77.5436 224.955 77.5436 223.387Z" fill="#5F5F5F"/>
<path d="M77.5436 233.326C77.5436 231.758 76.2703 230.486 74.6995 230.486C73.1288 230.486 71.8555 231.758 71.8555 233.326C71.8555 234.895 73.1288 236.166 74.6995 236.166C76.2703 236.166 77.5436 234.895 77.5436 233.326Z" fill="#5F5F5F"/>
<path d="M77.5436 243.266C77.5436 241.697 76.2703 240.426 74.6995 240.426C73.1288 240.426 71.8555 241.697 71.8555 243.266C71.8555 244.834 73.1288 246.106 74.6995 246.106C76.2703 246.106 77.5436 244.834 77.5436 243.266Z" fill="#5F5F5F"/>
<path d="M77.5436 253.207C77.5436 251.639 76.2703 250.367 74.6995 250.367C73.1288 250.367 71.8555 251.639 71.8555 253.207C71.8555 254.776 73.1288 256.047 74.6995 256.047C76.2703 256.047 77.5436 254.776 77.5436 253.207Z" fill="#5F5F5F"/>
<path d="M77.5436 263.147C77.5436 261.578 76.2703 260.307 74.6995 260.307C73.1288 260.307 71.8555 261.578 71.8555 263.147C71.8555 264.715 73.1288 265.987 74.6995 265.987C76.2703 265.987 77.5436 264.715 77.5436 263.147Z" fill="#5F5F5F"/>
<path d="M77.5436 273.088C77.5436 271.52 76.2703 270.248 74.6995 270.248C73.1288 270.248 71.8555 271.52 71.8555 273.088C71.8555 274.656 73.1288 275.928 74.6995 275.928C76.2703 275.928 77.5436 274.656 77.5436 273.088Z" fill="#5F5F5F"/>
<path d="M77.5436 283.025C77.5436 281.457 76.2703 280.186 74.6995 280.186C73.1288 280.186 71.8555 281.457 71.8555 283.025C71.8555 284.594 73.1288 285.865 74.6995 285.865C76.2703 285.865 77.5436 284.594 77.5436 283.025Z" fill="#5F5F5F"/>
<path d="M77.5436 145.289C77.5436 143.721 76.2703 142.449 74.6995 142.449C73.1288 142.449 71.8555 143.721 71.8555 145.289C71.8555 146.858 73.1288 148.129 74.6995 148.129C76.2703 148.129 77.5436 146.858 77.5436 145.289Z" fill="#5F5F5F"/>
<path d="M77.5436 135.35C77.5436 133.781 76.2703 132.51 74.6995 132.51C73.1288 132.51 71.8555 133.781 71.8555 135.35C71.8555 136.918 73.1288 138.19 74.6995 138.19C76.2703 138.19 77.5436 136.918 77.5436 135.35Z" fill="#EDEDED"/>
<path d="M77.5436 125.408C77.5436 123.84 76.2703 122.568 74.6995 122.568C73.1288 122.568 71.8555 123.84 71.8555 125.408C71.8555 126.977 73.1288 128.248 74.6995 128.248C76.2703 128.248 77.5436 126.977 77.5436 125.408Z" fill="#5F5F5F"/>
<path d="M77.5436 115.469C77.5436 113.9 76.2703 112.629 74.6995 112.629C73.1288 112.629 71.8555 113.9 71.8555 115.469C71.8555 117.037 73.1288 118.309 74.6995 118.309C76.2703 118.309 77.5436 117.037 77.5436 115.469Z" fill="#5F5F5F"/>
<path d="M78.0162 105.527C78.0162 103.959 76.7429 102.688 75.1722 102.688C73.6015 102.688 72.3281 103.959 72.3281 105.527C72.3281 107.096 73.6015 108.367 75.1722 108.367C76.7429 108.367 78.0162 107.096 78.0162 105.527Z" fill="#5F5F5F"/>
<path d="M78.0162 95.59C78.0162 94.0215 76.7429 92.75 75.1722 92.75C73.6015 92.75 72.3281 94.0215 72.3281 95.59C72.3281 97.1584 73.6015 98.4299 75.1722 98.4299C76.7429 98.4299 78.0162 97.1584 78.0162 95.59Z" fill="#5F5F5F"/>
<path d="M78.0162 88.4884C78.0162 86.9199 76.7429 85.6484 75.1722 85.6484C73.6015 85.6484 72.3281 86.9199 72.3281 88.4884C72.3281 90.0569 73.6015 91.3284 75.1722 91.3284C76.7429 91.3284 78.0162 90.0569 78.0162 88.4884Z" fill="#5F5F5F"/>
<path d="M212.633 104.107C212.633 103.323 211.996 102.688 211.211 102.688C210.426 102.688 209.789 103.323 209.789 104.107V106.947C209.789 107.732 210.426 108.367 211.211 108.367C211.996 108.367 212.633 107.732 212.633 106.947V104.107Z" fill="#5F5F5F"/>
<path d="M212.633 191.674C212.633 190.89 211.996 190.254 211.211 190.254C210.426 190.254 209.789 190.89 209.789 191.674V194.514C209.789 195.298 210.426 195.934 211.211 195.934C211.996 195.934 212.633 195.298 212.633 194.514V191.674Z" fill="#5F5F5F"/>
<path d="M218.325 211.555C218.325 210.771 217.688 210.135 216.902 210.135C216.117 210.135 215.48 210.771 215.48 211.555V214.395C215.48 215.179 216.117 215.815 216.902 215.815C217.688 215.815 218.325 215.179 218.325 214.395V211.555Z" fill="#5F5F5F"/>
<path d="M207.418 221.492C207.418 220.708 206.782 220.072 205.996 220.072C205.211 220.072 204.574 220.708 204.574 221.492V224.332C204.574 225.116 205.211 225.752 205.996 225.752C206.782 225.752 207.418 225.116 207.418 224.332V221.492Z" fill="#5F5F5F"/>
<path d="M215.477 133.93C215.477 133.146 214.84 132.51 214.055 132.51C213.269 132.51 212.633 133.146 212.633 133.93V136.77C212.633 137.554 213.269 138.19 214.055 138.19C214.84 138.19 215.477 137.554 215.477 136.77V133.93Z" fill="#5F5F5F"/>
<path d="M256.243 94.17C256.243 93.3857 255.606 92.75 254.82 92.75C254.035 92.75 253.398 93.3857 253.398 94.17V97.0099C253.398 97.7942 254.035 98.4299 254.82 98.4299C255.606 98.4299 256.243 97.7942 256.243 97.0099V94.17Z" fill="#5F5F5F"/>
<path d="M256.243 181.734C256.243 180.95 255.606 180.314 254.82 180.314C254.035 180.314 253.398 180.95 253.398 181.734V184.574C253.398 185.359 254.035 185.994 254.82 185.994C255.606 185.994 256.243 185.359 256.243 184.574V181.734Z" fill="#5F5F5F"/>
<path d="M159.075 123.988C159.075 123.204 158.438 122.568 157.652 122.568C156.867 122.568 156.23 123.204 156.23 123.988V126.828C156.23 127.613 156.867 128.248 157.652 128.248C158.438 128.248 159.075 127.613 159.075 126.828V123.988Z" fill="#5F5F5F"/>
<path d="M151.961 143.869C151.961 143.085 151.325 142.449 150.539 142.449C149.754 142.449 149.117 143.085 149.117 143.869V146.709C149.117 147.493 149.754 148.129 150.539 148.129C151.325 148.129 151.961 147.493 151.961 146.709V143.869Z" fill="#5F5F5F"/>
<path d="M92.2386 152.389C92.2386 151.604 91.6019 150.969 90.8166 150.969C90.0312 150.969 89.3945 151.604 89.3945 152.389V155.229C89.3945 156.013 90.0312 156.649 90.8166 156.649C91.6019 156.649 92.2386 156.013 92.2386 155.229V152.389Z" fill="#5F5F5F"/>
<path d="M151.961 231.434C151.961 230.649 151.325 230.014 150.539 230.014C149.754 230.014 149.117 230.649 149.117 231.434V234.274C149.117 235.058 149.754 235.694 150.539 235.694C151.325 235.694 151.961 235.058 151.961 234.274V231.434Z" fill="#5F5F5F"/>
<path d="M148.645 241.373C148.645 240.589 148.008 239.953 147.223 239.953C146.437 239.953 145.801 240.589 145.801 241.373V244.213C145.801 244.997 146.437 245.633 147.223 245.633C148.008 245.633 148.645 244.997 148.645 244.213V241.373Z" fill="#5F5F5F"/>
<path d="M58.6914 64.1344H110.179C113.239 64.1344 115.72 61.657 115.72 58.601V50.9925C115.72 47.9364 118.201 45.459 121.262 45.459H169.32C172.381 45.459 174.861 47.9364 174.861 50.9925V58.601C174.861 61.657 177.342 64.1344 180.403 64.1344H401.569" stroke="#818181"/>
<path d="M71.854 57.2176C73.7668 57.2176 75.3175 55.6692 75.3175 53.7592C75.3175 51.8492 73.7668 50.3008 71.854 50.3008C69.9412 50.3008 68.3906 51.8492 68.3906 53.7592C68.3906 55.6692 69.9412 57.2176 71.854 57.2176Z" fill="#333232"/>
<path d="M85.0142 57.2176C86.927 57.2176 88.4776 55.6692 88.4776 53.7592C88.4776 51.8492 86.927 50.3008 85.0142 50.3008C83.1014 50.3008 81.5508 51.8492 81.5508 53.7592C81.5508 55.6692 83.1014 57.2176 85.0142 57.2176Z" fill="#333232"/>
<path d="M98.1744 57.2176C100.087 57.2176 101.638 55.6692 101.638 53.7592C101.638 51.8492 100.087 50.3008 98.1744 50.3008C96.2616 50.3008 94.7109 51.8492 94.7109 53.7592C94.7109 55.6692 96.2616 57.2176 98.1744 57.2176Z" fill="#333232"/>
</g>
<path d="M396.031 42.3457H63.5428C60.6736 42.3457 58.3477 44.6683 58.3477 47.5333V281.322C58.3477 284.187 60.6736 286.51 63.5428 286.51H396.031C398.9 286.51 401.226 284.187 401.226 281.322V47.5333C401.226 44.6683 398.9 42.3457 396.031 42.3457Z" stroke="#818181"/>
<mask id="mask1_1458_2729" style="mask-type:luminance" maskUnits="userSpaceOnUse" x="140" y="138" width="344" height="245">
<path d="M478.459 138.145H145.971C142.911 138.145 140.43 140.622 140.43 143.678V377.467C140.43 380.523 142.911 383.001 145.971 383.001H478.459C481.519 383.001 484 380.523 484 377.467V143.678C484 140.622 481.519 138.145 478.459 138.145Z" fill="white"/>
</mask>
<g mask="url(#mask1_1458_2729)">
<path d="M484 138.145H140.43V383.001H484V138.145Z" fill="#18181B"/>
<path d="M140.43 166.504H484" stroke="#818181"/>
<path d="M304.594 320.98H336.222C337.119 320.98 337.843 319.475 337.843 317.617V238.16C337.843 236.303 337.843 234.797 339.574 234.797H385.291" stroke="#575757"/>
<path d="M374.636 230.109C374.513 230.279 374.532 230.533 374.679 230.676L378.607 234.509L374.679 238.342C374.532 238.485 374.513 238.739 374.636 238.909C374.759 239.08 374.977 239.102 375.124 238.959L379.352 234.833C379.373 234.815 379.393 234.793 379.411 234.768C379.46 234.701 379.487 234.62 379.492 234.539C379.499 234.438 379.472 234.333 379.412 234.25C379.393 234.224 379.372 234.201 379.35 234.183L375.124 230.059C374.977 229.916 374.758 229.938 374.636 230.109Z" fill="#575757"/>
<path d="M157.749 156.819C159.661 156.819 161.212 155.271 161.212 153.361C161.212 151.451 159.661 149.902 157.749 149.902C155.836 149.902 154.285 151.451 154.285 153.361C154.285 155.271 155.836 156.819 157.749 156.819Z" fill="#333232"/>
<path d="M170.909 156.819C172.822 156.819 174.372 155.271 174.372 153.361C174.372 151.451 172.822 149.902 170.909 149.902C168.996 149.902 167.445 151.451 167.445 153.361C167.445 155.271 168.996 156.819 170.909 156.819Z" fill="#333232"/>
<path d="M184.069 156.819C185.982 156.819 187.532 155.271 187.532 153.361C187.532 151.451 185.982 149.902 184.069 149.902C182.156 149.902 180.605 151.451 180.605 153.361C180.605 155.271 182.156 156.819 184.069 156.819Z" fill="#333232"/>
<mask id="mask2_1458_2729" style="mask-type:luminance" maskUnits="userSpaceOnUse" x="177" y="212" width="128" height="80">
<path d="M293.511 212.5H188.224C182.103 212.5 177.141 217.455 177.141 223.567V280.285C177.141 286.397 182.103 291.352 188.224 291.352H293.511C299.632 291.352 304.594 286.397 304.594 280.285V223.567C304.594 217.455 299.632 212.5 293.511 212.5Z" fill="white"/>
</mask>
<g mask="url(#mask2_1458_2729)">
<path d="M293.511 212.5H188.224C182.103 212.5 177.141 217.455 177.141 223.567V280.285C177.141 286.397 182.103 291.352 188.224 291.352H293.511C299.632 291.352 304.594 286.397 304.594 280.285V223.567C304.594 217.455 299.632 212.5 293.511 212.5Z" fill="#27272A"/>
<path d="M304.594 212.5H177.141V227.717H304.594V212.5Z" fill="#18181B"/>
<path d="M247.795 218.033H233.941C232.794 218.033 231.863 218.962 231.863 220.108C231.863 221.254 232.794 222.183 233.941 222.183H247.795C248.943 222.183 249.873 221.254 249.873 220.108C249.873 218.962 248.943 218.033 247.795 218.033Z" fill="#575757"/>
<path d="M304.594 227.717H177.141V291.352H304.594V227.717Z" fill="#27272A"/>
<path d="M220.086 280.285H213.851C212.704 280.285 211.773 281.214 211.773 282.36C211.773 283.506 212.704 284.435 213.851 284.435H220.086C221.233 284.435 222.164 283.506 222.164 282.36C222.164 281.214 221.233 280.285 220.086 280.285Z" fill="#569CD6"/>
<path d="M197.23 280.285H188.918C187.77 280.285 186.84 281.214 186.84 282.36C186.84 283.506 187.77 284.435 188.918 284.435H197.23C198.378 284.435 199.308 283.506 199.308 282.36C199.308 281.214 198.378 280.285 197.23 280.285Z" fill="#9CDCFE"/>
<path d="M253.337 271.293H236.019C234.872 271.293 233.941 272.222 233.941 273.368C233.941 274.514 234.872 275.443 236.019 275.443H253.337C254.484 275.443 255.415 274.514 255.415 273.368C255.415 272.222 254.484 271.293 253.337 271.293Z" fill="#CC6566"/>
<path d="M220.086 271.293H213.851C212.704 271.293 211.773 272.222 211.773 273.368C211.773 274.514 212.704 275.443 213.851 275.443H220.086C221.233 275.443 222.164 274.514 222.164 273.368C222.164 272.222 221.233 271.293 220.086 271.293Z" fill="#569CD6"/>
<path d="M195.152 271.293H188.918C187.77 271.293 186.84 272.222 186.84 273.368C186.84 274.514 187.77 275.443 188.918 275.443H195.152C196.3 275.443 197.23 274.514 197.23 273.368C197.23 272.222 196.3 271.293 195.152 271.293Z" fill="#9CDCFE"/>
<path d="M265.113 271.293H258.879C257.731 271.293 256.801 272.222 256.801 273.368C256.801 274.514 257.731 275.443 258.879 275.443H265.113C266.261 275.443 267.191 274.514 267.191 273.368C267.191 272.222 266.261 271.293 265.113 271.293Z" fill="#3DC9B0"/>
<path d="M224.934 262.301H213.851C212.704 262.301 211.773 263.23 211.773 264.376C211.773 265.522 212.704 266.451 213.851 266.451H224.934C226.082 266.451 227.012 265.522 227.012 264.376C227.012 263.23 226.082 262.301 224.934 262.301Z" fill="#569CD6"/>
<path d="M195.152 262.301H188.918C187.77 262.301 186.84 263.23 186.84 264.376C186.84 265.522 187.77 266.451 188.918 266.451H195.152C196.3 266.451 197.23 265.522 197.23 264.376C197.23 263.23 196.3 262.301 195.152 262.301Z" fill="#9CDCFE"/>
<path d="M217.315 235.326H213.851C212.704 235.326 211.773 236.255 211.773 237.401C211.773 238.547 212.704 239.476 213.851 239.476H217.315C218.463 239.476 219.393 238.547 219.393 237.401C219.393 236.255 218.463 235.326 217.315 235.326Z" fill="#569CD6"/>
<path d="M240.176 235.326H236.019C234.872 235.326 233.941 236.255 233.941 237.401C233.941 238.547 234.872 239.476 236.019 239.476H240.176C241.323 239.476 242.254 238.547 242.254 237.401C242.254 236.255 241.323 235.326 240.176 235.326Z" fill="#CC6566"/>
<path d="M263.034 235.326H246.41C245.262 235.326 244.332 236.255 244.332 237.401C244.332 238.547 245.262 239.476 246.41 239.476H263.034C264.182 239.476 265.113 238.547 265.113 237.401C265.113 236.255 264.182 235.326 263.034 235.326Z" fill="#CC6566"/>
<path d="M293.509 235.326H269.266C268.118 235.326 267.188 236.255 267.188 237.401C267.188 238.547 268.118 239.476 269.266 239.476H293.509C294.657 239.476 295.587 238.547 295.587 237.401C295.587 236.255 294.657 235.326 293.509 235.326Z" fill="#9CDCFE"/>
<path d="M190.996 235.326H188.918C187.77 235.326 186.84 236.255 186.84 237.401C186.84 238.547 187.77 239.476 188.918 239.476H190.996C192.144 239.476 193.074 238.547 193.074 237.401C193.074 236.255 192.144 235.326 190.996 235.326Z" fill="#9CDCFE"/>
<path d="M253.337 244.318H236.019C234.872 244.318 233.941 245.247 233.941 246.393C233.941 247.539 234.872 248.468 236.019 248.468H253.337C254.484 248.468 255.415 247.539 255.415 246.393C255.415 245.247 254.484 244.318 253.337 244.318Z" fill="#CC6566"/>
<path d="M263.035 244.318H258.879C257.731 244.318 256.801 245.247 256.801 246.393C256.801 247.539 257.731 248.468 258.879 248.468H263.035C264.183 248.468 265.113 247.539 265.113 246.393C265.113 245.247 264.183 244.318 263.035 244.318Z" fill="#9CDCFE"/>
<path d="M229.783 244.318H213.851C212.704 244.318 211.773 245.247 211.773 246.393C211.773 247.539 212.704 248.468 213.851 248.468H229.783C230.931 248.468 231.861 247.539 231.861 246.393C231.861 245.247 230.931 244.318 229.783 244.318Z" fill="#569CD6"/>
<path d="M207.62 244.318H188.918C187.77 244.318 186.84 245.247 186.84 246.393C186.84 247.539 187.77 248.468 188.918 248.468H207.62C208.768 248.468 209.698 247.539 209.698 246.393C209.698 245.247 208.768 244.318 207.62 244.318Z" fill="#9CDCFE"/>
<path d="M249.873 253.309H236.019C234.872 253.309 233.941 254.238 233.941 255.384C233.941 256.53 234.872 257.459 236.019 257.459H249.873C251.021 257.459 251.951 256.53 251.951 255.384C251.951 254.238 251.021 253.309 249.873 253.309Z" fill="#CC6566"/>
<path d="M224.934 253.309H213.851C212.704 253.309 211.773 254.238 211.773 255.384C211.773 256.53 212.704 257.459 213.851 257.459H224.934C226.082 257.459 227.012 256.53 227.012 255.384C227.012 254.238 226.082 253.309 224.934 253.309Z" fill="#569CD6"/>
<path d="M197.23 253.309H188.918C187.77 253.309 186.84 254.238 186.84 255.384C186.84 256.53 187.77 257.459 188.918 257.459H197.23C198.378 257.459 199.308 256.53 199.308 255.384C199.308 254.238 198.378 253.309 197.23 253.309Z" fill="#9CDCFE"/>
</g>
<path d="M346.851 270.947H328.148C327.001 270.947 326.07 271.876 326.07 273.022C326.07 274.168 327.001 275.097 328.148 275.097H346.851C347.998 275.097 348.929 274.168 348.929 273.022C348.929 271.876 347.998 270.947 346.851 270.947Z" fill="#575757"/>
<mask id="mask3_1458_2729" style="mask-type:luminance" maskUnits="userSpaceOnUse" x="385" y="196" width="129" height="73">
<path d="M502.011 196.938H396.724C390.603 196.938 385.641 201.892 385.641 208.004V257.806C385.641 263.918 390.603 268.873 396.724 268.873H502.011C508.132 268.873 513.094 263.918 513.094 257.806V208.004C513.094 201.892 508.132 196.938 502.011 196.938Z" fill="white"/>
</mask>
<g mask="url(#mask3_1458_2729)">
<path d="M502.011 196.938H396.724C390.603 196.938 385.641 201.892 385.641 208.004V257.806C385.641 263.918 390.603 268.873 396.724 268.873H502.011C508.132 268.873 513.094 263.918 513.094 257.806V208.004C513.094 201.892 508.132 196.938 502.011 196.938Z" fill="#27272A"/>
<path d="M513.094 212.154H385.641V268.872H513.094V212.154Z" fill="#27272A"/>
<path d="M403.652 255.73H397.418C396.27 255.73 395.34 256.66 395.34 257.806C395.34 258.952 396.27 259.881 397.418 259.881H403.652C404.8 259.881 405.73 258.952 405.73 257.806C405.73 256.66 404.8 255.73 403.652 255.73Z" fill="#9CDCFE"/>
<path d="M428.586 255.73H422.351C421.204 255.73 420.273 256.66 420.273 257.806C420.273 258.952 421.204 259.881 422.351 259.881H428.586C429.733 259.881 430.664 258.952 430.664 257.806C430.664 256.66 429.733 255.73 428.586 255.73Z" fill="#3DC9B0"/>
<path d="M433.434 246.738H422.351C421.204 246.738 420.273 247.667 420.273 248.813C420.273 249.959 421.204 250.888 422.351 250.888H433.434C434.582 250.888 435.512 249.959 435.512 248.813C435.512 247.667 434.582 246.738 433.434 246.738Z" fill="#569CD6"/>
<path d="M403.652 246.738H397.418C396.27 246.738 395.34 247.667 395.34 248.813C395.34 249.959 396.27 250.888 397.418 250.888H403.652C404.8 250.888 405.73 249.959 405.73 248.813C405.73 247.667 404.8 246.738 403.652 246.738Z" fill="#9CDCFE"/>
<path d="M425.815 219.764H422.351C421.204 219.764 420.273 220.693 420.273 221.839C420.273 222.985 421.204 223.914 422.351 223.914H425.815C426.963 223.914 427.893 222.985 427.893 221.839C427.893 220.693 426.963 219.764 425.815 219.764Z" fill="#569CD6"/>
<path d="M448.676 219.764H444.519C443.372 219.764 442.441 220.693 442.441 221.839C442.441 222.985 443.372 223.914 444.519 223.914H448.676C449.823 223.914 450.754 222.985 450.754 221.839C450.754 220.693 449.823 219.764 448.676 219.764Z" fill="#CC6566"/>
<path d="M471.534 219.764H454.91C453.762 219.764 452.832 220.693 452.832 221.839C452.832 222.985 453.762 223.914 454.91 223.914H471.534C472.682 223.914 473.613 222.985 473.613 221.839C473.613 220.693 472.682 219.764 471.534 219.764Z" fill="#CC6566"/>
<path d="M502.009 219.764H477.766C476.618 219.764 475.688 220.693 475.688 221.839C475.688 222.985 476.618 223.914 477.766 223.914H502.009C503.157 223.914 504.087 222.985 504.087 221.839C504.087 220.693 503.157 219.764 502.009 219.764Z" fill="#9CDCFE"/>
<path d="M399.496 219.764H397.418C396.27 219.764 395.34 220.693 395.34 221.839C395.34 222.985 396.27 223.914 397.418 223.914H399.496C400.644 223.914 401.574 222.985 401.574 221.839C401.574 220.693 400.644 219.764 399.496 219.764Z" fill="#9CDCFE"/>
<path d="M461.837 228.756H444.519C443.372 228.756 442.441 229.685 442.441 230.831C442.441 231.977 443.372 232.906 444.519 232.906H461.837C462.984 232.906 463.915 231.977 463.915 230.831C463.915 229.685 462.984 228.756 461.837 228.756Z" fill="#CC6566"/>
<path d="M471.535 228.756H467.379C466.231 228.756 465.301 229.685 465.301 230.831C465.301 231.977 466.231 232.906 467.379 232.906H471.535C472.683 232.906 473.613 231.977 473.613 230.831C473.613 229.685 472.683 228.756 471.535 228.756Z" fill="#9CDCFE"/>
<path d="M438.283 228.756H422.351C421.204 228.756 420.273 229.685 420.273 230.831C420.273 231.977 421.204 232.906 422.351 232.906H438.283C439.431 232.906 440.361 231.977 440.361 230.831C440.361 229.685 439.431 228.756 438.283 228.756Z" fill="#569CD6"/>
<path d="M416.12 228.756H397.418C396.27 228.756 395.34 229.685 395.34 230.831C395.34 231.977 396.27 232.906 397.418 232.906H416.12C417.268 232.906 418.198 231.977 418.198 230.831C418.198 229.685 417.268 228.756 416.12 228.756Z" fill="#9CDCFE"/>
<path d="M458.373 237.746H444.519C443.372 237.746 442.441 238.675 442.441 239.821C442.441 240.967 443.372 241.896 444.519 241.896H458.373C459.521 241.896 460.451 240.967 460.451 239.821C460.451 238.675 459.521 237.746 458.373 237.746Z" fill="#CC6566"/>
<path d="M433.434 237.746H422.351C421.204 237.746 420.273 238.675 420.273 239.821C420.273 240.967 421.204 241.896 422.351 241.896H433.434C434.582 241.896 435.512 240.967 435.512 239.821C435.512 238.675 434.582 237.746 433.434 237.746Z" fill="#569CD6"/>
<path d="M405.73 237.746H397.418C396.27 237.746 395.34 238.675 395.34 239.821C395.34 240.967 396.27 241.896 397.418 241.896H405.73C406.878 241.896 407.808 240.967 407.808 239.821C407.808 238.675 406.878 237.746 405.73 237.746Z" fill="#9CDCFE"/>
<path d="M513.094 196.938H385.641V212.155H513.094V196.938Z" fill="#18181B"/>
<path d="M456.295 202.471H442.441C441.294 202.471 440.363 203.4 440.363 204.546C440.363 205.692 441.294 206.621 442.441 206.621H456.295C457.443 206.621 458.373 205.692 458.373 204.546C458.373 203.4 457.443 202.471 456.295 202.471Z" fill="#575757"/>
</g>
</g>
<path d="M478.46 138.49H145.972C143.103 138.49 140.777 140.813 140.777 143.678V377.467C140.777 380.332 143.103 382.655 145.972 382.655H478.46C481.329 382.655 483.655 380.332 483.655 377.467V143.678C483.655 140.813 481.329 138.49 478.46 138.49Z" stroke="#818181"/>
</g>
<rect width="528" height="296" fill="url(#paint0_linear_1458_2729)"/>
</g>
<defs>
<linearGradient id="paint0_linear_1458_2729" x1="264" y1="0" x2="264" y2="296" gradientUnits="userSpaceOnUse">
<stop offset="0.681538" stopColor="#18181B" stop-opacity="0"/>
<stop offset="1" stopColor="#18181B"/>
</linearGradient>
<clipPath id="clip0_1458_2729">
<rect width="528" height="296" fill="white"/>
</clipPath>
<clipPath id="clip1_1458_2729">
<rect width="426" height="341" fill="white" transform="translate(58 42)"/>
</clipPath>
</defs>
</svg>
